<?xml version="1.0" encoding="UTF-8"?>
<svg width="32px" height="32px" viewBox="0 0 32 32" version="1.1" xmlns="http://www.w3.org/2000/svg" xmlns:xlink="http://www.w3.org/1999/xlink">
    <!-- Generator: Sketch 64 (93537) - https://sketch.com -->
    <title>ico_ks</title>
    <desc>Created with Sketch.</desc>
    <g id="城商行" stroke="none" stroke-width="1" fill="none" fill-rule="evenodd">
        <g id="切图" transform="translate(-209.000000, -935.000000)" fill-rule="nonzero">
            <g id="ico_ks" transform="translate(209.000000, 935.000000)">
                <path d="M16,0 C24.836556,0 32,7.163444 32,16 C32,24.836556 24.836556,32 16,32 C7.163444,32 0,24.836556 0,16 C0,7.163444 7.163444,0 16,0 Z" id="路径" fill="#306BFF"></path>
                <path d="M16,1 C7.71572875,1 1,7.71572875 1,16 C1,24.2842712 7.71572875,31 16,31 C24.2842712,31 31,24.2842712 31,16 C31,7.71572875 24.2842712,1 16,1 Z" id="路径" fill="#FFFFFF"></path>
                <path d="M23.6250195,15.7554785 C23.6250195,15.7554785 17.8073633,12.3648398 14.6099082,10.5013359 C13.811375,10.018418 12.5625723,9.43904492 12.5625723,11.479791 C12.5625723,14.0995547 12.5625723,18.4338535 12.5625723,20.706584 C12.5914883,21.8664648 13.4420703,21.6437227 13.9819043,21.3752754 C16.9677188,19.6352012 23.6250195,15.7554512 23.6250195,15.7554512 L23.6250195,15.7554785 Z" id="路径" fill="#306BFF"></path>
            </g>
        </g>
    </g>
</svg>