<?xml version="1.0" encoding="UTF-8"?>
<svg width="32px" height="32px" viewBox="0 0 32 32" version="1.1" xmlns="http://www.w3.org/2000/svg" xmlns:xlink="http://www.w3.org/1999/xlink">
    <!-- Generator: Sketch 64 (93537) - https://sketch.com -->
    <title>ico_xg</title>
    <desc>Created with Sketch.</desc>
    <g id="城商行" stroke="none" stroke-width="1" fill="none" fill-rule="evenodd">
        <g id="切图" transform="translate(-262.000000, -935.000000)" fill-rule="nonzero">
            <g id="ico_xg" transform="translate(262.000000, 935.000000)">
                <path d="M16,0 C24.836556,0 32,7.163444 32,16 C32,24.836556 24.836556,32 16,32 C7.163444,32 0,24.836556 0,16 C0,7.163444 7.163444,0 16,0 Z" id="路径" fill="#306BFF"></path>
                <path d="M16,1 C7.71572875,1 1,7.71572875 1,16 C1,24.2842712 7.71572875,31 16,31 C24.2842712,31 31,24.2842712 31,16 C31,7.71572875 24.2842712,1 16,1 Z" id="路径" fill="#FFFFFF"></path>
                <path d="M19.7310547,21.6574219 L12.2689453,21.6574219 C11.2066406,21.6574219 10.3425781,20.7933594 10.3425781,19.7310547 L10.3425781,12.2689453 C10.3425781,11.2066406 11.2066406,10.3425781 12.2689453,10.3425781 L16,10.3425781 C16.3759766,10.3425781 16.6822266,10.6474609 16.6822266,11.0248047 C16.6822266,11.4021484 16.3773438,11.7070312 16,11.7070312 L12.2689453,11.7070312 C11.9585938,11.7070312 11.7056641,11.9599609 11.7056641,12.2703125 L11.7056641,19.7310547 C11.7056641,20.0414063 11.9585937,20.2943359 12.2689453,20.2943359 L19.7296875,20.2943359 C20.0400391,20.2943359 20.2929688,20.0414063 20.2929688,19.7310547 L20.2929688,16 C20.2929688,15.6226562 20.5978516,15.3177734 20.9751953,15.3177734 C21.3511719,15.3177734 21.6574219,15.6226563 21.6574219,16 L21.6574219,19.7296875 C21.6574219,20.7933594 20.7919922,21.6574219 19.7310547,21.6574219 Z M14.8460938,17.8361328 C14.6710938,17.8361328 14.4974609,17.7691406 14.3634766,17.6365234 C14.096875,17.3699219 14.096875,16.9392578 14.3634766,16.6726562 L20.1630859,10.8730469 C20.4296875,10.6064453 20.8603516,10.6064453 21.1269531,10.8730469 C21.3935547,11.1396484 21.3935547,11.5703125 21.1269531,11.8369141 L15.3273438,17.6365234 C15.1947266,17.7691406 15.0197266,17.8361328 14.8460938,17.8361328 L14.8460938,17.8361328 Z" id="形状" fill="#306BFF"></path>
            </g>
        </g>
    </g>
</svg>