<?xml version="1.0" encoding="UTF-8"?>
<svg width="32px" height="32px" viewBox="0 0 32 32" version="1.1" xmlns="http://www.w3.org/2000/svg" xmlns:xlink="http://www.w3.org/1999/xlink">
    <!-- Generator: Sketch 64 (93537) - https://sketch.com -->
    <title>ico_js</title>
    <desc>Created with Sketch.</desc>
    <g id="城商行" stroke="none" stroke-width="1" fill="none" fill-rule="evenodd">
        <g id="切图" transform="translate(-314.000000, -935.000000)" fill-rule="nonzero">
            <g id="ico_js" transform="translate(314.000000, 935.000000)">
                <path d="M16,0 C24.836556,0 32,7.163444 32,16 C32,24.7313589 25.006099,31.8292047 16.3148707,31.9969636 L16,32 C7.163444,32 0,24.836556 0,16 C0,7.2686411 6.99390104,0.17079531 15.6851293,0.00303641878 L16,0 Z" id="路径" fill="#306BFF"></path>
                <path d="M16,1 C7.71572875,1 1,7.71572875 1,16 C1,24.2842712 7.71572875,31 16,31 C24.2842712,31 31,24.2842712 31,16 C31,7.71572875 24.2842712,1 16,1 Z" id="路径" fill="#FFFFFF"></path>
                <path d="M19.6339844,21.25 L12.3386719,21.25 C11.4541016,21.25 10.7363281,20.5322266 10.7363281,19.6476562 L10.7363281,12.3523437 C10.7363281,11.4677734 11.4541016,10.75 12.3386719,10.75 L19.6326172,10.75 C20.5185547,10.75 21.2363281,11.4677734 21.2363281,12.3523437 L21.2363281,19.6462891 C21.2363281,20.5322266 20.5185547,21.25 19.6339844,21.25 Z" id="路径" fill="#306BFF"></path>
            </g>
        </g>
    </g>
</svg>