<?xml version="1.0" encoding="UTF-8"?>
<svg width="56px" height="56px" viewBox="0 0 56 56" version="1.1" xmlns="http://www.w3.org/2000/svg" xmlns:xlink="http://www.w3.org/1999/xlink">
    <!-- Generator: Sketch 64 (93537) - https://sketch.com -->
    <title>组合</title>
    <desc>Created with Sketch.</desc>
    <defs>
        <rect id="path-1" x="0" y="0" width="56" height="56"></rect>
    </defs>
    <g id="蓝紫新风格" stroke="none" stroke-width="1" fill="none" fill-rule="evenodd">
        <g id="切图" transform="translate(-33.000000, -1343.000000)">
            <g id="组合" transform="translate(33.000000, 1343.000000)">
                <mask id="mask-2" fill="white">
                    <use xlink:href="#path-1"></use>
                </mask>
                <g id="矩形" opacity="0" fill-rule="nonzero"></g>
                <g id="编组-3" mask="url(#mask-2)" fill="#6353E5">
                    <g transform="translate(10.000000, 10.000000)">
                        <path d="M34.897961,7.3479622 L18.7137659,0.154986585 C18.2486634,-0.0516621951 17.7178829,-0.0516621951 17.2527805,0.154986585 L1.06876098,7.3479622 C0.418785366,7.63640122 2.80664381e-13,8.2805378 2.80664381e-13,8.9915378 C2.80664381e-13,9.7025378 0.418785366,10.3466744 1.06876098,10.6351573 L17.2527805,17.828089 C17.7180585,18.0340793 18.2484878,18.0340793 18.7137659,17.828089 L34.897961,10.6351573 C35.547761,10.3466744 35.9665463,9.7025378 35.9665463,8.9915378 C35.9665463,8.2805378 35.547761,7.63640122 34.897961,7.3479622 Z" id="Fill-1"></path>
                        <path d="M17.9837122,26.9731883 C17.7321073,26.9733622 17.4834439,26.9207232 17.2536585,26.8186939 L1.06941951,19.6257183 C0.164107317,19.2208061 -0.24264878,18.1595963 0.160156098,17.2532744 C0.562829268,16.3470841 1.62320488,15.9379134 2.53022927,16.3385232 L17.9837122,23.2070159 L33.4370195,16.3391817 C34.3442195,15.938572 35.4044195,16.3477866 35.8072244,17.2541085 C36.2098976,18.1602988 35.8033171,19.2215085 34.897961,19.6263768 L18.7137659,26.8193524 C18.4838049,26.9210744 18.2350976,26.9735378 17.9837122,26.9731883 Z" id="Fill-3"></path>
                        <path d="M17.9837122,35.9644518 C17.7321073,35.9646256 17.4834439,35.911811 17.2536585,35.8097817 L1.06941951,28.6168061 C0.164107317,28.2120695 -0.24264878,27.1506841 0.160156098,26.2445378 C0.562829268,25.3383476 1.62320488,24.9291768 2.53022927,25.329611 L17.9837122,32.1982793 L33.4370195,25.3304451 C34.3442195,24.9298354 35.4044195,25.33905 35.8072244,26.2451963 C36.2098976,27.1515622 35.8033171,28.212772 34.897961,28.6176402 L18.7137659,35.8106159 C18.4838049,35.9122939 18.2350976,35.9648012 17.9837122,35.9644518 Z" id="Fill-4"></path>
                    </g>
                </g>
            </g>
        </g>
    </g>
</svg>