<?xml version="1.0" encoding="UTF-8"?>
<svg width="56px" height="56px" viewBox="0 0 56 56" version="1.1" xmlns="http://www.w3.org/2000/svg" xmlns:xlink="http://www.w3.org/1999/xlink">
    <!-- Generator: Sketch 64 (93537) - https://sketch.com -->
    <title>默认</title>
    <desc>Created with Sketch.</desc>
    <defs>
        <rect id="path-1" x="0" y="0" width="56" height="56"></rect>
    </defs>
    <g id="蓝紫新风格" stroke="none" stroke-width="1" fill="none" fill-rule="evenodd">
        <g id="切图" transform="translate(-126.000000, -1342.000000)">
            <g id="默认" transform="translate(126.000000, 1342.000000)">
                <mask id="mask-2" fill="white">
                    <use xlink:href="#path-1"></use>
                </mask>
                <g id="矩形" opacity="0" fill-rule="nonzero"></g>
                <path d="M45,37.2083333 C45,41.5114583 41.5121667,45 37.2083333,45 C32.9052083,45 29.4166666,41.5121667 29.4166666,37.2083333 L29.4166666,31.542375 C29.4164787,30.9785445 29.6403763,30.437753 30.0390646,30.0390646 C30.437753,29.6403763 30.9785445,29.4164787 31.542375,29.4166666 L37.2083333,29.4166666 C41.5114583,29.4166666 45,32.9045 45,37.2083333 L45,37.2083333 Z M42.1666667,37.2083333 C42.1666667,34.4755833 39.94675,32.25 37.2083333,32.25 L32.25,32.25 L32.25,37.2083333 C32.25,39.9410833 34.4699167,42.1666667 37.2083333,42.1666667 C39.9410833,42.1666667 42.1666667,39.94675 42.1666667,37.2083333 Z M11,37.2083333 C11,32.9045 14.4885417,29.4166666 18.7916667,29.4166666 L24.457625,29.4166666 C25.0214555,29.4164787 25.562247,29.6403763 25.9609354,30.0390646 C26.3596237,30.437753 26.5835213,30.9785445 26.5833334,31.542375 L26.5833334,37.2083333 C26.5833334,41.5121666 23.0947916,45 18.7916667,45 C14.4878334,45 11,41.5114583 11,37.2083333 Z M13.8333333,37.2083333 C13.8333333,39.94675 16.0589166,42.1666667 18.7916667,42.1666667 C21.5300834,42.1666667 23.75,39.9410834 23.75,37.2083333 L23.75,32.25 L18.7916667,32.25 C16.05325,32.25 13.8333333,34.4755833 13.8333333,37.2083333 Z M45,18.7916667 C45,23.0955 41.5114583,26.5833334 37.2083333,26.5833334 L31.542375,26.5833334 C30.9785445,26.5835213 30.437753,26.3596237 30.0390646,25.9609354 C29.6403763,25.562247 29.4164787,25.0214555 29.4166666,24.457625 L29.4166666,18.7916667 C29.4166666,14.4878334 32.9052084,11 37.2083333,11 C41.5121666,11 45,14.4885417 45,18.7916667 Z M42.1666667,18.7916667 C42.1666667,16.05325 39.9410834,13.8333333 37.2083333,13.8333333 C34.4699166,13.8333333 32.25,16.0589166 32.25,18.7916667 L32.25,23.75 L37.2083333,23.75 C39.94675,23.75 42.1666667,21.5244167 42.1666667,18.7916667 Z M11,18.7916667 C11,14.4885417 14.4878333,11 18.7916667,11 C23.0947917,11 26.5833334,14.4878333 26.5833334,18.7916667 L26.5833334,24.457625 C26.5835213,25.0214555 26.3596237,25.562247 25.9609354,25.9609354 C25.562247,26.3596237 25.0214555,26.5835213 24.457625,26.5833334 L18.7916667,26.5833334 C14.4885417,26.5833334 11,23.0955 11,18.7916667 Z M13.8333333,18.7916667 C13.8333333,21.5244167 16.05325,23.75 18.7916667,23.75 L23.75,23.75 L23.75,18.7916667 C23.75,16.0589167 21.5300833,13.8333333 18.7916667,13.8333333 C16.0589167,13.8333333 13.8333333,16.05325 13.8333333,18.7916667 Z" id="形状" fill="#6353E5" fill-rule="nonzero" mask="url(#mask-2)"></path>
            </g>
        </g>
    </g>
</svg>