<?xml version="1.0" encoding="UTF-8"?>
<svg width="16px" height="16px" viewBox="0 0 16 16" version="1.1" xmlns="http://www.w3.org/2000/svg" xmlns:xlink="http://www.w3.org/1999/xlink">
    <!-- Generator: Sketch 64 (93537) - https://sketch.com -->
    <title>未通过</title>
    <desc>Created with Sketch.</desc>
    <g id="城商行" stroke="none" stroke-width="1" fill="none" fill-rule="evenodd">
        <g id="切图" transform="translate(-420.000000, -1493.000000)">
            <g id="未通过" transform="translate(420.000000, 1493.000000)">
                <path d="M8,0 C3.58205869,0 0,3.58205869 0,8 C0,12.4179413 3.58205869,16 8,16 C12.4179413,16 16,12.4179413 16,8 C16,3.58205869 12.4179413,0 8,0 Z" id="路径" fill="#FFFFFF" fill-rule="nonzero"></path>
                <path d="M8,1 C11.865625,1 15,4.134375 15,8 C15,11.865625 11.865625,15 8,15 C4.134375,15 1,11.865625 1,8 C1,4.134375 4.134375,1 8,1 Z" id="路径" fill="#FF4E50"></path>
                <path d="M10.0675,10.1275 L9.2425,10.12375 L8,8.6425 L6.75875,10.1225 L5.9325,10.12625 C5.8775,10.12625 5.8325,10.0825 5.8325,10.02625 C5.8325,10.0025 5.84125,9.98 5.85625,9.96125 L7.4825,8.02375 L5.85625,6.0875 C5.84125,6.06875 5.8325,6.04625 5.8325,6.0225 C5.8325,5.9675 5.8775,5.9225 5.9325,5.9225 L6.75875,5.92625 L8,7.4075 L9.24125,5.9275 L10.06625,5.92375 C10.12125,5.92375 10.16625,5.9675 10.16625,6.02375 C10.16625,6.0475 10.1575,6.07 10.1425,6.08875 L8.51875,8.025 L10.14375,9.9625 C10.15875,9.98125 10.1675,10.00375 10.1675,10.0275 C10.1675,10.0825 10.1225,10.1275 10.0675,10.1275 Z" id="路径" fill="#FFFFFF"></path>
            </g>
        </g>
    </g>
</svg>