<?xml version="1.0" encoding="UTF-8"?>
<svg width="240px" height="160px" viewBox="0 0 240 160" version="1.1" xmlns="http://www.w3.org/2000/svg" xmlns:xlink="http://www.w3.org/1999/xlink">
    <!-- Generator: Sketch 64 (93537) - https://sketch.com -->
    <title>基本信息图标</title>
    <desc>Created with Sketch.</desc>
    <g id="蓝紫新风格" stroke="none" stroke-width="1" fill="none" fill-rule="evenodd">
        <g id="1-1-1执行管理-作业管理-基本信息" transform="translate(-184.000000, -366.000000)">
            <g id="编组" transform="translate(104.000000, 142.000000)">
                <g id="基本信息图标" transform="translate(80.000000, 224.000000)">
                    <path d="M210.249699,114.687705 C205.565055,117.988299 198.89906,119.354419 192.452112,120.21721 L191.367035,120.357624 C184.633642,121.210477 177.824857,121.66477 170.99339,121.940846 C167.337872,122.091197 163.682787,122.19748 160.027485,122.292313 L157.162823,122.364032 C153.443363,122.457786 149.716774,122.550027 145.983273,122.640108 C142.327971,122.728677 138.672454,122.811197 135.017152,122.888749 C130.335748,122.985527 125.65456,123.066103 120.973156,123.130477 C117.317638,123.179514 113.662337,123.213213 110.007035,123.231791 C105.324335,123.254689 100.642931,123.247129 95.9628227,123.208893 C92.3049289,123.177354 88.6496274,123.122916 84.9969181,123.045365 C80.3129217,122.943186 75.6315176,122.793267 70.9527057,122.59604 C67.7769721,122.464266 64.6033987,122.305923 61.4315536,122.120576 L59.9868011,122.034167 C46.3716076,121.20054 32.5120936,119.705671 20.5976382,114.980198 L20.276414,114.851017 C20.1165581,114.787291 19.9569181,114.723564 19.7972781,114.656598 C17.6096274,113.768317 15.5142178,112.724716 13.5332997,111.537246 C10.0106355,109.403384 7.10168857,106.798596 5.56469487,103.708839 C3.15583798,98.8623942 4.42950135,93.4145455 7.18053645,88.6761116 C9.93178758,83.9374617 14.0623366,79.659802 17.6349019,75.1972277 C18.6815266,73.890081 19.6741458,72.5338974 20.5976382,71.1433663 C26.3693033,62.4227903 29.2320216,52.3313411 23.1812565,43.9276688 C22.3828407,42.8562016 21.5202664,41.819946 20.5976382,40.8230063 C19.1219946,39.1890189 17.6215086,37.5550315 16.6075032,35.7462826 C14.2431467,31.5371017 14.7510135,26.8034203 15.6129397,22.3067147 C16.7671431,16.3278848 18.8835068,9.88828083 25.4976562,6.15305131 C32.3602304,2.2739514 42.1006445,2.47009901 50.6175122,3.86538254 C63.8594203,6.02063006 76.0817066,10.5322412 88.4193483,14.6007921 C100.757206,18.6693429 113.681563,22.390099 127.246855,22.790387 C130.16077,22.8750675 133.078142,22.7849865 135.977368,22.5207921 C139.841995,22.1833663 143.654344,21.5016022 147.351122,20.4865167 C152.689879,18.9929433 157.547557,16.7461026 161.149069,13.6237264 C168.873354,6.94887489 183.388709,6.44381638 193.854524,10.4749955 C203.841419,14.3214761 210.2996,22.4618182 209.822625,30.5926553 C209.280194,39.6433123 201.299924,47.0846085 193.987377,54.7168677 C193.100392,55.6418722 192.225289,56.569901 191.372868,57.5046265 C190.896972,58.0263186 190.430149,58.5490909 189.9724,59.0731593 C189.170095,59.9979478 188.394578,60.9277048 187.663561,61.8689109 C183.927467,66.6941854 181.286171,72.489829 183.858124,77.6989739 C185.301149,80.6154815 188.054128,82.8411521 191.372868,84.7838344 C198.808547,89.1353735 209.072382,92.0635464 213.689627,98.1549235 C217.668097,103.405113 216.194614,110.491485 210.249699,114.687705" id="Fill-1" fill="#6C63FF" opacity="0.149999991"></path>
                    <path d="M43.6011737,148.582401 C67.6815338,148.582401 87.2023258,150.970088 87.2023258,153.915327 C87.2023258,156.860997 67.6815338,159.248684 43.6011737,159.248684 C19.5208137,159.248684 2.16021602e-05,156.860997 2.16021602e-05,153.915327 C2.16021602e-05,150.970088 19.5208137,148.582401 43.6011737,148.582401" id="Fill-3" fill="#6C63FF" opacity="0.149999991"></path>
                    <path d="M196.361044,148.582401 C220.441404,148.582401 239.962196,150.970088 239.962196,153.915327 C239.962196,156.860997 220.441404,159.248684 196.361044,159.248684 C172.280684,159.248684 152.759676,156.860997 152.759676,153.915327 C152.759676,150.970088 172.280684,148.582401 196.361044,148.582401" id="Fill-5" fill="#6C63FF" opacity="0.149999991"></path>
                    <path d="M113.087654,33.6053357 L61.6189955,33.6053357 C61.0927669,33.6046877 60.6659082,33.178261 60.6659082,32.6522484 L60.6659082,19.8851557 C60.6659082,19.3589271 61.0927669,18.9325005 61.6189955,18.9318524 L113.087654,18.9318524 C113.613883,18.9325005 114.040094,19.3589271 114.040742,19.8851557 L114.040742,32.6522484 C114.040094,33.178261 113.613883,33.6046877 113.087654,33.6053357" id="Fill-7" fill="#3F3D56"></path>
                    <path d="M61.6189307,19.3132169 C61.3033231,19.3134329 61.0471215,19.5694185 61.0471215,19.8850261 L61.0471215,32.6523348 C61.0471215,32.9679424 61.3033231,33.223928 61.6189307,33.224144 L113.08759,33.224144 C113.403413,33.223928 113.659615,32.9679424 113.659615,32.6523348 L113.659615,19.8850261 C113.659615,19.5694185 113.403413,19.3134329 113.08759,19.3132169 L61.6189307,19.3132169 Z" id="Fill-9" fill="#FFFFFF"></path>
                    <path d="M69.6161584,21.8962952 C71.7603888,21.8962952 73.4987147,23.634405 73.4987147,25.7788515 C73.4987147,27.9230819 71.7603888,29.6611917 69.6161584,29.6611917 C67.471928,29.6611917 65.7336022,27.9230819 65.7336022,25.7788515 C65.7336022,23.634405 67.471928,21.8962952 69.6161584,21.8962952" id="Fill-11" fill="#6353E5"></path>
                    <path d="M78.5829559,23.1904158 C78.2256562,23.1908479 77.9361872,23.4809649 77.9366188,23.8382646 C77.9370513,24.1951323 78.2260882,24.4841692 78.5829559,24.4846013 L109.088446,24.4846013 C109.445746,24.4841692 109.734783,24.1940522 109.734783,23.8367525 C109.734351,23.4798848 109.445098,23.1908479 109.088446,23.1904158 L78.5829559,23.1904158 Z" id="Fill-13" fill="#E6E6E6"></path>
                    <path d="M78.5829559,27.0730153 C78.2256562,27.0730153 77.9357552,27.3627003 77.9357552,27.72 C77.9357552,28.0772997 78.2256562,28.3672012 78.5829559,28.3672012 L91.7095086,28.3672012 C92.0668083,28.3676328 92.3569253,28.0781638 92.3573578,27.7208641 C92.3577894,27.3633483 92.0683204,27.0732313 91.7110207,27.0730153 L91.7095086,27.0730153 L78.5829559,27.0730153 Z" id="Fill-15" fill="#E6E6E6"></path>
                    <path d="M90.7430279,79.1145851 L67.8680684,79.1145851 C67.3418398,79.113937 66.9156292,78.6875104 66.9149811,78.1612817 L66.9149811,54.3379874 C66.9156292,53.8119748 67.3418398,53.3855482 67.8680684,53.3849001 L90.7430279,53.3849001 C91.2692565,53.3855482 91.6956832,53.8119748 91.6961152,54.3379874 L91.6961152,78.1612817 C91.6956832,78.6875104 91.2692565,79.113937 90.7430279,79.1145851" id="Fill-17" fill="#3F3D56"></path>
                    <path d="M67.8680468,53.7661134 C67.5524392,53.7661134 67.2962376,54.022315 67.2962376,54.3379226 L67.2962376,78.1614329 C67.2962376,78.4770405 67.5524392,78.7332421 67.8680468,78.7332421 L90.7430063,78.7332421 C91.0588299,78.7332421 91.3145995,78.4770405 91.3150315,78.1614329 L91.3150315,54.3379226 C91.3145995,54.022315 91.0588299,53.7661134 90.7430063,53.7661134 L67.8680468,53.7661134 Z" id="Fill-19" fill="#FFFFFF"></path>
                    <path d="M72.7422502,58.2977282 C72.3849505,58.2981602 72.0954815,58.5880612 72.0959131,58.945577 C72.0963456,59.3022286 72.3853825,59.5914815 72.7422502,59.5919136 L85.8688029,59.5919136 C86.2261026,59.5914815 86.5155716,59.3013645 86.51514,58.9440648 C86.5147075,58.5871971 86.2256706,58.2981602 85.8688029,58.2977282 L72.7422502,58.2977282 Z" id="Fill-21" fill="#E6E6E6"></path>
                    <path d="M72.7422502,62.1101633 C72.3849505,62.1097318 72.0948335,62.3992007 72.094401,62.7565005 C72.0939694,63.1138002 72.3834383,63.4039172 72.7407381,63.4043492 L72.7422502,63.4043492 L85.8688029,63.4043492 C86.2261026,63.4043492 86.5160036,63.1146643 86.5160036,62.7573645 C86.5160036,62.3998488 86.2261026,62.1101633 85.8688029,62.1101633 L72.7422502,62.1101633 Z" id="Fill-23" fill="#E6E6E6"></path>
                    <path d="M79.3055914,74.2016706 C77.0559424,74.2016706 75.2325041,72.3782322 75.2325041,70.1285833 C75.2325041,67.8789343 77.0559424,66.0554959 79.3055914,66.0554959 C81.5552403,66.0554959 83.3786787,67.8789343 83.3786787,70.1285833 C83.3760864,72.3771521 81.5541602,74.1990783 79.3055914,74.2016706" id="Fill-25" fill="#6353E5"></path>
                    <path d="M128.216144,6.48064806e-05 L151.09132,6.48064806e-05 C151.617332,0.000712871287 152.043759,0.427139514 152.044407,0.953152115 L152.044407,24.7764464 C152.043759,25.3026751 151.617332,25.7291017 151.09132,25.7295338 L128.216144,25.7295338 C127.689915,25.7291017 127.263705,25.3026751 127.263057,24.7764464 L127.263057,0.953152115 C127.263705,0.427139514 127.689915,0.000712871287 128.216144,6.48064806e-05" id="Fill-27" fill="#3F3D56"></path>
                    <path d="M151.091233,25.3484284 C151.406841,25.3484284 151.662826,25.0922268 151.662826,24.7766193 L151.662826,0.953108911 C151.662826,0.63750135 151.406841,0.38129973 151.091233,0.38129973 L128.216058,0.38129973 C127.90045,0.38129973 127.64468,0.63750135 127.644248,0.953108911 L127.644248,24.7766193 C127.64468,25.0922268 127.90045,25.3484284 128.216058,25.3484284 L151.091233,25.3484284 Z" id="Fill-29" fill="#FFFFFF"></path>
                    <path d="M146.21703,20.8168142 C146.574329,20.8172457 146.864446,20.5279928 146.864663,20.170477 C146.865095,19.8131773 146.575842,19.5230603 146.218542,19.5226278 L146.21703,19.5226278 L133.090261,19.5226278 C132.732961,19.5221962 132.442844,19.8116652 132.442412,20.1689649 C132.44198,20.5264806 132.731449,20.8163816 133.088965,20.8168142 L133.090261,20.8168142 L146.21703,20.8168142 Z" id="Fill-31" fill="#E6E6E6"></path>
                    <path d="M146.21703,17.0043785 C146.574329,17.0048101 146.864446,16.7153411 146.864663,16.3580414 C146.865095,16.0007417 146.575842,15.7106247 146.218542,15.7101921 L146.21703,15.7101921 L133.090261,15.7101921 C132.732961,15.7097606 132.442844,15.9992295 132.442412,16.3565293 C132.44198,16.713829 132.731449,17.003946 133.088965,17.0043785 L133.090261,17.0043785 L146.21703,17.0043785 Z" id="Fill-33" fill="#E6E6E6"></path>
                    <path d="M139.653689,4.91287129 C141.903122,4.91287129 143.72656,6.73652565 143.72656,8.9859586 C143.72656,11.2356076 141.903122,13.0590459 139.653689,13.0590459 C137.40404,13.0590459 135.580601,11.2356076 135.580601,8.9859586 C135.582977,6.73738974 137.40512,4.91546355 139.653689,4.91287129" id="Fill-35" fill="#6353E5"></path>
                    <path d="M178.813933,70.1943186 L133.393879,70.1943186 C132.867867,70.1938866 132.44144,69.7672439 132.440792,69.2412313 L132.440792,45.608468 C132.44144,45.0822394 132.867867,44.6560288 133.393879,44.6553807 L178.813933,44.6553807 C179.340162,44.6560288 179.767021,45.0822394 179.767021,45.608468 L179.767021,69.2412313 C179.767021,69.7672439 179.340162,70.1938866 178.813933,70.1943186" id="Fill-37" fill="#3F3D56"></path>
                    <path d="M133.393901,45.0365509 C133.078293,45.0369829 132.822092,45.2927525 132.822092,45.60836 L132.822092,69.2411233 C132.822092,69.5569469 133.078293,69.8127165 133.393901,69.8131485 L178.813955,69.8131485 C179.129779,69.8127165 179.385764,69.5569469 179.385764,69.2411233 L179.385764,45.60836 C179.385764,45.2927525 179.129779,45.0369829 178.813955,45.0365509 L133.393901,45.0365509 Z" id="Fill-39" fill="#FFFFFF"></path>
                    <path d="M141.009937,49.1446553 C143.154167,49.1446553 144.892493,50.8829811 144.892493,53.0272115 C144.892493,55.1714419 143.154167,56.9097678 141.009937,56.9097678 C138.865491,56.9097678 137.127381,55.1714419 137.127381,53.0272115 C137.127381,50.8829811 138.865491,49.1446553 141.009937,49.1446553" id="Fill-41" fill="#6353E5"></path>
                    <path d="M149.976518,50.4387758 C149.619219,50.4385599 149.329318,50.7278128 149.328885,51.0851125 C149.328454,51.4424122 149.617707,51.7325293 149.975006,51.7329613 L149.976518,51.7329613 L174.43362,51.7329613 C174.79092,51.7329613 175.080605,51.4432763 175.080605,51.0859766 C175.080605,50.7284608 174.79092,50.4387758 174.43362,50.4387758 L149.976518,50.4387758 Z" id="Fill-43" fill="#E6E6E6"></path>
                    <path d="M149.976518,54.3213749 C149.619219,54.3209433 149.329318,54.6101962 149.328885,54.967712 C149.328454,55.3250117 149.617707,55.6151287 149.975006,55.6155608 L149.976518,55.6155608 L163.103287,55.6155608 C163.460587,55.6155608 163.750272,55.3258758 163.750272,54.96836 C163.750272,54.6110603 163.460587,54.3213749 163.103287,54.3213749 L149.976518,54.3213749 Z" id="Fill-45" fill="#E6E6E6"></path>
                    <path d="M138.031842,60.5283888 C137.539744,60.5283888 137.139024,60.8187219 137.139024,61.1753735 C137.139024,61.5322412 137.539744,61.8225743 138.031842,61.8225743 L174.071374,61.8225743 C174.563687,61.8225743 174.964191,61.5322412 174.964191,61.1753735 C174.964191,60.8187219 174.563687,60.5283888 174.071374,60.5283888 L138.031842,60.5283888 Z" id="Fill-47" fill="#E6E6E6"></path>
                    <path d="M138.031842,64.4108803 C137.539744,64.4108803 137.139024,64.7012133 137.139024,65.058081 C137.139024,65.4147327 137.539744,65.7050657 138.031842,65.7050657 L174.071374,65.7050657 C174.563687,65.7050657 174.964191,65.4147327 174.964191,65.058081 C174.964191,64.7012133 174.563687,64.4108803 174.071374,64.4108803 L138.031842,64.4108803 Z" id="Fill-49" fill="#E6E6E6"></path>
                    <path d="M173.639525,83.9733861 L169.562117,86.0437372 C168.106779,86.7827471 166.702207,86.6565905 166.164313,85.1154923 C165.673728,83.7096238 166.415546,82.172198 167.821415,81.681613 C167.949732,81.6366805 168.081505,81.601685 168.215222,81.5766265 L172.090218,80.8533861 L188.687158,75.3467795 L198.740803,68.2178506 L202.426347,74.0895338 L190.809354,80.3580486 L173.639525,83.9733861 Z" id="Fill-51" fill="#FFB8B8"></path>
                    <polygon id="Fill-53" fill="#FFB8B8" points="192.673059 152.699687 189.553491 152.179723 189.899989 146.286869 193.193023 146.286869"></polygon>
                    <polygon id="Fill-55" fill="#FFB8B8" points="222.950689 146.944115 219.931572 147.885969 217.585361 142.46966 220.524767 140.985591"></polygon>
                    <path d="M221.269566,141.780896 L217.456785,143.340788 L199.258909,119.423741 L193.539737,147.500284 L189.72674,146.807071 C187.280943,122.601419 185.286416,97.9118776 187.733725,86.2346139 L201.858513,85.6280252 L208.271114,106.07879 L211.390682,119.943705 L221.269566,141.780896 Z" id="Fill-57" fill="#2F2E41"></path>
                    <path d="M192.501343,157.465253 L192.501343,157.465253 C191.931046,157.587305 191.336338,157.524227 190.804709,157.284875 L188.951244,156.451032 C187.397401,156.37132 186.339543,156.680662 185.47416,155.551734 C184.977095,154.89438 184.87578,154.019276 185.209534,153.265793 C185.540047,152.509933 186.252918,151.99105 187.074016,151.908961 L189.619399,150.305001 L189.7529,151.507593 C190.916392,152.166675 192.297635,151.881959 193.760965,151.240374 L194.559813,154.036558 C194.975222,155.490167 194.133602,157.005343 192.679777,157.420536 C192.621019,157.437386 192.561397,157.452292 192.501343,157.465253" id="Fill-59" fill="#2F2E41"></path>
                    <path d="M224.186074,151.729491 L224.186074,151.729491 C223.686416,152.030409 223.103374,152.163694 222.522707,152.110121 L220.499017,151.923046 C219.0035,152.352281 218.103122,152.988464 216.918243,152.201714 C216.234751,151.741372 215.854769,150.946628 215.925624,150.12553 C215.992806,149.303352 216.498729,148.581192 217.24854,148.237069 L219.135057,145.893235 L219.651996,146.987384 C220.966272,147.233001 222.180313,146.514945 223.356119,145.433109 L225.019701,147.818203 C225.884436,149.058167 225.580493,150.764522 224.340529,151.629473 C224.28998,151.664468 224.238567,151.697951 224.186074,151.729491" id="Fill-61" fill="#2F2E41"></path>
                    <path d="M196.659132,48.5393195 C200.105109,48.5393195 202.898484,51.3326949 202.898484,54.7784554 C202.898484,58.224432 200.105109,61.0178074 196.659132,61.0178074 C193.213372,61.0178074 190.419996,58.224432 190.419996,54.7784554 C190.419996,51.3326949 193.213372,48.5393195 196.659132,48.5393195" id="Fill-63" fill="#FFB8B8"></path>
                    <polygon id="Fill-65" fill="#FFB8B8" points="204.284846 67.950243 196.13932 66.2171017 195.099392 59.4580018 200.818563 58.2448245"></polygon>
                    <path d="M202.031827,86.4945527 L187.473699,86.4945527 L190.755284,78.2559208 C190.51658,75.4212853 191.718308,73.3362448 193.43784,71.5210153 L195.619226,66.0437876 C199.144266,63.7239316 201.801764,63.8971809 204.631431,66.9102502 C207.986679,71.6607813 205.66423,78.8018074 202.031827,86.4945527" id="Fill-67" fill="#6353E5"></path>
                    <path d="M195.446106,103.999064 L195.031993,108.553231 C194.884234,110.178578 194.030517,111.301242 192.439518,110.937462 C190.987852,110.605653 190.08013,109.160036 190.411723,107.708371 C190.442182,107.57595 190.482362,107.445689 190.532479,107.3191 L191.979824,103.652565 L196.13932,86.6678668 L195.446106,74.3628443 L202.378455,74.3628443 L201.511993,87.5343294 L195.446106,103.999064 Z" id="Fill-69" fill="#FFB8B8"></path>
                    <path d="M202.898441,74.7093429 L194.926164,74.7093429 L195.485012,69.5086229 C195.561051,67.6443564 197.045984,66.1458146 198.909602,66.0524932 C200.899593,65.9531233 202.593419,67.4857966 202.693005,69.4755716 C202.693653,69.4885329 202.694301,69.5014941 202.694733,69.5144554 L202.898441,74.7093429 Z" id="Fill-71" fill="#6353E5"></path>
                    <path d="M204.381062,43.6729145 C205.676328,43.6729145 206.726193,44.7227795 206.726193,46.018045 C206.726193,47.3133105 205.676328,48.3631755 204.381062,48.3631755 C203.086013,48.3631755 202.036148,47.3133105 202.036148,46.018045 C202.036148,44.7227795 203.086013,43.6729145 204.381062,43.6729145" id="Fill-73" fill="#2F2E41"></path>
                    <path d="M201.964731,45.4439244 C202.044659,44.2089289 203.071194,43.2491449 204.308781,43.2521692 C204.260392,43.2459046 204.21222,43.2385599 204.162967,43.2353195 C202.870293,43.1530153 201.755622,44.1339694 201.673102,45.4264266 C201.591014,46.7180198 202.570455,47.8322592 203.862049,47.9158596 C203.911518,47.9190999 203.959906,47.9178038 204.008727,47.9180198 C202.78086,47.7624842 201.885883,46.6789199 201.964731,45.4439244" id="Fill-75" fill="#2F2E41"></path>
                    <path d="M201.951446,46.4454437 C199.859924,44.7103582 193.861005,46.9155068 193.473894,48.0820234 C190.645523,48.4674059 188.504101,50.117595 188.504101,53.0516004 L188.504101,53.0518164 C190.185613,53.7404932 192.098268,53.6555968 194.165379,53.0518164 C197.460788,55.7371809 197.686747,59.1133825 195.682499,62.9909703 L198.148385,63.0402232 L201.204443,58.5735446 L201.350689,63.1043816 L207.002463,62.9909703 L207.002463,56.498009 C207.020824,54.3390891 206.523759,52.2071719 205.552958,50.2787471 C204.672238,48.56764 203.305469,47.5685401 201.951446,46.4454437" id="Fill-77" fill="#2F2E41"></path>
                    <path d="M196.688446,54.7769217 C197.30778,54.7769217 197.809815,55.479856 197.809815,56.3469667 C197.809815,57.2140774 197.30778,57.9170117 196.688446,57.9170117 C196.069113,57.9170117 195.567078,57.2140774 195.567078,56.3469667 C195.567078,55.479856 196.069113,54.7769217 196.688446,54.7769217" id="Fill-79" fill="#FFB8B8"></path>
                    <path d="M55.5829847,58.3392907 C55.5829847,58.3392907 56.2580522,46.6546823 59.7625707,49.3098038 C63.2673051,51.9647093 58.2320576,59.4230711 58.2320576,59.4230711 L55.5829847,58.3392907 Z" id="Fill-81" fill="#FFB9B9"></path>
                    <path d="M42.5441584,92.9988335 C42.5441584,92.9988335 50.3291449,101.738419 45.9735014,102.339176 C41.6180738,102.940148 39.9048065,94.1059442 39.9048065,94.1059442 L42.5441584,92.9988335 Z" id="Fill-83" fill="#FFB9B9"></path>
                    <path d="M32.3854617,51.6296382 L32.3854617,51.6296382 C34.3834455,52.1554347 35.8705383,53.8287381 36.157847,55.8744626 L38.6341026,73.5000972 L42.1057858,87.5594311 C42.1057858,87.5594311 43.8413033,89.1216994 43.1470099,89.9894581 C42.4529325,90.8574329 44.0149847,94.5025815 44.0149847,94.5025815 L39.6757588,95.8911683 C39.6757588,95.8911683 39.1549307,92.2462358 38.2869559,92.0725545 C37.5243996,91.9200432 28.9863618,69.1118344 26.928324,63.5864338 C26.6444716,62.8245257 26.4839676,62.3911863 26.4839676,62.3911863 C26.4839676,62.3911863 26.8311143,50.7616634 32.3854617,51.6296382" id="Fill-85" fill="#575A89"></path>
                    <path d="M33.1781314,143.544518 L35.8434059,148.267831 C37.9074923,152.674671 36.0732529,153.475248 31.0125149,151.290621 L29.8589595,145.713591 L33.1781314,143.544518 Z" id="Fill-87" fill="#FFB9B9"></path>
                    <path d="M34.5228875,149.822214 C34.5228875,149.822214 35.788126,147.762232 36.2458758,148.107003 C36.7034095,148.451773 38.5912223,149.945779 38.5912223,149.945779 L41.0497642,152.300846 C41.0497642,152.300846 49.3564428,153.178974 44.078171,156.089649 C38.7998992,158.999892 35.8829595,156.586715 35.8829595,156.586715 C35.8829595,156.586715 28.4902682,156.971449 28.6092961,154.908659 C28.7287561,152.846085 31.1127705,149.583078 31.1127705,149.583078 C31.1127705,149.583078 34.117847,151.597696 34.5228875,149.822214" id="Fill-89" fill="#2F2E41"></path>
                    <path d="M21.3506247,90.154261 L23.8493465,120.389293 C23.8493465,120.389293 23.9327309,138.46382 26.5980054,141.962074 C29.2632799,145.460328 29.3466643,147.209455 29.3466643,147.209455 L34.843982,144.377627 C34.843982,144.377627 32.0121548,139.658635 32.5949811,138.936259 C32.954441,138.478077 33.2102106,137.947528 33.3445761,137.380904 L31.8453861,118.72355 L34.6774293,86.2395176 L21.3506247,90.154261 Z" id="Fill-91" fill="#2F2E41"></path>
                    <polygon id="Fill-93" fill="#FFB9B9" points="28.1805149 143.544713 25.8483456 149.708025 20.5592727 147.497044 23.3496238 142.878286"></polygon>
                    <path d="M24.2898146,147.632252 C24.2898146,147.632252 26.273541,146.392504 26.5215338,146.888274 C26.7695266,147.384259 27.7612817,149.491766 27.7612817,149.491766 L28.8770333,152.591244 C28.8770333,152.591244 35.6959712,156.930686 29.8690045,157.178463 C24.0418218,157.426671 22.554081,154.079201 22.554081,154.079201 C22.554081,154.079201 15.9831359,151.227716 16.9751071,149.491766 C17.9668623,147.756032 21.4383294,145.955924 21.4383294,145.955924 C21.4383294,145.955924 23.173847,148.99578 24.2898146,147.632252" id="Fill-95" fill="#2F2E41"></path>
                    <path d="M42.5068299,90.2376022 L43.8394671,118.05708 C43.8394671,118.05708 31.6787471,143.2115 30.3463258,143.877926 C29.5440216,144.29204 28.9430495,145.012904 28.6803672,145.876558 L21.3505383,144.044263 L24.6822394,138.713498 L32.0120684,120.889123 C32.0120684,120.889123 33.178153,120.389249 33.5112583,118.723507 C33.8443636,117.057548 34.5107903,117.057548 32.8448317,116.724443 C31.1790891,116.391122 31.1790891,114.725379 31.1790891,114.725379 L25.6817714,89.4046229 L42.5068299,90.2376022 Z" id="Fill-97" fill="#2F2E41"></path>
                    <path d="M29.9324284,38.861595 C30.5219514,35.2289757 33.9445977,32.762225 37.5772169,33.351532 C41.2098362,33.9410549 43.6765869,37.3637012 43.0872799,40.9963204 C42.497757,44.6289397 39.0751107,47.0959064 35.4424914,46.5063834 C31.8098722,45.9168605 29.3429055,42.4942142 29.9324284,38.861595" id="Fill-99" fill="#FFB9B9"></path>
                    <path d="M30.5961116,40.3453609 C30.5961116,40.3453609 30.0964536,48.8412745 29.430027,49.6742538 C28.7636004,50.5070171 36.4265347,50.3404644 36.4265347,50.3404644 C36.4265347,50.3404644 35.9268767,43.1774041 36.4265347,42.5109775 C36.9261926,41.8445509 30.5961116,40.3453609 30.5961116,40.3453609" id="Fill-101" fill="#FFB9B9"></path>
                    <path d="M43.0059478,92.0701998 C43.0059478,92.0701998 24.1818254,90.4046733 20.6844356,92.0701998 C20.6844356,92.0701998 21.9719244,87.2939622 21.6392511,86.7949523 C21.3973069,86.4298758 22.0648137,72.8248353 21.8552727,64.9767705 C21.7366769,60.5483276 20.7146787,56.2235752 23.6849757,52.9357264 C24.6959568,51.8188947 25.8235896,50.8813609 27.0138686,50.4233951 C27.0138686,50.4233951 26.6811953,47.2586787 28.3467219,47.092342 C28.3467219,47.092342 34.678315,46.4248353 37.0091881,48.4251953 C37.7544626,49.0602988 38.2232295,50.9958524 38.2729145,52.6635392 C37.1193591,58.3362664 37.52764,64.6309199 38.5863618,71.1614689 C38.6509523,71.5762304 38.7222394,71.9931521 38.7935266,72.4100738 C39.9168389,78.8864014 41.6147687,85.5636292 43.0059478,92.0701998" id="Fill-103" fill="#575A89"></path>
                    <path d="M33.0287741,41.8924212 C33.5921584,41.8587219 34.1425815,42.0492529 34.7020774,42.1235644 C36.7043816,42.3892709 38.7870459,40.9365257 39.2292421,38.9657606 C39.2646697,38.7032943 39.3428695,38.4483888 39.4606013,38.2111971 C39.7688641,37.7082988 40.4707183,37.6123852 41.0490081,37.7279568 C41.62773,37.8437444 42.1759928,38.1144194 42.7650837,38.1453105 C43.6747507,38.1930513 44.548126,37.6331233 45.0328785,36.8619262 C45.4910603,36.0663186 45.6859118,35.1462826 45.5895662,34.2331593 L45.1534185,34.6909091 C44.9762808,34.3158956 44.907802,33.8989739 44.9559748,33.4870207 C44.4861278,33.3619442 43.9849577,33.490045 43.6328425,33.8255266 C43.248324,33.8665707 43.538441,33.1124392 43.2528605,32.8517012 C43.1139586,32.7663726 42.94827,32.7354815 42.787982,32.7648605 C41.9699082,32.7726373 41.308234,32.1470387 40.6634095,31.6432763 C39.5465779,30.7724932 38.2405113,30.1767057 36.8508443,29.9040864 C35.9271359,29.7239244 34.9448857,29.6949775 34.0687021,30.0388839 C33.3616634,30.3564356 32.7233195,30.8092169 32.1901782,31.3717372 C30.8186571,32.690333 29.6041836,34.240072 29.0334545,36.0550855 C28.5696562,37.5417462 28.5564788,39.1325293 28.9958668,40.6267507 C29.2257138,41.4027003 29.9187111,44.060198 30.9329325,44.1219802 C32.2074599,44.199964 31.4423114,41.9870387 33.0287741,41.8924212" id="Fill-105" fill="#2F2E41"></path>
                    <path d="M35.7868515,52.4474095 L38.1741062,52.7031791 C38.1741062,52.7031791 40.5175086,57.2495698 40.3474995,58.1981206 C40.1772745,59.1464554 39.8065815,58.5705419 40.8614149,60.0878776 C41.9162484,61.6052133 44.9092277,65.5268695 45.2797048,66.1025671 C45.6503978,66.6782646 55.7543762,58.9691017 55.1261854,56.6593987 C55.1261854,56.6593987 58.3172565,58.9487957 59.6844572,59.2533861 C59.6844572,59.2533861 49.2713519,72.9098398 47.8203348,74.6574545 C46.3693177,76.4052853 45.201505,76.0464734 43.2074095,75.0102178 C41.2130981,73.9739622 31.1246733,63.6379766 31.1246733,63.6379766 L35.7868515,52.4474095 Z" id="Fill-107" fill="#575A89"></path>
                    <path d="M38.7935266,72.410009 L30.4961368,64.1126193 L32.5958668,63.4278308 L38.5861458,71.1614041 C38.6509523,71.5761656 38.7222394,71.9930873 38.7935266,72.410009" id="Fill-109" fill="#000000"></path>
                    <path d="M62.1913663,132.883939 C62.1913663,135.067269 60.4215014,136.83735 58.238171,136.83735 C56.0548407,136.83735 54.2847597,135.067269 54.2847597,132.883939 C54.2847597,130.700608 56.0548407,128.930527 58.238171,128.930527 C60.4215014,128.930527 62.1913663,130.700608 62.1913663,132.883939" id="Fill-111" fill="#CCC9FF"></path>
                    <path d="M68.9109343,142.187838 C68.9109343,144.371168 67.1410693,146.141249 64.957739,146.141249 C62.7744086,146.141249 61.0043276,144.371168 61.0043276,142.187838 C61.0043276,140.004724 62.7744086,138.234643 64.957739,138.234643 C67.1410693,138.234643 68.9109343,140.004724 68.9109343,142.187838" id="Fill-113" fill="#CCC9FF"></path>
                    <path d="M77.1811485,149.618225 C77.1811485,151.801339 75.4112835,153.57142 73.2279532,153.57142 C71.0446229,153.57142 69.2745419,151.801339 69.2745419,149.618225 C69.2745419,147.434895 71.0446229,145.664814 73.2279532,145.664814 C75.4112835,145.664814 77.1811485,147.434895 77.1811485,149.618225" id="Fill-115" fill="#CCC9FF"></path>
                    <line x1="73.2313663" y1="149.596493" x2="73.2313663" y2="156.767546" id="Stroke-117" stroke="#3F3D56" stroke-width="0.5"></line>
                    <path d="M74.2454365,149.596493 C74.2454365,150.156637 73.7913591,150.610499 73.2314311,150.610499 C72.6712871,150.610499 72.2172097,150.156637 72.2172097,149.596493 C72.2172097,149.036349 72.6712871,148.582488 73.2314311,148.582488 C73.7913591,148.582488 74.2454365,149.036349 74.2454365,149.596493" id="Fill-119" fill="#3F3D56"></path>
                    <path d="M76.3460522,151.26243 C73.3761872,150.900162 73.2314527,154.016058 73.2314527,154.016058" id="Fill-121" fill="#3F3D56"></path>
                    <line x1="58.2355788" y1="132.898477" x2="58.2355788" y2="156.817901" id="Stroke-123" stroke="#3F3D56" stroke-width="0.5"></line>
                    <path d="M59.249757,132.887093 C59.249757,133.447237 58.7956796,133.901098 58.2355356,133.901098 C57.6756076,133.901098 57.2215302,133.447237 57.2215302,132.887093 C57.2215302,132.326949 57.6756076,131.873087 58.2355356,131.873087 C58.7956796,131.873087 59.249757,132.326949 59.249757,132.887093" id="Fill-125" fill="#3F3D56"></path>
                    <path d="M62.3644644,150.192864 C62.3644644,150.753008 61.910387,151.206869 61.350459,151.206869 C60.790315,151.206869 60.3362376,150.753008 60.3362376,150.192864 C60.3362376,149.63272 60.790315,149.178859 61.350459,149.178859 C61.910387,149.178859 62.3644644,149.63272 62.3644644,150.192864" id="Fill-127" fill="#3F3D56"></path>
                    <path d="M61.3503942,135.313534 C58.3805293,134.951266 58.2355788,138.067161 58.2355788,138.067161" id="Fill-129" fill="#3F3D56"></path>
                    <path d="M61.3503942,144.146592 C58.3805293,143.784324 58.2355788,146.90022 58.2355788,146.90022" id="Fill-131" fill="#3F3D56"></path>
                    <path d="M61.3503942,150.192864 C57.5836256,150.482765 58.2355788,156.539147 58.2355788,156.539147" id="Stroke-133" stroke="#3F3D56" stroke-width="0.5"></path>
                    <path d="M56.1345311,150.192864 C56.1345311,150.753008 55.6804536,151.206869 55.1205257,151.206869 C54.5603816,151.206869 54.1063042,150.753008 54.1063042,150.192864 C54.1063042,149.63272 54.5603816,149.178859 55.1205257,149.178859 C55.6804536,149.178859 56.1345311,149.63272 56.1345311,150.192864" id="Fill-135" fill="#3F3D56"></path>
                    <path d="M55.1204608,150.192864 C58.8872295,150.482765 58.2350603,156.539147 58.2350603,156.539147" id="Stroke-137" stroke="#3F3D56" stroke-width="0.5"></path>
                    <path d="M56.0728353,140.680331 C56.0728353,141.240475 55.6187579,141.694337 55.0586139,141.694337 C54.4986859,141.694337 54.0446085,141.240475 54.0446085,140.680331 C54.0446085,140.120187 54.4986859,139.666326 55.0586139,139.666326 C55.6187579,139.666326 56.0728353,140.120187 56.0728353,140.680331" id="Fill-139" fill="#3F3D56"></path>
                    <path d="M55.0586571,140.680331 C58.8254257,140.970232 58.1734725,146.703446 58.1734725,146.703446" id="Stroke-141" stroke="#3F3D56" stroke-width="0.5"></path>
                    <line x1="64.9540882" y1="142.18341" x2="64.9540882" y2="156.784094" id="Stroke-143" stroke="#3F3D56" stroke-width="0.5"></line>
                    <path d="M65.9681584,142.18341 C65.9681584,142.743554 65.514081,143.197415 64.954153,143.197415 C64.394009,143.197415 63.9399316,142.743554 63.9399316,142.18341 C63.9399316,141.623266 64.394009,141.169404 64.954153,141.169404 C65.514081,141.169404 65.9681584,141.623266 65.9681584,142.18341" id="Fill-145" fill="#3F3D56"></path>
                    <path d="M68.0687741,143.559705 C65.0989091,143.197437 64.9541746,146.313332 64.9541746,146.313332" id="Fill-147" fill="#3F3D56"></path>
                    <path d="M68.0687741,150.223885 C64.3020054,150.51357 64.9541746,156.505361 64.9541746,156.505361" id="Stroke-149" stroke="#3F3D56" stroke-width="0.5"></path>
                    <path d="M69.0828659,150.223885 C69.0828659,150.783813 68.6287885,151.23789 68.0688605,151.23789 C67.5087165,151.23789 67.0546391,150.783813 67.0546391,150.223885 C67.0546391,149.663741 67.5087165,149.209663 68.0688605,149.209663 C68.6287885,149.209663 69.0828659,149.663741 69.0828659,150.223885" id="Fill-151" fill="#3F3D56"></path>
                    <path d="M103.004587,130.134286 C102.436234,130.134286 101.973732,129.671784 101.973732,129.103431 L101.973732,78.9959244 C101.973732,78.4275716 102.436234,77.9650693 103.004587,77.9650693 L143.142049,77.9650693 C143.710617,77.9650693 144.17312,78.4275716 144.17312,78.9959244 L144.17312,129.103431 C144.17312,129.671784 143.710617,130.134286 143.142049,130.134286 L103.004587,130.134286 Z" id="Fill-153" fill="#FFFFFF"></path>
                    <path d="M143.142092,77.8457822 L103.00463,77.8457822 C102.370391,77.8457822 101.854531,78.3616418 101.854531,78.9958812 L101.854531,129.103388 C101.854531,129.737411 102.370391,130.253487 103.00463,130.253487 L143.142092,130.253487 C143.776331,130.253487 144.292191,129.737411 144.292191,129.103388 L144.292191,78.9958812 C144.292191,78.3616418 143.776331,77.8457822 143.142092,77.8457822 M143.142092,78.08427 C143.645638,78.08427 144.053919,78.4923348 144.053919,78.9958812 L144.053919,129.103388 C144.053919,129.606934 143.645638,130.014999 143.142092,130.014999 L103.00463,130.014999 C102.501084,130.014999 102.092803,129.606934 102.092803,129.103388 L102.092803,78.9958812 C102.092803,78.4923348 102.501084,78.08427 103.00463,78.08427 L143.142092,78.08427" id="Fill-155" fill="#000000"></path>
                    <path d="M104.649419,84.0672691 L111.76733,84.0672691 C111.891543,84.0672691 111.992425,84.1681512 111.992425,84.2925797 L111.992425,85.6666931 C111.992425,85.7911215 111.891543,85.8920036 111.76733,85.8920036 L104.649419,85.8920036 C104.52499,85.8920036 104.424108,85.7911215 104.424108,85.6666931 L104.424108,84.2925797 C104.424108,84.1681512 104.52499,84.0672691 104.649419,84.0672691" id="Fill-157" fill="#6C63FF"></path>
                    <path d="M104.649419,87.5130729 L141.835809,87.5130729 C141.960022,87.5130729 142.060904,87.613955 142.060904,87.7383834 L142.060904,89.1124968 C142.060904,89.2369253 141.960022,89.3378074 141.835809,89.3378074 L104.649419,89.3378074 C104.52499,89.3378074 104.424108,89.2369253 104.424108,89.1124968 L104.424108,87.7383834 C104.424108,87.613955 104.52499,87.5130729 104.649419,87.5130729" id="Fill-159" fill="#E8EAF2"></path>
                    <path d="M104.649419,90.9599136 L141.835809,90.9599136 C141.960022,90.9599136 142.060904,91.0607957 142.060904,91.1852241 L142.060904,92.5593375 C142.060904,92.683766 141.960022,92.7846481 141.835809,92.7846481 L104.649419,92.7846481 C104.52499,92.7846481 104.424108,92.683766 104.424108,92.5593375 L104.424108,91.1852241 C104.424108,91.0607957 104.52499,90.9599136 104.649419,90.9599136" id="Fill-161" fill="#E8EAF2"></path>
                    <path d="M104.649419,97.8513051 L111.76733,97.8513051 C111.891543,97.8513051 111.992425,97.9521872 111.992425,98.0766157 L111.992425,99.4507291 C111.992425,99.5751575 111.891543,99.6760396 111.76733,99.6760396 L104.649419,99.6760396 C104.52499,99.6760396 104.424108,99.5751575 104.424108,99.4507291 L104.424108,98.0766157 C104.424108,97.9521872 104.52499,97.8513051 104.649419,97.8513051" id="Fill-163" fill="#6C63FF"></path>
                    <path d="M104.649419,101.298146 L141.835809,101.298146 C141.960022,101.298146 142.060904,101.399028 142.060904,101.523456 L142.060904,102.89757 C142.060904,103.021998 141.960022,103.12288 141.835809,103.12288 L104.649419,103.12288 C104.52499,103.12288 104.424108,103.021998 104.424108,102.89757 L104.424108,101.523456 C104.424108,101.399028 104.52499,101.298146 104.649419,101.298146" id="Fill-165" fill="#E8EAF2"></path>
                    <path d="M104.649419,104.74395 L141.835809,104.74395 C141.960022,104.74395 142.060904,104.844832 142.060904,104.96926 L142.060904,106.343374 C142.060904,106.467586 141.960022,106.568684 141.835809,106.568684 L104.649419,106.568684 C104.52499,106.568684 104.424108,106.467586 104.424108,106.343374 L104.424108,104.96926 C104.424108,104.844832 104.52499,104.74395 104.649419,104.74395" id="Fill-167" fill="#E8EAF2"></path>
                    <path d="M104.649419,111.6364 L111.76733,111.6364 C111.891543,111.6364 111.992425,111.737282 111.992425,111.86171 L111.992425,113.235824 C111.992425,113.360252 111.891543,113.461134 111.76733,113.461134 L104.649419,113.461134 C104.52499,113.461134 104.424108,113.360252 104.424108,113.235824 L104.424108,111.86171 C104.424108,111.737282 104.52499,111.6364 104.649419,111.6364" id="Fill-169" fill="#6C63FF"></path>
                    <path d="M104.649419,115.082182 L141.835809,115.082182 C141.960022,115.082182 142.060904,115.183064 142.060904,115.307492 L142.060904,116.681606 C142.060904,116.806034 141.960022,116.906916 141.835809,116.906916 L104.649419,116.906916 C104.52499,116.906916 104.424108,116.806034 104.424108,116.681606 L104.424108,115.307492 C104.424108,115.183064 104.52499,115.082182 104.649419,115.082182" id="Fill-171" fill="#E8EAF2"></path>
                    <path d="M104.649419,118.52777 L141.835809,118.52777 C141.960022,118.52777 142.060904,118.628868 142.060904,118.75308 L142.060904,120.127194 C142.060904,120.251622 141.960022,120.352504 141.835809,120.352504 L104.649419,120.352504 C104.52499,120.352504 104.424108,120.251622 104.424108,120.127194 L104.424108,118.75308 C104.424108,118.628868 104.52499,118.52777 104.649419,118.52777" id="Fill-173" fill="#E8EAF2"></path>
                    <path d="M134.178038,125.420414 L141.295734,125.420414 C141.420162,125.420414 141.521044,125.521296 141.521044,125.645725 L141.521044,127.019838 C141.521044,127.144266 141.420162,127.245149 141.295734,127.245149 L134.178038,127.245149 C134.053609,127.245149 133.952727,127.144266 133.952727,127.019838 L133.952727,125.645725 C133.952727,125.521296 134.053609,125.420414 134.178038,125.420414" id="Fill-175" fill="#6C63FF"></path>
                    <path d="M168.303338,154.951885 C173.194931,154.951885 177.160223,155.496475 177.160223,156.168086 C177.160223,156.839698 173.194931,157.384288 168.303338,157.384288 C163.411744,157.384288 159.446452,156.839698 159.446452,156.168086 C159.446452,155.496475 163.411744,154.951885 168.303338,154.951885" id="Fill-177" fill="#6C63FF" opacity="0.149999991"></path>
                    <path d="M171.893638,154.651701 C172.290902,154.328749 172.580371,153.892385 172.723161,153.400936 C172.829012,152.904086 172.617527,152.310027 172.144223,152.128353 C171.61281,151.925509 171.044673,152.292745 170.61479,152.666463 C170.184907,153.04018 169.690218,153.461422 169.126401,153.383654 C169.716356,152.849433 169.982063,152.044752 169.826311,151.264266 C169.802981,151.105059 169.735798,150.955572 169.631892,150.832223 C169.338103,150.516832 168.802369,150.650765 168.448094,150.899406 C167.324997,151.690045 167.01155,153.215158 167.00723,154.589055 C166.892954,154.094365 166.987788,153.578074 166.985627,153.076904 C166.983683,152.575734 166.843053,151.996796 166.415546,151.730873 C166.14984,151.589163 165.851946,151.519388 165.55146,151.528029 C165.045753,151.508587 164.484097,151.558272 164.138679,151.927669 C163.706635,152.387795 163.820911,153.156832 164.194628,153.655842 C164.568346,154.154851 165.134322,154.476508 165.654934,154.826679 C166.074448,155.07532 166.431748,155.41577 166.700479,155.822538 C166.731802,155.879784 166.758157,155.939838 166.778247,156.001836 L169.943179,156.001836 C170.65065,155.64108 171.306707,155.187003 171.893638,154.651701" id="Fill-179" fill="#6C63FF"></path>
                </g>
            </g>
        </g>
    </g>
</svg>