<?xml version="1.0" encoding="UTF-8"?>
<svg width="211px" height="160px" viewBox="0 0 211 160" version="1.1" xmlns="http://www.w3.org/2000/svg" xmlns:xlink="http://www.w3.org/1999/xlink">
    <!-- Generator: Sketch 64 (93537) - https://sketch.com -->
    <title>密码找回</title>
    <desc>Created with Sketch.</desc>
    <defs>
        <linearGradient x1="0.00572912906%" y1="50.0083239%" x2="99.9475584%" y2="50.0083239%" id="linearGradient-1">
            <stop stop-color="#808080" stop-opacity="0.25" offset="0%"></stop>
            <stop stop-color="#808080" stop-opacity="0.12" offset="54%"></stop>
            <stop stop-color="#808080" stop-opacity="0.1" offset="100%"></stop>
        </linearGradient>
        <linearGradient x1="50.0009134%" y1="100.0056%" x2="50.0009134%" y2="-0.000695461321%" id="linearGradient-2">
            <stop stop-color="#808080" stop-opacity="0.25" offset="0%"></stop>
            <stop stop-color="#808080" stop-opacity="0.12" offset="54%"></stop>
            <stop stop-color="#808080" stop-opacity="0.1" offset="100%"></stop>
        </linearGradient>
    </defs>
    <g id="蓝紫新风格" stroke="none" stroke-width="1" fill="none" fill-rule="evenodd">
        <g id="0-2修改密码-反馈" transform="translate(-578.000000, -264.000000)">
            <g id="密码找回" transform="translate(578.000000, 264.000000)">
                <ellipse id="椭圆形" fill="#F5F5F5" fill-rule="nonzero" cx="113.378326" cy="138.019204" rx="76.8175583" ry="21.9478738"></ellipse>
                <path d="M186.464746,52.6397805 C186.464746,52.6397805 172.857064,66.2474623 180.53882,86.4395062 C188.220576,106.63155 167.370096,140.211797 167.370096,140.211797 C167.370096,140.211797 167.589575,140.178875 168.008779,140.106447 C195.957202,135.172565 209.843621,103.207682 194.302332,79.4622771 C188.532236,70.6348422 183.780521,60.2776406 186.464746,52.6397805 Z" id="路径" fill="#6C63FF" fill-rule="nonzero"></path>
                <path d="M186.464746,52.6397805 C186.464746,52.6397805 178.78299,69.3201646 186.464746,82.9278464 C194.146502,96.5355281 187.781619,134.724829 167.370096,140.211797" id="路径" stroke="#535461" stroke-width="0.5"></path>
                <path d="M210.699588,107.678464 C210.699588,107.678464 195.171468,105.204938 193.75583,119.122085 C192.340192,133.039232 163.906722,134.966255 163.906722,134.966255 C163.906722,134.966255 164.091084,135.093553 164.440055,135.321811 C187.92428,150.737997 210.37476,145.141289 206.992593,124.670508 C205.7262,117.06118 205.82716,109.416735 210.699588,107.678464 Z" id="路径" fill="#6C63FF" fill-rule="nonzero"></path>
                <path d="M210.699588,107.678464 C210.699588,107.678464 195.171468,105.204938 193.75583,119.122085 C192.340192,133.039232 163.906722,134.966255 163.906722,134.966255 C163.906722,134.966255 164.091084,135.093553 164.440055,135.321811 C187.92428,150.737997 210.37476,145.141289 206.992593,124.670508 C205.7262,117.06118 205.82716,109.416735 210.699588,107.678464 Z" id="路径" fill="#F5F5F5" fill-rule="nonzero" opacity="0.2"></path>
                <path d="M210.699588,107.678464 C210.699588,107.678464 198.645816,110.325377 199.635665,121.286145 C200.625514,132.246914 181.728395,145.380521 163.897942,134.961866" id="路径" stroke="#535461" stroke-width="0.5"></path>
                <path d="M33.2290809,0.237037037 C31.4600823,0.17558299 29.6471879,0.237037037 27.9879287,0.855967078 C23.473251,2.539369 21.3333333,8.04609053 22.0290809,12.8153635 C22.7248285,17.5846365 25.5868313,21.7262003 28.5563786,25.5209877 C31.5259259,29.315775 34.7434842,33.0622771 36.3720165,37.5923182 C37.1840878,39.855144 37.563786,42.3901235 36.738546,44.6485597 C35.4655693,48.1316872 31.6268861,50.0784636 27.9418381,50.4823045 C24.2567901,50.8861454 20.5563786,50.0982167 16.8581619,49.8238683 C15.3064472,49.7141289 13.7108368,49.7009602 12.2491084,50.2101509 C10.6447188,50.7654321 9.30809328,51.8979424 8.07901235,53.078738 C3.28340192,57.7097394 -0.555281207,64.030727 0.0658436214,70.6677641 C0.768175583,78.1914952 7.03209877,84.139369 13.8930041,87.3283951 C16.1646091,88.3862826 18.5679012,89.2422497 20.5673525,90.7522634 C25.8348422,94.7336077 27.0178326,102.19369 26.4932785,108.780247 C25.9687243,115.366804 24.1821674,121.959945 25.176406,128.489438 C26.3462277,136.083402 31.5237311,142.942112 38.5075446,146.146502 C44.7297668,148.999726 52.5168724,148.821948 58.0411523,144.785734 C60.7341564,142.810425 62.7709191,140.086694 64.5421125,137.262003 C67.2154526,133.000535 69.3845488,128.442856 71.0057613,123.680658 C71.7761317,121.417833 72.5004115,118.983813 74.2979424,117.410151 C75.3953361,116.44225 76.8175583,115.900137 78.224417,115.478738 C82.4647462,114.210151 86.9311385,113.86118 91.2109739,112.733059 C95.4908093,111.604938 99.7969822,109.502332 102.123457,105.742661 C105.415638,100.407133 103.879287,93.5835391 103.89465,87.3064472 C103.920988,73.0052126 112.478464,60.200823 115.636763,46.2639232 C116.668313,41.7075446 117.052401,36.666118 114.747874,32.6035665 C113.180796,29.8315501 110.540466,27.8562414 107.76406,26.3198903 C101.662551,22.9311385 94.7270233,21.4233196 87.9034294,19.9550069 C78.4197531,17.9182442 66.9037037,17.6548697 59.5533608,11.066118 C52.4993141,4.74513032 42.848834,0.237037037 33.2290809,0.237037037 Z" id="路径" fill="#6C63FF" fill-rule="nonzero" opacity="0.2"></path>
                <g id="编组" opacity="0.5" transform="translate(22.825789, 6.803841)" fill="url(#linearGradient-1)" fill-rule="nonzero">
                    <path d="M44.8043896,48.7879287 C44.8038865,45.3408294 44.264024,41.9150356 43.2043896,38.6348422 L40.5706447,30.4680384 C40.5706447,30.3319616 40.5706447,30.1980796 40.5706447,30.0641975 C40.6518519,24.8296296 36.5717421,22.2178326 35.0002743,22.5009602 C33.3914952,22.7906722 28.9272977,20.551989 28.9272977,20.551989 L28.9272977,20.6134431 C28.6212169,20.261092 28.3451728,19.8837339 28.1020576,19.4853224 C29.6602473,18.3504665 30.6949691,16.6352155 30.9721486,14.7275928 C31.2493281,12.8199701 30.7455432,10.8811726 29.5747599,9.34979424 C30.0572582,8.98725015 30.425257,8.49353739 30.6348422,7.92757202 C30.999177,6.90260631 30.720439,5.73278464 30.1278464,4.81975309 C29.8758684,4.43860952 29.5813352,4.08737866 29.2499314,3.77283951 C28.7479598,3.27553429 28.1997077,2.82723162 27.61262,2.4340192 C26.1486968,1.42002743 24.5399177,0.548696845 22.7840878,0.239231824 C22.4802634,0.167491943 22.1639067,0.167491943 21.8600823,0.239231824 C21.59639,0.345644444 21.3453687,0.481092875 21.1116598,0.643072702 C19.9089163,1.32784636 18.4120713,1.03155007 17.0249657,0.959122085 C15.6378601,0.886694102 13.9522634,1.27517147 13.5133059,2.57668038 C13.3772291,2.97832647 13.3860082,3.41289438 13.2938272,3.8255144 C13.0743484,4.8351166 12.2951989,5.61865569 11.6938272,6.45925926 C11.0924554,7.29986283 10.642524,8.4345679 11.1429355,9.34759945 C11.3141289,9.65486968 11.581893,9.93799726 11.581893,10.2891632 C11.581893,10.5415638 11.4326475,10.7676269 11.3624143,11.0090535 C11.2109739,11.5577503 11.4962963,12.1064472 11.9352538,12.5037037 C12.1244032,12.7076292 12.3471063,12.8776259 12.59369,13.00631 C13.2894376,13.3618656 14.090535,13.4716049 14.7994513,13.800823 C15.1533107,13.9670079 15.4779457,14.1893606 15.7607682,14.4592593 C16.4605888,15.191849 16.8369806,16.1747375 16.805487,17.18738 L16.9525377,17.2027435 C16.9525377,17.2466392 16.9525377,17.2883402 16.9525377,17.3322359 C17.1061728,17.3497942 17.2685871,17.3651578 17.4288066,17.3717421 C17.6592791,17.7438026 17.9230009,18.0942073 18.2167353,18.4186557 C18.1669867,18.6059442 18.1106539,18.7961591 18.0477366,18.9893004 C17.5319616,19.3470508 13.3135802,22.1563786 8.51577503,21.4803841 C3.39533608,20.758299 0.467489712,43.1451303 0.467489712,43.1451303 C0.277703374,44.4253603 0.185257343,45.7181373 0.190946502,47.0123457 C0.168998628,50.3045267 0.860356653,54.6128944 4.7122085,53.9786008 L6.75994513,53.3048011 L6.75994513,64.3775034 C6.75994513,64.3775034 7.05185185,67.4106996 6.02908093,69.4255144 C5.00631001,71.4403292 9.24883402,70.7248285 9.24883402,70.7248285 C9.24883402,70.7248285 9.41124829,70.8938272 9.70973937,71.1813443 L9.61536351,71.4469136 L9.74046639,71.5742112 C9.18249152,73.4817943 8.43012372,75.3270444 7.4951989,77.0809328 L7.61591221,77.1423868 C7.53909465,77.2894376 7.4951989,77.3618656 7.4951989,77.3618656 C7.4951989,77.3618656 9.07105624,78.1673525 11.2395062,79.205487 C12.9821674,85.0962963 16.7967078,98.7390947 15.5412894,101.337723 L15.576406,101.412346 L15.576406,101.412346 C15.8112483,101.899588 17.1237311,104.772565 16.8581619,107.404115 C16.61893,109.756927 19.8759945,120.447737 21.0919067,124.330316 L20.5168724,124.446639 L22.5646091,131.812346 L22.1256516,136.579424 C22.1256516,136.579424 19.6389575,143.223045 25.4902606,141.923731 C31.3415638,140.624417 29.7327846,135.28011 29.7327846,135.28011 L29.8798354,124.446639 C29.8798354,124.446639 29.315775,124.132785 28.6200274,123.832099 C28.1415638,122.539369 27.0990398,119.484225 27.0990398,117.370645 C27.0990398,114.62716 25.1961591,102.781893 25.1961591,102.781893 L25.1961591,102.75775 L25.1961591,102.71166 L25.1961591,102.698491 L25.1851852,102.540466 L25.1851852,102.514129 C25.1851852,102.367078 25.1610425,102.165158 25.1434842,101.919342 L25.1434842,101.906173 C24.9240055,98.7039781 24.2655693,87.824417 24.7462277,82.1530864 C25.1689247,81.8648372 25.6086868,81.6024459 26.0631001,81.3673525 C27.4875171,84.9668038 31.1593964,94.6919067 30.9245542,98.7720165 C30.6326475,103.820027 30.8521262,99.8562414 30.9245542,99.2109739 C30.9465021,99.0112483 30.9618656,99.2526749 30.9684499,99.7947874 C30.9684499,99.8935528 30.9684499,100.003292 30.9684499,100.119616 C30.9684499,100.23594 30.9684499,100.365432 30.9684499,100.499314 C30.9684499,100.633196 30.9684499,100.778052 30.9684499,100.938272 C30.9684499,101.014358 30.9684499,101.091907 30.9684499,101.170919 C30.9684499,101.328944 30.9684499,101.494284 30.9684499,101.666941 C30.9684499,101.753269 30.9684499,101.841061 30.9684499,101.930316 C30.9684499,102.369273 30.9684499,102.856516 30.9530864,103.363512 C30.9530864,103.464472 30.9530864,103.566895 30.9530864,103.670782 C30.9530864,103.980247 30.9530864,104.296296 30.9377229,104.616735 C30.9377229,105.055693 30.9201646,105.481481 30.9113855,105.922634 C30.8894376,106.910288 30.8609053,107.908916 30.8257888,108.843896 C30.8257888,108.947782 30.8221308,109.050937 30.8148148,109.153361 C30.8074989,109.358208 30.7994513,109.558665 30.7906722,109.754733 C30.781893,109.9508 30.7731139,110.142478 30.7643347,110.329767 C30.7555556,110.515592 30.7460448,110.696296 30.7358025,110.871879 C30.7248285,111.078189 30.7116598,111.27572 30.7006859,111.464472 L29.9061728,111.350343 L29.7371742,113.176406 C29.4709585,116.075579 29.8456053,118.997824 30.8345679,121.736077 C31.1067215,122.486694 31.3174211,123.107819 31.3635117,123.329492 C31.5105624,124.051578 31.3635117,129.255418 31.3635117,129.255418 C31.3635117,129.255418 32.2414266,136.043896 36.3390947,134.742387 C38.182716,134.156379 39.0781893,132.374211 39.5061728,130.587654 C39.981046,128.516636 39.8039603,126.349445 38.999177,124.38299 C38.4175583,122.921262 37.8227709,120.871331 38.2419753,119.286694 C38.9728395,116.54321 38.9728395,112.643073 38.9728395,112.643073 L38.5207133,112.579424 C38.6333963,112.365207 38.7352172,112.14545 38.8257888,111.920988 C38.8257888,111.920988 38.678738,101.954458 39.9956104,100.655144 C40.7198903,99.9396433 40.6540466,98.2211248 40.4345679,96.8164609 C40.1210337,94.7836529 40.0473694,92.7210519 40.2150892,90.6710562 C40.3050754,89.6153635 40.4345679,88.6957476 40.5860082,88.3687243 C40.9722908,87.6049383 41.3585734,79.9056241 39.648834,76.200823 L40,76.0910837 L39.9451303,75.81893 L40,75.8013717 C40.2579045,76.4897306 40.5509273,77.1644156 40.877915,77.8227709 C40.9642984,77.8904927 41.0636445,77.9397923 41.1698217,77.9676269 C45.9083676,77.1358025 46.0993141,72.7133059 45.8359396,70.2990398 C46.0356653,70.3956104 46.1454047,70.4570645 46.1454047,70.4570645 L46.5843621,64.0921811 C47.0342936,63.0759945 47.2010974,61.7788752 47.1901235,60.376406 C47.2098765,55.3635117 44.8043896,48.7879287 44.8043896,48.7879287 Z M39.5807956,66.879561 C39.2559671,64.1075446 38.8060357,61.4979424 38.8060357,61.4979424 L36.6112483,53.697668 L36.6112483,50.8576132 L40.0921811,63.8507545 L39.5807956,66.879561 Z" id="形状"></path>
                </g>
                <path d="M52.5388203,116.290809 L52.376406,118.075171 C52.1201056,120.910373 52.483319,123.767401 53.4408779,126.448285 C53.7020576,127.183539 53.9061728,127.7893 53.9500686,128.006584 C54.090535,128.713306 53.9500686,133.794239 53.9500686,133.794239 C53.9500686,133.794239 54.7972565,140.429081 58.7500686,139.158299 C60.5278464,138.587654 61.3838134,136.842798 61.8052126,135.097942 C62.2620668,133.074329 62.0905519,130.959489 61.3135802,129.03594 C60.7517147,127.607133 60.1766804,125.598903 60.582716,124.055967 C61.2894376,121.373937 61.2894376,117.563786 61.2894376,117.563786 L52.5388203,116.290809 Z" id="路径" fill="#5A5773" fill-rule="nonzero"></path>
                <path d="M48.3050754,85.6603567 C48.3050754,85.6603567 53.8096022,99.0705075 53.5264746,104.008779 C53.2433471,108.947051 53.4562414,105.066667 53.5264746,104.432373 C53.6515775,103.302058 53.5264746,116.723182 53.1028807,118.259534 C53.1028807,118.259534 58.890535,122.493278 61.1489712,116.848285 C61.1489712,116.848285 61.0085048,107.110014 62.2770919,105.839232 C62.9750343,105.141289 62.9069959,103.460082 62.7006859,102.08834 C62.3961762,100.104069 62.3225258,98.0912052 62.4812071,96.0899863 C62.5668038,95.0584362 62.6853224,94.1497942 62.8389575,93.8403292 C63.2625514,92.9931413 63.6861454,83.3953361 61.1445816,80.7133059 L48.3050754,85.6603567 Z" id="路径" fill="#605D82" fill-rule="nonzero"></path>
                <path d="M53.8096022,118.266118 C54.2331962,116.714403 54.358299,103.302058 54.2331962,104.438957 C54.162963,105.073251 53.9500686,108.95583 54.2331962,104.015364 C54.5163237,99.0748971 49.011797,85.666941 49.011797,85.666941 L61.326749,80.9305898 C61.2696845,80.8581619 61.2104252,80.7901235 61.151166,80.7264746 L48.3072702,85.666941 C48.3072702,85.666941 53.811797,99.0770919 53.5286694,104.015364 C53.2455418,108.953635 53.4584362,105.073251 53.5286694,104.438957 C53.6537723,103.308642 53.5286694,116.729767 53.1050754,118.266118 C53.1050754,118.266118 55.4161866,119.956104 57.6877915,119.776132 C55.6663923,119.624691 53.8096022,118.266118 53.8096022,118.266118 Z" id="路径" fill="#000000" fill-rule="nonzero" opacity="0.1"></path>
                <path d="M43.5050754,129.134705 L45.4803841,136.333608 L45.0567901,140.990947 C45.0567901,140.990947 42.6578875,147.483128 48.3028807,146.212346 C53.9478738,144.941564 52.3961591,139.720165 52.3961591,139.720165 L52.5366255,129.134705 C52.5366255,129.134705 50.2781893,127.863923 49.290535,128.006584 C48.3028807,128.149246 43.5050754,129.134705 43.5050754,129.134705 Z" id="路径" fill="#5A5773" fill-rule="nonzero"></path>
                <path d="M33.7668038,82.2737997 C33.7668038,82.2737997 40.2589849,103.304252 38.7072702,106.550343 C38.7072702,106.550343 40.2589849,109.655967 39.9780521,112.476269 C39.6971193,115.296571 44.4949246,130.401097 44.4949246,130.401097 L51.5533608,129.130316 C51.5533608,129.130316 49.8589849,124.896571 49.8589849,122.21454 C49.8589849,119.53251 48.0241427,107.948422 48.0241427,107.948422 C48.0241427,107.948422 46.472428,86.7753086 48.3072702,84.5168724 L33.7668038,82.2737997 Z" id="路径" fill="#605D82" fill-rule="nonzero"></path>
                <g id="编组" opacity="0.1" transform="translate(33.580247, 82.085048)" fill="#000000" fill-rule="nonzero">
                    <path d="M14.1783265,4.15253772 C13.0085048,8.94595336 14.3012346,26.5854595 14.3012346,26.5854595 C14.3012346,26.5854595 16.1360768,38.1585734 16.1360768,40.8515775 C16.1360768,42.8993141 17.1215364,45.8491084 17.5890261,47.1308642 L17.9709191,47.0628258 C17.9709191,47.0628258 16.2765432,42.8290809 16.2765432,40.1470508 C16.2765432,37.4650206 14.441701,25.8809328 14.441701,25.8809328 C14.441701,25.8809328 13.2609053,9.76021948 14.1783265,4.15253772 Z" id="路径"></path>
                    <path d="M5.12702332,24.4652949 L5.16213992,24.5377229 C5.17311385,24.4652949 5.18408779,24.3884774 5.19067215,24.3182442 C5.17198811,24.3683187 5.15074383,24.4174003 5.12702332,24.4652949 L5.12702332,24.4652949 Z" id="路径"></path>
                    <path d="M14.4065844,3.12537723 C14.4707136,2.88190467 14.5785462,2.65210969 14.7248285,2.44718793 L0.186556927,0.188751715 C0.186556927,0.188751715 0.272153635,0.463100137 0.41920439,0.952537723 L14.4065844,3.12537723 Z" id="路径"></path>
                </g>
                <path d="M67.6411523,74.6513032 C67.6411523,74.6513032 69.7591221,82.5525377 63.4074074,83.685048 C63.3043601,83.6582371 63.2079675,83.6104143 63.1242798,83.5445816 C63.1242798,83.5445816 59.4545953,76.345679 62.2770919,73.5231824 L67.6411523,74.6513032 Z" id="路径" fill="#A1616A" fill-rule="nonzero"></path>
                <path d="M41.6702332,22.1497942 C41.6702332,22.1497942 42.0938272,28.0757202 37.4364883,30.9004115 C32.7791495,33.7251029 47.3130316,41.4858711 47.3130316,41.4858711 L54.9355281,29.3465021 C54.9355281,29.3465021 51.6916324,29.7657064 49.7163237,24.1251029 L41.6702332,22.1497942 Z" id="路径" fill="#A1616A" fill-rule="nonzero"></path>
                <path d="M38.5646091,31.3196159 C38.5646091,31.3196159 45.7635117,46.2814815 52.2556927,32.1668038 L62.2770919,81.848011 C62.2770919,81.848011 46.7489712,86.648011 46.6106996,88.9064472 C46.472428,91.1648834 30.9465021,83.1209877 30.9465021,83.1209877 C30.9465021,83.1209877 34.333059,76.9097394 33.4880658,73.0995885 C32.6430727,69.2894376 38.5646091,31.3196159 38.5646091,31.3196159 Z" id="路径" fill="#000000" fill-rule="nonzero" opacity="0.1"></path>
                <path d="M38.5646091,31.0364883 C38.5646091,31.0364883 45.7635117,45.9983539 52.2556927,31.8836763 L62.2770919,81.5670782 C62.2770919,81.5670782 46.7489712,86.3670782 46.6106996,88.6255144 C46.472428,90.8839506 30.9465021,82.8378601 30.9465021,82.8378601 C30.9465021,82.8378601 34.333059,76.6266118 33.4880658,72.8164609 C32.6430727,69.00631 38.5646091,31.0364883 38.5646091,31.0364883 Z" id="路径" fill="#E1E7EF" fill-rule="nonzero"></path>
                <path d="M45.6230453,133.087517 C45.6230453,133.087517 43.788203,128.994239 48.0219479,128.994239 C52.2556927,128.994239 51.551166,132.663923 51.551166,132.663923 L45.6230453,133.087517 Z" id="路径" fill="#5A5773" fill-rule="nonzero"></path>
                <path d="M55.2208505,122.499863 C55.2208505,122.499863 53.5264746,118.123457 57.7624143,117.98299 C61.9983539,117.842524 59.8803841,121.933608 59.8803841,121.933608 L55.2208505,122.499863 Z" id="路径" fill="#5A5773" fill-rule="nonzero"></path>
                <path d="M51.6213992,27.8562414 C51.6213992,27.8562414 55.9253772,30.0510288 57.4792867,29.7613169 C59.0331962,29.4716049 63.1242798,32.1602195 62.8433471,37.5242798 L65.39369,45.5264746 C66.4138956,48.7351288 66.9321279,52.0821696 66.9300412,55.4491084 L66.9300412,55.4491084 C66.9300412,55.4491084 70.5997257,65.6109739 68.624417,70.1278464 L68.200823,76.3390947 C68.200823,76.3390947 64.9547325,74.5042524 61.5659808,75.0683128 L62.4197531,69.9961591 L58.600823,55.5961591 L52.2491084,40.2106996 L51.6213992,27.8562414 Z" id="路径" fill="#000000" fill-rule="nonzero" opacity="0.1"></path>
                <path d="M51.6213992,27.5775034 C51.6213992,27.5775034 55.9253772,29.7722908 57.4792867,29.4825789 C59.0331962,29.1928669 63.1242798,31.8814815 62.8433471,37.2455418 L65.39369,45.2477366 C66.4138956,48.4563908 66.9321279,51.8034316 66.9300412,55.1703704 L66.9300412,55.1703704 C66.9300412,55.1703704 70.5997257,65.3322359 68.624417,69.8491084 L68.200823,76.0603567 C68.200823,76.0603567 64.9547325,74.2255144 61.5659808,74.7895748 L62.4131687,69.708642 L58.600823,55.3130316 L52.2556927,39.927572 L51.6213992,27.5775034 Z" id="路径" fill="#67647E" fill-rule="nonzero"></path>
                <path d="M58.7500686,44.727572 L58.7500686,60.6770919 L60.8680384,68.2995885 C60.8680384,68.2995885 62.2792867,76.6266118 61.8556927,79.1681756 C61.4320988,81.7097394 54.6567901,82.2737997 52.8219479,80.1558299 C50.9871056,78.0378601 51.9747599,59.963786 51.9747599,59.963786 L51.6213992,33.5056241 L51.9045267,32.6584362 L58.7500686,44.727572 Z" id="路径" fill="#000000" fill-rule="nonzero" opacity="0.1"></path>
                <path d="M59.0397805,44.0230453 L59.0397805,59.9725652 L61.1577503,67.5950617 C61.1577503,67.5950617 62.5689986,75.922085 62.1454047,78.4636488 C61.7218107,81.0052126 54.9465021,81.569273 53.1116598,79.4513032 C51.2768176,77.3333333 52.2644719,59.2592593 52.2644719,59.2592593 L51.9111111,32.794513 L59.0397805,44.0230453 Z" id="路径" fill="#67647E" fill-rule="nonzero"></path>
                <path d="M30.5909465,57.290535 L35.1078189,71.3371742 L32.9898491,77.3355281 C32.9898491,77.3355281 43.0112483,87.9209877 49.362963,82.8400549 C49.362963,82.8400549 50.0696845,61.2433471 48.6562414,56.1624143 C47.2427984,51.0814815 40.4696845,33.9950617 40.4696845,33.9950617 L39.0672154,29.4847737 L31.58738,33.7185185 L30.5909465,57.290535 Z" id="路径" fill="#000000" fill-rule="nonzero" opacity="0.1"></path>
                <path d="M30.2375857,56.5838134 L30.2375857,70.4109739 C30.2375857,70.4109739 30.5207133,73.3761317 29.5308642,75.3514403 C28.5410151,77.326749 32.6364883,76.6222222 32.6364883,76.6222222 C32.6364883,76.6222222 42.6578875,87.2076818 49.0096022,82.126749 C49.0096022,82.126749 49.7163237,60.5300412 48.3028807,55.4491084 C46.8894376,50.3681756 40.1163237,33.2817558 40.1163237,33.2817558 L38.7050754,28.7648834 L31.2252401,32.9986283 L30.2375857,56.5838134 Z" id="路径" fill="#67647E" fill-rule="nonzero"></path>
                <path d="M41.176406,26.3089163 C41.176406,26.3089163 36.872428,29.4847737 31.9319616,28.7780521 C26.9914952,28.0713306 24.1689986,49.951166 24.1689986,49.951166 C24.1689986,49.951166 22.3341564,61.2433471 28.2622771,60.2556927 L41.3893004,55.8792867 C41.3893004,55.8792867 38.5668038,52.9141289 38.9903978,49.1039781 L32.6364883,51.6433471 L32.9218107,39.5061728 L41.176406,26.3089163 Z" id="路径" fill="#000000" fill-rule="nonzero" opacity="0.1"></path>
                <path d="M24.4499314,49.6680384 C24.4499314,49.6680384 22.6150892,60.9602195 28.5432099,59.9725652 L41.6702332,55.5961591 C41.6702332,55.5961591 38.8477366,52.6331962 39.2713306,48.8208505 L32.9218107,51.3624143 L24.4499314,49.6680384 Z" id="路径" fill="#000000" fill-rule="nonzero" opacity="0.1"></path>
                <path d="M38.9596708,50.3089163 C38.9596708,50.3089163 43.3646091,44.5168724 46.6085048,47.297668 C49.8524005,50.0784636 40.1229081,55.1747599 40.1229081,55.1747599 L38.9596708,50.3089163 Z" id="路径" fill="#A1616A" fill-rule="nonzero"></path>
                <path d="M41.176406,26.0257888 C41.176406,26.0257888 36.872428,29.2016461 31.9319616,28.4949246 C26.9914952,27.788203 24.1689986,49.6680384 24.1689986,49.6680384 C24.1689986,49.6680384 22.3341564,60.9602195 28.2622771,59.9725652 L41.3893004,55.5961591 C41.3893004,55.5961591 38.5668038,52.6310014 38.9903978,48.8208505 L32.6364883,51.3624143 L32.9218107,39.2230453 L40.1207133,33.2971193 L41.176406,26.0257888 Z" id="路径" fill="#67647E" fill-rule="nonzero"></path>
                <path d="M49.8567901,24.4016461 L41.8106996,22.4263374 C41.8106996,22.4263374 42.229904,22.9004115 41.7404664,24.7550069 C43.0353909,26.2408779 44.6266118,28.2140041 46.751166,28.2140041 C48.2715537,28.216842 49.7518123,27.7262464 50.9695473,26.8159122 C50.5151283,26.0523335 50.1421634,25.2431395 49.8567901,24.4016461 Z" id="路径" fill="#000000" fill-rule="nonzero" opacity="0.1"></path>
                <circle id="椭圆形" fill="#A1616A" fill-rule="nonzero" cx="46.6106996" cy="20.8746228" r="7.05843621"></circle>
                <path d="M49.2861454,17.8106996 C50.9234568,17.5319616 52.7231824,16.805487 53.2718793,15.2384088 C53.6230453,14.2353909 53.3552812,13.0941015 52.7824417,12.200823 C52.2096022,11.3075446 51.3668038,10.6205761 50.497668,10.0060357 C49.0864198,9.01399177 47.5303155,8.16241427 45.8315501,7.86392318 C45.5386497,7.79389507 45.2333668,7.79389507 44.9404664,7.86392318 C44.6857498,7.96818201 44.4435389,8.10069863 44.2183813,8.25898491 C43.0573388,8.92839506 41.6131687,8.63868313 40.2677641,8.56844993 C38.9223594,8.49821674 37.3091907,8.87791495 36.8855967,10.1486968 C36.7539095,10.5415638 36.7626886,10.9651578 36.666118,11.3689986 C36.4466392,12.3566529 35.7026063,13.1248285 35.1297668,13.9478738 C34.5569273,14.7709191 34.115775,15.8836763 34.5986283,16.7703704 C34.7632373,17.0710562 35.0375857,17.3475995 35.0375857,17.6899863 C34.9952309,17.9333389 34.9214545,18.1701613 34.818107,18.394513 C34.6183813,19.1231824 35.2,19.8584362 35.8716049,20.2052126 C36.5432099,20.551989 37.315775,20.6595336 38.0005487,20.9821674 C39.3094256,21.6280483 40.1215181,22.9778199 40.0790123,24.4367627 C40.702332,24.5091907 41.4288066,24.5465021 41.8502058,24.0812071 C42.0389575,23.8727023 42.1311385,23.5939643 42.302332,23.3722908 C42.5218107,23.0825789 42.8641975,22.9113855 43.1451303,22.678738 C44.6222222,21.4650206 43.5731139,19.788203 44.4093278,18.4801097 C44.8482853,17.80631 45.5462277,18.01262 46.2529492,18.023594 C47.2684409,18.0473542 48.2839291,17.9760789 49.2861454,17.8106996 L49.2861454,17.8106996 Z" id="路径" fill="#000000" fill-rule="nonzero" opacity="0.1"></path>
                <path d="M49.145679,17.6702332 C50.7829904,17.3914952 52.582716,16.6650206 53.1314129,15.0979424 C53.4825789,14.0949246 53.2148148,12.9536351 52.6419753,12.0603567 C52.0691358,11.1670782 51.2263374,10.4801097 50.3572016,9.86556927 C48.9459534,8.87352538 47.3898491,8.02194787 45.6910837,7.72345679 C45.3981833,7.65342867 45.0929004,7.65342867 44.8,7.72345679 C44.5452834,7.82771562 44.3030725,7.96023223 44.077915,8.11851852 C42.9168724,8.78792867 41.4727023,8.49821674 40.1272977,8.42798354 C38.781893,8.35775034 37.1687243,8.73744856 36.7451303,10.0082305 C36.6134431,10.4010974 36.6222222,10.8246914 36.5256516,11.2285322 C36.3061728,12.2161866 35.5621399,12.9843621 34.9893004,13.8074074 C34.4164609,14.6304527 33.9753086,15.7432099 34.4581619,16.629904 C34.6227709,16.9305898 34.8971193,17.2071331 34.8971193,17.5495199 C34.8547645,17.7928725 34.7809881,18.0296949 34.6776406,18.2540466 C34.477915,18.982716 35.0595336,19.7179698 35.7311385,20.0647462 C36.4027435,20.4115226 37.1753086,20.5190672 37.8600823,20.841701 C39.1744778,21.4870141 39.9899149,22.841498 39.9451303,24.3050754 C40.5684499,24.3775034 41.2949246,24.4148148 41.7163237,23.9495199 C41.9050754,23.7410151 41.9972565,23.4622771 42.1684499,23.2406036 C42.3879287,22.9508916 42.7303155,22.7796982 43.0112483,22.5470508 C44.4883402,21.3333333 43.4392318,19.6565158 44.2754458,18.3484225 C44.7144033,17.6746228 45.4123457,17.8809328 46.1190672,17.8919067 C47.1326377,17.9123559 48.1459042,17.8381427 49.145679,17.6702332 Z" id="路径" fill="#4A4347" fill-rule="nonzero"></path>
                <path d="M57.6899863,41.4112483 C57.6899863,41.4112483 59.241701,49.4573388 58.5371742,52.562963 C58.1067198,54.3696124 58.1704007,56.258811 58.7215364,58.0323731" id="路径" fill="#000000" fill-rule="nonzero" opacity="0.1"></path>
                <path d="M32.6057613,44.7978052 C32.6057613,44.7978052 31.9297668,50.1618656 33.0556927,51.2899863" id="路径" fill="#000000" fill-rule="nonzero" opacity="0.1"></path>
                <path d="M72.0175583,110.902606 C72.1993804,110.902606 72.3467764,110.75521 72.3467764,110.573388 C72.3467764,110.391566 72.1993804,110.24417 72.0175583,110.24417 C71.8357362,110.24417 71.6883402,110.391566 71.6883402,110.573388 C71.6883402,110.75521 71.8357362,110.902606 72.0175583,110.902606 Z" id="路径" fill="#000000" fill-rule="nonzero"></path>
                <g id="编组" opacity="0.5" transform="translate(53.333333, 26.117970)" fill="url(#linearGradient-2)" fill-rule="nonzero">
                    <path d="M120.05487,46.430727 L120.05487,46.2485597 L60.1722908,0.201920439 C60.0947044,0.144483058 59.9886975,0.144483058 59.9111111,0.201920439 L0.0263374486,46.2485597 L0.0263374486,117.623045 L0.140466392,117.623045 L0.140466392,117.737174 L120.171193,117.737174 L120.171193,46.3626886 L120.05487,46.430727 Z" id="路径"></path>
                </g>
                <polygon id="路径" fill="#FFFFFF" fill-rule="nonzero" points="171.320713 141.750343 55.4359396 141.750343 55.4359396 72.8340192 113.378326 28.2798354 171.320713 72.8340192"></polygon>
                <polygon id="路径" fill="#E0E0E0" fill-rule="nonzero" points="167.150617 137.665844 59.6060357 137.665844 59.6060357 73.7097394 113.378326 32.3621399 167.150617 73.7097394"></polygon>
                <rect id="矩形" fill="#6C63FF" fill-rule="nonzero" transform="translate(109.756396, 81.723418) rotate(-14.690000) translate(-109.756396, -81.723418) " x="75.8469306" y="38.5958465" width="67.81893" height="86.255144"></rect>
                <rect id="矩形" fill="#F5F5F5" fill-rule="nonzero" x="79.7980796" y="44.0823045" width="67.81893" height="86.255144"></rect>
                <polygon id="路径" fill="#000000" fill-rule="nonzero" opacity="0.05" points="55.9846365 72.9437586 113.927023 107.40192 55.9846365 141.860082"></polygon>
                <polygon id="路径" fill="#FFFFFF" fill-rule="nonzero" points="55.545679 72.9437586 113.488066 107.40192 55.545679 141.860082"></polygon>
                <polygon id="路径" fill="#000000" fill-rule="nonzero" opacity="0.05" points="170.991495 72.9437586 113.049108 107.40192 170.991495 141.860082"></polygon>
                <polygon id="路径" fill="#FFFFFF" fill-rule="nonzero" points="171.430453 72.9437586 113.488066 107.40192 171.430453 141.860082"></polygon>
                <polygon id="路径" fill="#000000" fill-rule="nonzero" opacity="0.05" points="55.545679 140.762689 113.488066 95.5500686 171.430453 140.762689"></polygon>
                <polygon id="路径" fill="#FFFFFF" fill-rule="nonzero" points="55.545679 141.860082 113.488066 96.6474623 171.430453 141.860082"></polygon>
                <path d="M67.3207133,147.09465 C67.3207133,147.09465 64.4104252,137.218107 67.8672154,129.944582 C69.3359934,126.904177 69.7788249,123.469345 69.1292181,120.15583 C68.8088175,118.585524 68.3452436,117.047869 67.7443073,115.56214" id="路径" stroke="#535461" stroke-width="0.5"></path>
                <path d="M69.8930041,110.966255 C69.8930041,112.177778 67.6982167,115.687243 67.6982167,115.687243 C67.6982167,115.687243 65.5034294,112.175583 65.5034294,110.966255 C65.5034294,109.754108 66.4860691,108.771468 67.6982167,108.771468 C68.9103643,108.771468 69.8930041,109.754108 69.8930041,110.966255 Z" id="路径" fill="#6C63FF" fill-rule="nonzero"></path>
                <path d="M73.5253772,117.673525 C72.866941,118.689712 69.1182442,120.445542 69.1182442,120.445542 C69.1182442,120.445542 69.1862826,116.306173 69.8447188,115.289986 C70.5266321,114.335157 71.8389332,114.085533 72.8237902,114.723311 C73.8086472,115.36109 74.117701,116.660679 73.5253772,117.673525 Z" id="路径" fill="#6C63FF" fill-rule="nonzero"></path>
                <path d="M73.3585734,129.13251 C72.2765432,129.676818 68.1547325,129.301509 68.1547325,129.301509 C68.1547325,129.301509 70.3034294,125.763512 71.3832647,125.219204 C72.0871598,124.825391 72.950344,124.84939 73.6312703,125.281705 C74.3121966,125.714021 74.7011368,126.484987 74.6441939,127.289545 C74.5872511,128.094104 74.0936014,128.802604 73.3585734,129.134705 L73.3585734,129.13251 Z" id="路径" fill="#6C63FF" fill-rule="nonzero"></path>
                <path d="M71.2866941,137.777778 C70.3122085,138.497668 66.1860082,138.822497 66.1860082,138.822497 C66.1860082,138.822497 67.7048011,134.97284 68.6792867,134.252949 C69.6531807,133.603204 70.9656141,133.832248 71.6618557,134.773463 C72.3580972,135.714679 72.1930132,137.036681 71.2866941,137.777778 L71.2866941,137.777778 Z" id="路径" fill="#6C63FF" fill-rule="nonzero"></path>
                <path d="M64.5069959,120.678189 C65.3849108,121.520988 69.4211248,122.396708 69.4211248,122.396708 C69.4211248,122.396708 68.4312757,118.378052 67.5621399,117.535254 C66.6839845,116.759067 65.3509265,116.809795 64.5342993,117.650475 C63.717672,118.491155 63.7056512,119.825124 64.5069959,120.680384 L64.5069959,120.678189 Z" id="路径" fill="#6C63FF" fill-rule="nonzero"></path>
                <path d="M62.2112483,130.820302 C63.2932785,131.364609 67.4150892,130.9893 67.4150892,130.9893 C67.4150892,130.9893 65.2663923,127.451303 64.1865569,126.906996 C63.1152595,126.422962 61.8528097,126.868969 61.3233165,127.918542 C60.7938232,128.968116 61.185327,130.248517 62.2112483,130.822497 L62.2112483,130.820302 Z" id="路径" fill="#6C63FF" fill-rule="nonzero"></path>
                <path d="M61.3333333,140.982167 C62.3078189,141.702058 66.4340192,142.026886 66.4340192,142.026886 C66.4340192,142.026886 64.9152263,138.177229 63.9407407,137.457339 C63.3140311,136.944879 62.4561068,136.819022 61.7086163,137.12989 C60.9611258,137.440757 60.4454569,138.137865 60.3669628,138.943606 C60.2884687,139.749348 60.6598964,140.532875 61.3333333,140.982167 L61.3333333,140.982167 Z" id="路径" fill="#6C63FF" fill-rule="nonzero"></path>
                <rect id="矩形" fill="#6C63FF" fill-rule="nonzero" opacity="0.5" x="83.7486968" y="48.0329218" width="27.2153635" height="2.19478738"></rect>
                <rect id="矩形" fill="#6C63FF" fill-rule="nonzero" opacity="0.5" x="83.7486968" y="56.8120713" width="58.8203018" height="2.19478738"></rect>
                <rect id="矩形" fill="#6C63FF" fill-rule="nonzero" opacity="0.5" x="83.7486968" y="62.5185185" width="58.8203018" height="2.19478738"></rect>
                <rect id="矩形" fill="#6C63FF" fill-rule="nonzero" opacity="0.4" x="83.7486968" y="68.2249657" width="58.8203018" height="2.19478738"></rect>
                <rect id="矩形" fill="#6C63FF" fill-rule="nonzero" opacity="0.4" x="83.7486968" y="73.9314129" width="58.8203018" height="2.19478738"></rect>
                <rect id="矩形" fill="#6C63FF" fill-rule="nonzero" opacity="0.3" x="83.7486968" y="79.6378601" width="33.5802469" height="2.19478738"></rect>
                <rect id="矩形" fill="#6C63FF" fill-rule="nonzero" opacity="0.3" x="83.7486968" y="85.3443073" width="45.8710562" height="2.19478738"></rect>
            </g>
        </g>
    </g>
</svg>