<?xml version="1.0" encoding="UTF-8"?>
<svg width="222px" height="208px" viewBox="0 0 222 208" version="1.1" xmlns="http://www.w3.org/2000/svg" xmlns:xlink="http://www.w3.org/1999/xlink">
    <!-- Generator: Sketch 64 (93537) - https://sketch.com -->
    <title>成功</title>
    <desc>Created with Sketch.</desc>
    <g id="蓝紫新风格" stroke="none" stroke-width="1" fill="none" fill-rule="evenodd">
        <g id="0-4修改密码-修改成功" transform="translate(-572.000000, -248.000000)">
            <g id="成功" transform="translate(572.000000, 248.000000)">
                <path d="M160.755067,92.9641241 C161.117922,86.0307223 166.845448,80.5950028 173.788339,80.5948723 C174.184995,80.5948723 174.576682,80.6155581 174.964326,80.6502044 C178.066981,75.3124374 183.77376,72.0269722 189.947755,72.0240509 C196.121751,72.0211335 201.831634,75.3012003 204.939336,80.6360308 C205.26637,80.6114692 205.595604,80.5948723 205.928916,80.5948723 C212.871806,80.5950039 218.599331,86.0307228 218.962188,92.9641241" id="路径" fill="#F2F2F2" fill-rule="nonzero"></path>
                <path d="M163.473377,91.9601593 C163.836232,85.0267575 169.563758,79.5910379 176.506648,79.5909075 C176.903305,79.5909075 177.294992,79.6115933 177.682636,79.6462396 C180.785291,74.3084725 186.49207,71.0230074 192.666065,71.0200861 C198.840061,71.0171687 204.549943,74.2972355 207.657646,79.632066 C207.98468,79.6075043 208.313914,79.5909075 208.647226,79.5909075 C215.590116,79.591039 221.317641,85.026758 221.680498,91.9601593" id="路径" stroke="#3F3D56" stroke-width="0.5"></path>
                <path d="M15.2852131,166.513702 C16.459076,143.706049 35.3229534,125.574167 58.4225079,125.574167 C59.7353565,125.574167 61.0317568,125.642636 62.3147755,125.757309 C72.5838901,108.090461 91.472085,97.216285 111.906667,97.2066153 C132.34125,97.1969585 151.239721,108.053266 161.525539,125.710394 C162.60795,125.629095 163.697634,125.574167 164.800831,125.574167 C187.900386,125.574167 206.764263,143.706049 207.938126,166.513702" id="路径" fill="#F2F2F2" fill-rule="nonzero"></path>
                <path d="M24.2822281,163.190806 C25.4560911,140.383142 44.3199684,122.25126 67.4195251,122.25126 C68.7323716,122.25126 70.0287719,122.319729 71.3117905,122.434402 C81.5809071,104.767555 100.469103,93.8933814 120.903686,93.8837139 C141.338268,93.8740594 160.236738,104.730368 170.522555,122.387498 C171.604965,122.306199 172.694649,122.251271 173.797846,122.251271 C196.897401,122.251271 215.76128,140.383153 216.935141,163.190806" id="路径" stroke="#3F3D56" stroke-width="0.5"></path>
                <path d="M0,87.7991313 C0.490967213,78.4178471 8.24063269,71.0630122 17.6347554,71.0628329 C18.1714562,71.0628329 18.7014297,71.090825 19.2259347,71.1377016 C23.4240028,63.9153977 31.1455989,59.4699754 39.4993666,59.4660232 C47.8531342,59.4620763 55.5789303,63.9001954 59.7838257,71.1185265 C60.2263214,71.0852898 60.6717934,71.0628329 61.1227834,71.0628329 C70.516906,71.0630122 78.2665715,78.4178471 78.7575387,87.7991313" id="路径" fill="#F2F2F2" fill-rule="nonzero"></path>
                <path d="M3.67802798,86.4407102 C4.16899519,77.059426 11.9186607,69.7045911 21.3127834,69.7044118 C21.8494821,69.7044118 22.3794577,69.7324039 22.9039627,69.7792783 C27.1020316,62.5569756 34.8236275,58.1115542 43.1773946,58.1076021 C51.5311616,58.1036552 59.2569575,62.5417733 63.4618537,69.7601033 C63.9043494,69.7268687 64.3498214,69.7044118 64.8008113,69.7044118 C74.194934,69.7045911 81.9445995,77.059426 82.4355667,86.4407102" id="路径" stroke="#3F3D56" stroke-width="0.5"></path>
                <path d="M88.4559448,108.715885 C88.4559448,108.715885 91.4688572,116.032958 86.9494885,117.754622 C86.9494885,117.754622 93.4057296,120.552326 94.9121858,119.906702 C96.418642,119.261078 97.4946822,117.754622 97.4946822,117.324206 C97.4946822,116.89379 95.988226,116.678582 95.988226,116.678582 C95.988226,116.678582 93.1905215,116.89379 95.3426019,109.791925 L88.4559448,108.715885 Z" id="路径" fill="#FBBEBE" fill-rule="nonzero"></path>
                <circle id="椭圆形" fill="#FBBEBE" fill-rule="nonzero" cx="91.8992733" cy="107.209428" r="5.38020086"></circle>
                <ellipse id="椭圆形" fill="#FF6584" fill-rule="nonzero" cx="88.3483407" cy="106.025784" rx="4.73457676" ry="6.67144907"></ellipse>
                <ellipse id="椭圆形" fill="#FF6584" fill-rule="nonzero" cx="84.9050122" cy="103.873704" rx="4.73457676" ry="6.67144907"></ellipse>
                <ellipse id="椭圆形" fill="#FF6584" fill-rule="nonzero" cx="80.1704354" cy="99.031523" rx="2.36728838" ry="3.33572453"></ellipse>
                <path d="M97.2794742,116.463374 C97.2794742,116.463374 98.5707224,113.880877 103.305299,112.589629 C108.039876,111.298381 117.293821,95.8034024 117.293821,95.8034024 C117.293821,95.8034024 116.863405,86.549457 119.015486,89.3471614 C121.167566,92.1448659 119.445902,97.7402747 119.445902,97.7402747 L113.892635,107.33228 C112.856519,109.12257 111.560286,110.749072 110.046351,112.158567 C106.612973,115.354282 100.478417,120.982742 99.8619706,120.982742 C99.0011385,120.982742 97.2794742,116.463374 97.2794742,116.463374 Z" id="路径" fill="#FBBEBE" fill-rule="nonzero"></path>
                <path d="M89.747193,153.263948 C89.747193,153.263948 91.2536492,171.556631 90.8232331,173.278295 C90.3928171,174.999959 89.1015689,178.443288 91.2536492,188.558065 C93.4057296,198.672843 90.8232331,198.027219 90.8232331,198.027219 L97.7098902,201.040131 C97.7098902,201.040131 95.3426019,189.418897 95.7730179,186.190777 C96.203434,182.962656 95.988226,176.291207 97.2794742,171.771839 C98.5707224,167.25247 98.7859304,154.555196 98.7859304,154.555196 L89.747193,153.263948 Z" id="路径" fill="#FBBEBE" fill-rule="nonzero"></path>
                <path d="M89.747193,153.263948 C89.747193,153.263948 91.2536492,171.556631 90.8232331,173.278295 C90.3928171,174.999959 89.1015689,178.443288 91.2536492,188.558065 C93.4057296,198.672843 90.8232331,198.027219 90.8232331,198.027219 L97.7098902,201.040131 C97.7098902,201.040131 95.3426019,189.418897 95.7730179,186.190777 C96.203434,182.962656 95.988226,176.291207 97.2794742,171.771839 C98.5707224,167.25247 98.7859304,154.555196 98.7859304,154.555196 L89.747193,153.263948 Z" id="路径" fill="#000000" fill-rule="nonzero" opacity="0.1"></path>
                <path d="M97.4419584,198.711804 C96.9083845,199.082433 95.537759,199.458576 92.9753156,196.735979 C92.9753156,196.735979 91.4688594,194.583899 90.1776112,196.735979 C88.886363,198.88806 89.7471951,199.103268 90.6080273,200.179308 C91.4390165,201.218042 98.0858027,208.273121 100.86878,207.986683 C100.965501,207.977197 101.060886,207.957114 101.153221,207.926797 C103.735717,207.065965 100.077181,204.26826 100.077181,204.26826 C100.077181,204.26826 97.6786098,200.578151 97.6649333,198.835588 C97.6664341,198.781973 97.6379458,198.731987 97.5910521,198.705955 C97.5441583,198.679922 97.4866684,198.682177 97.4419584,198.711804 Z" id="路径" fill="#3F3D56" fill-rule="nonzero"></path>
                <path d="M84.5822001,151.111867 C84.5822001,151.111867 80.9236636,159.504981 79.4172073,163.809141 C78.6263178,166.068826 76.233878,166.786275 74.1395036,166.958011 C71.5498887,167.159585 69.0342806,167.91768 66.7644857,169.180521 C63.752378,170.871225 59.6422425,172.789844 57.035576,172.417465 C52.5162073,171.771841 56.1747439,178.873706 56.1747439,178.873706 C56.1747439,178.873706 62.846193,174.784753 69.087226,174.354337 C75.328259,173.923921 81.999708,173.278297 85.0126205,169.404552 C88.025533,165.530808 95.3426062,153.26395 95.3426062,153.26395 L84.5822001,151.111867 Z" id="路径" fill="#FBBEBE" fill-rule="nonzero"></path>
                <path d="M56.3899476,177.797664 C56.3899476,177.797664 54.2378673,176.291207 55.9595316,174.784751 C57.6811958,173.278295 58.3268199,171.987047 58.3268199,171.987047 C58.3268199,171.987047 55.3139075,168.758926 54.2378673,170.48059 C53.1618271,172.202255 48.4272504,179.949744 49.5032905,182.317032 C50.5793307,184.684321 51.6553709,185.329945 52.9466191,182.747448 C54.2378673,180.164952 57.4944297,178.131793 57.4944297,178.131793 L56.3899476,177.797664 Z" id="路径" fill="#3F3D56" fill-rule="nonzero"></path>
                <path d="M96.418642,117.539414 C96.418642,117.539414 95.7032303,118.97024 89.0548687,117.592637 C87.2530937,117.195481 85.4088168,118.055758 84.5552991,119.691494 C83.721368,121.359357 83.613764,123.780447 86.5190725,126.793359 C86.5190725,126.793359 91.6840653,132.603976 89.1015689,134.971265 C86.5190725,137.338553 101.368427,133.464808 101.368427,133.464808 C101.368427,133.464808 99.4315545,132.17356 101.153219,128.299816 C102.505956,125.256159 102.397253,123.541082 101.349058,122.21509 C100.716364,121.390207 100.285991,120.42841 100.092521,119.406987 C99.7986564,117.966357 99.0727274,116.161045 97.2794763,116.032956 C97.2794763,116.032956 95.3944218,115.922554 95.2609089,116.408166 C95.127396,116.893779 96.8490581,117.324206 96.418642,117.539414 Z" id="路径" fill="#6C63FF" fill-rule="nonzero"></path>
                <path d="M88.5502554,122.104702 C88.5058085,121.801237 88.4514125,121.499711 88.4133142,121.195383 C88.2832468,120.156378 87.7892884,117.638892 86.0803278,118.072069 C83.936576,118.615456 81.5692877,123.995657 81.5692877,123.995657 C81.5692877,123.995657 79.6324154,130.021482 76.8347109,131.527938 C74.0370065,133.034395 66.2895172,140.781884 66.2895172,140.781884 C66.2895172,140.781884 59.8332762,142.503548 62.2005646,144.225212 C64.5678529,145.946877 67.5807654,143.149172 67.5807654,143.149172 L75.1923508,138.582227 C77.8546488,136.980814 80.1437082,134.828592 81.9059806,132.26993 C83.4916851,129.973355 85.4773752,127.31916 86.7356793,126.442164 C87.4977986,125.93261 88.069695,125.18499 88.3620409,124.31608 C88.5918442,123.602801 88.6562095,122.846558 88.5502554,122.104702 L88.5502554,122.104702 Z" id="路径" fill="#FBBEBE" fill-rule="nonzero"></path>
                <path d="M90.3928171,134.540849 C90.3928171,134.540849 80.4932475,133.2496 74.8978386,139.921049 C69.3024297,146.592499 65.213477,144.655626 65.6438931,145.731666 C66.0743092,146.807707 86.7342805,159.504981 98.7859304,157.998524 C106.122953,157.081396 110.030137,156.244032 111.964283,155.729231 C112.794438,155.515791 113.52656,155.024705 114.038985,154.337584 C114.325996,153.957265 114.681796,153.634153 115.08793,153.385009 C115.509347,153.108163 115.800531,152.672303 115.894958,152.177006 C115.989386,151.681709 115.87899,151.169289 115.588991,150.756813 C112.175832,145.818679 102.909648,132.737735 100.292387,132.388768 C97.0642661,131.958352 90.3928171,134.540849 90.3928171,134.540849 Z" id="路径" fill="#6C63FF" fill-rule="nonzero"></path>
                <ellipse id="椭圆形" fill="#FF6584" fill-rule="nonzero" cx="92.0068773" cy="101.398811" rx="3.44332855" ry="2.4748924"></ellipse>
                <path d="M160.726425,79.3461148 C160.945872,78.2105097 161.24578,77.0919437 161.623881,75.9988766 C162.012839,74.9352023 162.504781,74.0277669 163.053202,74.0277669 C164.38279,74.0277669 158.399647,68.3770194 158.399647,68.3770194 C158.399647,68.3770194 158.024077,69.0750445 157.402457,70.0157339 C156.943152,70.7180646 156.446043,71.3949322 155.913325,72.0433465 C155.204157,72.9395173 154.361036,73.7209718 153.413684,74.3601621 C150.754519,76.0221471 160.726425,79.3461148 160.726425,79.3461148 Z" id="路径" fill="#A0616A" fill-rule="nonzero"></path>
                <path d="M178.329766,101.380011 C178.329766,101.380011 191.659132,109.801721 187.552076,111.185556 C183.44502,112.569391 176.640977,102.675382 176.640977,102.675382 L178.329766,101.380011 Z" id="路径" fill="#A0616A" fill-rule="nonzero"></path>
                <path d="M160.451038,82.2507927 C160.451038,82.2507927 166.834997,86.9059577 168.700707,90.4471241 C170.566416,93.9882905 180.266159,101.857441 180.266159,101.857441 C180.266159,101.857441 178.263529,105.814243 177.295334,105.575526 C176.327139,105.336808 156.366217,90.4871291 154.266217,89.2846628 C152.166217,88.0821966 155.366897,80.6549132 160.451038,82.2507927 Z" id="路径" fill="#6C63FF" fill-rule="nonzero"></path>
                <path d="M160.451038,82.2507927 C160.451038,82.2507927 166.834997,86.9059577 168.700707,90.4471241 C170.566416,93.9882905 180.266159,101.857441 180.266159,101.857441 C180.266159,101.857441 178.263529,105.814243 177.295334,105.575526 C176.327139,105.336808 156.366217,90.4871291 154.266217,89.2846628 C152.166217,88.0821966 155.366897,80.6549132 160.451038,82.2507927 Z" id="路径" fill="#000000" fill-rule="nonzero" opacity="0.1"></path>
                <path d="M179.340648,90.6476076 C179.340648,90.6476076 194.298506,95.6335603 190.642141,97.9603379 C186.985775,100.287115 178.01106,92.3095925 178.01106,92.3095925 L179.340648,90.6476076 Z" id="路径" fill="#A0616A" fill-rule="nonzero"></path>
                <path d="M169.70114,158.788958 C169.70114,158.788958 176.01668,156.129785 175.351885,160.118545 C174.68709,164.107306 171.69552,167.763673 171.69552,169.758053 C171.69552,171.752433 166.044775,176.073593 165.047582,175.076403 C164.05039,174.079213 166.709567,170.090451 166.044775,167.763673 C165.379982,165.436895 164.715187,160.118545 164.715187,160.118545 L169.70114,158.788958 Z" id="路径" fill="#55536E" fill-rule="nonzero"></path>
                <path d="M169.70114,158.788958 C169.70114,158.788958 176.01668,156.129785 175.351885,160.118545 C174.68709,164.107306 171.69552,167.763673 171.69552,169.758053 C171.69552,171.752433 166.044775,176.073593 165.047582,175.076403 C164.05039,174.079213 166.709567,170.090451 166.044775,167.763673 C165.379982,165.436895 164.715187,160.118545 164.715187,160.118545 L169.70114,158.788958 Z" id="路径" fill="#000000" fill-rule="nonzero" opacity="0.1"></path>
                <path d="M167.706758,161.78053 C167.706758,161.78053 174.022298,159.121355 173.357505,163.110118 C172.692712,167.09888 169.70114,170.755245 169.70114,172.749626 C169.70114,174.744006 164.050392,179.065166 163.053202,178.067976 C162.056012,177.070786 164.715187,173.082023 164.050392,170.755245 C163.385598,168.428468 162.720805,163.110118 162.720805,163.110118 L167.706758,161.78053 Z" id="路径" fill="#55536E" fill-rule="nonzero"></path>
                <path d="M153.081297,137.515562 C153.081297,137.515562 172.69271,156.129785 172.027918,157.791768 C171.363125,159.45375 167.041965,163.110118 167.041965,163.110118 C167.041965,163.110118 152.084107,143.498704 153.081297,137.515562 Z" id="路径" fill="#3F3D56" fill-rule="nonzero"></path>
                <path d="M153.081297,137.515562 C153.081297,137.515562 172.69271,156.129785 172.027918,157.791768 C171.363125,159.45375 167.041965,163.110118 167.041965,163.110118 C167.041965,163.110118 152.084107,143.498704 153.081297,137.515562 Z" id="路径" fill="#000000" fill-rule="nonzero" opacity="0.1"></path>
                <path d="M148.427742,103.943481 C148.427742,103.943481 153.413694,108.929433 152.084107,118.568941 C150.754519,128.208449 153.081297,137.515562 155.740472,140.507132 C158.399647,143.498702 169.368736,160.78334 169.368736,160.78334 C169.368736,160.78334 164.715181,168.428466 161.058816,164.439705 C157.402451,160.450945 146.433355,144.163497 146.433355,144.163497 C146.433355,144.163497 136.461456,124.552084 135.464266,119.233734 C134.467076,113.915384 134.134679,105.60547 136.793854,103.943478 C139.453029,102.281487 148.427742,103.943481 148.427742,103.943481 Z" id="路径" fill="#3F3D56" fill-rule="nonzero"></path>
                <path d="M156.671184,71.0661105 C160.553578,71.8705108 160.167999,72.0267367 162.554608,72.8643888 C162.567904,72.8245 162.581199,72.7912611 162.594495,72.7580201 C162.960133,71.887142 163.189485,73.0305875 163.717997,73.0305875 C165.047582,73.0305875 159.06444,67.37984 159.06444,67.37984 C159.06444,67.37984 158.838411,67.7986607 158.449506,68.4268895 C158.333167,68.6097088 158.206857,68.8091463 158.06725,69.0185567 C157.95091,69.194726 157.8246,69.3808702 157.691641,69.57366 L156.671184,71.0661105 Z" id="路径" fill="#000000" fill-rule="nonzero" opacity="0.1"></path>
                <circle id="椭圆形" fill="#A0616A" fill-rule="nonzero" cx="163.717995" cy="69.3742116" r="6.31554017"></circle>
                <path d="M152.084107,74.0277669 C152.084107,74.0277669 161.723615,75.024957 163.717997,79.3461148 C165.712379,83.6672726 151.419314,104.608275 150.422122,104.940671 C149.42493,105.273066 135.464266,106.935053 135.464266,106.935053 C135.464266,106.935053 136.129059,85.6616549 149.09253,77.684132 C149.092537,77.684132 152.084107,76.3545445 152.084107,74.0277669 Z" id="路径" fill="#6C63FF" fill-rule="nonzero"></path>
                <path d="M157.402457,76.3545445 C157.402457,76.3545445 164.715187,79.3461148 167.374362,82.3376872 C170.033537,85.3292597 181.335028,90.6476076 181.335028,90.6476076 C181.335028,90.6476076 180.337838,94.9687697 179.340648,94.9687697 C178.343458,94.9687697 155.408075,85.3292575 153.081297,84.6644648 C150.754519,83.9996722 152.084107,76.0221471 157.402457,76.3545445 Z" id="路径" fill="#6C63FF" fill-rule="nonzero"></path>
                <path d="M163.219401,70.205203 C163.219401,70.205203 164.881386,68.5432181 161.557416,67.2136306 C161.557416,67.2136306 164.881386,65.884043 165.546179,63.8896628 C166.210971,61.8952826 168.537751,58.5713128 170.532131,63.8896628 C172.526511,69.2080129 176.182877,76.1883458 164.216591,76.1883458 C164.216591,76.1883458 161.225021,76.8531385 161.225021,74.1939656 C161.225021,72.6246006 161.963909,71.1468223 163.219401,70.205203 L163.219401,70.205203 Z" id="路径" fill="#3F3D56" fill-rule="nonzero"></path>
                <circle id="椭圆形" fill="#6353E5" fill-rule="nonzero" cx="116" cy="33" r="33"></circle>
                <g id="对号" transform="translate(99.000000, 21.000000)" fill="#FFFFFF" fill-rule="nonzero">
                    <path d="M14.0676316,24.01425 C13.3973024,24.01425 12.7296227,23.7532927 12.2182648,23.2340684 L1.75529968,12.5671028 C0.73523344,11.5259639 0.73523344,9.83646724 1.75529968,8.79532835 C2.77801544,7.75418947 4.43396712,7.75418947 5.45403336,8.79532835 L14.0676316,17.5764067 L30.5264666,0.797121875 C31.5465329,-0.246707292 33.2024846,-0.246707292 34.2252003,0.797121875 C35.2452666,1.83826076 35.2452666,3.52506717 34.2252003,4.56620606 L15.9169985,23.2340684 C15.4056406,23.7532927 14.7353114,24.01425 14.0676316,24.01425 Z" id="路径"></path>
                </g>
            </g>
        </g>
    </g>
</svg>