<?xml version="1.0" encoding="UTF-8"?>
<svg width="222px" height="170px" viewBox="0 0 222 170" version="1.1" xmlns="http://www.w3.org/2000/svg" xmlns:xlink="http://www.w3.org/1999/xlink">
    <!-- Generator: Sketch 64 (93537) - https://sketch.com -->
    <title>修改密码</title>
    <desc>Created with Sketch.</desc>
    <g id="蓝紫新风格" stroke="none" stroke-width="1" fill="none" fill-rule="evenodd">
        <g id="0-3修改密码-修改" transform="translate(-582.000000, -216.000000)" fill-rule="nonzero">
            <g id="修改密码" transform="translate(582.000000, 216.000000)">
                <ellipse id="椭圆形" fill="#6C63FF" opacity="0.1" cx="101.028263" cy="142.473932" rx="91.6224142" ry="7.11421099"></ellipse>
                <g id="编组" opacity="0.1" transform="translate(146.380281, 19.833558)">
                    <path d="M35.7974162,82.1023064 C35.2498375,80.440168 33.0293414,79.6748514 30.8390267,80.3948958 C30.5234511,80.4977624 30.218158,80.6298396 29.9271142,80.7894111 C29.7869858,80.7506063 29.6425458,80.7161132 29.4959499,80.6902433 C29.6155953,80.2120885 29.6613972,79.7184457 29.6317667,79.2264405 C31.1681895,78.1985675 32.0585331,76.4448355 31.9816121,74.5978917 C33.5137776,73.5671202 34.4003733,71.8143386 34.3228343,69.9693429 C35.0821086,69.4689608 35.6944908,68.7754733 36.0970754,67.9601173 C37.1534279,65.8689704 36.7157961,63.519125 35.1183324,62.7106919 C33.5208687,61.9022589 31.367203,62.9435206 30.3108504,65.0346675 C29.8920592,65.8417366 29.6963262,66.7459784 29.7438694,67.6539906 C28.2117039,68.6847622 27.3251082,70.4375438 27.4026472,72.2825394 C25.8704817,73.313311 24.983886,75.0660926 25.0614251,76.9110882 C23.5256326,77.9405223 22.6355965,79.6944651 22.7115796,81.5417928 C21.9523053,82.0421749 21.3399231,82.7356625 20.9373385,83.5510185 C20.7387744,83.9440196 20.5882219,84.3594865 20.4889276,84.78846 C20.2241238,84.4014216 19.9012759,84.0574868 19.5317429,83.7687564 C19.4894589,83.4395132 19.4173006,83.1148009 19.3161607,82.7986368 C18.5961164,80.6061663 16.6645003,79.2695569 15.0045177,79.8171356 C13.3445352,80.3647143 12.5770627,82.5830546 13.2971071,84.7755251 C13.5918054,85.7155881 14.1590536,86.5469518 14.9269081,87.1641753 C14.9691921,87.4934186 15.0413504,87.8181308 15.1424903,88.134295 C15.5607197,89.4062297 16.3863993,90.3892843 17.3306491,90.8829674 C17.247018,91.1575779 17.1871531,91.4388707 17.1517159,91.7237378 C16.2613828,92.5800892 15.6882594,93.7134142 15.5262265,94.9380677 C14.6351811,95.7947712 14.0619697,96.9290303 13.9007371,98.1545534 C13.4595582,98.5781892 13.094891,99.0748659 12.8228263,99.6226678 C11.764318,101.713815 12.2019498,104.065816 13.7994135,104.872093 C15.3968772,105.67837 17.5505429,104.64142 18.6090513,102.548118 C18.8880766,102.002252 19.0704246,101.412174 19.1480067,100.804058 C20.0383398,99.9477066 20.6114632,98.8143817 20.7734961,97.5897281 C21.6645414,96.7330247 22.2377528,95.5987655 22.3989855,94.3732425 C23.2833015,93.5148858 23.8496328,92.3814629 24.0050725,91.1589126 C24.8994152,90.3023486 25.4744139,89.1660417 25.6348736,87.9381152 C25.9091056,87.678095 26.1541622,87.3889427 26.3656971,87.0757866 C27.2465073,87.2565796 28.1595924,87.1992792 29.0108901,86.9097884 C29.3264657,86.8069217 29.6317588,86.6748446 29.9228026,86.515273 C30.8762882,86.7667343 31.8828312,86.7307327 32.815915,86.4117936 C34.9997622,85.6982167 36.342839,83.7666006 35.7974162,82.1023064 Z" id="路径" fill="#3F3D56"></path>
                    <g transform="translate(12.288183, 68.123960)" fill="#000000" id="路径">
                        <path d="M19.6438456,7.42464928 C19.4175899,7.64713056 19.1690856,7.84578951 18.902243,8.0175002 C18.9361191,8.63289346 18.8549672,9.24920885 18.6629468,9.83485773 C18.8325915,9.60034855 18.9839455,9.35313703 19.1156693,9.09541095 C19.3830037,8.57156902 19.5614903,8.00696845 19.6438456,7.42464928 L19.6438456,7.42464928 Z"></path>
                        <path d="M21.9850678,2.7961005 C21.7588121,3.01858178 21.5103078,3.21724073 21.2434652,3.38895141 C21.2773412,4.00434467 21.1961894,4.62066007 21.004169,5.20630895 C21.1742941,4.97136497 21.3256687,4.72339884 21.4568915,4.46470635 C21.7232299,3.94121874 21.9016694,3.37749546 21.9850678,2.7961005 L21.9850678,2.7961005 Z"></path>
                        <path d="M16.6752794,1.07359911 C16.6554665,0.756267579 16.6677451,0.437746385 16.7119284,0.122881826 C16.2932932,0.535480092 15.9451769,1.01395799 15.6814457,1.53925656 C15.5512923,1.79828598 15.4417258,2.06715649 15.3537608,2.34337798 C15.7105707,1.84084383 16.1589028,1.41006473 16.6752794,1.07359911 L16.6752794,1.07359911 Z"></path>
                        <path d="M1.81520171,29.084188 C2.0035609,28.8216467 2.21651277,28.5776544 2.45116906,28.3555203 C2.48784267,28.0630587 2.55061177,27.7744651 2.63872553,27.4931917 C2.45126879,27.7449651 2.28608427,28.0125785 2.1450424,28.2930015 C2.01474191,28.5477765 1.90446221,28.8123037 1.81520171,29.084188 Z"></path>
                        <path d="M3.44069113,25.8720139 C3.62905032,25.6094727 3.84200219,25.3654803 4.07665848,25.1433463 C4.11185157,24.8584381 4.17172088,24.5771245 4.25559166,24.3025759 L4.25559166,24.3025759 C4.07657984,24.5471386 3.91795322,24.8059884 3.78131093,25.0765158 C3.64801543,25.3327803 3.53415526,25.5986943 3.44069113,25.8720139 Z"></path>
                        <path d="M17.3004676,12.0531981 C17.0754908,12.2756051 16.8276311,12.4736039 16.5610208,12.6438932 C16.5905498,13.1358967 16.5447493,13.6295241 16.4252041,14.107696 C16.5706281,14.1328559 16.7145651,14.1659614 16.8563684,14.2068638 C17.1474121,14.0472922 17.4527052,13.9152151 17.7682809,13.8123484 C19.9629072,13.092304 22.1812475,13.8576207 22.7266704,15.5197591 C22.8620716,15.9375299 22.8858539,16.3834492 22.7956567,16.813252 C23.5178569,15.9638583 23.817516,14.929064 23.5070778,13.9805025 C22.9594991,12.3183641 20.7390029,11.5530475 18.5486883,12.2730919 C18.2331126,12.3759585 17.9278195,12.5080357 17.6367758,12.6676072 C17.4966474,12.6288024 17.3522073,12.5943093 17.2056115,12.5684394 C17.2465721,12.3959737 17.2767536,12.2256638 17.3004676,12.0531981 Z"></path>
                        <path d="M1.01323611,30.6988983 C0.825779367,30.9506717 0.660594848,31.2182851 0.519552984,31.4987081 C0.388554806,31.758638 0.277567573,32.0281784 0.187556471,32.3049853 C0.379997923,32.0411764 0.596508594,31.7957977 0.834302925,31.572006 C0.867524279,31.2761742 0.927412231,30.9839499 1.01323611,30.6988983 Z"></path>
                        <path d="M14.3232781,5.7021479 C14.303597,5.38481481 14.3158751,5.06630687 14.3599271,4.75143061 C13.9412919,5.16402888 13.5931756,5.64250678 13.3294444,6.16780534 C13.199291,6.42683477 13.0897245,6.69570528 13.0017595,6.97192677 C13.3585695,6.46939261 13.8069015,6.03861351 14.3232781,5.7021479 L14.3232781,5.7021479 Z"></path>
                        <path d="M10.9407942,24.578521 C10.8982585,24.8992551 10.8260892,25.2153568 10.725212,25.5227709 C10.8938674,25.2872726 11.0444851,25.0393659 11.1757787,24.7811683 C11.3170986,24.5041853 11.4346535,24.215707 11.5271776,23.9188397 C11.3506775,24.1548828 11.1545163,24.3755641 10.9407942,24.578521 Z"></path>
                        <path d="M7.68981533,31.0071808 C7.64745132,31.3279457 7.57527838,31.6440632 7.47423318,31.9514306 C7.64435826,31.7164866 7.79573293,31.4685205 7.92695569,31.209828 C8.06738464,30.9324379 8.18490878,30.6440351 8.2783546,30.3474994 C8.10171269,30.584074 7.9047878,30.804803 7.68981533,31.0071808 L7.68981533,31.0071808 Z"></path>
                        <path d="M9.31530475,27.7906951 C9.27299015,28.1114689 9.20081616,28.427591 9.0997226,28.7349449 C9.27153005,28.5039481 9.42574571,28.2603739 9.5610684,28.0062772 C9.70238833,27.7292943 9.81994324,27.4408159 9.91246731,27.1439486 C9.73196503,27.375949 9.5322017,27.5922992 9.31530475,27.7906951 Z"></path>
                        <path d="M12.5662836,21.3641912 C12.5239734,21.6842608 12.4517979,21.9996678 12.3507014,22.3062852 C12.5198123,22.0718426 12.6704544,21.8246165 12.8012681,21.5668384 C12.9441312,21.2850761 13.0624213,20.9915147 13.1548229,20.689419 C12.9791931,20.9314718 12.7822256,21.1572989 12.5662836,21.3641912 L12.5662836,21.3641912 Z"></path>
                        <path d="M1.92299279,13.2345883 C3.58728699,12.6891654 5.51890307,14.0236189 6.23463581,16.2160894 C6.33555998,16.5330465 6.40771255,16.8584546 6.45021796,17.1883649 C6.81975095,17.4770953 7.14259883,17.82103 7.40740271,18.2080685 C7.50667224,17.7783972 7.65722207,17.3622138 7.85581358,16.9684711 C7.93126734,16.8218752 8.01318856,16.6817468 8.09726559,16.5373068 C7.85262618,16.1987063 7.56244841,15.8954705 7.23493699,15.6361734 C7.19265301,15.3069302 7.12049474,14.9822179 7.01935484,14.6660537 C6.29931045,12.4735833 4.36769438,11.1369739 2.70771182,11.6845526 C1.75915035,11.9949909 1.10378061,12.850852 0.849393675,13.9330744 C1.14113578,13.6116741 1.51094551,13.371075 1.92299279,13.2345883 L1.92299279,13.2345883 Z"></path>
                        <path d="M9.6408338,14.9592455 C9.62179201,14.6425583 9.63479295,14.3247576 9.67963858,14.010684 C9.25963891,14.4226026 8.91071112,14.9011946 8.64700008,15.4270587 C8.51648827,15.6851815 8.40690804,15.9533647 8.31931521,16.2290243 C8.67709371,15.7273259 9.12525361,15.2967122 9.6408338,14.9592455 Z"></path>
                        <path d="M11.982056,10.3285409 C11.9630142,10.0118537 11.9760151,9.69405296 12.0208607,9.37997939 C11.600418,9.79069772 11.2514176,10.2686607 10.9882222,10.7941983 C10.8580689,11.0532277 10.7485023,11.3220982 10.6605374,11.5983197 C11.0173473,11.0957856 11.4656794,10.6650065 11.982056,10.3285409 Z"></path>
                        <path d="M6.06432591,34.2215107 C6.02197031,34.5429821 5.94979859,34.859816 5.84874376,35.1679163 C6.2030921,34.6771601 6.47472351,34.1317126 6.65286518,33.553206 C6.47662154,33.7927687 6.2796857,34.0163954 6.06432591,34.2215107 L6.06432591,34.2215107 Z"></path>
                    </g>
                    <path d="M38.9923437,60.7122454 C39.7521688,60.2124979 40.3646981,59.5188438 40.7665848,58.7030197 C41.8250931,56.6118729 41.3874614,54.2598716 39.7899976,53.4514385 C38.1925339,52.6430055 36.0388682,53.6842673 34.9803598,55.7775699 C34.561084,56.5867275 34.3660588,57.4933713 34.4155346,58.4033605 C32.8833691,59.4341321 31.9967734,61.1869137 32.0743124,63.0319093 C31.3140023,63.5310975 30.701343,64.2248988 30.3000713,65.041135 C30.1702942,65.2970919 30.0614297,65.5631251 29.9745423,65.8366331 C30.5373364,65.0216477 31.3535494,64.4153613 32.2963621,64.1119759 C32.5131504,64.7827159 32.9892964,65.3388334 33.6186435,65.6563418 C34.2479906,65.9738502 34.9782134,66.0263513 35.6465087,65.80214 C35.9648577,66.7395 35.9648577,67.7557366 35.6465087,68.6930966 C35.8148887,68.4608536 35.9648176,68.2157775 36.0949196,67.9601173 C36.5130642,67.1528776 36.7080565,66.2486195 36.6597448,65.3407942 C38.1938662,64.3117513 39.0810574,62.5577923 39.0009669,60.7122454 L38.9923437,60.7122454 Z" id="路径" fill="#3F3D56"></path>
                    <path d="M64.7242292,31.0395181 C65.3741579,30.7362775 66.0022884,30.3883566 66.6041056,29.9982563 L59.6343346,24.9062059 L67.8264564,29.1251486 C71.1759341,26.4643592 73.2813593,22.5412501 73.6471744,18.2792106 L59.7248791,18.4214948 L73.6773559,16.0888959 C73.2842882,10.3371175 69.7357073,5.27704308 64.4618527,2.94811297 C59.1879981,0.619182858 53.0578207,1.40512508 48.542061,4.98916916 C44.0263013,8.57321324 41.869002,14.3648313 42.9396528,20.0297377 C41.9276164,20.5003107 40.9692148,21.0785319 40.0810335,21.7543949 L47.3569311,31.8716652 L38.6215424,23.0155504 C34.8761561,26.6932759 33.2406569,32.0133107 34.2732504,37.1598954 C26.9393038,40.5830807 23.466573,49.0669445 26.295277,56.6500444 C29.1239809,64.2331444 37.3045839,68.3699956 45.088739,66.153715 C52.8728941,63.9374344 57.6476265,56.1119802 56.0578267,48.1761433 C62.5575072,45.1508215 66.1396209,38.0676817 64.7242292,31.0395181 Z" id="路径" fill="#6C63FF"></path>
                    <path d="M35.6465087,27.0900531 C34.0694285,30.1967946 33.587082,33.74489 34.277562,37.1598954 C26.9436154,40.5830807 23.4708847,49.0669445 26.2995886,56.6500444 C29.1282925,64.2331444 37.3088955,68.3699956 45.0930506,66.153715 C52.8772058,63.9374344 57.6519382,56.1119802 56.0621384,48.1761433 C59.1083142,46.7619244 36.4269161,25.5357058 35.6465087,27.0900531 Z" id="路径" fill="#000000"></path>
                    <circle id="椭圆形" fill="#6C63FF" cx="53.1388444" cy="2.31104066" r="2.30457319"></circle>
                    <circle id="椭圆形" fill="#6C63FF" cx="66.5997939" cy="3.78993422" r="2.30457319"></circle>
                    <circle id="椭圆形" fill="#6C63FF" cx="71.7910121" cy="24.4987556" r="2.30457319"></circle>
                    <circle id="椭圆形" fill="#6C63FF" cx="64.7845922" cy="34.8402314" r="2.30457319"></circle>
                    <circle id="椭圆形" fill="#6C63FF" cx="55.2127447" cy="56.3186811" r="2.30457319"></circle>
                    <circle id="椭圆形" fill="#000000" cx="55.2127447" cy="56.3186811" r="2.30457319"></circle>
                    <circle id="椭圆形" fill="#6C63FF" cx="33.9304748" cy="31.9923912" r="2.30457319"></circle>
                    <circle id="椭圆形" fill="#000000" cx="33.9304748" cy="31.9923912" r="2.30457319"></circle>
                    <path d="M31.4728382,69.8982008 C29.9400491,69.1242609 29.4765475,66.9317904 30.3712134,64.9096299 C30.3237854,64.9915511 30.2785131,65.0756281 30.2353967,65.1640168 C29.1768883,67.2551637 29.6145201,69.6050091 31.2119838,70.4134422 C32.8094476,71.2218752 34.9631133,70.1806135 36.0194658,68.0894666 C36.0647381,68.0032337 36.1035428,67.9148451 36.1423476,67.8286122 C35.0450345,69.7494492 33.0034715,70.6742966 31.4728382,69.8982008 Z" id="路径" fill="#000000"></path>
                    <path d="M29.1962907,74.3995562 C27.6656574,73.6256162 27.2,71.4331458 28.0968217,69.4088294 C28.0493937,69.4929064 28.0019656,69.5769834 27.9588492,69.6632163 C26.9003408,71.7543632 27.3379726,74.1063644 28.9354363,74.9126417 C30.5329001,75.7189189 32.6865657,74.6819688 33.7450741,72.5886661 C33.7881905,72.5024332 33.8291511,72.4162004 33.8679559,72.3278117 C32.768487,74.2486486 30.7290798,75.1734961 29.1962907,74.3995562 Z" id="路径" fill="#000000"></path>
                    <path d="M26.9197432,78.8987556 C25.3891099,78.1248157 24.9234525,75.9323452 25.8202742,73.9101847 C25.7728462,73.9921059 25.7254181,74.0761829 25.6823017,74.1645716 C24.6237933,76.2557185 25.0635809,78.6055639 26.6610446,79.413997 C28.2585084,80.2224301 30.4100182,79.1811683 31.4685266,77.0900214 C31.511643,77.0037885 31.5526036,76.9153999 31.5914084,76.829167 C30.4940953,78.750004 28.4525323,79.6748514 26.9197432,78.8987556 Z" id="路径" fill="#000000"></path>
                    <path d="M24.651819,83.4108901 C23.1190299,82.6369501 22.6555283,80.4444797 23.5501942,78.4223191 C23.5027661,78.5042403 23.4574939,78.5883173 23.4122216,78.6745502 C22.3558691,80.7656971 22.7935008,83.1176983 24.3909646,83.9261314 C25.9884283,84.7345645 28.142094,83.6933027 29.1984465,81.6 C29.2437188,81.5137671 29.2825236,81.4275343 29.3213284,81.3391456 C28.2175478,83.2492035 26.1759848,84.1740509 24.651819,83.4108901 Z" id="路径" fill="#000000"></path>
                    <path d="M22.368804,87.8993105 C20.8360149,87.1253705 20.3725133,84.9329001 21.2671792,82.9107395 C21.2197511,82.9926607 21.1744789,83.0767377 21.1313624,83.1651264 C20.0728541,85.2562733 20.5104859,87.6061187 22.1079496,88.4145518 C23.7054133,89.2229849 25.859079,88.1817231 26.9175874,86.0905762 C26.9607038,86.0043433 27.0016644,85.9159547 27.0404692,85.8297218 C25.9453119,87.7505588 23.8994373,88.6754062 22.368804,87.8993105 Z" id="路径" fill="#000000"></path>
                    <path d="M20.0922565,92.4006658 C18.5616232,91.6267258 18.0959658,89.4342554 18.9927875,87.4120948 C18.9453594,87.494016 18.8979314,87.578093 18.8548149,87.6643259 C17.7963066,89.7554728 18.2339383,92.107474 19.8335579,92.9159071 C21.4331775,93.7243402 23.5739082,92.6809226 24.651819,90.5897757 C24.6949354,90.5035428 24.735896,90.41731 24.7747008,90.3289213 C23.6644527,92.2497583 21.6336689,93.1746057 20.0922565,92.4006658 Z" id="路径" fill="#000000"></path>
                    <path d="M17.815709,96.8998653 C16.2850757,96.1259253 15.8194182,93.9334549 16.71624,91.9112943 C16.6688119,91.9953713 16.6235397,92.0772925 16.5782674,92.1656812 C15.5219149,94.2568281 15.9595466,96.6066735 17.5570104,97.4151066 C19.1544741,98.2235397 21.3081398,97.1822779 22.3644924,95.091131 C22.4097646,95.0048982 22.4485694,94.9165095 22.4873742,94.8302766 C21.390061,96.7511136 19.3484981,97.675961 17.815709,96.8998653 Z" id="路径" fill="#000000"></path>
                    <path d="M15.5413173,101.401221 C14.0085282,100.627281 13.5450266,98.4348102 14.4396925,96.4126496 C14.3922644,96.4945708 14.3469922,96.5786479 14.3038757,96.6648807 C13.2453674,98.7560276 13.6829991,101.108029 15.2804629,101.916462 C16.8779266,102.724895 19.0315923,101.683633 20.0901007,99.5903305 C20.1332171,99.5040976 20.1720219,99.4178648 20.2108267,99.3294761 C19.1135135,101.250313 17.0719505,102.166537 15.5413173,101.401221 Z" id="路径" fill="#000000"></path>
                    <path d="M14.0451771,104.359008 C12.5145439,103.582912 12.0488864,101.392597 12.9457082,99.3682809 C12.8982801,99.4523579 12.850852,99.536435 12.8077356,99.6226678 C11.7492272,101.713815 12.186859,104.065816 13.7843227,104.872093 C15.3817865,105.67837 17.5354522,104.64142 18.5939605,102.548118 C18.637077,102.461885 18.6780376,102.375652 18.7168424,102.287263 C17.6173734,104.2081 15.5758104,105.132948 14.0451771,104.359008 Z" id="路径" fill="#000000"></path>
                    <path d="M55.1760957,84.32927 C55.4135729,83.6482061 55.5585883,82.9383558 55.60726,82.2187208 C56.038879,82.2177639 56.4336998,81.9754519 56.6299863,81.5910466 C56.8262729,81.2066413 56.7910427,80.7447351 56.5387277,80.3945452 C56.2864127,80.0443553 55.8594099,79.8647248 55.4326385,79.9292383 C54.9137104,77.5662388 53.3587204,75.5623286 51.1986051,74.4728541 C51.4855462,73.9049248 51.2577604,73.2119154 50.6898312,72.9249742 C50.1219019,72.6380331 49.4288925,72.8658189 49.1419513,73.4337481 C49.0920669,73.5306848 49.0571768,73.6346281 49.0384719,73.7420306 C46.4720851,73.2638991 43.8327871,74.0548052 41.9522866,75.8655148 C41.2523761,75.7522767 40.540643,75.7312581 39.8352699,75.802996 L38.9017992,80.0521202 L38.8457478,75.9560593 C35.926708,76.5959068 33.6005239,78.7969844 32.8004462,81.6762332 C32.0003686,84.555482 32.8574926,87.6411285 35.0279453,89.69523 C37.1983981,91.7493315 40.3265443,92.4353173 43.1573908,91.4779742 C43.2684971,91.678497 43.4375617,91.8407991 43.6424507,91.9436316 C44.0749533,92.1633316 44.5987693,92.0883345 44.9522493,91.7561019 C45.3057293,91.4238694 45.4130132,90.9057015 45.220512,90.4604264 C45.5882582,90.2078845 45.9343808,89.9252177 46.2553063,89.6153444 C49.7079751,90.1766833 53.1293854,88.4507467 54.7298407,85.3403503 L50.3858603,84.6095268 L55.1760957,84.32927 Z" id="路径" fill="#6C63FF"></path>
                    <path d="M48.4650234,86.3923912 C46.8610922,84.2753745 45.8780376,81.7681541 44.7462313,79.3622573 C44.2918106,78.3747601 43.782974,77.4132245 43.2220655,76.4820797 L42.3726718,75.4925577 C42.2303876,75.6132837 42.0881034,75.7383213 41.9415075,75.8698264 C41.241597,75.7565883 40.5298639,75.7355697 39.8244908,75.8073076 L38.8910201,80.0564318 L38.8349687,75.9603709 C35.9159289,76.6002184 33.5897448,78.801296 32.7896671,81.6805449 C31.9895895,84.5597937 32.8467135,87.6454401 35.0171662,89.6995416 C37.187619,91.7536431 40.3157652,92.4396289 43.1466117,91.4822858 C43.257718,91.6828087 43.4267826,91.8451107 43.6316716,91.9479433 C44.0641742,92.1676432 44.5879902,92.0926461 44.9414702,91.7604136 C45.2949502,91.428181 45.4022341,90.9100131 45.2097329,90.4647381 C45.5774791,90.2121962 45.9236017,89.9295294 46.2445272,89.619656 C47.8923014,89.8863665 49.5822375,89.6363403 51.0821907,88.9039233 C50.080949,88.212283 49.1973045,87.3643045 48.4650234,86.3923912 L48.4650234,86.3923912 Z" id="路径" fill="#000000"></path>
                    <path d="M20.062075,77.2948244 C20.2428222,76.9374409 20.2248445,76.5118037 20.014605,76.1709343 C19.8043656,75.8300649 19.4320812,75.6229549 19.0315923,75.6240628 C18.7048396,73.8915326 17.8187692,72.3140242 16.5092811,71.1334866 C16.7203229,70.3103913 16.8003511,69.4591825 16.7464215,68.6111754 L12.5102322,67.8889752 L16.6235397,67.6302766 C16.5496665,67.2440483 16.4480802,66.8636402 16.3195688,66.4920029 C16.4797049,66.3818153 16.61006,66.2336844 16.6989934,66.0608386 C16.9112921,65.6392098 16.8452268,65.1307717 16.5322261,64.7773991 C16.2192255,64.4240266 15.7224819,64.2970629 15.278307,64.4569073 C13.0304654,61.2805372 8.83551436,60.1615088 5.30427348,61.796274 C1.77303259,63.4310393 -0.0879389551,67.3536179 0.879575176,71.1227075 C0.630111083,71.2279812 0.426653965,71.4192003 0.306126655,71.6616628 C0.0895718121,72.0891394 0.160470429,72.6060567 0.48412534,72.9594399 C0.807780251,73.3128231 1.31649386,73.4287565 1.76130617,73.2505033 C2.17479746,73.9449529 2.6900097,74.5735264 3.28978363,75.1152889 C2.85313386,76.817942 2.9848571,78.6166455 3.66489657,80.2375208 L9.34548625,78.7629389 L4.2793057,81.4275343 C6.11574565,84.3456777 9.60377483,85.7741037 12.9595293,84.98228 C16.3152838,84.1904564 18.7968411,81.3534471 19.1350717,77.9221685 C19.5319227,77.8878669 19.8826991,77.650481 20.062075,77.2948244 L20.062075,77.2948244 Z" id="路径" fill="#6C63FF"></path>
                    <path d="M20.062075,77.2948244 C20.2428222,76.9374409 20.2248445,76.5118037 20.014605,76.1709343 C19.8043656,75.8300649 19.4320812,75.6229549 19.0315923,75.6240628 C18.7048396,73.8915326 17.8187692,72.3140242 16.5092811,71.1334866 C16.5437743,70.9976698 16.5739558,70.8640089 16.5998256,70.7281921 C16.4494185,70.837179 16.3100605,70.9606516 16.1837521,71.0968376 C15.4184354,71.9354522 15.0260759,73.0629468 14.2693826,73.9101847 C13.3768725,74.9104859 12.0402631,75.4321947 10.7058096,75.5723231 C9.37135611,75.7124515 8.02827931,75.5076484 6.71107236,75.2511057 C5.62022668,75.0355235 4.51429024,74.7854482 3.40835381,74.8910835 C3.30056273,74.8910835 3.19277166,74.9147975 3.09360387,74.9320441 C3.15827851,74.9945629 3.22295316,75.0570817 3.28978363,75.1174447 C2.85313386,76.8200978 2.9848571,78.6188013 3.66489657,80.2396766 L9.34548625,78.7629389 L4.2793057,81.4275343 C6.11574565,84.3456777 9.60377483,85.7741037 12.9595293,84.98228 C16.3152838,84.1904564 18.7968411,81.3534471 19.1350717,77.9221685 C19.5319227,77.8878669 19.8826991,77.650481 20.062075,77.2948244 L20.062075,77.2948244 Z" id="路径" fill="#000000"></path>
                </g>
                <g id="编组" opacity="0.1" transform="translate(0.000000, 68.770706)">
                    <path d="M19.2924467,41.4435127 C19.5683919,40.6048982 20.6872632,40.2190061 21.7910438,40.5811841 C21.9498042,40.6332362 22.1035008,40.6996216 22.2502338,40.7795197 C22.3213759,40.7601173 22.3946739,40.7428707 22.465816,40.7299358 C22.4052493,40.4891465 22.3819833,40.2404903 22.3968297,39.9926448 C21.6264636,39.471671 21.1803795,38.589289 21.2175953,37.660046 C20.8353813,37.40849 20.5272664,37.059442 20.3250852,36.6489657 C20.1144087,36.2423115 20.015464,35.7870174 20.0383609,35.3296029 C19.6564067,35.0768222 19.3484119,34.7271662 19.1458508,34.3163668 C18.6155187,33.2643259 18.8311009,32.0807799 19.639534,31.6711738 C20.447967,31.2615677 21.5301894,31.789744 22.0626773,32.8417849 C22.2729827,33.2492843 22.3711919,33.7053617 22.3472458,34.1633035 C23.1198619,34.6812906 23.566743,35.5644322 23.5264801,36.4937465 C24.2987904,37.0130056 24.7454638,37.8965535 24.7057145,38.8263454 C25.4783306,39.3443325 25.9252117,40.2274741 25.8849489,41.1567885 C26.2676957,41.4092787 26.5764575,41.7589607 26.7796148,42.1700246 C26.8765508,42.368912 26.9489428,42.5788488 26.995197,42.7952128 C27.1280044,42.5997714 27.2901598,42.4259816 27.4759452,42.2799715 C27.4981012,42.1137324 27.5356295,41.9499068 27.5880479,41.7906 C27.9523817,40.6868194 28.9246572,40.0142031 29.7632718,40.2815249 C30.6018863,40.5488468 30.9856226,41.6763414 30.6256004,42.7801221 C30.4768001,43.2541091 30.1910004,43.673432 29.8042324,43.9852263 C29.7818375,44.150717 29.7443128,44.3138052 29.6921297,44.4724419 C29.5151787,45.05756 29.1210125,45.5527747 28.5905049,45.8564794 C28.632094,45.9975668 28.6623714,46.1417448 28.6810494,46.2876437 C28.9036238,46.5012812 29.0880824,46.7513576 29.2264722,47.0270904 C29.3675241,47.3022361 29.4594491,47.5998979 29.4981057,47.9066656 C29.7215131,48.1200749 29.906717,48.3701731 30.0456844,48.6461124 C30.1864506,48.9213743 30.2783597,49.218985 30.3173179,49.5256876 C30.5412481,49.7394583 30.7265063,49.9903592 30.8648966,50.2672902 C31.3973845,51.3193311 31.1774907,52.5050329 30.3733693,52.9103273 C29.5692478,53.3156218 28.4827138,52.793913 27.9502259,51.7397163 C27.8098224,51.4643071 27.7179331,51.1667608 27.6785924,50.8601411 C27.2294325,50.4292716 26.9404856,49.8582212 26.8593802,49.2411191 C26.4102203,48.8102497 26.1212734,48.2391993 26.040168,47.6220972 C25.8169199,47.4085474 25.6317375,47.1584783 25.4925894,46.8826504 C25.3531661,46.6068444 25.2613299,46.3094699 25.2209559,46.0030752 C24.9983815,45.7894377 24.8139228,45.5393613 24.675533,45.2636284 C24.5344811,44.9884828 24.4425561,44.690821 24.4038995,44.3840533 C24.265102,44.2547408 24.1414288,44.1100938 24.035254,43.952889 C23.5917061,44.0436185 23.1320473,44.0153547 22.7029563,43.8709677 C22.5435937,43.8177925 22.3892169,43.7507035 22.2416105,43.6704763 C21.7621421,43.7978237 21.2556443,43.7798149 20.786431,43.6187366 C19.6934295,43.2544028 19.0186574,42.2821273 19.2924467,41.4435127 Z" id="路径" fill="#3F3D56"></path>
                    <g transform="translate(19.186811, 34.277562)" fill="#000000" id="路径">
                        <path d="M2.05234208,3.86107633 C2.16663697,3.97371509 2.29235284,4.07414328 2.42745502,4.16073552 C2.40919812,4.47033003 2.45017257,4.78056513 2.54818103,5.07480384 C2.46155631,4.95719935 2.38510756,4.83242921 2.31966395,4.70184671 C2.18482711,4.43823865 2.09450179,4.15415097 2.05234208,3.86107633 L2.05234208,3.86107633 Z"></path>
                        <path d="M0.873107712,1.53278909 C0.987989863,1.64412855 1.11364397,1.74378525 1.24822065,1.83029246 C1.23011032,2.14058879 1.27107774,2.45150225 1.36894666,2.7465166 C1.10780644,2.38806978 0.93764819,1.97155197 0.873107712,1.53278909 L0.873107712,1.53278909 Z"></path>
                        <path d="M3.55279385,0.663993025 C3.56304855,0.50428668 3.55727082,0.343954626 3.53554728,0.18540065 C3.74630256,0.393493453 3.92178128,0.634503654 4.05510026,0.89897757 C4.12018382,1.02960365 4.17496458,1.16511394 4.2189427,1.30427201 C4.03929116,1.05071748 3.81326174,0.833465895 3.55279385,0.663993025 Z"></path>
                        <path d="M11.0334945,14.7760006 C10.9392361,14.643812 10.8323823,14.5210745 10.7144329,14.409511 C10.6947562,14.26342 10.6630293,14.1192069 10.6195768,13.9783467 C10.7131404,14.1049371 10.7960634,14.239056 10.8674962,14.3793295 C10.932906,14.5071069 10.988402,14.6397209 11.0334945,14.7760006 Z"></path>
                        <path d="M10.2078149,13.1569787 C10.1135565,13.0247901 10.0067026,12.9020525 9.88875327,12.790489 C9.87115118,12.6444107 9.84085512,12.5001438 9.79820877,12.3593247 L9.79820877,12.3593247 C9.97581284,12.5998101 10.1127317,12.8678215 10.2035032,13.152667 L10.2078149,13.1569787 Z"></path>
                        <path d="M3.23373227,6.19798684 C3.3469022,6.30974964 3.47196607,6.40878865 3.60668939,6.49333439 C3.59057292,6.74119948 3.6138574,6.99005239 3.67567568,7.23062535 C3.60301378,7.24345314 3.53105836,7.26000289 3.46009352,7.28020924 C3.31242751,7.20069184 3.15805006,7.13432396 2.99874772,7.08187366 C1.89496711,6.71969565 0.776095744,7.1055877 0.502306412,7.94420227 C0.433689758,8.15286002 0.421052239,8.37587506 0.465657446,8.59094872 C0.104906131,8.21147564 -0.030865597,7.67084243 0.107791076,7.1659507 C0.383736229,6.32733613 1.50260759,5.94144408 2.60638821,6.3036221 C2.7651486,6.35567423 2.91884516,6.4220596 3.06557819,6.50195768 C3.1367203,6.48255528 3.21001823,6.46530871 3.28116034,6.45237378 C3.26042885,6.36857014 3.24459271,6.28363085 3.23373227,6.19798684 L3.23373227,6.19798684 Z"></path>
                        <path d="M11.4387889,15.5887453 C11.53283,15.7157712 11.6157753,15.8506474 11.6867084,15.991884 C11.7525288,16.1224451 11.808031,16.2579569 11.8527067,16.3971784 C11.7584638,16.2643153 11.6516143,16.1408609 11.5336451,16.0285329 C11.5144404,15.8795321 11.4827094,15.7324153 11.4387889,15.5887453 Z"></path>
                        <path d="M4.73202822,2.99874772 C4.7423265,2.83904199 4.73654861,2.67870557 4.71478164,2.52015535 C4.92603921,2.72781545 5.10158168,2.9689132 5.23433463,3.23373227 C5.29941889,3.36361511 5.35420148,3.49840912 5.39817706,3.63687089 C5.21847481,3.38395482 4.99243002,3.16742 4.73202822,2.99874772 L4.73202822,2.99874772 Z"></path>
                        <path d="M6.43728303,12.5059206 C6.45746101,12.6669914 6.4928303,12.8257923 6.54291828,12.9802013 C6.3632722,12.7338869 6.22626864,12.459151 6.13762384,12.1674566 C6.22719651,12.2890049 6.3274842,12.4022795 6.43728303,12.5059206 Z"></path>
                        <path d="M8.07355156,15.7439645 C8.09529554,15.9049509 8.1313691,16.0636746 8.18134263,16.2182452 C8.09471792,16.1006407 8.01826917,15.9758706 7.95282555,15.8452881 C7.8819226,15.7067739 7.82278862,15.5625447 7.77604819,15.4141238 C7.86633315,15.5317686 7.96581331,15.6420618 8.07355156,15.7439645 Z"></path>
                        <path d="M7.2564952,14.1249425 C7.27667318,14.2860133 7.31204248,14.4448143 7.36213046,14.5992233 C7.27626972,14.4811065 7.19986036,14.3564006 7.13361338,14.2262661 C7.06244567,14.0878738 7.0033023,13.9436217 6.95683601,13.7951018 C7.04681254,13.9136601 7.14708887,14.0240362 7.2564952,14.1249425 L7.2564952,14.1249425 Z"></path>
                        <path d="M5.61807086,10.8847428 C5.63801149,11.0465598 5.67338432,11.2060985 5.72370611,11.3611794 C5.64196088,11.2428422 5.56986765,11.1181209 5.50812396,10.9882222 C5.43584853,10.8500741 5.3759695,10.7057872 5.32919077,10.5570579 C5.41532009,10.6748428 5.51201408,10.7845256 5.61807086,10.8847428 Z"></path>
                        <path d="M10.979599,6.79083776 C10.1409844,6.51489261 9.16870888,7.18750892 8.80653087,8.29991282 C8.75411253,8.45921959 8.7165842,8.62304519 8.69442815,8.7892843 C8.50797292,8.93439637 8.34507999,9.1074701 8.21152413,9.30236982 C8.16148443,9.08562966 8.08548166,8.87571724 7.98516288,8.67718158 C7.94851391,8.60388365 7.9075533,8.53274154 7.86443687,8.46159943 C7.98680206,8.29170393 8.13187317,8.13937926 8.29560117,8.00887691 C8.31775722,7.84263781 8.35528555,7.67881221 8.40770389,7.51950543 C8.77203773,6.41572482 9.74431323,5.7431085 10.5829278,6.01043037 C11.0720685,6.19820401 11.4270971,6.62849213 11.5185543,7.14439249 C11.3720496,6.9824416 11.1865,6.86072105 10.979599,6.79083776 Z"></path>
                        <path d="M7.09049695,7.65963383 C7.10075165,7.49992748 7.09497392,7.33959543 7.07325038,7.18104145 C7.28450795,7.38870156 7.46005042,7.62979931 7.59280336,7.89461837 C7.65788692,8.02524445 7.71266768,8.16075475 7.7566458,8.29991282 C7.57755565,8.04587554 7.35142498,7.82852664 7.09049695,7.65963383 Z"></path>
                        <path d="M5.91126258,5.32703495 C5.92148835,5.1673282 5.91571073,5.00699904 5.89401601,4.84844258 C6.10428215,5.05695581 6.2796997,5.29788198 6.41356899,5.5620195 C6.47865256,5.69264558 6.53343331,5.82815587 6.57741143,5.96731394 C6.3977599,5.71375941 6.17173047,5.49650782 5.91126258,5.32703495 L5.91126258,5.32703495 Z"></path>
                        <path d="M8.89276373,17.3629864 C8.91345833,17.5248656 8.94955226,17.6844008 9.00055481,17.839423 C8.91438918,17.7207539 8.83796744,17.5953068 8.77203773,17.4643101 C8.70113477,17.3257958 8.6420008,17.1815666 8.59526036,17.0331458 C8.68554532,17.1507906 8.78502548,17.2610838 8.89276373,17.3629864 L8.89276373,17.3629864 Z"></path>
                    </g>
                    <path d="M17.682048,30.666561 C17.299834,30.415005 16.9917191,30.065957 16.7895379,29.6554807 C16.25705,28.601284 16.4769438,27.417738 17.2810652,27.0102877 C18.0851867,26.6028374 19.1717207,27.1267021 19.7042086,28.1808988 C19.9148289,28.5875105 20.013068,29.0429827 19.988777,29.5002616 C20.7610873,30.0195206 21.2077607,30.9030685 21.1680114,31.8328604 C21.5504693,32.0847576 21.859205,32.4336661 22.0626773,32.8439407 C22.1273769,32.9732552 22.182149,33.1073026 22.2265198,33.2449235 C21.9409471,32.8373666 21.5298064,32.5345006 21.0559087,32.3825949 C20.9492737,32.7227776 20.7103391,33.0057996 20.3928625,33.1679843 C20.0753859,33.3301691 19.7060318,33.3578948 19.3679005,33.2449235 C19.2080603,33.7168155 19.2080603,34.2282111 19.3679005,34.700103 C19.2869008,34.5827987 19.2148369,34.4595695 19.1523183,34.3314576 C18.9416418,33.9248033 18.8426971,33.4695092 18.865594,33.0120948 C18.0942586,32.4919754 17.6478811,31.609013 17.6863597,30.6794959 L17.682048,30.666561 Z" id="路径" fill="#3F3D56"></path>
                    <path d="M4.72124911,15.7180946 C4.39423236,15.5652026 4.07802938,15.3901745 3.77484347,15.19423 L7.28452088,12.6288024 L3.15827851,14.7522866 C1.47216828,13.4115764 0.412513816,11.435738 0.22851708,9.28943489 L7.24356028,9.36273282 L0.21342633,8.18565428 C0.378417488,5.26244691 2.16182121,2.67602099 4.83538842,1.48253796 C7.50895563,0.289054936 10.6251615,0.688290334 12.9115101,2.51721724 C15.1978586,4.34614415 16.271641,7.29862094 15.6943806,10.1690101 C16.2036066,10.404619 16.6863477,10.6936855 17.1344694,11.0313387 L13.4695728,16.1277007 L17.8696045,11.6694618 C19.7558822,13.5223006 20.579649,16.2019752 20.0599192,18.7944519 C23.7592599,20.5175425 25.5127303,24.7947178 24.0874637,28.6186919 C22.662197,32.442666 18.5370176,34.5287587 14.6123431,33.4102362 C10.6876686,32.2917137 8.28200975,28.3443483 9.08678767,24.3435365 C5.81714756,22.8197569 4.01373656,19.2574636 4.72124911,15.7202505 L4.72124911,15.7180946 Z" id="路径" fill="#6C63FF"></path>
                    <path d="M19.3700563,13.7304272 C20.1651477,15.2952338 20.4082463,17.0827676 20.0599192,18.8030752 C23.7592599,20.5261657 25.5127303,24.8033411 24.0874637,28.6273152 C22.662197,32.4512893 18.5370176,34.537382 14.6123431,33.4188595 C10.6876686,32.300337 8.28200975,28.3529716 9.08678767,24.3521598 C7.54968693,23.6385829 18.9755409,12.947864 19.3700563,13.7304272 Z" id="路径" fill="#000000"></path>
                    <circle id="椭圆形" fill="#6C63FF" cx="10.5570579" cy="1.24606483" r="1.16198779"></circle>
                    <circle id="椭圆形" fill="#6C63FF" cx="3.77484347" cy="1.99197908" r="1.16198779"></circle>
                    <circle id="椭圆形" fill="#6C63FF" cx="1.16198779" cy="12.4239994" r="1.16198779"></circle>
                    <circle id="椭圆形" fill="#6C63FF" cx="4.69106761" cy="17.63462" r="1.16198779"></circle>
                    <circle id="椭圆形" fill="#6C63FF" cx="9.51148451" cy="28.4546881" r="1.16198779"></circle>
                    <circle id="椭圆形" fill="#000000" cx="9.51148451" cy="28.4546881" r="1.16198779"></circle>
                    <circle id="椭圆形" fill="#6C63FF" cx="20.2323849" cy="16.1988428" r="1.16198779"></circle>
                    <circle id="椭圆形" fill="#000000" cx="20.2323849" cy="16.1988428" r="1.16198779"></circle>
                    <path d="M21.4719822,35.2951098 C22.2437663,34.9049061 22.4765951,33.8011255 22.0260284,32.7814219 C22.0497424,32.8245383 22.0734564,32.8654989 22.0950147,32.9086154 C22.6275026,33.9628121 22.4076088,35.1463581 21.6013315,35.5538084 C20.7950543,35.9612586 19.7128319,35.437394 19.180344,34.3831973 C19.1587858,34.3400808 19.1372276,34.2969644 19.1178252,34.2516922 C19.6718713,35.219656 20.7001981,35.6853135 21.4719822,35.2951098 Z" id="路径" fill="#000000"></path>
                    <path d="M22.6167235,37.563034 C23.3885076,37.1728303 23.6234921,36.0668939 23.1729254,35.0493461 C23.1966395,35.0903067 23.2203535,35.1334232 23.2419117,35.1765396 C23.7743996,36.2307363 23.5545058,37.4142823 22.7482286,37.8217326 C21.9419513,38.2291828 20.8597289,37.7053182 20.327241,36.6511215 C20.303527,36.6080051 20.2841246,36.5627328 20.2647222,36.5196164 C20.8187683,37.4918919 21.849251,37.9532377 22.6167235,37.563034 Z" id="路径" fill="#000000"></path>
                    <path d="M23.7636205,39.8288024 C24.5354046,39.4385987 24.7703892,38.3348181 24.3176666,37.3151145 C24.3435365,37.358231 24.3650947,37.3991916 24.3888088,37.4444638 C24.9212967,38.4965047 24.699247,39.6822065 23.8951256,40.087501 C23.0910042,40.4927954 22.006626,39.9710866 21.4741381,38.9168899 C21.450424,38.8737735 21.4310216,38.8306571 21.4116192,38.7853848 C21.9635096,39.7533487 22.9918364,40.2190061 23.7636205,39.8288024 Z" id="路径" fill="#000000"></path>
                    <path d="M24.9105176,42.0967266 C25.6823017,41.7065229 25.9172862,40.6027423 25.4645637,39.5830388 C25.4882777,39.6239994 25.5119918,39.6671158 25.53355,39.7102322 C26.0681937,40.7644289 25.8461441,41.947975 25.0420227,42.3554252 C24.2379012,42.7628755 23.1513672,42.2390109 22.6188793,41.1848141 C22.5973211,41.1416977 22.5779187,41.0964255 22.5585163,41.053309 C23.1104066,42.0191171 24.1387335,42.4869303 24.9105176,42.0967266 Z" id="路径" fill="#000000"></path>
                    <path d="M26.0574146,44.362495 C26.8291987,43.9722914 27.0620274,42.8685107 26.6114607,41.850963 C26.6351748,41.8919236 26.6588888,41.93504 26.680447,41.9781565 C27.2129349,43.0323532 26.9930411,44.2158992 26.1889197,44.6233494 C25.3847983,45.0307997 24.2982642,44.5047793 23.7657763,43.4527384 C23.7442181,43.4074661 23.7248157,43.3643497 23.7032575,43.3212333 C24.2573036,44.2870413 25.2856305,44.7526987 26.0574146,44.362495 Z" id="路径" fill="#000000"></path>
                    <path d="M27.2043116,46.6304193 C27.9760957,46.2402156 28.2089245,45.136435 27.7583578,44.1167314 C27.7820718,44.1598478 27.8057858,44.2008084 27.8273441,44.2439249 C28.359832,45.2981216 28.1399382,46.4816676 27.3358168,46.8891179 C26.5316953,47.2965681 25.4451613,46.7727035 24.9126734,45.7185068 C24.8911152,45.6753903 24.8695569,45.6322739 24.8501546,45.5870017 C25.4042007,46.5463422 26.4325275,47.020623 27.2043116,46.6304193 Z" id="路径" fill="#000000"></path>
                    <path d="M28.3512087,48.8983435 C29.120837,48.5081398 29.3558215,47.4022034 28.9052548,46.3846556 C28.9289689,46.4256162 28.9526829,46.4687327 28.9742411,46.5118491 C29.506729,47.5660458 29.2868352,48.7495918 28.480558,49.1570421 C27.6742807,49.5644924 26.5920583,49.0384719 26.0595704,47.986431 C26.0380122,47.9411588 26.016454,47.8980423 25.9970516,47.8549259 C26.5510977,48.8207339 27.5794246,49.2885472 28.3512087,48.8983435 Z" id="路径" fill="#000000"></path>
                    <path d="M29.4959499,51.1641119 C30.267734,50.7739082 30.5027186,49.6701276 30.049996,48.650424 C30.0758659,48.6935405 30.0974241,48.7345011 30.1211381,48.7797733 C30.6536261,49.8318142 30.4315764,51.017516 29.627455,51.4228105 C28.8233336,51.8281049 27.7389554,51.3063961 27.2064675,50.2521994 C27.1827534,50.209083 27.163351,50.1659666 27.1439486,50.1206943 C27.6979948,51.0886582 28.7241658,51.5543156 29.4959499,51.1641119 Z" id="路径" fill="#000000"></path>
                    <path d="M30.2569549,52.6537846 C31.028739,52.2635809 31.2615677,51.1598003 30.811001,50.1400967 C30.8347151,50.1832131 30.8584291,50.2241737 30.8799873,50.269446 C31.4124752,51.3214869 31.1925814,52.5071887 30.38846,52.9124832 C29.5843386,53.3177776 28.4978045,52.7960688 27.9653166,51.7418721 C27.9437584,51.6987556 27.9222002,51.6556392 27.9027978,51.610367 C28.4503765,52.5826425 29.4787033,53.0439883 30.2569549,52.6537846 Z" id="路径" fill="#000000"></path>
                    <path d="M9.5308869,42.5645399 C9.41115243,42.2216846 9.33862645,41.8641315 9.31530475,41.5017199 C9.09801128,41.5009536 8.89937923,41.3787759 8.80069195,41.1851839 C8.70200468,40.9915919 8.7198238,40.7590741 8.84685746,40.5827803 C8.97389112,40.4064866 9.18882062,40.3160024 9.40369343,40.3483554 C9.66564046,39.1584762 10.4484429,38.1493022 11.5358009,37.599683 C11.3911397,37.3133371 11.5059978,36.9639368 11.7923437,36.8192756 C12.0786895,36.6746144 12.4280898,36.7894725 12.5727511,37.0758183 C12.597988,37.1245427 12.6154457,37.1769158 12.6244908,37.2310375 C13.9187086,36.993451 15.2480524,37.3948229 16.1945312,38.3089482 C16.550857,38.2506102 16.9134101,38.2404587 17.2724419,38.2787667 L17.742411,40.4173417 L17.7531901,38.3542205 C19.2090604,38.6907693 20.3627843,39.7991595 20.7573918,41.2403772 C21.1519993,42.6815948 20.7238239,44.2231114 19.6424583,45.2543591 C18.5610927,46.2856068 17.0010062,46.6402024 15.5801221,46.1776968 C15.5233801,46.2779564 15.4387529,46.3595879 15.3365142,46.4126813 C15.1182454,46.522852 14.8543925,46.4848762 14.6760528,46.3176225 C14.4977131,46.1503688 14.442905,45.8894922 14.5388603,45.6646112 C14.3540099,45.5355581 14.1802253,45.3913385 14.0193073,45.2334469 C12.2797089,45.5152616 10.5564747,44.6449413 9.75078069,43.0776254 L11.9389395,42.7089799 L9.5308869,42.5645399 Z" id="路径" fill="#6C63FF"></path>
                    <path d="M12.911215,43.6036459 C13.7196481,42.5257351 14.215487,41.2753586 14.7846239,40.063787 C15.0125413,39.5652121 15.2687837,39.0800789 15.5520964,38.6107633 L15.9832607,38.1127685 C16.0565586,38.1752873 16.1277007,38.2378061 16.1988428,38.3024808 C16.5551686,38.2441427 16.9177217,38.2339912 17.2767536,38.2722993 L17.7467227,40.4108742 L17.7531901,38.3542205 C19.2090604,38.6907693 20.3627843,39.7991595 20.7573918,41.2403772 C21.1519993,42.6815948 20.7238239,44.2231114 19.6424583,45.2543591 C18.5610927,46.2856068 17.0010062,46.6402024 15.5801221,46.1776968 C15.5233801,46.2779564 15.4387529,46.3595879 15.3365142,46.4126813 C15.1182454,46.522852 14.8543925,46.4848762 14.6760528,46.3176225 C14.4977131,46.1503688 14.442905,45.8894922 14.5388603,45.6646112 C14.3540099,45.5355581 14.1802253,45.3913385 14.0193073,45.2334469 C13.1888753,45.3666056 12.3375821,45.2409063 11.5810732,44.8734247 C12.0898974,44.5245042 12.5390562,44.0957286 12.911215,43.6036459 L12.911215,43.6036459 Z" id="路径" fill="#000000"></path>
                    <path d="M27.2194024,39.0203693 C27.1497594,38.8832263 27.1376765,38.7239742 27.1858305,38.5778936 C27.2339845,38.4318129 27.3384,38.3109634 27.4759452,38.2421178 C27.5573216,38.2004569 27.6475365,38.1790124 27.7389554,38.179599 C27.9034028,37.3065481 28.3494202,36.5114406 29.0087342,35.9159864 C28.9021256,35.5016925 28.8621021,35.0730767 28.8901641,34.6462075 L31.0222715,34.2883411 L28.9505271,34.156836 C28.9880546,33.9621203 29.0399359,33.7704477 29.1057462,33.5833875 C29.0243302,33.5292051 28.9582497,33.4549573 28.9138781,33.3678053 C28.8078215,33.1553524 28.8414488,32.8997758 28.998851,32.7219871 C29.1562532,32.5441984 29.4058706,32.4798451 29.6296108,32.5593723 C30.010367,32.0176694 30.5191453,31.5785056 31.1106602,31.2809701 C32.5336916,30.5588509 34.247724,30.7369417 35.4919026,31.7361886 C36.7360812,32.7354355 37.2798355,34.3706586 36.8817944,35.9159864 C37.0886608,36.0046558 37.22554,36.2050118 37.2329304,36.4299592 C37.2403209,36.6549067 37.1168878,36.863815 36.9162875,36.9658714 C36.7672462,37.0414191 36.5929253,37.0492714 36.4376952,36.9874297 C36.2296383,37.3362164 35.970179,37.6516375 35.6680669,37.9230562 C35.8890188,38.7827928 35.8231617,39.6911666 35.4805104,40.510042 L32.6283586,39.7598161 L35.1786954,41.1028929 C34.3991078,42.3469367 33.0094054,43.074085 31.5428893,43.0052932 C30.0763732,42.9365014 28.760842,42.0824552 28.1011334,40.7708964 C27.875552,40.3224914 27.733814,39.8366369 27.682904,39.3372751 C27.4838646,39.3192678 27.3084108,39.1993064 27.2194024,39.0203693 Z" id="路径" fill="#6C63FF"></path>
                    <path d="M27.2194024,39.0203693 C27.1497594,38.8832263 27.1376765,38.7239742 27.1858305,38.5778936 C27.2339845,38.4318129 27.3384,38.3109634 27.4759452,38.2421178 C27.5573216,38.2004569 27.6475365,38.1790124 27.7389554,38.179599 C27.9034028,37.3065481 28.3494202,36.5114406 29.0087342,35.9159864 C28.9914877,35.8491559 28.9763969,35.7801696 28.963462,35.7133391 C29.0407918,35.7684797 29.1129494,35.8305352 29.1790441,35.8987398 C29.5649362,36.3299041 29.7632718,36.8882619 30.1426964,37.3151145 C30.618111,37.805542 31.2572708,38.1040212 31.9384957,38.1537291 C32.6132662,38.2001732 33.2911902,38.1456777 33.9498771,37.9920425 C34.4931004,37.8521018 35.0535143,37.7903982 35.6141714,37.8087977 L35.7737021,37.8303559 L35.6745344,37.9230562 C35.8954862,38.7827928 35.8296291,39.6911666 35.4869779,40.510042 L32.6283586,39.7598161 L35.1786954,41.1028929 C34.3991078,42.3469367 33.0094054,43.074085 31.5428893,43.0052932 C30.0763732,42.9365014 28.760842,42.0824552 28.1011334,40.7708964 C27.875552,40.3224914 27.733814,39.8366369 27.682904,39.3372751 C27.4838646,39.3192678 27.3084108,39.1993064 27.2194024,39.0203693 Z" id="路径" fill="#000000"></path>
                </g>
                <path d="M74.666878,11.1908695 C73.8145652,11.0290778 72.9333655,11.1251541 72.1359436,11.4668146 C71.1685615,11.8979108 70.0636173,11.8979108 69.0962352,11.4668146 C67.9519974,10.9652388 66.6452565,10.9912476 65.5218832,11.5379567 C65.2049011,11.7053814 64.8520357,11.7934128 64.4935563,11.7944995 C63.0448443,11.7944995 61.83974,10.3350083 61.5896647,8.40985971 C61.8785205,8.19812385 62.1243612,7.93325981 62.3140208,7.62945233 C63.1634144,6.26050567 64.4698423,5.38093049 65.9552033,5.38093049 C67.4405643,5.38093049 68.7340572,6.24325909 69.5834509,7.60358247 C70.099512,8.43438356 71.0113538,8.93605994 71.9893477,8.92725688 L72.0281525,8.92725688 C73.1707379,8.92078941 74.1688833,9.84563684 74.666878,11.1908695 Z" id="路径" fill="#6C63FF" opacity="0.1"></path>
                <path d="M79.0690655,5.15456923 L76.7278434,6.63993025 L78.1485298,4.05294444 C77.7456681,3.73191139 77.2472519,3.55439332 76.732155,3.54848221 L76.6955061,3.54848221 C76.533059,3.55046832 76.3707507,3.53820502 76.2104462,3.51183324 L75.4149481,4.01629547 L75.7555679,3.3975747 C75.1950035,3.20248962 74.7095366,2.83688185 74.3672188,2.35200127 L72.9422208,3.24235555 L73.8390426,1.61039867 C73.0090513,0.612253309 71.8880241,0 70.65705,0 C69.1803123,0 67.854482,0.879575176 67.0137117,2.24852184 C66.5016061,3.08089217 65.5824025,3.57464525 64.605659,3.54201474 L64.5345169,3.54201474 C62.9047159,3.54201474 61.5810415,5.38955378 61.5810415,7.67256876 C61.5810415,9.95558374 62.9047159,11.8009669 64.5345169,11.8009669 C64.8929963,11.7998803 65.2458617,11.7118489 65.5628438,11.5444242 C66.6862542,10.997239 67.9935082,10.9720085 69.1371958,11.4754379 C70.1048663,11.9051761 71.2092337,11.9051761 72.1769042,11.4754379 C73.3115432,10.982829 74.6043218,11.0080079 75.7189189,11.5444242 C76.0334425,11.7073715 76.3822422,11.7930935 76.7364667,11.7944995 C78.3684236,11.7944995 79.6900541,9.94696045 79.6900541,7.66610129 C79.6956615,6.79024732 79.4822262,5.92687175 79.0690655,5.15456923 L79.0690655,5.15456923 Z" id="路径" fill="#6C63FF" opacity="0.1"></path>
                <path d="M25.9453119,41.0576207 C24.7279519,40.827288 23.4696039,40.9638529 22.3299992,41.4499802 C20.9468611,42.0631174 19.3682514,42.0591983 17.9881747,41.4392011 C16.3539953,40.7226964 14.4876506,40.7597396 12.8831893,41.5405247 C12.4297912,41.7793782 11.925381,41.905111 11.4129191,41.9070325 C9.34333043,41.9070325 7.62082904,39.8223349 7.26296267,37.0715067 C7.67651772,36.7701673 8.02789942,36.3916999 8.29775699,35.956947 C9.51148451,34.0016169 11.3913609,32.7447729 13.5019101,32.7447729 C15.6124594,32.7447729 17.4686217,33.9865261 18.6758817,35.920298 C19.4139089,37.112465 20.7232052,37.830123 22.1251962,37.8109535 L22.1790917,37.8109535 C23.8132044,37.8087977 25.2403582,39.1303162 25.9453119,41.0576207 Z" id="路径" fill="#6C63FF" opacity="0.1"></path>
                <path d="M32.2403107,32.4235555 L28.8944757,34.5448839 L30.9252596,30.8519616 C30.3497185,30.3925548 29.6373042,30.1383921 28.9009432,30.1297614 L28.8470476,30.1297614 C28.6145788,30.1331611 28.3822693,30.1158461 28.1528731,30.0780217 L27.0232226,30.8088452 L27.5104383,29.9249584 C26.7065267,29.6440388 26.0122206,29.1157624 25.5270825,28.4158833 L23.4962986,29.7093762 L24.7747008,27.3595308 C23.5868431,25.9345328 21.9872236,25.0614251 20.2280732,25.0614251 C18.117524,25.0614251 16.2376476,26.3161132 15.0239201,28.2714433 C14.2920791,29.465939 12.974669,30.1748703 11.5746057,30.1276056 L11.4603472,30.1276056 C9.1299041,30.1276056 7.24140445,32.768487 7.24140445,36.0280891 C7.24140445,39.2876912 9.1299041,41.9285907 11.4603472,41.9285907 C11.9731394,41.92721 12.4778442,41.8006638 12.9306174,41.5599271 C14.5353965,40.7798326 16.4017381,40.7435777 18.0356028,41.4607593 C19.4156795,42.0807565 20.9942891,42.0846756 22.3774273,41.4715384 C23.9988486,40.7677892 25.8460307,40.8031909 27.4392962,41.5685504 C27.8877873,41.8032664 28.3861258,41.9267419 28.8923199,41.9285907 C31.2227629,41.9285907 33.1112626,39.2855354 33.1112626,36.0280891 C33.1275119,34.7725856 32.828025,33.5331252 32.2403107,32.4235555 Z" id="路径" fill="#6C63FF" opacity="0.1"></path>
                <path d="M161.248982,19.5985734 C162.1013,19.4369138 162.98246,19.5329859 163.779916,19.8745185 C164.746509,20.3057923 165.850875,20.3057923 166.817468,19.8745185 C167.961706,19.3729427 169.268447,19.3989514 170.391821,19.9456606 C170.708895,20.1128436 171.0617,20.20086 171.420147,20.2022034 C172.868859,20.2022034 174.07612,18.7427122 174.326195,16.8175636 C174.036841,16.6063879 173.790903,16.341419 173.601839,16.0371562 C172.756757,14.6638979 171.435238,13.7778553 169.954189,13.7778553 C168.473139,13.7778553 167.177491,14.6401839 166.328097,16.0005073 C165.812813,16.8351059 164.898701,17.3395842 163.917889,17.3306491 L163.88124,17.3306491 C162.734343,17.3284933 161.734041,18.2533407 161.248982,19.5985734 Z" id="路径" fill="#6C63FF" opacity="0.1"></path>
                <path d="M156.833859,13.5622731 L159.175081,15.0433225 L157.752239,12.4563367 C158.155263,12.1355948 158.653576,11.9581135 159.168614,11.9518745 L159.207419,11.9518745 C159.369862,11.9537397 159.53216,11.9414772 159.692478,11.9152255 L160.485821,12.4196877 L160.145201,11.8009669 C160.709787,11.6091403 161.199919,11.2449345 161.546485,10.7597052 L162.967171,11.6608386 L162.068194,10.0288817 C162.900341,9.03073631 164.008433,8.418483 165.252342,8.418483 C166.72908,8.418483 168.05491,9.29805818 168.89568,10.6670048 C169.407466,11.4997145 170.326883,11.9935824 171.303733,11.9604977 L171.381343,11.9604977 C173.0133,11.9604977 174.334818,13.8080368 174.334818,16.0910518 C174.334818,18.3740667 173.0133,20.2194499 171.381343,20.2194499 C171.022927,20.2178514 170.670182,20.12985 170.353016,19.9629072 C169.229605,19.415722 167.922351,19.3904915 166.778664,19.8939209 C165.811724,20.3235623 164.708051,20.3235623 163.741111,19.8939209 C162.605742,19.4012284 161.312276,19.4264054 160.196941,19.9629072 C159.882505,20.126089 159.533648,20.2118251 159.179393,20.2129825 C157.549592,20.2129825 156.225917,18.3654434 156.225917,16.0845843 C156.214415,15.2062003 156.423441,14.3389636 156.833859,13.5622731 L156.833859,13.5622731 Z" id="路径" fill="#6C63FF" opacity="0.1"></path>
                <polygon id="路径" fill="#D0D2D5" points="119.74295 142.689514 81.3283665 142.195831 81.442625 141.210621 83.2987874 124.957882 117.035238 124.957882 119.516589 141.210621 119.706301 142.44375"></polygon>
                <polygon id="路径" fill="#000000" opacity="0.1" points="119.706301 142.44375 100.536736 142.44375 81.3283665 142.195831 81.442625 141.210621 119.516589 141.210621"></polygon>
                <rect id="矩形" fill="#D0D2D5" x="74.9255766" y="141.45854" width="50.9743996" height="1.23097408"></rect>
                <path d="M174.533172,27.3422842 C174.539121,25.573494 173.111319,24.134115 171.342538,24.1257985 L28.9893319,24.1257985 C28.1391227,24.1297914 27.3253231,24.4713699 26.7269645,25.0753887 C26.1286059,25.6794074 25.7947043,26.4963868 25.7986803,27.3465959 L25.7986803,113.633352 L174.533172,113.633352 L174.533172,27.3422842 Z" id="路径" fill="#3F3D56"></path>
                <path d="M25.798716,112.771023 L25.798716,122.877514 C25.798716,124.639643 27.2272034,126.06813 28.9893319,126.06813 L171.342538,126.06813 C173.104666,126.06813 174.533154,124.639643 174.533154,122.877514 L174.533154,112.771023 L25.798716,112.771023 Z" id="路径" fill="#D0D2D5"></path>
                <rect id="矩形" fill="#FFFFFF" x="32" y="30" width="137.159832" height="77.5686138"></rect>
                <circle id="椭圆形" fill="#6353E5" cx="101" cy="69" r="22"></circle>
                <g id="密码" transform="translate(89.000000, 55.000000)">
                    <rect id="矩形" fill="#000000" opacity="0" x="0" y="0" width="24" height="24"></rect>
                    <path d="M18.4148437,8.43984375 L16.96875,8.43984375 L16.96875,6.67265625 C16.96875,5.30390625 16.4367187,4.0171875 15.46875,3.0515625 C14.5007813,2.08359375 13.2140625,1.5515625 11.8476562,1.5515625 C10.48125,1.5515625 9.1921875,2.08359375 8.2265625,3.0515625 C7.25859375,4.01953125 6.7265625,5.30625 6.7265625,6.67265625 L6.7265625,8.43984375 L5.278125,8.43984375 C3.96328125,8.43984375 2.8921875,9.5109375 2.8921875,10.8257813 L2.8921875,20.1210938 C2.8921875,21.4359375 3.96328125,22.5070312 5.278125,22.5070312 L18.4195313,22.5070312 C19.734375,22.5070312 20.8054687,21.4359375 20.8054687,20.1210938 L20.8054687,10.8257812 C20.803125,9.50859375 19.7320312,8.43984375 18.4148437,8.43984375 Z M8.22421875,6.67265625 C8.22421875,4.67578125 9.8484375,3.04921875 11.8476562,3.04921875 C13.846875,3.04921875 15.46875,4.67578125 15.46875,6.67265625 L15.46875,8.43984375 L8.22421875,8.43984375 L8.22421875,6.67265625 Z M19.303125,20.1210938 C19.303125,20.6109375 18.9046875,21.0070312 18.4171875,21.0070312 L5.27578125,21.0070312 C4.7859375,21.0070312 4.38984375,20.6085937 4.38984375,20.1210938 L4.38984375,10.8257813 C4.38984375,10.3359375 4.78828125,9.93984375 5.27578125,9.93984375 L18.4171875,9.93984375 C18.9070312,9.93984375 19.303125,10.3382812 19.303125,10.8257813 L19.303125,20.1210938 Z M11.8453125,13.2726562 C11.4304687,13.2726562 11.0953125,13.6078125 11.0953125,14.0226562 L11.0953125,16.9242187 C11.0953125,17.3390625 11.4304687,17.6742188 11.8453125,17.6742188 C12.2601562,17.6742188 12.5953125,17.3390625 12.5953125,16.9242187 L12.5953125,14.0226562 C12.5953125,13.6078125 12.2601563,13.2726562 11.8453125,13.2726562 Z" id="形状" fill="#FFFFFF"></path>
                </g>
                <polygon id="路径" fill="#000000" opacity="0.1" points="104.229658 126.065974 119.555394 141.45854 117.203392 126.065974"></polygon>
                <rect id="矩形" fill="#444053" opacity="0.1" x="31.8479512" y="29.5455338" width="137.308584" height="4.53153682"></rect>
                <rect id="矩形" fill="#6C63FF" opacity="0.3" x="79.5217881" y="30.3345645" width="41.3702148" height="2.75729571" rx="0.125037648"></rect>
                <path d="M119.663185,31.9988587 L119.561861,31.9988587 L119.525212,31.9665214 C119.650664,31.8157795 119.719318,31.6258375 119.719236,31.4297218 C119.715667,30.9802437 119.348821,30.6185361 118.899338,30.6212912 C118.449854,30.624078 118.087495,30.990281 118.08946,31.4397689 C118.091441,31.8892568 118.457001,32.2522648 118.906491,32.2510898 C119.102843,32.2503846 119.292755,32.1809789 119.443291,32.05491 L119.47994,32.0872474 L119.47994,32.188571 L120.111595,32.8202267 L120.299152,32.6305144 L119.663185,31.9988587 Z M118.906491,31.9988629 C118.676103,31.9997314 118.467914,31.8616203 118.379143,31.649019 C118.290372,31.4364177 118.338531,31.191269 118.501132,31.0280497 C118.663733,30.8648304 118.908697,30.815741 119.121634,30.9037048 C119.33457,30.9916686 119.473471,31.1993316 119.473472,31.4297218 C119.474626,31.5806428 119.41533,31.7257481 119.308812,31.8326708 C119.202295,31.9395935 119.057416,31.9994391 118.906491,31.9988629 Z" id="形状" fill="#3F3D56"></path>
                <circle id="椭圆形" fill="#FA5959" opacity="0.8" cx="34.3163668" cy="31.8113022" r="1"></circle>
                <circle id="椭圆形" fill="#FED253" opacity="0.8" cx="36.5993818" cy="31.8113022" r="1"></circle>
                <circle id="椭圆形" fill="#8CCF4D" opacity="0.8" cx="38.8845526" cy="31.8113022" r="1"></circle>
                <ellipse id="椭圆形" fill="#6C63FF" cx="175.292003" cy="141.374463" rx="6.96114766" ry="1.33876516"></ellipse>
                <ellipse id="椭圆形" fill="#3F3D56" cx="175.175588" cy="140.805326" rx="1" ry="1.06066418"></ellipse>
                <ellipse id="椭圆形" fill="#3F3D56" cx="175.175588" cy="139.507522" rx="1" ry="1.06066418"></ellipse>
                <ellipse id="椭圆形" fill="#3F3D56" cx="175.175588" cy="138.211873" rx="1" ry="1.06066418"></ellipse>
                <ellipse id="椭圆形" fill="#3F3D56" cx="175.175588" cy="136.914068" rx="1" ry="1.06066418"></ellipse>
                <ellipse id="椭圆形" fill="#3F3D56" cx="175.175588" cy="135.616264" rx="1" ry="1.06066418"></ellipse>
                <ellipse id="椭圆形" fill="#3F3D56" cx="175.175588" cy="134.320615" rx="1" ry="1.06066418"></ellipse>
                <ellipse id="椭圆形" fill="#3F3D56" cx="175.175588" cy="133.02281" rx="1" ry="1.06066418"></ellipse>
                <path d="M178.208829,124.155917 C178.319463,124.014953 178.420304,123.866572 178.510644,123.711817 L176.380693,123.362574 L178.685266,123.377665 C179.129834,122.405492 179.156328,121.29355 178.758564,120.301308 L175.667116,121.905239 L178.517112,119.80978 C177.788228,118.555094 176.420233,117.811893 174.97095,117.883232 C173.521668,117.954571 172.233275,118.828528 171.631136,120.148732 C171.028998,121.468936 171.213732,123.014779 172.11001,124.155917 C171.936865,124.374883 171.787962,124.61197 171.665911,124.863026 L174.43183,126.300959 L171.482666,125.311437 C171.064237,126.552585 171.300154,127.921064 172.11001,128.950464 C170.860135,130.541588 171.042581,132.826024 172.529151,134.198603 C174.015721,135.571182 176.307431,135.571182 177.794001,134.198603 C179.280571,132.826024 179.463016,130.541588 178.213141,128.950464 C179.321937,127.542183 179.321937,125.55773 178.213141,124.149449 L178.208829,124.155917 Z" id="路径" fill="#6C63FF"></path>
                <path d="M171.273551,126.548878 C171.273175,127.420895 171.567994,128.26736 172.11001,128.950464 C170.860135,130.541588 171.042581,132.826024 172.529151,134.198603 C174.015721,135.571182 176.307431,135.571182 177.794001,134.198603 C179.280571,132.826024 179.463016,130.541588 178.213141,128.950464 C178.728382,128.288626 171.273551,126.113403 171.273551,126.548878 Z" id="路径" fill="#000000" opacity="0.1"></path>
                <ellipse id="椭圆形" fill="#6C63FF" cx="31.9967029" cy="167.479306" rx="10.0224142" ry="1.92730443"></ellipse>
                <ellipse id="椭圆形" fill="#3F3D56" cx="31.8285488" cy="166.660094" rx="1.16629944" ry="1.52847745"></ellipse>
                <ellipse id="椭圆形" fill="#3F3D56" cx="31.8285488" cy="164.793152" rx="1.16629944" ry="1.52847745"></ellipse>
                <ellipse id="椭圆形" fill="#3F3D56" cx="31.8285488" cy="162.926211" rx="1.16629944" ry="1.52847745"></ellipse>
                <ellipse id="椭圆形" fill="#3F3D56" cx="31.8285488" cy="161.059269" rx="1.16629944" ry="1.52847745"></ellipse>
                <ellipse id="椭圆形" fill="#3F3D56" cx="31.8285488" cy="159.192328" rx="1.16629944" ry="1.52847745"></ellipse>
                <ellipse id="椭圆形" fill="#3F3D56" cx="31.8285488" cy="157.323231" rx="1.16629944" ry="1.52847745"></ellipse>
                <ellipse id="椭圆形" fill="#3F3D56" cx="31.8285488" cy="155.456289" rx="1.16629944" ry="1.52847745"></ellipse>
                <path d="M36.1962432,142.680891 C36.3540952,142.475071 36.4981323,142.259015 36.6274075,142.034144 L33.5618293,141.529682 L36.8774828,141.555552 C37.5197438,140.156018 37.5579454,138.553894 36.983118,137.125339 L32.5378141,139.440691 L36.6338749,136.422541 C35.5883587,134.608498 33.6167691,133.530803 31.5253618,133.630167 C29.4339546,133.729531 27.5734186,134.989291 26.7045958,136.894286 C25.835773,138.799281 26.1043483,141.030078 27.4004914,142.674423 C27.1487165,142.989199 26.9318636,143.330381 26.7537449,143.691971 L30.7355473,145.76156 L26.4907347,144.336562 C25.8862776,146.131645 26.2319444,148.110709 27.4091147,149.59461 C25.6064066,151.886247 25.8678214,155.178568 28.0095794,157.157008 C30.1513374,159.135448 33.4540204,159.135448 35.5957784,157.157008 C37.7375364,155.178568 37.9989512,151.886247 36.1962432,149.59461 C37.7919137,147.56705 37.7919137,144.710607 36.1962432,142.683047 L36.1962432,142.680891 Z" id="路径" fill="#6C63FF"></path>
                <path d="M26.2125468,146.145296 C26.2128342,147.396799 26.6342896,148.611805 27.4091147,149.59461 C25.6064066,151.886247 25.8678214,155.178568 28.0095794,157.157008 C30.1513374,159.135448 33.4540204,159.135448 35.5957784,157.157008 C37.7375364,155.178568 37.9989512,151.886247 36.1962432,149.59461 C36.9400016,148.641737 26.2125468,145.509329 26.2125468,146.145296 Z" id="路径" fill="#000000" opacity="0.1"></path>
            </g>
        </g>
    </g>
</svg>