<?xml version="1.0" encoding="UTF-8"?>
<svg width="64px" height="64px" viewBox="0 0 64 64" version="1.1" xmlns="http://www.w3.org/2000/svg" xmlns:xlink="http://www.w3.org/1999/xlink">
    <!-- Generator: Sketch 64 (93537) - https://sketch.com -->
    <title>角色</title>
    <desc>Created with Sketch.</desc>
    <g id="蓝紫新风格" stroke="none" stroke-width="1" fill="none" fill-rule="evenodd">
        <g id="切图" transform="translate(-1741.000000, -836.000000)" fill="#6353E5">
            <g id="角色" transform="translate(1741.000000, 836.000000)">
                <path d="M64,32 C64,49.673 49.673,64 32,64 C14.327,64 0,49.673 0,32 C0,14.327 14.327,0 32,0 C49.673,0 64,14.327 64,32" id="Fill-1" opacity="0.0700000003"></path>
                <g id="编组-26" transform="translate(8.000000, 8.000000)">
                    <path d="M7.5,1 C6.673,1 6,1.673 6,2.5 C6,3.327 6.673,4 7.5,4 C8.327,4 9,3.327 9,2.5 C9,1.673 8.327,1 7.5,1 M7.5,5 C6.121,5 5,3.879 5,2.5 C5,1.121 6.121,0 7.5,0 C8.879,0 10,1.121 10,2.5 C10,3.879 8.879,5 7.5,5" id="Fill-3"></path>
                    <path d="M43.167,4.667 L39.167,4.667 C38.891,4.667 38.667,4.443 38.667,4.167 C38.667,3.891 38.891,3.667 39.167,3.667 L43.167,3.667 C43.443,3.667 43.667,3.891 43.667,4.167 C43.667,4.443 43.443,4.667 43.167,4.667" id="Fill-5"></path>
                    <path d="M41.167,6.667 C40.891,6.667 40.667,6.443 40.667,6.167 L40.667,2.167 C40.667,1.891 40.891,1.667 41.167,1.667 C41.443,1.667 41.667,1.891 41.667,2.167 L41.667,6.167 C41.667,6.443 41.443,6.667 41.167,6.667" id="Fill-7"></path>
                    <path d="M51,32 C51,33.104 50.104,34 49,34 C47.896,34 47,33.104 47,32 C47,30.896 47.896,30 49,30 C50.104,30 51,30.896 51,32" id="Fill-9"></path>
                    <path d="M43,43 C43,43.553 42.553,44 42,44 C41.447,44 41,43.553 41,43 C41,42.447 41.447,42 42,42 C42.553,42 43,42.447 43,43" id="Fill-11"></path>
                    <path d="M4,45 C3.724,45 3.5,44.776 3.5,44.5 L3.5,42 C3.5,41.724 3.724,41.5 4,41.5 C4.276,41.5 4.5,41.724 4.5,42 L4.5,44.5 C4.5,44.776 4.276,45 4,45" id="Fill-13"></path>
                    <path d="M6.4697,43.9697 C6.3417,43.9697 6.2137,43.9207 6.1157,43.8237 L4.3567,42.0637 C4.1607,41.8677 4.1607,41.5517 4.3567,41.3567 C4.5517,41.1607 4.8677,41.1607 5.0637,41.3567 L6.8237,43.1157 C7.0187,43.3117 7.0187,43.6277 6.8237,43.8237 C6.7257,43.9207 6.5977,43.9697 6.4697,43.9697" id="Fill-15"></path>
                    <path d="M7.5,41.5 L5,41.5 C4.724,41.5 4.5,41.276 4.5,41 C4.5,40.724 4.724,40.5 5,40.5 L7.5,40.5 C7.776,40.5 8,40.724 8,41 C8,41.276 7.776,41.5 7.5,41.5" id="Fill-17"></path>
                    <path d="M4.71,40.79 C4.582,40.79 4.454,40.741 4.356,40.644 C4.161,40.448 4.161,40.132 4.356,39.936 L6.116,38.177 C6.312,37.981 6.628,37.981 6.823,38.177 C7.019,38.372 7.019,38.688 6.823,38.884 L5.064,40.644 C4.966,40.741 4.838,40.79 4.71,40.79" id="Fill-19"></path>
                    <path d="M4,40.5 C3.724,40.5 3.5,40.276 3.5,40 L3.5,37.5 C3.5,37.224 3.724,37 4,37 C4.276,37 4.5,37.224 4.5,37.5 L4.5,40 C4.5,40.276 4.276,40.5 4,40.5" id="Fill-21"></path>
                    <path d="M3.29,40.79 C3.162,40.79 3.034,40.741 2.936,40.644 L1.177,38.884 C0.981,38.688 0.981,38.372 1.177,38.177 C1.372,37.981 1.688,37.981 1.884,38.177 L3.644,39.936 C3.839,40.132 3.839,40.448 3.644,40.644 C3.546,40.741 3.418,40.79 3.29,40.79" id="Fill-23"></path>
                    <path d="M3,41.5 L0.5,41.5 C0.224,41.5 0,41.276 0,41 C0,40.724 0.224,40.5 0.5,40.5 L3,40.5 C3.276,40.5 3.5,40.724 3.5,41 C3.5,41.276 3.276,41.5 3,41.5" id="Fill-25"></path>
                    <path d="M1.5303,43.9697 C1.4023,43.9697 1.2743,43.9207 1.1763,43.8237 C0.9813,43.6277 0.9813,43.3117 1.1763,43.1157 L2.9363,41.3567 C3.1323,41.1607 3.4483,41.1607 3.6433,41.3567 C3.8393,41.5517 3.8393,41.8677 3.6433,42.0637 L1.8843,43.8237 C1.7863,43.9207 1.6583,43.9697 1.5303,43.9697" id="Fill-27"></path>
                    <path d="M22,40.25 L8.75,40.25 L8.75,12 C8.75,9.656 10.656,7.75 13,7.75 L31,7.75 C33.344,7.75 35.25,9.656 35.25,12 L35.25,20.286 C35.25,20.977 34.69,21.536 34,21.536 C33.31,21.536 32.75,20.977 32.75,20.286 L32.75,12 C32.75,11.035 31.965,10.25 31,10.25 L13,10.25 C12.035,10.25 11.25,11.035 11.25,12 L11.25,37.75 L22,37.75 C22.69,37.75 23.25,38.31 23.25,39 C23.25,39.69 22.69,40.25 22,40.25" id="Fill-29"></path>
                    <path d="M28,22.6729 L16,22.6729 C15.31,22.6729 14.75,22.1129 14.75,21.4229 C14.75,20.7329 15.31,20.1729 16,20.1729 L28,20.1729 C28.69,20.1729 29.25,20.7329 29.25,21.4229 C29.25,22.1129 28.69,22.6729 28,22.6729" id="Fill-31"></path>
                    <path d="M28,17.25 L16,17.25 C15.31,17.25 14.75,16.69 14.75,16 C14.75,15.31 15.31,14.75 16,14.75 L28,14.75 C28.69,14.75 29.25,15.31 29.25,16 C29.25,16.69 28.69,17.25 28,17.25" id="Fill-33"></path>
                    <path d="M25,27.75 L16,27.75 C15.31,27.75 14.75,27.19 14.75,26.5 C14.75,25.81 15.31,25.25 16,25.25 L25,25.25 C25.69,25.25 26.25,25.81 26.25,26.5 C26.25,27.19 25.69,27.75 25,27.75" id="Fill-35"></path>
                    <path d="M23.3848,32.8271 L15.9998,32.8271 C15.3098,32.8271 14.7498,32.2671 14.7498,31.5771 C14.7498,30.8871 15.3098,30.3271 15.9998,30.3271 L23.3848,30.3271 C24.0748,30.3271 24.6348,30.8871 24.6348,31.5771 C24.6348,32.2671 24.0748,32.8271 23.3848,32.8271" id="Fill-37"></path>
                    <path d="M27.3311,38 L40.4231,38 C39.9991,35.67 37.9541,33.898 35.5041,33.898 L32.2501,33.898 C29.8001,33.898 27.7551,35.67 27.3311,38 L27.3311,38 Z M42.5041,40 L25.2501,40 L25.2501,38.898 C25.2501,35.039 28.3911,31.898 32.2501,31.898 L35.5041,31.898 C39.3631,31.898 42.5041,35.039 42.5041,38.898 L42.5041,40 Z" id="Fill-39"></path>
                    <path d="M33.877,25 C32.466,25 31.317,26.148 31.317,27.56 C31.317,28.971 32.466,30.118 33.877,30.118 C35.288,30.118 36.437,28.971 36.437,27.56 C36.437,26.148 35.288,25 33.877,25 M33.877,32.118 C31.363,32.118 29.317,30.073 29.317,27.56 C29.317,25.046 31.363,23 33.877,23 C36.391,23 38.437,25.046 38.437,27.56 C38.437,30.073 36.391,32.118 33.877,32.118" id="Fill-41"></path>
                </g>
            </g>
        </g>
    </g>
</svg>