<?xml version="1.0" encoding="UTF-8"?>
<svg width="64px" height="64px" viewBox="0 0 64 64" version="1.1" xmlns="http://www.w3.org/2000/svg" xmlns:xlink="http://www.w3.org/1999/xlink">
    <!-- Generator: Sketch 64 (93537) - https://sketch.com -->
    <title>用户组</title>
    <desc>Created with Sketch.</desc>
    <g id="蓝紫新风格" stroke="none" stroke-width="1" fill="none" fill-rule="evenodd">
        <g id="切图" transform="translate(-1381.000000, -984.000000)" fill="#6353E5">
            <g id="用户组" transform="translate(1381.000000, 984.000000)">
                <path d="M64,32 C64,49.673 49.673,64 32,64 C14.327,64 0,49.673 0,32 C0,14.327 14.327,0 32,0 C49.673,0 64,14.327 64,32" id="Fill-1" opacity="0.0700000003"></path>
                <g id="编组-27" transform="translate(8.000000, 8.000000)">
                    <path d="M7.5,1 C6.673,1 6,1.673 6,2.5 C6,3.327 6.673,4 7.5,4 C8.327,4 9,3.327 9,2.5 C9,1.673 8.327,1 7.5,1 M7.5,5 C6.121,5 5,3.879 5,2.5 C5,1.121 6.121,0 7.5,0 C8.879,0 10,1.121 10,2.5 C10,3.879 8.879,5 7.5,5" id="Fill-3"></path>
                    <path d="M43.167,4.667 L39.167,4.667 C38.891,4.667 38.667,4.443 38.667,4.167 C38.667,3.891 38.891,3.667 39.167,3.667 L43.167,3.667 C43.443,3.667 43.667,3.891 43.667,4.167 C43.667,4.443 43.443,4.667 43.167,4.667" id="Fill-5"></path>
                    <path d="M41.167,6.667 C40.891,6.667 40.667,6.443 40.667,6.167 L40.667,2.167 C40.667,1.891 40.891,1.667 41.167,1.667 C41.443,1.667 41.667,1.891 41.667,2.167 L41.667,6.167 C41.667,6.443 41.443,6.667 41.167,6.667" id="Fill-7"></path>
                    <path d="M51,32 C51,33.104 50.104,34 49,34 C47.896,34 47,33.104 47,32 C47,30.896 47.896,30 49,30 C50.104,30 51,30.896 51,32" id="Fill-9"></path>
                    <path d="M42,42 C42,42.553 41.553,43 41,43 C40.447,43 40,42.553 40,42 C40,41.447 40.447,41 41,41 C41.553,41 42,41.447 42,42" id="Fill-11"></path>
                    <path d="M4,45 C3.724,45 3.5,44.776 3.5,44.5 L3.5,42 C3.5,41.724 3.724,41.5 4,41.5 C4.276,41.5 4.5,41.724 4.5,42 L4.5,44.5 C4.5,44.776 4.276,45 4,45" id="Fill-13"></path>
                    <path d="M6.4697,43.9697 C6.3417,43.9697 6.2137,43.9207 6.1157,43.8237 L4.3567,42.0637 C4.1607,41.8677 4.1607,41.5517 4.3567,41.3567 C4.5517,41.1607 4.8677,41.1607 5.0637,41.3567 L6.8237,43.1157 C7.0187,43.3117 7.0187,43.6277 6.8237,43.8237 C6.7257,43.9207 6.5977,43.9697 6.4697,43.9697" id="Fill-15"></path>
                    <path d="M7.5,41.5 L5,41.5 C4.724,41.5 4.5,41.276 4.5,41 C4.5,40.724 4.724,40.5 5,40.5 L7.5,40.5 C7.776,40.5 8,40.724 8,41 C8,41.276 7.776,41.5 7.5,41.5" id="Fill-17"></path>
                    <path d="M4.71,40.79 C4.582,40.79 4.454,40.741 4.356,40.644 C4.161,40.448 4.161,40.132 4.356,39.936 L6.116,38.177 C6.312,37.981 6.628,37.981 6.823,38.177 C7.019,38.372 7.019,38.688 6.823,38.884 L5.064,40.644 C4.966,40.741 4.838,40.79 4.71,40.79" id="Fill-19"></path>
                    <path d="M4,40.5 C3.724,40.5 3.5,40.276 3.5,40 L3.5,37.5 C3.5,37.224 3.724,37 4,37 C4.276,37 4.5,37.224 4.5,37.5 L4.5,40 C4.5,40.276 4.276,40.5 4,40.5" id="Fill-21"></path>
                    <path d="M3.29,40.79 C3.162,40.79 3.034,40.741 2.936,40.644 L1.177,38.884 C0.981,38.688 0.981,38.372 1.177,38.177 C1.372,37.981 1.688,37.981 1.884,38.177 L3.644,39.936 C3.839,40.132 3.839,40.448 3.644,40.644 C3.546,40.741 3.418,40.79 3.29,40.79" id="Fill-23"></path>
                    <path d="M3,41.5 L0.5,41.5 C0.224,41.5 0,41.276 0,41 C0,40.724 0.224,40.5 0.5,40.5 L3,40.5 C3.276,40.5 3.5,40.724 3.5,41 C3.5,41.276 3.276,41.5 3,41.5" id="Fill-25"></path>
                    <path d="M1.5303,43.9697 C1.4023,43.9697 1.2743,43.9207 1.1763,43.8237 C0.9813,43.6277 0.9813,43.3117 1.1763,43.1157 L2.9363,41.3567 C3.1323,41.1607 3.4483,41.1607 3.6433,41.3567 C3.8393,41.5517 3.8393,41.8677 3.6433,42.0637 L1.8843,43.8237 C1.7863,43.9207 1.6583,43.9697 1.5303,43.9697" id="Fill-27"></path>
                    <path d="M40.5,39.25 L8,39.25 L8,30 C8,26.002 11.252,22.75 15.25,22.75 L22.839,22.75 C23.529,22.75 24.089,23.31 24.089,24 C24.089,24.69 23.529,25.25 22.839,25.25 L15.25,25.25 C12.631,25.25 10.5,27.381 10.5,30 L10.5,36.75 L38,36.75 L38,32 C38,29.381 35.869,27.25 33.25,27.25 L28.79,27.25 C28.1,27.25 27.54,26.69 27.54,26 C27.54,25.31 28.1,24.75 28.79,24.75 L33.25,24.75 C37.248,24.75 40.5,28.002 40.5,32 L40.5,39.25 Z" id="Fill-29"></path>
                    <path d="M18.5,8.3223 C15.721,8.3223 13.46,10.5833 13.46,13.3623 C13.46,16.1413 15.721,18.4023 18.5,18.4023 C21.279,18.4023 23.54,16.1413 23.54,13.3623 C23.54,10.5833 21.279,8.3223 18.5,8.3223 M18.5,20.9023 C14.343,20.9023 10.96,17.5193 10.96,13.3623 C10.96,9.2053 14.343,5.8223 18.5,5.8223 C22.657,5.8223 26.04,9.2053 26.04,13.3623 C26.04,17.5193 22.657,20.9023 18.5,20.9023" id="Fill-31"></path>
                    <path d="M32.4063,16.0615 C31.1133,16.0615 30.0613,17.1135 30.0613,18.4065 C30.0613,19.6985 31.1133,20.7495 32.4063,20.7495 C33.6983,20.7495 34.7503,19.6985 34.7503,18.4065 C34.7503,17.1135 33.6983,16.0615 32.4063,16.0615 M32.4063,23.2495 C29.7343,23.2495 27.5613,21.0775 27.5613,18.4065 C27.5613,15.7345 29.7343,13.5615 32.4063,13.5615 C35.0773,13.5615 37.2503,15.7345 37.2503,18.4065 C37.2503,21.0775 35.0773,23.2495 32.4063,23.2495" id="Fill-33"></path>
                </g>
            </g>
        </g>
    </g>
</svg>