<?xml version="1.0" standalone="no"?><!DOCTYPE svg PUBLIC "-//W3C//DTD SVG 1.1//EN" "http://www.w3.org/Graphics/SVG/1.1/DTD/svg11.dtd"><svg t="1597211831022" class="icon" viewBox="0 0 1024 1024" version="1.1" xmlns="http://www.w3.org/2000/svg" p-id="3305" xmlns:xlink="http://www.w3.org/1999/xlink" width="200" height="200"><defs><style type="text/css"></style></defs><path d="M512 206.4796294c17.18552085 0 28.64253474 13.36651621 28.64253474 28.64253474v93.56561349c0 17.18552085-13.36651621 30.55203706-28.64253474 30.55203706s-28.64253474-13.36651621-28.64253474-28.64253473v-95.47511582C481.44796294 219.84614562 494.81447915 206.4796294 512 206.4796294z" fill="#6BADFF" p-id="3306"></path><path d="M666.66968762 252.30768499c13.36651621 7.63800925 19.09502317 26.73303243 11.4570139 40.09954864l-47.73755791 82.10859961c-7.63800925 13.36651621-26.73303243 19.09502317-40.09954865 11.45701388s-19.09502317-26.73303243-11.45701389-40.09954864L626.57013898 261.85519657c9.54751158-13.36651621 26.73303243-17.18552085 40.09954864-9.54751158z" fill="#EDF5FF" p-id="3307"></path><path d="M765.96380806 363.05881933c7.63800925 13.36651621 3.81900464 32.46153938-11.4570139 40.09954865l-82.1085996 47.7375579c-13.36651621 7.63800925-32.46153938 3.81900464-40.09954864-11.4570139s-3.81900464-32.46153938 11.4570139-40.09954864l82.1085996-47.7375579c13.36651621-7.63800925 32.46153938-3.81900464 40.09954865 11.45701389z" fill="#E1EFFF" p-id="3308"></path><path d="M811.79186366 506.27149305c0 17.18552085-13.36651621 28.64253474-28.64253476 28.64253475h-93.56561348c-17.18552085 0-28.64253474-13.36651621-28.64253475-28.64253475s13.36651621-28.64253474 28.64253475-28.64253475h93.56561348c15.27601854 0 28.64253474 11.45701389 28.64253476 28.64253475z" fill="#D6E8FF" p-id="3309"></path><path d="M765.96380806 660.94118067c-7.63800925 13.36651621-26.73303243 19.09502317-40.09954863 11.45701389l-82.10859961-47.7375579c-13.36651621-7.63800925-19.09502317-26.73303243-11.4570139-40.09954864s26.73303243-19.09502317 40.09954864-11.4570139l82.1085996 47.7375579c15.27601854 9.54751158 19.09502317 26.73303243 11.45701391 40.09954865z" fill="#C9E1FF" p-id="3310"></path><path d="M666.66968762 783.1493289c-13.36651621 7.63800925-32.46153938 3.81900464-40.09954864-11.45701389l-47.73755791-82.10859959c-7.63800925-13.36651621-3.81900464-32.46153938 11.45701389-40.09954865s32.46153938-3.81900464 40.09954865 11.4570139l47.73755791 82.1085996c7.63800925 15.27601854 3.81900464 32.46153938-11.4570139 40.09954863z" fill="#BEDBFF" p-id="3311"></path><path d="M512 817.5203706c-17.18552085 0-28.64253474-13.36651621-28.64253474-28.64253474v-93.56561349c0-17.18552085 13.36651621-28.64253474 28.64253474-28.64253475s28.64253474 13.36651621 28.64253474 28.64253475v93.56561349c0 15.27601854-13.36651621 28.64253474-28.64253474 28.64253474z" fill="#B2D4FF" p-id="3312"></path><path d="M355.42081006 783.1493289c-13.36651621-7.63800925-19.09502317-26.73303243-11.45701389-40.09954863l47.73755791-82.1085996c7.63800925-13.36651621 26.73303243-19.09502317 40.09954864-11.4570139 13.36651621 7.63800925 19.09502317 26.73303243 11.4570139 40.09954865l-47.73755791 82.10859959c-7.63800925 15.27601854-24.82353011 21.00452548-40.09954865 11.45701389z" fill="#A6CEFF" p-id="3313"></path><path d="M246.57917804 660.94118067c-7.63800925-13.36651621-3.81900464-32.46153938 11.45701389-40.09954865L340.14479153 573.10407412c13.36651621-7.63800925 32.46153938-3.81900464 40.09954865 11.4570139s3.81900464 32.46153938-11.45701391 40.09954864l-82.1085996 47.7375579c-15.27601854 7.63800925-32.46153938 3.81900464-40.09954863-11.45701389z" fill="#9BC8FF" p-id="3314"></path><path d="M212.20813634 506.27149305c0-17.18552085 13.36651621-28.64253474 28.64253476-28.64253475h93.56561348c15.27601854 0 28.64253474 13.36651621 28.64253475 28.64253475s-13.36651621 28.64253474-28.64253475 28.64253475H240.8506711c-15.27601854 0-28.64253474-13.36651621-28.64253476-28.64253475z" fill="#8EC0FF" p-id="3315"></path><path d="M246.57917804 363.05881933c7.63800925-13.36651621 26.73303243-19.09502317 40.09954863-11.45701389l82.1085996 47.7375579c13.36651621 7.63800925 19.09502317 26.73303243 11.45701391 40.09954864-7.63800925 13.36651621-26.73303243 19.09502317-40.09954865 11.4570139l-82.1085996-47.7375579c-15.27601854-9.54751158-21.00452548-26.73303243-11.45701389-40.09954865z" fill="#83BAFF" p-id="3316"></path><path d="M355.42081006 252.30768499c15.27601854-7.63800925 32.46153938-3.81900464 40.09954865 9.54751158l47.73755791 82.1085996c7.63800925 13.36651621 3.81900464 32.46153938-11.4570139 40.09954865s-32.46153938 3.81900464-40.09954864-11.4570139L345.87329848 292.40723363c-9.54751158-15.27601854-3.81900464-32.46153938 9.54751158-40.09954864z" fill="#76B3FF" p-id="3317"></path></svg>