<?xml version="1.0" encoding="UTF-8"?>
<svg width="400px" height="480px" viewBox="0 0 400 480" version="1.1" xmlns="http://www.w3.org/2000/svg" xmlns:xlink="http://www.w3.org/1999/xlink">
    <!-- Generator: Sketch 64 (93537) - https://sketch.com -->
    <title>p_dl_dt</title>
    <desc>Created with Sketch.</desc>
    <defs>
        <path d="M4,0 L400,0 L400,0 L400,480 L4,480 C1.790861,480 2.705415e-16,478.209139 0,476 L0,4 C-2.705415e-16,1.790861 1.790861,4.05812251e-16 4,0 Z" id="path-1"></path>
    </defs>
    <g id="功能界面设计" stroke="none" stroke-width="1" fill="none" fill-rule="evenodd">
        <g id="0-0登录" transform="translate(-307.000000, -144.000000)">
            <g id="p_dl_dt" transform="translate(307.000000, 144.000000)">
                <mask id="mask-2" fill="white">
                    <use xlink:href="#path-1"></use>
                </mask>
                <use id="矩形" fill="#181F47" fill-rule="nonzero" xlink:href="#path-1"></use>
                <path d="M227.002762,393.4998 C314.540066,393.4998 385.5,464.46097 385.5,551.9998 C385.5,639.53863 314.540066,710.4998 227.002762,710.4998 C165.318519,710.4998 111.901348,675.244357 85.716884,623.796698 C124.952155,545.087039 176.982475,521.888402 176.982475,521.888402 L176.982475,521.888402 L177.011293,521.892005 C176.748331,524.089391 176.571823,526.315595 176.571823,528.585027 C176.571823,559.424084 201.567558,584.420255 232.406077,584.420255 C263.244597,584.420255 288.240331,559.424084 288.240331,528.585027 C288.240331,497.74597 263.244597,472.7498 232.406077,472.7498 C231.339823,472.7498 230.298785,472.850664 229.246939,472.9083 L229.246939,472.9083 L229.318983,472.7498 C163.387735,472.450811 88.976884,574.805789 74.6112707,595.490039 C75.7099448,595.562084 3.66574586,710.4998 -102.599448,710.4998 C-119.313702,710.4998 -135.523646,708.345641 -150.984331,704.347118 C-174.254608,699.916323 -195.507646,689.826357 -213.270144,675.546948 C-229.245945,662.701243 -242.383204,646.487414 -251.608464,627.975334 C-261.121901,608.886891 -266.5,587.381323 -266.5,564.607755 C-266.5,520.879766 -246.75989,481.777095 -215.719646,455.675027 C-207.665105,448.902755 -198.832486,443.020243 -189.401901,438.146368 C-169.870718,428.045595 -147.717127,422.317982 -124.212707,422.317982 C-103.835006,422.317982 -83.7022541,425.07372 -66.9519779,434.349573 C-35.673989,451.665698 -17.9475138,488.340436 -17.9475138,526.783891 C-17.9475138,551.798073 -26.1749613,574.888641 -40.0650829,593.505186 C-43.5736354,566.037857 -66.9771934,544.795255 -95.3950276,544.795255 C-126.233547,544.795255 -151.229282,569.791425 -151.229282,600.630482 C-151.229282,615.126027 -145.660265,628.292334 -136.600707,638.216595 C-126.633392,649.138686 -112.422674,656.40447 -96.5441326,656.40447 C-14.3453039,656.40447 43.2900552,552.334811 68.5055249,494.698448 C93.2310939,438.182391 161.428133,393.4998 227.002762,393.4998 Z M-23.1841959,310.4998 C41.7772317,310.4998 97.9102812,348.260535 124.5,403.033081 C76.0845686,426.848172 41.1316926,473.814619 34.0560072,529.4998 C21.56717,456.362724 -42.0743285,400.681151 -118.752831,400.681151 C-138.411119,400.681151 -157.193061,404.378586 -174.5,411.052006 C-149.662974,351.979614 -91.2687344,310.4998 -23.1841959,310.4998 Z" id="形状结合" fill="#FFFFFF" style="mix-blend-mode: overlay;" opacity="0.349999994" mask="url(#mask-2)"></path>
                <path d="M707.002762,-181.5002 C794.540066,-181.5002 865.5,-110.53903 865.5,-23.0002 C865.5,64.5386295 794.540066,135.4998 707.002762,135.4998 C645.318519,135.4998 591.901348,100.244357 565.716884,48.7966977 C604.952155,-29.9129614 656.982475,-53.1115977 656.982475,-53.1115977 L656.982475,-53.1115977 L657.011293,-53.1079955 C656.748331,-50.9106091 656.571823,-48.6844045 656.571823,-46.4149727 C656.571823,-15.5759159 681.567558,9.42025455 712.406077,9.42025455 C743.244597,9.42025455 768.240331,-15.5759159 768.240331,-46.4149727 C768.240331,-77.2540295 743.244597,-102.2502 712.406077,-102.2502 C711.339823,-102.2502 710.298785,-102.149336 709.246939,-102.0917 L709.246939,-102.0917 L709.318983,-102.2502 C643.387735,-102.549189 568.976884,-0.194211364 554.611271,20.4900386 C555.709945,20.5620841 483.665746,135.4998 377.400552,135.4998 C360.686298,135.4998 344.476354,133.345641 329.015669,129.347118 C305.745392,124.916323 284.492354,114.826357 266.729856,100.546948 C250.754055,87.7012432 237.616796,71.4874136 228.391536,52.9753341 C218.878099,33.8868909 213.5,12.3813227 213.5,-10.3922455 C213.5,-54.1202341 233.24011,-93.2229045 264.280354,-119.324973 C272.334895,-126.097245 281.167514,-131.979757 290.598099,-136.853632 C310.129282,-146.954405 332.282873,-152.682018 355.787293,-152.682018 C376.164994,-152.682018 396.297746,-149.92628 413.048022,-140.650427 C444.326011,-123.334302 462.052486,-86.6595636 462.052486,-48.2161091 C462.052486,-23.2019273 453.825039,-0.111359091 439.934917,18.5051864 C436.426365,-8.96214318 413.022807,-30.2047455 384.604972,-30.2047455 C353.766453,-30.2047455 328.770718,-5.208575 328.770718,25.6304818 C328.770718,40.1260273 334.339735,53.2923341 343.399293,63.2165955 C353.366608,74.1386864 367.577326,81.4044705 383.455867,81.4044705 C465.654696,81.4044705 523.290055,-22.6651886 548.505525,-80.3015523 C573.231094,-136.817609 641.428133,-181.5002 707.002762,-181.5002 Z M456.815804,-264.5002 C521.777232,-264.5002 577.910281,-226.739465 604.5,-171.966919 C556.084569,-148.151828 521.131693,-101.185381 514.056007,-45.5002 C501.56717,-118.637276 437.925672,-174.318849 361.247169,-174.318849 C341.588881,-174.318849 322.806939,-170.621414 305.5,-163.947994 C330.337026,-223.020386 388.731266,-264.5002 456.815804,-264.5002 Z" id="形状结合" fill="#FFFFFF" style="mix-blend-mode: overlay;" opacity="0.349999994" mask="url(#mask-2)"></path>
            </g>
        </g>
    </g>
</svg>