<svg xmlns="http://www.w3.org/2000/svg" xmlns:xlink="http://www.w3.org/1999/xlink" width="153.958" height="35.745" viewBox="0 0 153.958 35.745">
  <defs>
    <style>
      .cls-1 {
        fill: #404952;
      }

      .cls-2 {
        fill-rule: evenodd;
      }

      .cls-2, .cls-3 {
        fill: url(#linear-gradient);
      }

      .cls-3 {
        opacity: 0.4;
      }

      .cls-4 {
        fill: #fff;
      }
    </style>
    <linearGradient id="linear-gradient" y1="0.5" x2="1" y2="0.5" gradientUnits="objectBoundingBox">
      <stop offset="0.25" stop-color="#6353e5"/>
      <stop offset="1" stop-color="#332a7c"/>
    </linearGradient>
  </defs>
  <g id="Logo" transform="translate(-159.333 -456.862)">
    <path id="路径_316" data-name="路径 316" class="cls-1" d="M272.562,468.134h-2.074l.72,4.359,3.8-1.664v3.263l-3.3,1.444,2.308,13.991h-7.487l-1.805-10.94-1.725.755v-3.263l1.223-.535L263,468.134h-9.384v2.751h6.7a2.469,2.469,0,0,1,2.47,2.47v16.172H255.3V474.094h-1.683v15.433H246.13V467.433a2.508,2.508,0,0,1,2.508-2.508h13.834l-.335-2.033h7.488l.334,2.033h.969a.873.873,0,0,0,.874-.873v-1.16h3.208v2.793A2.449,2.449,0,0,1,272.562,468.134Z" transform="translate(6.362 0.442)"/>
    <path id="路径_317" data-name="路径 317" class="cls-1" d="M245.524,475.041h-5.717l5.086,14.486h-7.488l-5.086-14.486H228.07l-5.086,14.486H215.5l5.086-14.486h-5.257v-3.209h6.383l2.011-5.731h-7.707v-3.209h28.88V466.1H231.207l-2.011,5.731h16.328Z" transform="translate(4.104 0.442)"/>
    <rect id="矩形_84" data-name="矩形 84" class="cls-1" width="28.88" height="3.209" transform="translate(283.778 463.334)"/>
    <path id="路径_318" data-name="路径 318" class="cls-1" d="M288.784,474.43l-3.848,10.964h8.016a3.089,3.089,0,0,0,3.089-3.089v-2.55h8.616v4.66a4.188,4.188,0,0,1-4.189,4.188H276.323L281.3,474.43H274.64v-3.209h30.2v3.209Z" transform="translate(8.451 1.052)"/>
    <g id="组_630" data-name="组 630" transform="translate(159.333 456.862)">
      <g id="组_629" data-name="组 629">
        <path id="路径_319" data-name="路径 319" class="cls-2" d="M209.9,480.891a11.718,11.718,0,0,1-11.71,11.716H184.852a.729.729,0,0,1-.644-1.072l5.506-10.349,6.7.109,2.406-4.83h-21.1a2.54,2.54,0,0,0-2.222,1.307l-1.284,2.311a.706.706,0,0,0,.617,1.048h7.044a.661.661,0,0,1,.572.993l-5.641,9.728a1.516,1.516,0,0,1-1.311.755h-4.113a11.94,11.94,0,0,1-12.033-10.989A11.72,11.72,0,0,1,169.7,469.249a15.176,15.176,0,0,1,29.835,0A11.722,11.722,0,0,1,209.9,480.891Z" transform="translate(-159.333 -456.862)"/>
      </g>
      <path id="路径_320" data-name="路径 320" class="cls-3" d="M196.75,475.127l-2.405,4.83-6.706-.109.051-.1,9.015-4.625Z" transform="translate(-157.258 -455.523)"/>
      <path id="路径_321" data-name="路径 321" class="cls-4" d="M184.359,475.075" transform="translate(-157.498 -455.527)"/>
    </g>
  </g>
</svg>
