<?xml version="1.0" encoding="utf-8"?>
<!-- Generator: Adobe Illustrator 24.0.0, SVG Export Plug-In . SVG Version: 6.00 Build 0)  -->
<svg version="1.1" id="图层_1" xmlns="http://www.w3.org/2000/svg" xmlns:xlink="http://www.w3.org/1999/xlink" x="0px" y="0px"
	 viewBox="0 0 1366 768" style="enable-background:new 0 0 1366 768;" xml:space="preserve">
<style type="text/css">
	.st0{clip-path:url(#SVGID_2_);}
	.st1{fill-rule:evenodd;clip-rule:evenodd;fill:#FFFFFF;}
	.st2{clip-path:url(#SVGID_2_);fill:#FFFFFF;}
	.st3{opacity:3.000000e-02;clip-path:url(#SVGID_2_);fill:#306BFF;}
</style>
<title>登录背景</title>
<desc>Created with Sketch.</desc>
<g>
	<defs>
		<rect id="SVGID_1_" y="0" width="1366" height="768"/>
	</defs>
	<clipPath id="SVGID_2_">
		<use xlink:href="#SVGID_1_"  style="overflow:visible;"/>
	</clipPath>
	<g class="st0">
		<rect id="path-1_2_" y="0" class="st1" width="1366" height="768"/>
	</g>
	<rect id="path-1_1_" y="0" class="st2" width="1366" height="768"/>
	<path class="st3" d="M-515,809.4c0,493.4,206.9,901.6,474.8,960.6H1384V-152H-40.2C-307.6-92.2-515,315.9-515,809.4z"/>
	<path class="st3" d="M-39.4,809.4c0,493.4,206.8,901.6,474.5,960.6h949V-152H435C167.8-92.2-39.4,315.9-39.4,809.4z"/>
	<path class="st3" d="M434.5,809.4c0,493.4,206.9,901.6,474.8,960.6H1384V-152H909.2C641.9-92.2,434.5,315.9,434.5,809.4z"/>
	<path class="st3" d="M1384-152c-266.9,59.8-473.9,467.9-473.9,961.4c0,493.4,206.6,901.6,473.9,960.6V-152z"/>
</g>
</svg>
