<?xml version="1.0" encoding="UTF-8"?>
<svg width="118px" height="118px" viewBox="0 0 118 118" version="1.1" xmlns="http://www.w3.org/2000/svg" xmlns:xlink="http://www.w3.org/1999/xlink">
    <!-- Generator: Sketch 64 (93537) - https://sketch.com -->
    <title>ico_dl_logo</title>
    <desc>Created with Sketch.</desc>
    <defs>
        <rect id="path-1" x="0" y="0" width="118" height="118"></rect>
        <linearGradient x1="96.3168084%" y1="62.8980273%" x2="17.6221487%" y2="46.7934564%" id="linearGradient-3">
            <stop stop-color="#015EB0" offset="0%"></stop>
            <stop stop-color="#01C6FA" offset="100%"></stop>
        </linearGradient>
        <linearGradient x1="96.3168084%" y1="62.9389734%" x2="17.6221487%" y2="46.7832769%" id="linearGradient-4">
            <stop stop-color="#015EB0" offset="0%"></stop>
            <stop stop-color="#01C6FA" offset="100%"></stop>
        </linearGradient>
    </defs>
    <g id="城商行" stroke="none" stroke-width="1" fill="none" fill-rule="evenodd">
        <g id="0-0登录" transform="translate(-443.000000, -297.000000)">
            <g id="ico_dl_logo" transform="translate(443.000000, 297.000000)">
                <mask id="mask-2" fill="white">
                    <use xlink:href="#path-1"></use>
                </mask>
                <g id="矩形" opacity="0" fill-rule="nonzero"></g>
                <g id="logo" mask="url(#mask-2)">
                    <g transform="translate(0.000000, 1.000000)">
                        <path d="M116.459123,47.5327814 C116.459123,58.594278 108.891738,67.8991533 98.6668104,70.5601737 C103.154021,66.4208086 105.971572,60.4900376 105.971572,53.9157519 C105.971572,43.3064549 98.5624567,34.2624639 88.525366,31.8971125 C84.5094862,21.1486771 74.2654272,13.9134844 62.4908467,13.9134844 C53.5164249,13.9134844 45.4098785,18.1415501 40.2982844,24.9401964 C39.392146,26.107219 38.6112322,27.3420717 37.9155406,28.6464934 C36.3154499,28.1055932 34.6283977,27.8273166 32.9239533,27.8273166 C24.2973773,27.8273166 17.2708921,34.8538018 17.2708921,43.4803778 L17.2708921,43.9343166 C16.0186472,44.9239379 14.9038014,46.0892213 13.9646177,47.3588585 C11.6340508,50.4564254 10.313976,54.2635977 10.313976,58.2638245 C10.313976,63.324981 12.3836585,67.8991533 15.7038467,71.1880354 C6.87030249,70.1253664 0.000347845805,62.6118971 0.000347845805,53.4809447 C0.000347845805,46.8892667 3.56576735,41.1498109 8.88606893,38.0887678 C8.67736145,37.0278381 8.57474694,35.9147315 8.57474694,34.7842327 C8.57474694,25.1836884 16.366493,17.3919424 25.9670372,17.3919424 C29.3759261,17.3919424 32.5587152,18.3833029 35.2371279,20.0703551 C39.6182458,8.34795147 50.9232345,-0.000347845805 64.1761596,-0.000347845805 C78.7874227,-0.000347845805 91.0489873,10.1758812 94.2474295,23.8096975 C106.648132,24.6271351 116.459123,34.9407633 116.459123,47.5327814" id="Fill-1" fill="url(#linearGradient-3)" fill-rule="evenodd"></path>
                        <path d="M100.753363,53.9157519 C100.753363,63.5180354 92.9633567,71.3080422 83.3610732,71.3080422 L28.575359,71.3080422 C21.3749508,71.3080422 15.5311413,65.4659719 15.5311413,58.2638245 C15.5311413,53.0826612 18.5573998,48.6111034 22.9402569,46.5240286 C22.644588,45.5500603 22.4880574,44.5413075 22.4880574,43.4803778 C22.4880574,37.7235297 27.1665834,33.0450036 32.9234315,33.0450036 C35.9149054,33.0450036 38.6281027,34.3146408 40.5238624,36.3495388 C42.9413907,26.4724571 51.8636356,19.1311714 62.4903249,19.1311714 C73.1865834,19.1311714 82.1610052,26.5750717 84.4915721,36.5599855 C93.5703476,37.1495841 100.753363,44.6978381 100.753363,53.9157519" id="Fill-3" fill="url(#linearGradient-4)" fill-rule="evenodd"></path>
                        <text id="CloudEOS" fill="none" font-family="PingFangSC-Semibold, PingFang SC" font-size="22" font-weight="500" line-spacing="26">
                            <tspan x="6" y="113" fill="#FFFFFF">CloudEOS</tspan>
                        </text>
                    </g>
                </g>
            </g>
        </g>
    </g>
</svg>