<?xml version="1.0" encoding="UTF-8"?>
<svg width="16px" height="16px" viewBox="0 0 16 16" version="1.1" xmlns="http://www.w3.org/2000/svg" xmlns:xlink="http://www.w3.org/1999/xlink">
    <!-- Generator: Sketch 64 (93537) - https://sketch.com -->
    <title>已通过</title>
    <desc>Created with Sketch.</desc>
    <g id="城商行" stroke="none" stroke-width="1" fill="none" fill-rule="evenodd">
        <g id="切图" transform="translate(-389.000000, -1493.000000)">
            <g id="已通过" transform="translate(389.000000, 1493.000000)">
                <path d="M8,0 C3.58204933,0 0,3.58204933 0,8 C0,12.4179507 3.58204933,16 8,16 C12.4179507,16 16,12.4179507 16,8 C16,3.58204933 12.4179507,0 8,0 Z" id="路径" fill="#FFFFFF" fill-rule="nonzero"></path>
                <path d="M8,1 C11.865625,1 15,4.134375 15,8 C15,11.865625 11.865625,15 8,15 C4.134375,15 1,11.865625 1,8 C1,4.134375 4.134375,1 8,1 Z" id="路径" fill="#52C41A" fill-rule="nonzero"></path>
                <path d="M11.0234375,5.7140625 L7.7328125,10.2765625 C7.534375,10.553125 7.1234375,10.553125 6.925,10.2765625 L4.9765625,7.5765625 C4.9171875,7.49375 4.9765625,7.378125 5.078125,7.378125 L5.8109375,7.378125 C5.9703125,7.378125 6.121875,7.4546875 6.215625,7.5859375 L7.328125,9.1296875 L9.784375,5.7234375 C9.878125,5.59375 10.028125,5.515625 10.1890625,5.515625 L10.921875,5.515625 C11.0234375,5.515625 11.0828125,5.63125 11.0234375,5.7140625 Z" id="路径" fill="#FFFFFF"></path>
            </g>
        </g>
    </g>
</svg>