<?xml version="1.0" encoding="UTF-8"?>
<svg width="16px" height="16px" viewBox="0 0 16 16" version="1.1" xmlns="http://www.w3.org/2000/svg" xmlns:xlink="http://www.w3.org/1999/xlink">
    <!-- Generator: Sketch 64 (93537) - https://sketch.com -->
    <title>删除</title>
    <desc>Created with Sketch.</desc>
    <g id="城商行" stroke="none" stroke-width="1" fill="none" fill-rule="evenodd">
        <g id="切图" transform="translate(-593.000000, -1620.000000)" fill="#000000" fill-rule="nonzero">
            <g id="删除" transform="translate(593.000000, 1620.000000)">
                <rect id="矩形" opacity="0" x="0" y="0" width="16" height="16"></rect>
                <path d="M8,1 C4.136,1 1,4.136 1,8 C1,11.864 4.136,15 8,15 C11.864,15 15,11.864 15,8 C15,4.136 11.864,1 8,1 Z M8,14.0666667 C4.64933333,14.0666667 1.93333333,11.3506667 1.93333333,8 C1.93333333,4.64933333 4.64933333,1.93333333 8,1.93333333 C11.3506667,1.93333333 14.0666667,4.64933333 14.0666667,8 C14.0666667,11.3506667 11.3506667,14.0666667 8,14.0666667 Z M8.644,7.95333333 L11.0986667,5.52666667 C11.2853333,5.34 11.2853333,5.04133333 11.0986667,4.864 C10.912,4.67733333 10.6133333,4.67733333 10.4266667,4.864 L7.972,7.272 L5.564,4.85466667 C5.37733333,4.668 5.07866667,4.668 4.90133333,4.85466667 C4.71466667,5.04133333 4.71466667,5.34 4.90133333,5.51733333 L7.3,7.93466667 L4.752,10.4546667 C4.56533333,10.6413333 4.56533333,10.94 4.752,11.1173333 C4.93866667,11.304 5.23733333,11.304 5.424,11.1173333 L7.96266667,8.60666667 L10.464,11.1173333 C10.6506667,11.304 10.9493333,11.304 11.1266667,11.1173333 C11.3133333,10.9306667 11.3133333,10.632 11.1266667,10.4546667 L8.644,7.95333333 Z" id="形状"></path>
            </g>
        </g>
    </g>
</svg>