<?xml version="1.0" encoding="UTF-8"?>
<svg width="16px" height="16px" viewBox="0 0 16 16" version="1.1" xmlns="http://www.w3.org/2000/svg" xmlns:xlink="http://www.w3.org/1999/xlink">
    <!-- Generator: Sketch 64 (93537) - https://sketch.com -->
    <title>保存</title>
    <desc>Created with Sketch.</desc>
    <g id="城商行" stroke="none" stroke-width="1" fill="none" fill-rule="evenodd">
        <g id="切图" transform="translate(-624.000000, -1620.000000)" fill="#000000" fill-rule="nonzero">
            <g id="保存" transform="translate(624.000000, 1620.000000)">
                <rect id="矩形" opacity="0" x="0" y="0" width="16" height="16"></rect>
                <path d="M12.39016,1.12 L3.52984,1.12 C2.15349366,1.12339672 1.0396429,2.24028951 1.03999991,3.61664 L1.03999991,12.46336 C1.0396429,13.8397105 2.15349366,14.9566033 3.52984,14.96 L12.39016,14.96 C13.7665063,14.9566033 14.8803571,13.8397105 14.8800001,12.46336 L14.8800001,3.61664 C14.8803571,2.24028951 13.7665063,1.12339672 12.39016,1.12 Z M4.90536,2.2544 L11.01456,2.2544 L11.01456,4.92136 C11.01456,5.27528 10.69296,5.56328 10.29752,5.56328 L5.62248,5.56328 C5.22704,5.56328 4.90536,5.27528 4.90536,4.92136 L4.90536,2.2544 Z M13.74864,12.46336 C13.7488188,13.2143112 13.1411088,13.8237032 12.39016,13.8256 L3.52984,13.8256 C2.77889119,13.8237032 2.17118116,13.2143112 2.17135996,12.46336 L2.17135996,3.61664 C2.17118116,2.86568881 2.77889119,2.25629677 3.52984,2.2544 L3.774,2.2544 L3.774,4.92136 C3.774,5.9008 4.6032,6.69736 5.62248,6.69736 L10.29752,6.69736 C11.31672,6.69736 12.14592,5.90048 12.14592,4.92136 L12.14592,2.2544 L12.39016,2.2544 C13.1411088,2.25629677 13.7488188,2.86568881 13.74864,3.61664 L13.74864,12.46336 L13.74864,12.46336 Z M9.74496,4.996 C9.89519254,4.99580918 10.0391949,4.93594098 10.1452828,4.82956801 C10.2513708,4.72319505 10.3108523,4.57903251 10.31064,4.4288 L10.31064,3.3336 C10.3130624,3.12991329 10.205785,2.94065383 10.0297797,2.83810477 C9.85377453,2.73555572 9.63622547,2.73555572 9.46022026,2.83810477 C9.28421505,2.94065383 9.1769376,3.12991329 9.17936,3.3336 L9.17936,4.4288 C9.17914768,4.57901867 9.23861826,4.72316909 9.34468887,4.82953976 C9.45075948,4.93591043 9.59474133,4.99578798 9.74496,4.996 L9.74496,4.996 Z" id="形状"></path>
            </g>
        </g>
    </g>
</svg>