<?xml version="1.0" encoding="UTF-8"?>
<svg width="64px" height="64px" viewBox="0 0 64 64" version="1.1" xmlns="http://www.w3.org/2000/svg" xmlns:xlink="http://www.w3.org/1999/xlink">
    <!-- Generator: Sketch 64 (93537) - https://sketch.com -->
    <title>应用中心-应用系统详情</title>
    <desc>Created with Sketch.</desc>
    <g id="城商行" stroke="none" stroke-width="1" fill="none" fill-rule="evenodd">
        <g id="切图" transform="translate(-1501.000000, -150.000000)">
            <g id="应用中心-应用系统详情" transform="translate(1501.000000, 150.000000)">
                <path d="M64,32 C64,49.673 49.673,64 32,64 C14.327,64 0,49.673 0,32 C0,14.327 14.327,0 32,0 C49.673,0 64,14.327 64,32" id="Fill-1" fill="#F4F7FF"></path>
                <path d="M15.5,10 C14.673,10 14,10.673 14,11.5 C14,12.327 14.673,13 15.5,13 C16.327,13 17,12.327 17,11.5 C17,10.673 16.327,10 15.5,10 M15.5,14 C14.121,14 13,12.878 13,11.5 C13,10.122 14.121,9 15.5,9 C16.879,9 18,10.122 18,11.5 C18,12.878 16.879,14 15.5,14" id="Fill-3" fill="#306BFF"></path>
                <path d="M51.167,13.6665 L47.167,13.6665 C46.891,13.6665 46.667,13.4425 46.667,13.1665 C46.667,12.8905 46.891,12.6665 47.167,12.6665 L51.167,12.6665 C51.443,12.6665 51.667,12.8905 51.667,13.1665 C51.667,13.4425 51.443,13.6665 51.167,13.6665" id="Fill-5" fill="#306BFF"></path>
                <path d="M49.167,15.6665 C48.891,15.6665 48.667,15.4425 48.667,15.1665 L48.667,11.1665 C48.667,10.8905 48.891,10.6665 49.167,10.6665 C49.443,10.6665 49.667,10.8905 49.667,11.1665 L49.667,15.1665 C49.667,15.4425 49.443,15.6665 49.167,15.6665" id="Fill-7" fill="#306BFF"></path>
                <path d="M57,30 C57,31.104 56.104,32 55,32 C53.896,32 53,31.104 53,30 C53,28.896 53.896,28 55,28 C56.104,28 57,28.896 57,30" id="Fill-9" fill="#306BFF"></path>
                <path d="M50,51 C50,51.553 49.553,52 49,52 C48.447,52 48,51.553 48,51 C48,50.447 48.447,50 49,50 C49.553,50 50,50.447 50,51" id="Fill-11" fill="#306BFF"></path>
                <path d="M12,54 C11.724,54 11.5,53.776 11.5,53.5 L11.5,51 C11.5,50.724 11.724,50.5 12,50.5 C12.276,50.5 12.5,50.724 12.5,51 L12.5,53.5 C12.5,53.776 12.276,54 12,54" id="Fill-13" fill="#306BFF"></path>
                <path d="M14.4697,52.9697 C14.3417,52.9697 14.2137,52.9207 14.1157,52.8237 L12.3567,51.0637 C12.1607,50.8677 12.1607,50.5517 12.3567,50.3567 C12.5517,50.1607 12.8677,50.1607 13.0637,50.3567 L14.8237,52.1157 C15.0187,52.3117 15.0187,52.6277 14.8237,52.8237 C14.7257,52.9207 14.5977,52.9697 14.4697,52.9697" id="Fill-15" fill="#306BFF"></path>
                <path d="M15.5,50.5 L13,50.5 C12.724,50.5 12.5,50.276 12.5,50 C12.5,49.724 12.724,49.5 13,49.5 L15.5,49.5 C15.776,49.5 16,49.724 16,50 C16,50.276 15.776,50.5 15.5,50.5" id="Fill-17" fill="#306BFF"></path>
                <path d="M12.71,49.79 C12.582,49.79 12.454,49.741 12.356,49.644 C12.161,49.448 12.161,49.132 12.356,48.936 L14.116,47.177 C14.312,46.981 14.628,46.981 14.823,47.177 C15.019,47.372 15.019,47.688 14.823,47.884 L13.064,49.644 C12.966,49.741 12.838,49.79 12.71,49.79" id="Fill-19" fill="#306BFF"></path>
                <path d="M12,49.5 C11.724,49.5 11.5,49.276 11.5,49 L11.5,46.5 C11.5,46.224 11.724,46 12,46 C12.276,46 12.5,46.224 12.5,46.5 L12.5,49 C12.5,49.276 12.276,49.5 12,49.5" id="Fill-21" fill="#306BFF"></path>
                <path d="M11.29,49.79 C11.162,49.79 11.034,49.741 10.936,49.644 L9.177,47.884 C8.981,47.688 8.981,47.372 9.177,47.177 C9.372,46.981 9.688,46.981 9.884,47.177 L11.644,48.936 C11.839,49.132 11.839,49.448 11.644,49.644 C11.546,49.741 11.418,49.79 11.29,49.79" id="Fill-23" fill="#306BFF"></path>
                <path d="M11,50.5 L8.5,50.5 C8.224,50.5 8,50.276 8,50 C8,49.724 8.224,49.5 8.5,49.5 L11,49.5 C11.276,49.5 11.5,49.724 11.5,50 C11.5,50.276 11.276,50.5 11,50.5" id="Fill-25" fill="#306BFF"></path>
                <path d="M9.5303,52.9697 C9.4023,52.9697 9.2743,52.9207 9.1763,52.8237 C8.9813,52.6277 8.9813,52.3117 9.1763,52.1157 L10.9363,50.3567 C11.1323,50.1607 11.4483,50.1607 11.6433,50.3567 C11.8393,50.5517 11.8393,50.8677 11.6433,51.0637 L9.8843,52.8237 C9.7863,52.9207 9.6583,52.9697 9.5303,52.9697" id="Fill-27" fill="#306BFF"></path>
                <path d="M43,45.75 L21,45.75 C19.483,45.75 18.25,44.517 18.25,43 L18.25,27.25 L45.75,27.25 L45.75,43 C45.75,44.517 44.517,45.75 43,45.75 M21,18.25 L43,18.25 C44.517,18.25 45.75,19.483 45.75,21 L45.75,24.75 L18.25,24.75 L18.25,21 C18.25,19.483 19.483,18.25 21,18.25 M43,15.75 L21,15.75 C18.105,15.75 15.75,18.105 15.75,21 L15.75,43 C15.75,45.895 18.105,48.25 21,48.25 L43,48.25 C45.895,48.25 48.25,45.895 48.25,43 L48.25,21 C48.25,18.105 45.895,15.75 43,15.75" id="Fill-29" fill="#306BFF"></path>
                <path d="M23,30.5 C22.172,30.5 21.5,31.171 21.5,32 C21.5,32.829 22.172,33.5 23,33.5 C23.828,33.5 24.5,32.829 24.5,32 C24.5,31.171 23.828,30.5 23,30.5" id="Fill-31" fill="#306BFF"></path>
                <path d="M29,30.5 C28.172,30.5 27.5,31.171 27.5,32 C27.5,32.829 28.172,33.5 29,33.5 C29.828,33.5 30.5,32.829 30.5,32 C30.5,31.171 29.828,30.5 29,30.5" id="Fill-33" fill="#306BFF"></path>
                <path d="M35,30.5 C34.172,30.5 33.5,31.171 33.5,32 C33.5,32.829 34.172,33.5 35,33.5 C35.828,33.5 36.5,32.829 36.5,32 C36.5,31.171 35.828,30.5 35,30.5" id="Fill-35" fill="#306BFF"></path>
            </g>
        </g>
    </g>
</svg>