<?xml version="1.0" encoding="UTF-8"?>
<svg width="14px" height="14px" viewBox="0 0 14 14" version="1.1" xmlns="http://www.w3.org/2000/svg" xmlns:xlink="http://www.w3.org/1999/xlink">
    <!-- Generator: Sketch 64 (93537) - https://sketch.com -->
    <title>原子操作1</title>
    <desc>Created with Sketch.</desc>
    <defs>
        <rect id="path-1" x="0" y="0" width="14" height="14"></rect>
    </defs>
    <g id="城商行" stroke="none" stroke-width="1" fill="none" fill-rule="evenodd">
        <g id="1-1-0应用中心-我的待办备份" transform="translate(-381.000000, -604.000000)">
            <g id="原子操作1" transform="translate(381.000000, 604.000000)">
                <mask id="mask-2" fill="white">
                    <use xlink:href="#path-1"></use>
                </mask>
                <g id="矩形" opacity="0" fill-rule="nonzero"></g>
                <path d="M13.0426656,9.7303402 C12.2849456,9.29309603 11.34786,9.43420645 10.7486905,10.0160229 L9.47360187,9.28094673 C9.56069362,9.02145684 9.60774495,8.74443974 9.60774495,8.45536042 C9.60774495,7.19601361 8.71069984,6.14213802 7.52281182,5.90000117 L7.52281182,4.42821579 C8.32577605,4.20001361 8.91627994,3.45973367 8.91627994,2.58533243 C8.91627994,1.52806026 8.05751166,0.669313764 7.00026128,0.669313764 C5.94290202,0.669313764 5.08424261,1.52806026 5.08424261,2.58533243 C5.08424261,3.46143196 5.67465941,4.2017119 6.47771073,4.42821579 L6.47771073,5.90000117 C5.28971384,6.14213802 4.39269051,7.19601361 4.39269051,8.45536042 C4.39269051,8.74274145 4.43972006,9.02145684 4.52681182,9.28094673 L3.25183204,10.0160229 C2.65264075,9.43420645 1.7172535,9.29309603 0.957835148,9.7303402 C0.0433716952,10.2580727 -0.271900467,11.4321131 0.255832037,12.3482749 C0.611166407,12.963208 1.25568896,13.3062842 1.91754277,13.3062842 C2.24150233,13.3062842 2.57073095,13.2244833 2.87206843,13.0502998 C3.62978849,12.6130556 3.97637014,11.7316652 3.7725972,10.9217337 L5.04766407,10.1849374 C5.52488336,10.7232298 6.2234028,11.0628223 6.99847589,11.0628223 C7.77361431,11.0628223 8.47034837,10.7232298 8.94935303,10.1849374 L10.2243546,10.9217337 C10.0205599,11.7316652 10.3654432,12.6130556 11.1248616,13.0502998 C11.4261991,13.2244833 11.7554277,13.3062842 12.0793872,13.3062842 C12.7413281,13.3062842 13.387549,12.963208 13.741098,12.3482749 C14.272423,11.4321131 13.9571291,10.2580727 13.0426656,9.7303402 Z M2.35130327,12.1428037 C1.93498289,12.3831551 1.40198134,12.2403464 1.16162986,11.824026 C0.921191291,11.4077057 1.06406532,10.8747041 1.48038569,10.6343526 C1.89661897,10.3940012 2.4296423,10.5367881 2.66999378,10.9531085 C2.91043235,11.3694288 2.76753655,11.9024522 2.35130327,12.1428037 Z M6.1293437,2.58363414 C6.1293437,2.10284409 6.51947123,1.71271656 7.00026128,1.71271656 C7.48096423,1.71271656 7.87117885,2.10284409 7.87117885,2.58363414 C7.87117885,3.06433709 7.48096423,3.45455171 7.00026128,3.45455171 C6.51947123,3.45455171 6.1293437,3.06433709 6.1293437,2.58363414 Z M7.00026128,10.0160229 C6.13800933,10.0160229 5.4377916,9.31401983 5.4377916,8.45357504 C5.4377916,7.59141019 6.13800933,6.89119246 7.00026128,6.89119246 C7.86240435,6.89119246 8.56264386,7.59141019 8.56264386,8.45357504 C8.56264386,9.31580521 7.86240435,10.0160229 7.00026128,10.0160229 Z M12.8388927,11.824026 C12.5984541,12.2403464 12.0655179,12.3831551 11.6491975,12.1428037 C11.2328771,11.9024522 11.0900902,11.3694288 11.3304417,10.9531085 C11.5707932,10.5367881 12.1037947,10.3940012 12.5201151,10.6343526 C12.9346501,10.8747041 13.0792442,11.4094911 12.8388927,11.824026 Z" id="Fill-1" fill="#306BFF" mask="url(#mask-2)"></path>
            </g>
        </g>
    </g>
</svg>