<?xml version="1.0" standalone="no"?><!DOCTYPE svg PUBLIC "-//W3C//DTD SVG 1.1//EN" "http://www.w3.org/Graphics/SVG/1.1/DTD/svg11.dtd"><svg t="1587087007402" class="icon" viewBox="0 0 1024 1024" version="1.1" xmlns="http://www.w3.org/2000/svg" p-id="3730" xmlns:xlink="http://www.w3.org/1999/xlink" width="200" height="200"><defs><style type="text/css"></style></defs><path d="M0.2304 512.1152C0.2304 229.6576 229.1968 0.6912 511.6544 0.6912 794.112 0.6912 1023.104 229.6576 1023.104 512.1152c0 282.4576-228.9792 511.424-511.4368 511.424C229.1968 1023.5392 0.2304 794.5728 0.2304 512.128z m291.328-197.6064h-66.56L77.6448 683.008h61.0688l37.7856-98.8672h163.584l37.7984 98.8544h61.0688L291.5584 314.496z m190.528 368.512h55.7184V314.496h-55.7184v368.512zM800.256 497.8304l129.216-183.3344h-68.2624l-97.024 152.7424L667.136 314.496h-70.0928l129.4592 181.504-142.016 187.008h68.3904l109.5808-154.5856 107.8912 154.5728h71.9104L800.256 497.8432z" fill="#0AC60F" p-id="3731"></path><path d="M259.2512 363.136h-1.8304c-3.5328 10.7264-7.1808 21.5808-10.7264 32.3072-1.2544 2.3936-19.7504 50.3424-55.7056 143.8464h134.8224c-35.968-93.504-54.5664-141.3376-55.7184-143.8464 0-1.152-0.5632-3.5328-1.8176-7.1936-6.0544-14.3872-9.024-22.72-9.024-25.1136z" fill="#0AC60F" p-id="3732"></path></svg>