<?xml version="1.0" standalone="no"?><!DOCTYPE svg PUBLIC "-//W3C//DTD SVG 1.1//EN" "http://www.w3.org/Graphics/SVG/1.1/DTD/svg11.dtd"><svg t="1582615242985" class="icon" viewBox="0 0 1024 1024" version="1.1" xmlns="http://www.w3.org/2000/svg" p-id="19832" xmlns:xlink="http://www.w3.org/1999/xlink" width="200" height="200"><defs><style type="text/css"></style></defs><path d="M184.48896 71.68h676.864c62.30016 0 112.80896 50.50368 112.80896 112.80896v676.85888c0 62.30528-50.5088 112.81408-112.80896 112.81408h-676.864C122.18368 974.16192 71.68 923.648 71.68 861.34272V184.48896C71.68 122.17856 122.18368 71.68 184.48896 71.68zM128.08704 917.74976h789.66784V128.08192H128.08704v789.66784z m112.80896-169.216h564.04992v56.40704H240.896v-56.40704z m225.61792-225.61792V297.29792c0-31.1552 25.25184-56.40704 56.40704-56.40704 31.15008 0 56.40704 25.25184 56.40704 56.40704v225.61792h169.216l-225.61792 225.61792-225.61792-225.61792h169.20576z" p-id="19833"></path></svg>