<?xml version="1.0" standalone="no"?><!DOCTYPE svg PUBLIC "-//W3C//DTD SVG 1.1//EN" "http://www.w3.org/Graphics/SVG/1.1/DTD/svg11.dtd"><svg t="1585288948165" class="icon" viewBox="0 0 1024 1024" version="1.1" xmlns="http://www.w3.org/2000/svg" p-id="3215" xmlns:xlink="http://www.w3.org/1999/xlink" width="200" height="200"><defs><style type="text/css"></style></defs><path d="M984.32 610.56H39.68c-15.36 0-28.16 12.8-28.16 28.16v294.4c0 15.36 12.8 28.16 28.16 28.16H985.6c15.36 0 28.16-12.8 28.16-28.16v-294.4c-1.28-16.64-14.08-28.16-29.44-28.16z m-28.16 293.12H67.84V665.6h889.6v238.08zM39.68 568.32h944.64c10.24 0 19.2-5.12 24.32-12.8 5.12-8.96 5.12-19.2 1.28-26.88l-230.4-448c-6.4-10.24-15.36-16.64-25.6-16.64h-512c-11.52 0-20.48 6.4-25.6 16.64L12.8 528.64c-3.84 8.96-2.56 19.2 2.56 26.88 5.12 7.68 14.08 12.8 24.32 12.8z m220.16-448h476.16L938.24 512H83.2L259.84 120.32z" p-id="3216"></path><path d="M826.88 782.08m-58.88 0a58.88 58.88 0 1 0 117.76 0 58.88 58.88 0 1 0-117.76 0Z" p-id="3217"></path><path d="M305.92 259.84h371.2c15.36 0 28.16-12.8 28.16-28.16s-12.8-28.16-28.16-28.16h-371.2c-15.36 0-28.16 12.8-28.16 28.16s11.52 28.16 28.16 28.16zM780.8 378.88H227.84c-15.36 0-28.16 12.8-28.16 28.16s12.8 28.16 28.16 28.16H780.8c15.36 0 28.16-12.8 28.16-28.16s-12.8-28.16-28.16-28.16z" p-id="3218"></path></svg>