<?xml version="1.0" encoding="UTF-8"?>
<svg width="14px" height="14px" viewBox="0 0 14 14" version="1.1" xmlns="http://www.w3.org/2000/svg" xmlns:xlink="http://www.w3.org/1999/xlink">
    <!-- Generator: Sketch 64 (93537) - https://sketch.com -->
    <title>闹钟</title>
    <desc>Created with Sketch.</desc>
    <defs>
        <rect id="path-1" x="0" y="0" width="14" height="14"></rect>
    </defs>
    <g id="城商行" stroke="none" stroke-width="1" fill="none" fill-rule="evenodd">
        <g id="切图" transform="translate(-359.000000, -1379.000000)">
            <g id="闹钟" transform="translate(359.000000, 1379.000000)">
                <mask id="mask-2" fill="white">
                    <use xlink:href="#path-1"></use>
                </mask>
                <g id="矩形" opacity="0" fill-rule="nonzero"></g>
                <path d="M13,3.31641374 L10.2394816,1 L9.45991838,1.89109405 L12.2195348,4.20750779 L13,3.31641374 Z M4.54091286,1.95021314 L3.76051837,1.05911909 L1,3.31639625 L1.78044755,4.2074903 L4.54091286,1.95021314 Z M7.29966264,4.68263188 L6.39971083,4.68263188 L6.39971083,8.24697306 L9.22000787,9.96995453 L9.69984657,9.25639284 L7.29964495,7.83102061 L7.29964495,4.68263188 L7.29966264,4.68263188 Z M6.99995579,2.30699398 C4.00042888,2.30699398 1.60024496,4.68263186 1.60024496,7.65348823 C1.60024496,10.6243446 4.0004289,13 6.99995579,13 C9.99957112,13 12.3996666,10.6243271 12.3996666,7.65348823 C12.3996666,4.68264939 9.99957112,2.30699398 6.99995579,2.30699398 M6.99995579,11.8112617 C4.66039944,11.8112617 2.7999213,9.96995451 2.7999213,7.65347073 C2.7999213,5.33614638 4.66039944,3.49566225 6.99995579,3.49566225 C9.33951214,3.49566225 11.2000787,5.33614638 11.2000787,7.65347073 C11.2000787,9.969937 9.33951213,11.8112617 6.99995579,11.8112617" id="形状" fill="#306BFF" fill-rule="nonzero" mask="url(#mask-2)"></path>
            </g>
        </g>
    </g>
</svg>