<?xml version="1.0" encoding="UTF-8"?>
<svg width="64px" height="64px" viewBox="0 0 64 64" version="1.1" xmlns="http://www.w3.org/2000/svg" xmlns:xlink="http://www.w3.org/1999/xlink">
    <!-- Generator: Sketch 64 (93537) - https://sketch.com -->
    <title>云控制器详情</title>
    <desc>Created with Sketch.</desc>
    <g id="城商行" stroke="none" stroke-width="1" fill="none" fill-rule="evenodd">
        <g id="切图" transform="translate(-1741.000000, -284.000000)">
            <g id="云控制器详情" transform="translate(1741.000000, 284.000000)">
                <path d="M64,32 C64,49.673 49.673,64 32,64 C14.327,64 0,49.673 0,32 C0,14.327 14.327,0 32,0 C49.673,0 64,14.327 64,32" id="Fill-1" fill="#F4F7FF"></path>
                <path d="M15.5,9 C14.673,9 14,9.673 14,10.5 C14,11.327 14.673,12 15.5,12 C16.327,12 17,11.327 17,10.5 C17,9.673 16.327,9 15.5,9 M15.5,13 C14.121,13 13,11.879 13,10.5 C13,9.121 14.121,8 15.5,8 C16.879,8 18,9.121 18,10.5 C18,11.879 16.879,13 15.5,13" id="Fill-3" fill="#306BFF"></path>
                <path d="M51.167,12.667 L47.167,12.667 C46.891,12.667 46.667,12.443 46.667,12.167 C46.667,11.891 46.891,11.667 47.167,11.667 L51.167,11.667 C51.443,11.667 51.667,11.891 51.667,12.167 C51.667,12.443 51.443,12.667 51.167,12.667" id="Fill-5" fill="#306BFF"></path>
                <path d="M49.167,14.667 C48.891,14.667 48.667,14.443 48.667,14.167 L48.667,10.167 C48.667,9.891 48.891,9.667 49.167,9.667 C49.443,9.667 49.667,9.891 49.667,10.167 L49.667,14.167 C49.667,14.443 49.443,14.667 49.167,14.667" id="Fill-7" fill="#306BFF"></path>
                <path d="M59,40 C59,41.104 58.104,42 57,42 C55.896,42 55,41.104 55,40 C55,38.896 55.896,38 57,38 C58.104,38 59,38.896 59,40" id="Fill-9" fill="#306BFF"></path>
                <path d="M50,50 C50,50.553 49.553,51 49,51 C48.447,51 48,50.553 48,50 C48,49.447 48.447,49 49,49 C49.553,49 50,49.447 50,50" id="Fill-11" fill="#306BFF"></path>
                <path d="M12,53 C11.724,53 11.5,52.776 11.5,52.5 L11.5,50 C11.5,49.724 11.724,49.5 12,49.5 C12.276,49.5 12.5,49.724 12.5,50 L12.5,52.5 C12.5,52.776 12.276,53 12,53" id="Fill-13" fill="#306BFF"></path>
                <path d="M14.4697,51.9697 C14.3417,51.9697 14.2137,51.9207 14.1157,51.8237 L12.3567,50.0637 C12.1607,49.8677 12.1607,49.5517 12.3567,49.3567 C12.5517,49.1607 12.8677,49.1607 13.0637,49.3567 L14.8237,51.1157 C15.0187,51.3117 15.0187,51.6277 14.8237,51.8237 C14.7257,51.9207 14.5977,51.9697 14.4697,51.9697" id="Fill-15" fill="#306BFF"></path>
                <path d="M15.5,49.5 L13,49.5 C12.724,49.5 12.5,49.276 12.5,49 C12.5,48.724 12.724,48.5 13,48.5 L15.5,48.5 C15.776,48.5 16,48.724 16,49 C16,49.276 15.776,49.5 15.5,49.5" id="Fill-17" fill="#306BFF"></path>
                <path d="M12.71,48.79 C12.582,48.79 12.454,48.741 12.356,48.644 C12.161,48.448 12.161,48.132 12.356,47.936 L14.116,46.177 C14.312,45.981 14.628,45.981 14.823,46.177 C15.019,46.372 15.019,46.688 14.823,46.884 L13.064,48.644 C12.966,48.741 12.838,48.79 12.71,48.79" id="Fill-19" fill="#306BFF"></path>
                <path d="M12,48.5 C11.724,48.5 11.5,48.276 11.5,48 L11.5,45.5 C11.5,45.224 11.724,45 12,45 C12.276,45 12.5,45.224 12.5,45.5 L12.5,48 C12.5,48.276 12.276,48.5 12,48.5" id="Fill-21" fill="#306BFF"></path>
                <path d="M11.29,48.79 C11.162,48.79 11.034,48.741 10.936,48.644 L9.177,46.884 C8.981,46.688 8.981,46.372 9.177,46.177 C9.372,45.981 9.688,45.981 9.884,46.177 L11.644,47.936 C11.839,48.132 11.839,48.448 11.644,48.644 C11.546,48.741 11.418,48.79 11.29,48.79" id="Fill-23" fill="#306BFF"></path>
                <path d="M11,49.5 L8.5,49.5 C8.224,49.5 8,49.276 8,49 C8,48.724 8.224,48.5 8.5,48.5 L11,48.5 C11.276,48.5 11.5,48.724 11.5,49 C11.5,49.276 11.276,49.5 11,49.5" id="Fill-25" fill="#306BFF"></path>
                <path d="M9.5303,51.9697 C9.4023,51.9697 9.2743,51.9207 9.1763,51.8237 C8.9813,51.6277 8.9813,51.3117 9.1763,51.1157 L10.9363,49.3567 C11.1323,49.1607 11.4483,49.1607 11.6433,49.3567 C11.8393,49.5517 11.8393,49.8677 11.6433,50.0637 L9.8843,51.8237 C9.7863,51.9207 9.6583,51.9697 9.5303,51.9697" id="Fill-27" fill="#306BFF"></path>
                <path d="M41.3438,43.2187 C40.6538,43.2187 40.0938,42.6587 40.0938,41.9687 C40.0938,41.2787 40.6538,40.7187 41.3438,40.7187 C44.8758,40.7187 47.7498,37.8447 47.7498,34.3127 C47.7498,30.9847 45.1588,28.1827 41.8528,27.9357 L41.0048,27.8727 L40.7518,27.0617 C39.4818,22.9877 35.7628,20.2497 31.4998,20.2497 C27.2378,20.2497 23.5188,22.9877 22.2478,27.0617 L21.9948,27.8727 L21.1478,27.9357 C17.8408,28.1827 15.2498,30.9847 15.2498,34.3127 C15.2498,37.8447 18.1238,40.7187 21.6568,40.7187 C22.3468,40.7187 22.9068,41.2787 22.9068,41.9687 C22.9068,42.6587 22.3468,43.2187 21.6568,43.2187 C16.7448,43.2187 12.7498,39.2237 12.7498,34.3127 C12.7498,29.9657 15.9298,26.2657 20.1298,25.5447 C21.9398,20.8497 26.4108,17.7497 31.4998,17.7497 C36.5888,17.7497 41.0608,20.8497 42.8698,25.5447 C47.0708,26.2657 50.2498,29.9657 50.2498,34.3127 C50.2498,39.2237 46.2548,43.2187 41.3438,43.2187" id="Fill-29" fill="#306BFF"></path>
                <path d="M53,31.5625 C52.31,31.5625 51.75,31.0025 51.75,30.3125 C51.75,26.9845 49.159,24.1825 45.853,23.9355 L45.005,23.8735 L44.752,23.0615 C43.481,18.9875 39.763,16.2495 35.5,16.2495 C34.81,16.2495 34.25,15.6905 34.25,15.0005 C34.25,14.3095 34.81,13.7505 35.5,13.7505 C40.589,13.7505 45.061,16.8495 46.87,21.5445 C51.07,22.2655 54.25,25.9655 54.25,30.3125 C54.25,31.0025 53.69,31.5625 53,31.5625" id="Fill-31" fill="#306BFF"></path>
                <path d="M31,44 C29.9,44 29,43.1 29,42 C29,40.9 29.9,40 31,40 C32.1,40 33,40.9 33,42 C33,43.1 32.1,44 31,44 M37,40 L36.19,40 C35.42,40 34.94,39.17 35.33,38.5 L35.73,37.8 C36.01,37.33 35.84,36.72 35.37,36.44 L33.63,35.44 C33.16,35.16 32.55,35.33 32.27,35.8 L31.86,36.51 C31.48,37.17 30.52,37.17 30.14,36.51 L29.73,35.8 C29.45,35.33 28.84,35.16 28.37,35.44 L26.63,36.44 C26.16,36.72 25.99,37.33 26.27,37.8 L26.67,38.5 C27.06,39.17 26.58,40 25.81,40 L25,40 C24.45,40 24,40.45 24,41 L24,43 C24,43.55 24.45,44 25,44 L25.81,44 C26.58,44 27.06,44.83 26.67,45.5 L26.27,46.2 C25.99,46.67 26.16,47.28 26.63,47.56 L28.37,48.56 C28.84,48.84 29.45,48.67 29.73,48.2 L30.14,47.49 C30.52,46.83 31.48,46.83 31.86,47.49 L32.27,48.2 C32.55,48.67 33.16,48.84 33.63,48.56 L35.37,47.56 C35.84,47.28 36.01,46.67 35.73,46.2 L35.33,45.5 C34.94,44.83 35.42,44 36.19,44 L37,44 C37.55,44 38,43.55 38,43 L38,41 C38,40.45 37.55,40 37,40" id="Fill-33" fill="#306BFF"></path>
            </g>
        </g>
    </g>
</svg>