<?xml version="1.0" encoding="UTF-8"?>
<svg width="64px" height="64px" viewBox="0 0 64 64" version="1.1" xmlns="http://www.w3.org/2000/svg" xmlns:xlink="http://www.w3.org/1999/xlink">
    <!-- Generator: Sketch 64 (93537) - https://sketch.com -->
    <title>集群详情</title>
    <desc>Created with Sketch.</desc>
    <g id="城商行" stroke="none" stroke-width="1" fill="none" fill-rule="evenodd">
        <g id="切图" transform="translate(-1501.000000, -418.000000)">
            <g id="集群详情" transform="translate(1501.000000, 418.000000)">
                <path d="M64,32 C64,49.673 49.673,64 32,64 C14.327,64 0,49.673 0,32 C0,14.327 14.327,0 32,0 C49.673,0 64,14.327 64,32" id="Fill-1" fill="#F4F7FF"></path>
                <path d="M15.5,9 C14.673,9 14,9.673 14,10.5 C14,11.327 14.673,12 15.5,12 C16.327,12 17,11.327 17,10.5 C17,9.673 16.327,9 15.5,9 M15.5,13 C14.121,13 13,11.879 13,10.5 C13,9.121 14.121,8 15.5,8 C16.879,8 18,9.121 18,10.5 C18,11.879 16.879,13 15.5,13" id="Fill-3" fill="#306BFF"></path>
                <path d="M51.167,12.667 L47.167,12.667 C46.891,12.667 46.667,12.443 46.667,12.167 C46.667,11.891 46.891,11.667 47.167,11.667 L51.167,11.667 C51.443,11.667 51.667,11.891 51.667,12.167 C51.667,12.443 51.443,12.667 51.167,12.667" id="Fill-5" fill="#306BFF"></path>
                <path d="M49.167,14.667 C48.891,14.667 48.667,14.443 48.667,14.167 L48.667,10.167 C48.667,9.891 48.891,9.667 49.167,9.667 C49.443,9.667 49.667,9.891 49.667,10.167 L49.667,14.167 C49.667,14.443 49.443,14.667 49.167,14.667" id="Fill-7" fill="#306BFF"></path>
                <path d="M59,40 C59,41.104 58.104,42 57,42 C55.896,42 55,41.104 55,40 C55,38.896 55.896,38 57,38 C58.104,38 59,38.896 59,40" id="Fill-9" fill="#306BFF"></path>
                <path d="M50,50 C50,50.553 49.553,51 49,51 C48.447,51 48,50.553 48,50 C48,49.447 48.447,49 49,49 C49.553,49 50,49.447 50,50" id="Fill-11" fill="#306BFF"></path>
                <path d="M12,53 C11.724,53 11.5,52.776 11.5,52.5 L11.5,50 C11.5,49.724 11.724,49.5 12,49.5 C12.276,49.5 12.5,49.724 12.5,50 L12.5,52.5 C12.5,52.776 12.276,53 12,53" id="Fill-13" fill="#306BFF"></path>
                <path d="M14.4697,51.9697 C14.3417,51.9697 14.2137,51.9207 14.1157,51.8237 L12.3567,50.0637 C12.1607,49.8677 12.1607,49.5517 12.3567,49.3567 C12.5517,49.1607 12.8677,49.1607 13.0637,49.3567 L14.8237,51.1157 C15.0187,51.3117 15.0187,51.6277 14.8237,51.8237 C14.7257,51.9207 14.5977,51.9697 14.4697,51.9697" id="Fill-15" fill="#306BFF"></path>
                <path d="M15.5,49.5 L13,49.5 C12.724,49.5 12.5,49.276 12.5,49 C12.5,48.724 12.724,48.5 13,48.5 L15.5,48.5 C15.776,48.5 16,48.724 16,49 C16,49.276 15.776,49.5 15.5,49.5" id="Fill-17" fill="#306BFF"></path>
                <path d="M12.71,48.79 C12.582,48.79 12.454,48.741 12.356,48.644 C12.161,48.448 12.161,48.132 12.356,47.936 L14.116,46.177 C14.312,45.981 14.628,45.981 14.823,46.177 C15.019,46.372 15.019,46.688 14.823,46.884 L13.064,48.644 C12.966,48.741 12.838,48.79 12.71,48.79" id="Fill-19" fill="#306BFF"></path>
                <path d="M12,48.5 C11.724,48.5 11.5,48.276 11.5,48 L11.5,45.5 C11.5,45.224 11.724,45 12,45 C12.276,45 12.5,45.224 12.5,45.5 L12.5,48 C12.5,48.276 12.276,48.5 12,48.5" id="Fill-21" fill="#306BFF"></path>
                <path d="M11.29,48.79 C11.162,48.79 11.034,48.741 10.936,48.644 L9.177,46.884 C8.981,46.688 8.981,46.372 9.177,46.177 C9.372,45.981 9.688,45.981 9.884,46.177 L11.644,47.936 C11.839,48.132 11.839,48.448 11.644,48.644 C11.546,48.741 11.418,48.79 11.29,48.79" id="Fill-23" fill="#306BFF"></path>
                <path d="M11,49.5 L8.5,49.5 C8.224,49.5 8,49.276 8,49 C8,48.724 8.224,48.5 8.5,48.5 L11,48.5 C11.276,48.5 11.5,48.724 11.5,49 C11.5,49.276 11.276,49.5 11,49.5" id="Fill-25" fill="#306BFF"></path>
                <path d="M9.5303,51.9697 C9.4023,51.9697 9.2743,51.9207 9.1763,51.8237 C8.9813,51.6277 8.9813,51.3117 9.1763,51.1157 L10.9363,49.3567 C11.1323,49.1607 11.4483,49.1607 11.6433,49.3567 C11.8393,49.5517 11.8393,49.8677 11.6433,50.0637 L9.8843,51.8237 C9.7863,51.9207 9.6583,51.9697 9.5303,51.9697" id="Fill-27" fill="#306BFF"></path>
                <path d="M33.6367,24.2725 L30.3637,24.2725 C29.2587,24.2725 28.3637,23.3765 28.3637,22.2725 L28.3637,19.0005 C28.3637,17.8955 29.2587,17.0005 30.3637,17.0005 L33.6367,17.0005 C34.7407,17.0005 35.6367,17.8955 35.6367,19.0005 L35.6367,22.2725 C35.6367,23.3765 34.7407,24.2725 33.6367,24.2725" id="Fill-29" fill="#F4F7FF"></path>
                <path d="M30.3633,18 C29.8113,18 29.3633,18.448 29.3633,19 L29.3633,22.272 C29.3633,22.824 29.8113,23.272 30.3633,23.272 L33.6363,23.272 C34.1883,23.272 34.6363,22.824 34.6363,22.272 L34.6363,19 C34.6363,18.448 34.1883,18 33.6363,18 L30.3633,18 Z M33.6363,25.272 L30.3633,25.272 C28.7093,25.272 27.3633,23.927 27.3633,22.272 L27.3633,19 C27.3633,17.346 28.7093,16 30.3633,16 L33.6363,16 C35.2913,16 36.6363,17.346 36.6363,19 L36.6363,22.272 C36.6363,23.927 35.2913,25.272 33.6363,25.272 L33.6363,25.272 Z" id="Fill-31" fill="#306BFF"></path>
                <path d="M22.2725,24.2725 L19.0005,24.2725 C17.8955,24.2725 17.0005,23.3765 17.0005,22.2725 L17.0005,19.0005 C17.0005,17.8955 17.8955,17.0005 19.0005,17.0005 L22.2725,17.0005 C23.3765,17.0005 24.2725,17.8955 24.2725,19.0005 L24.2725,22.2725 C24.2725,23.3765 23.3765,24.2725 22.2725,24.2725" id="Fill-33" fill="#F4F7FF"></path>
                <path d="M19,18 C18.448,18 18,18.448 18,19 L18,22.272 C18,22.824 18.448,23.272 19,23.272 L22.272,23.272 C22.824,23.272 23.272,22.824 23.272,22.272 L23.272,19 C23.272,18.448 22.824,18 22.272,18 L19,18 Z M22.272,25.272 L19,25.272 C17.346,25.272 16,23.927 16,22.272 L16,19 C16,17.346 17.346,16 19,16 L22.272,16 C23.927,16 25.272,17.346 25.272,19 L25.272,22.272 C25.272,23.927 23.927,25.272 22.272,25.272 L22.272,25.272 Z" id="Fill-35" fill="#306BFF"></path>
                <path d="M33.6367,35.6367 L30.3637,35.6367 C29.2587,35.6367 28.3637,34.7407 28.3637,33.6367 L28.3637,30.3637 C28.3637,29.2587 29.2587,28.3637 30.3637,28.3637 L33.6367,28.3637 C34.7407,28.3637 35.6367,29.2587 35.6367,30.3637 L35.6367,33.6367 C35.6367,34.7407 34.7407,35.6367 33.6367,35.6367" id="Fill-37" fill="#F4F7FF"></path>
                <path d="M30.3633,29.3633 C29.8113,29.3633 29.3633,29.8113 29.3633,30.3633 L29.3633,33.6363 C29.3633,34.1883 29.8113,34.6363 30.3633,34.6363 L33.6363,34.6363 C34.1883,34.6363 34.6363,34.1883 34.6363,33.6363 L34.6363,30.3633 C34.6363,29.8113 34.1883,29.3633 33.6363,29.3633 L30.3633,29.3633 Z M33.6363,36.6363 L30.3633,36.6363 C28.7093,36.6363 27.3633,35.2913 27.3633,33.6363 L27.3633,30.3633 C27.3633,28.7093 28.7093,27.3633 30.3633,27.3633 L33.6363,27.3633 C35.2913,27.3633 36.6363,28.7093 36.6363,30.3633 L36.6363,33.6363 C36.6363,35.2913 35.2913,36.6363 33.6363,36.6363 L33.6363,36.6363 Z" id="Fill-39" fill="#306BFF"></path>
                <path d="M22.2725,35.6367 L19.0005,35.6367 C17.8955,35.6367 17.0005,34.7407 17.0005,33.6367 L17.0005,30.3637 C17.0005,29.2587 17.8955,28.3637 19.0005,28.3637 L22.2725,28.3637 C23.3765,28.3637 24.2725,29.2587 24.2725,30.3637 L24.2725,33.6367 C24.2725,34.7407 23.3765,35.6367 22.2725,35.6367" id="Fill-41" fill="#F4F7FF"></path>
                <path d="M19,29.3633 C18.448,29.3633 18,29.8113 18,30.3633 L18,33.6363 C18,34.1883 18.448,34.6363 19,34.6363 L22.272,34.6363 C22.824,34.6363 23.272,34.1883 23.272,33.6363 L23.272,30.3633 C23.272,29.8113 22.824,29.3633 22.272,29.3633 L19,29.3633 Z M22.272,36.6363 L19,36.6363 C17.346,36.6363 16,35.2913 16,33.6363 L16,30.3633 C16,28.7093 17.346,27.3633 19,27.3633 L22.272,27.3633 C23.927,27.3633 25.272,28.7093 25.272,30.3633 L25.272,33.6363 C25.272,35.2913 23.927,36.6363 22.272,36.6363 L22.272,36.6363 Z" id="Fill-43" fill="#306BFF"></path>
                <path d="M45,24.2725 L41.728,24.2725 C40.623,24.2725 39.728,23.3765 39.728,22.2725 L39.728,19.0005 C39.728,17.8955 40.623,17.0005 41.728,17.0005 L45,17.0005 C46.104,17.0005 47,17.8955 47,19.0005 L47,22.2725 C47,23.3765 46.104,24.2725 45,24.2725" id="Fill-45" fill="#F4F7FF"></path>
                <path d="M41.7275,18 C41.1755,18 40.7275,18.448 40.7275,19 L40.7275,22.272 C40.7275,22.824 41.1755,23.272 41.7275,23.272 L44.9995,23.272 C45.5515,23.272 45.9995,22.824 45.9995,22.272 L45.9995,19 C45.9995,18.448 45.5515,18 44.9995,18 L41.7275,18 Z M44.9995,25.272 L41.7275,25.272 C40.0735,25.272 38.7275,23.927 38.7275,22.272 L38.7275,19 C38.7275,17.346 40.0735,16 41.7275,16 L44.9995,16 C46.6545,16 47.9995,17.346 47.9995,19 L47.9995,22.272 C47.9995,23.927 46.6545,25.272 44.9995,25.272 L44.9995,25.272 Z" id="Fill-47" fill="#306BFF"></path>
                <path d="M33.6367,47 L30.3637,47 C29.2587,47 28.3637,46.104 28.3637,45 L28.3637,41.728 C28.3637,40.623 29.2587,39.728 30.3637,39.728 L33.6367,39.728 C34.7407,39.728 35.6367,40.623 35.6367,41.728 L35.6367,45 C35.6367,46.104 34.7407,47 33.6367,47" id="Fill-49" fill="#F4F7FF"></path>
                <path d="M30.3633,40.7275 C29.8113,40.7275 29.3633,41.1755 29.3633,41.7275 L29.3633,44.9995 C29.3633,45.5515 29.8113,45.9995 30.3633,45.9995 L33.6363,45.9995 C34.1883,45.9995 34.6363,45.5515 34.6363,44.9995 L34.6363,41.7275 C34.6363,41.1755 34.1883,40.7275 33.6363,40.7275 L30.3633,40.7275 Z M33.6363,47.9995 L30.3633,47.9995 C28.7093,47.9995 27.3633,46.6545 27.3633,44.9995 L27.3633,41.7275 C27.3633,40.0735 28.7093,38.7275 30.3633,38.7275 L33.6363,38.7275 C35.2913,38.7275 36.6363,40.0735 36.6363,41.7275 L36.6363,44.9995 C36.6363,46.6545 35.2913,47.9995 33.6363,47.9995 L33.6363,47.9995 Z" id="Fill-51" fill="#306BFF"></path>
                <path d="M22.2725,47 L19.0005,47 C17.8955,47 17.0005,46.104 17.0005,45 L17.0005,41.728 C17.0005,40.623 17.8955,39.728 19.0005,39.728 L22.2725,39.728 C23.3765,39.728 24.2725,40.623 24.2725,41.728 L24.2725,45 C24.2725,46.104 23.3765,47 22.2725,47" id="Fill-53" fill="#F4F7FF"></path>
                <path d="M19,40.7275 C18.448,40.7275 18,41.1755 18,41.7275 L18,44.9995 C18,45.5515 18.448,45.9995 19,45.9995 L22.272,45.9995 C22.824,45.9995 23.272,45.5515 23.272,44.9995 L23.272,41.7275 C23.272,41.1755 22.824,40.7275 22.272,40.7275 L19,40.7275 Z M22.272,47.9995 L19,47.9995 C17.346,47.9995 16,46.6545 16,44.9995 L16,41.7275 C16,40.0735 17.346,38.7275 19,38.7275 L22.272,38.7275 C23.927,38.7275 25.272,40.0735 25.272,41.7275 L25.272,44.9995 C25.272,46.6545 23.927,47.9995 22.272,47.9995 L22.272,47.9995 Z" id="Fill-55" fill="#306BFF"></path>
                <path d="M45,47 L41.728,47 C40.623,47 39.728,46.104 39.728,45 L39.728,41.728 C39.728,40.623 40.623,39.728 41.728,39.728 L45,39.728 C46.104,39.728 47,40.623 47,41.728 L47,45 C47,46.104 46.104,47 45,47" id="Fill-57" fill="#F4F7FF"></path>
                <path d="M41.7275,40.7275 C41.1755,40.7275 40.7275,41.1755 40.7275,41.7275 L40.7275,44.9995 C40.7275,45.5515 41.1755,45.9995 41.7275,45.9995 L44.9995,45.9995 C45.5515,45.9995 45.9995,45.5515 45.9995,44.9995 L45.9995,41.7275 C45.9995,41.1755 45.5515,40.7275 44.9995,40.7275 L41.7275,40.7275 Z M44.9995,47.9995 L41.7275,47.9995 C40.0735,47.9995 38.7275,46.6545 38.7275,44.9995 L38.7275,41.7275 C38.7275,40.0735 40.0735,38.7275 41.7275,38.7275 L44.9995,38.7275 C46.6545,38.7275 47.9995,40.0735 47.9995,41.7275 L47.9995,44.9995 C47.9995,46.6545 46.6545,47.9995 44.9995,47.9995 L44.9995,47.9995 Z" id="Fill-59" fill="#306BFF"></path>
                <path d="M45,35.6367 L41.728,35.6367 C40.623,35.6367 39.728,34.7407 39.728,33.6367 L39.728,30.3637 C39.728,29.2587 40.623,28.3637 41.728,28.3637 L45,28.3637 C46.104,28.3637 47,29.2587 47,30.3637 L47,33.6367 C47,34.7407 46.104,35.6367 45,35.6367" id="Fill-61" fill="#F4F7FF"></path>
                <path d="M41.7275,29.3633 C41.1755,29.3633 40.7275,29.8113 40.7275,30.3633 L40.7275,33.6363 C40.7275,34.1883 41.1755,34.6363 41.7275,34.6363 L44.9995,34.6363 C45.5515,34.6363 45.9995,34.1883 45.9995,33.6363 L45.9995,30.3633 C45.9995,29.8113 45.5515,29.3633 44.9995,29.3633 L41.7275,29.3633 Z M44.9995,36.6363 L41.7275,36.6363 C40.0735,36.6363 38.7275,35.2913 38.7275,33.6363 L38.7275,30.3633 C38.7275,28.7093 40.0735,27.3633 41.7275,27.3633 L44.9995,27.3633 C46.6545,27.3633 47.9995,28.7093 47.9995,30.3633 L47.9995,33.6363 C47.9995,35.2913 46.6545,36.6363 44.9995,36.6363 L44.9995,36.6363 Z" id="Fill-63" fill="#306BFF"></path>
            </g>
        </g>
    </g>
</svg>