<?xml version="1.0" encoding="UTF-8"?>
<svg width="16px" height="16px" viewBox="0 0 16 16" version="1.1" xmlns="http://www.w3.org/2000/svg" xmlns:xlink="http://www.w3.org/1999/xlink">
    <!-- Generator: Sketch 64 (93537) - https://sketch.com -->
    <title>ico_kzt</title>
    <desc>Created with Sketch.</desc>
    <defs>
        <rect id="path-1" x="0" y="0" width="16" height="16"></rect>
    </defs>
    <g id="功能界面设计" stroke="none" stroke-width="1" fill="none" fill-rule="evenodd">
        <g id="切图-运营中心" transform="translate(-131.000000, -374.000000)">
            <g id="ico_kzt" transform="translate(131.000000, 374.000000)">
                <mask id="mask-2" fill="white">
                    <use xlink:href="#path-1"></use>
                </mask>
                <g id="矩形" opacity="0" fill-rule="nonzero"></g>
                <path d="M5.20723437,4.2098125 C5.20723437,4.724375 4.79039062,5.14123437 4.2758125,5.14123437 L2.412875,5.14123437 C1.89823437,5.14123437 1.48145312,4.72439062 1.48145312,4.2098125 L1.48145312,2.346875 C1.48145312,1.83223437 1.89875,1.41545312 2.412875,1.41545312 L4.2758125,1.41545312 C4.790375,1.41545312 5.20723437,1.83223437 5.20723437,2.346875 L5.20723437,4.2098125 Z M9.8644375,4.2098125 C9.8644375,4.724375 9.44759375,5.14123437 8.93301562,5.14123437 L7.07007812,5.14123437 C6.5554375,5.14123437 6.13865625,4.72439062 6.13865625,4.2098125 L6.13865625,2.346875 C6.13865625,1.83223437 6.5554375,1.41545312 7.07007812,1.41545312 L8.93301562,1.41545312 C9.44757812,1.41545312 9.8644375,1.83223437 9.8644375,2.346875 L9.8644375,4.2098125 Z M14.5215937,4.2098125 C14.5215937,4.724375 14.10475,5.14123437 13.5901719,5.14123437 L11.7272187,5.14123437 C11.2125781,5.14123437 10.7957969,4.72439062 10.7957969,4.2098125 L10.7957969,2.346875 C10.7957969,1.83223437 11.2130937,1.41545312 11.7272187,1.41545312 L13.5901562,1.41545312 C14.1047187,1.41545312 14.5215937,1.83223437 14.5215937,2.346875 L14.5215937,4.2098125 L14.5215937,4.2098125 L14.5215937,4.2098125 Z M5.20723437,8.867 C5.20723437,9.3815625 4.79039062,9.79842187 4.2758125,9.79842187 L2.412875,9.79842187 C1.89823437,9.79842187 1.48145312,9.38157813 1.48145312,8.867 L1.48145312,7.0040625 C1.48145312,6.48942187 1.89875,6.07264063 2.412875,6.07264063 L4.2758125,6.07264063 C4.790375,6.07264063 5.20723437,6.48942187 5.20723437,7.0040625 L5.20723437,8.867 Z M9.8644375,8.867 C9.8644375,9.3815625 9.44759375,9.79842187 8.93301562,9.79842187 L7.07007812,9.79842187 C6.5554375,9.79842187 6.13865625,9.38157813 6.13865625,8.867 L6.13865625,7.0040625 C6.13865625,6.48942187 6.5554375,6.07264063 7.07007812,6.07264063 L8.93301562,6.07264063 C9.44757812,6.07264063 9.8644375,6.48942187 9.8644375,7.0040625 L9.8644375,8.867 Z M14.5215937,8.867 C14.5215937,9.3815625 14.10475,9.79842187 13.5901719,9.79842187 L11.7272187,9.79842187 C11.2125781,9.79842187 10.7957969,9.38157813 10.7957969,8.867 L10.7957969,7.0040625 C10.7957969,6.48942187 11.2130937,6.07264063 11.7272187,6.07264063 L13.5901562,6.07264063 C14.1047187,6.07264063 14.5215937,6.48942187 14.5215937,7.0040625 L14.5215937,8.867 L14.5215937,8.867 L14.5215937,8.867 Z M5.20723437,13.5241719 C5.20723437,14.0387344 4.79039062,14.4555937 4.2758125,14.4555937 L2.412875,14.4555937 C1.89823437,14.4555937 1.48145312,14.03875 1.48145312,13.5241719 L1.48145312,11.6612344 C1.48145312,11.1465938 1.89875,10.7298125 2.412875,10.7298125 L4.2758125,10.7298125 C4.790375,10.7298125 5.20723437,11.1465938 5.20723437,11.6612344 L5.20723437,13.5241719 Z M9.8644375,13.5241719 C9.8644375,14.0387344 9.44759375,14.4555937 8.93301562,14.4555937 L7.07007812,14.4555937 C6.5554375,14.4555937 6.13865625,14.03875 6.13865625,13.5241719 L6.13865625,11.6612344 C6.13865625,11.1465938 6.5554375,10.7298125 7.07007812,10.7298125 L8.93301562,10.7298125 C9.44757812,10.7298125 9.8644375,11.1465938 9.8644375,11.6612344 L9.8644375,13.5241719 Z M14.5215937,13.5241719 C14.5215937,14.0387344 14.10475,14.4555937 13.5901719,14.4555937 L11.7272187,14.4555937 C11.2125781,14.4555937 10.7957969,14.03875 10.7957969,13.5241719 L10.7957969,11.6612344 C10.7957969,11.1465938 11.2130937,10.7298125 11.7272187,10.7298125 L13.5901562,10.7298125 C14.1047187,10.7298125 14.5215937,11.1465938 14.5215937,11.6612344 L14.5215937,13.5241719 L14.5215937,13.5241719 L14.5215937,13.5241719 Z" id="形状" fill="#FFFFFF" fill-rule="nonzero" opacity="0.649999976" mask="url(#mask-2)"></path>
            </g>
        </g>
    </g>
</svg>