<?xml version="1.0" encoding="UTF-8"?>
<svg width="14px" height="14px" viewBox="0 0 14 14" version="1.1" xmlns="http://www.w3.org/2000/svg" xmlns:xlink="http://www.w3.org/1999/xlink">
    <!-- Generator: Sketch 64 (93537) - https://sketch.com -->
    <title>复制</title>
    <desc>Created with Sketch.</desc>
    <defs>
        <rect id="path-1" x="0" y="0" width="14" height="14"></rect>
    </defs>
    <g id="蓝紫新风格" stroke="none" stroke-width="1" fill="none" fill-rule="evenodd">
        <g id="切图" transform="translate(-112.000000, -599.000000)">
            <g id="复制" transform="translate(112.000000, 599.000000)">
                <mask id="mask-2" fill="white">
                    <use xlink:href="#path-1"></use>
                </mask>
                <g id="矩形" opacity="0" fill-rule="nonzero"></g>
                <path d="M10.5360667,12.7678223 L2.96579997,12.7678223 C2.35296885,12.7678223 1.88433329,12.2991867 1.88433329,11.6863556 L1.88433329,2.6741333 L9.45460002,2.6741333 C10.0674311,2.6741333 10.5360667,3.14276886 10.5360667,3.75559998 L10.5360667,12.7678223 Z M2.60531108,3.39511108 L2.60531108,11.6863556 C2.60531108,11.9026489 2.74950663,12.0468445 2.96579997,12.0468445 L9.81508891,12.0468445 L9.81508891,3.75559998 C9.81508891,3.53930664 9.67089335,3.39511108 9.45460002,3.39511108 L2.60531108,3.39511108 Z" id="形状" fill="#6353E5" fill-rule="nonzero" mask="url(#mask-2)"></path>
                <path d="M8.37313334,5.81038666 L4.04726664,5.81038666 C3.8670222,5.81038666 3.68677775,5.6661911 3.68677775,5.44989777 C3.68677775,5.26965332 3.83097331,5.08940887 4.04726664,5.08940887 L8.37313334,5.08940887 C8.55337779,5.08940887 8.73362223,5.23360443 8.73362223,5.44989777 C8.73362223,5.63014221 8.55337779,5.81038666 8.37313334,5.81038666 Z M8.37313334,7.61283112 L4.04726664,7.61283112 C3.8670222,7.61283112 3.68677775,7.46863556 3.68677775,7.25234222 C3.68677775,7.07209778 3.83097331,6.89185333 4.04726664,6.89185333 L8.37313334,6.89185333 C8.55337779,6.89185333 8.73362223,7.03604889 8.73362223,7.25234222 C8.73362223,7.43258667 8.55337779,7.61283112 8.37313334,7.61283112 Z M8.37313334,9.41527557 L4.04726664,9.41527557 C3.8670222,9.41527557 3.68677775,9.27108002 3.68677775,9.05478668 C3.68677775,8.87454224 3.83097331,8.69429779 4.04726664,8.69429779 L8.37313334,8.69429779 C8.55337779,8.69429779 8.73362223,8.83849335 8.73362223,9.05478668 C8.73362223,9.23503113 8.55337779,9.41527557 8.37313334,9.41527557 Z" id="形状" fill="#6353E5" fill-rule="nonzero" mask="url(#mask-2)"></path>
                <path d="M11.3291423,1.23217773 L4.11936442,1.23217773 C3.90307109,1.23217773 3.75887553,1.37637329 3.75887553,1.59266663 C3.75887553,1.80895996 3.90307109,1.95315552 4.11936442,1.95315552 L11.3291423,1.95315552 C11.5454356,1.95315552 11.6896311,2.09735107 11.6896311,2.31364441 L11.6896311,10.6048889 L11.2570445,10.6048889 L11.2570445,11.3258667 L12.4106089,11.3258667 L12.4106089,2.31364441 C12.4106089,1.70081329 11.9059245,1.23217773 11.3291423,1.23217773 Z" id="路径" fill="#6353E5" fill-rule="nonzero" mask="url(#mask-2)"></path>
                <path d="M10.8965556,10.9653778 C10.8965556,11.1644703 11.057952,11.3258667 11.2570445,11.3258667 C11.456137,11.3258667 11.6175334,11.1644703 11.6175334,10.9653778 C11.6175334,10.7662853 11.456137,10.6048889 11.2570445,10.6048889 C11.057952,10.6048889 10.8965556,10.7662853 10.8965556,10.9653778 Z" id="路径" fill="#6353E5" fill-rule="nonzero" mask="url(#mask-2)"></path>
            </g>
        </g>
    </g>
</svg>