<?xml version="1.0" standalone="no"?><!DOCTYPE svg PUBLIC "-//W3C//DTD SVG 1.1//EN" "http://www.w3.org/Graphics/SVG/1.1/DTD/svg11.dtd"><svg t="1585656485656" class="icon" viewBox="0 0 1024 1024" version="1.1" xmlns="http://www.w3.org/2000/svg" p-id="11661" xmlns:xlink="http://www.w3.org/1999/xlink" width="200" height="200"><defs><style type="text/css"></style></defs><path d="M527.8 861.4c-35 6.4-77.5 10.7-127.4 10.7-158.2 0-243.5-43-243.5-60.6V695.4C215.2 725.7 310 740 400.4 740c40 0 80.8-2.8 118.9-8.5v-57c-33.4 5.6-73 9.3-118.9 9.3-158.2 0-243.5-43-243.5-60.6v-143c58.3 30.3 153.1 44.6 243.5 44.6 40 0 80.8-2.8 118.9-8.5v-0.2c0.1-30.7 23.5-54.2 58.4-70.1-41 12.4-100.5 22.6-177.3 22.6-158.2 0-243.5-43-243.5-60.6V297.5c49.7 30.7 131.3 52.3 243.5 52.3s193.9-21.6 243.5-52.3v110.4c0 6.5-11.7 16.5-34.4 26.4 27.6-7.9 59.1-12.2 90.7-12.8l-0.2-213.8C690.4 145.2 588.1 85 400.5 85c-189.6 0-292 61.5-299.7 124.7h-0.8v608.1h0.4c8 75.8 159.2 110.5 300.1 110.5 64.2 0 130.5-7.2 184.4-22.2-25.9-11-46.3-25.9-57.1-44.7zM400.5 141.2c146.4 0 243.5 45.8 243.5 76.2s-97.1 76.2-243.5 76.2S157 247.7 157 217.4s97.1-76.2 243.5-76.2z" fill="#3468F7" p-id="11662"></path><path d="M897.1 515.9c-0.2-62.1-95.1-94.6-188.9-94.6s-188.6 32.5-188.8 94.6v314.4c0 64.3 95 97.9 188.9 97.9s188.9-33.6 188.9-97.9l-0.1-314.4z m-56.9 314.5c0 12.1-46.2 41.7-131.9 41.7s-131.9-29.6-131.9-41.7v-85.9c35.7 16.6 83.9 25.1 131.9 25.1s96.2-8.5 131.9-25.1v85.9z m0-155.4c0 9.5-46.8 38.3-131.9 38.3-85.1 0-131.9-28.8-131.9-38.3v-89.3c35.7 16.6 83.9 25.2 131.9 25.2s96.2-8.6 131.9-25.2V675z m-132-120.3c-85.1 0-131.9-28.9-131.9-38.5 0-9.6 46.8-38.5 131.9-38.5 85.1 0 131.9 28.9 131.9 38.5 0.1 9.5-46.7 38.5-131.9 38.5z" fill="#3468F7" p-id="11663"></path></svg>