<?xml version="1.0" encoding="UTF-8"?>
<svg width="34px" height="34px" viewBox="0 0 34 34" version="1.1" xmlns="http://www.w3.org/2000/svg" xmlns:xlink="http://www.w3.org/1999/xlink">
    <!-- Generator: Sketch 64 (93537) - https://sketch.com -->
    <title>默认</title>
    <desc>Created with Sketch.</desc>
    <defs>
        <rect id="path-1" x="0" y="0" width="34" height="34"></rect>
    </defs>
    <g id="城商行" stroke="none" stroke-width="1" fill="none" fill-rule="evenodd">
        <g id="3-0-0应用中心-服务申请" transform="translate(-1076.000000, -421.000000)">
            <g id="编组" transform="translate(448.000000, 122.000000)">
                <g id="编组-2备份-5" transform="translate(593.000000, 264.000000)">
                    <g id="默认图标" transform="translate(24.000000, 24.000000)">
                        <g id="默认" transform="translate(11.000000, 11.000000)">
                            <mask id="mask-2" fill="white">
                                <use xlink:href="#path-1"></use>
                            </mask>
                            <g id="矩形" opacity="0" fill-rule="nonzero"></g>
                            <path d="M34,26.2083333 C34,30.5114583 30.5121667,34 26.2083333,34 C21.9052083,34 18.4166666,30.5121667 18.4166666,26.2083333 L18.4166666,20.542375 C18.4164787,19.9785445 18.6403763,19.437753 19.0390646,19.0390646 C19.437753,18.6403763 19.9785445,18.4164787 20.542375,18.4166666 L26.2083333,18.4166666 C30.5114583,18.4166666 34,21.9045 34,26.2083333 L34,26.2083333 Z M31.1666667,26.2083333 C31.1666667,23.4755833 28.94675,21.25 26.2083333,21.25 L21.25,21.25 L21.25,26.2083333 C21.25,28.9410833 23.4699167,31.1666667 26.2083333,31.1666667 C28.9410833,31.1666667 31.1666667,28.94675 31.1666667,26.2083333 Z M-1.88737914e-15,26.2083333 C-1.88737914e-15,21.9045 3.48854168,18.4166666 7.79166668,18.4166666 L13.457625,18.4166666 C14.0214555,18.4164787 14.562247,18.6403763 14.9609354,19.0390646 C15.3596237,19.437753 15.5835213,19.9785445 15.5833334,20.542375 L15.5833334,26.2083333 C15.5833334,30.5121666 12.0947916,34 7.79166668,34 C3.48783336,34 -1.88737914e-15,30.5114583 -1.88737914e-15,26.2083333 Z M2.83333332,26.2083333 C2.83333332,28.94675 5.05891664,31.1666667 7.79166668,31.1666667 C10.5300834,31.1666667 12.75,28.9410834 12.75,26.2083333 L12.75,21.25 L7.79166668,21.25 C5.05325,21.25 2.83333332,23.4755833 2.83333332,26.2083333 Z M34,7.79166668 C34,12.0955 30.5114583,15.5833334 26.2083333,15.5833334 L20.542375,15.5833334 C19.9785445,15.5835213 19.437753,15.3596237 19.0390646,14.9609354 C18.6403763,14.562247 18.4164787,14.0214555 18.4166666,13.457625 L18.4166666,7.79166668 C18.4166666,3.48783336 21.9052084,0 26.2083333,0 C30.5121666,0 34,3.48854168 34,7.79166668 Z M31.1666667,7.79166668 C31.1666667,5.05325 28.9410834,2.83333332 26.2083333,2.83333332 C23.4699166,2.83333332 21.25,5.05891664 21.25,7.79166668 L21.25,12.75 L26.2083333,12.75 C28.94675,12.75 31.1666667,10.5244167 31.1666667,7.79166668 Z M-1.11022302e-16,7.79166668 C-1.11022302e-16,3.48854168 3.48783332,0 7.79166668,0 C12.0947917,0 15.5833334,3.48783332 15.5833334,7.79166668 L15.5833334,13.457625 C15.5835213,14.0214555 15.3596237,14.562247 14.9609354,14.9609354 C14.562247,15.3596237 14.0214555,15.5835213 13.457625,15.5833334 L7.79166668,15.5833334 C3.48854168,15.5833334 -1.11022302e-16,12.0955 -1.11022302e-16,7.79166668 Z M2.83333332,7.79166668 C2.83333332,10.5244167 5.05325,12.75 7.79166668,12.75 L12.75,12.75 L12.75,7.79166668 C12.75,5.05891668 10.5300833,2.83333332 7.79166668,2.83333332 C5.05891668,2.83333332 2.83333332,5.05325 2.83333332,7.79166668 Z" id="形状" fill="#306BFF" fill-rule="nonzero" mask="url(#mask-2)"></path>
                        </g>
                    </g>
                </g>
            </g>
        </g>
    </g>
</svg>