<?xml version="1.0" encoding="UTF-8"?>
<svg width="14px" height="14px" viewBox="0 0 14 14" version="1.1" xmlns="http://www.w3.org/2000/svg" xmlns:xlink="http://www.w3.org/1999/xlink">
    <!-- Generator: Sketch 64 (93537) - https://sketch.com -->
    <title>部署任务</title>
    <desc>Created with Sketch.</desc>
    <defs>
        <polygon id="path-1" points="0 0 14 0 14 14 0 14"></polygon>
    </defs>
    <g id="城商行" stroke="none" stroke-width="1" fill="none" fill-rule="evenodd">
        <g id="切图" transform="translate(-317.000000, -1738.000000)">
            <g id="部署任务" transform="translate(317.000000, 1738.000000)">
                <mask id="mask-2" fill="white">
                    <use xlink:href="#path-1"></use>
                </mask>
                <g id="Clip-2" opacity="0"></g>
                <g id="编组-13" mask="url(#mask-2)" fill="#306BFF">
                    <g transform="translate(1.000000, 1.000000)">
                        <path d="M10.233756,2.51249766 C10.233756,1.13369618 9.13074476,-1.16232949e-13 7.78255339,-1.16232949e-13 L2.45120263,-1.16232949e-13 C1.10302622,-1.16232949e-13 -1.16925728e-12,1.13369618 -1.16925728e-12,2.51249766 L-1.16925728e-12,9.77417049 C-1.16925728e-12,11.1223619 1.10302622,12.2559982 2.45120263,12.2559982 L6.21989675,12.2559982 C6.4650619,12.2559982 6.67954213,12.041518 6.67954213,11.7964127 C6.67954213,11.5513223 6.49568697,11.3368421 6.21989675,11.3368421 L2.14478734,11.3368421 C1.47073654,11.3368421 0.919215947,10.7852766 0.919215947,10.0805858 L0.919215947,2.17541241 C0.919215947,1.47073654 1.47073654,0.919215947 2.14478734,0.919215947 L8.08896868,0.919215947 C8.76303444,0.919215947 9.31459992,1.47073654 9.31459992,2.17541241 L9.31459992,4.90240526 C9.31459992,5.1474956 9.52908015,5.36197583 9.77417049,5.36197583 C10.0192758,5.36197583 10.233756,5.1474956 10.233756,4.90240526 L10.233756,2.51249766 Z" id="Fill-1"></path>
                        <path d="M8.08897018,3 L2.14478884,3 C1.96093368,3 1.83838851,3.15323009 1.83838851,3.30640033 L1.83838851,3.3370254 C1.83838851,3.52088056 1.99161859,3.64344069 2.14478884,3.64344069 L8.08897018,3.64344069 C8.27282533,3.64344069 8.39537051,3.49025549 8.39537051,3.3370254 L8.39537051,3.30640033 C8.39537051,3.15323009 8.27282533,3 8.08897018,3" id="Fill-5"></path>
                        <path d="M5.57645756,5.2367209 L2.14478884,5.2367209 C1.96093368,5.2367209 1.83838851,5.38995099 1.83838851,5.54310627 C1.83838851,5.72697639 1.99161859,5.84953652 2.14478884,5.84953652 L5.57645756,5.84953652 C5.76031272,5.84953652 5.88287285,5.69629148 5.88287285,5.54310627 C5.91355776,5.35925111 5.76031272,5.2367209 5.57645756,5.2367209" id="Fill-7"></path>
                        <path d="M4.53474282,8 L2.14479033,8 C1.96093517,8 1.83839,8.15317024 1.83839,8.30638537 L1.83839,8.33701044 C1.83839,8.5208656 1.99162009,8.64342573 2.14479033,8.64342573 L4.53474282,8.64342573 C4.71855309,8.64342573 4.84115811,8.49019564 4.84115811,8.33701044 L4.84115811,8.30638537 C4.84115811,8.15317024 4.71855309,8 4.53474282,8" id="Fill-9"></path>
                        <path d="M9.40896015,9.74936224 C9.72149447,9.74936224 9.99115069,9.47970601 9.99115069,9.19170765 C9.99115069,8.87915837 9.72149447,8.59116002 9.40896015,8.59116002 C9.18834593,8.54826696 8.98613368,8.67694612 8.87585649,8.86074144 C8.76551946,9.01398649 8.76551946,9.25907683 8.87585649,9.46128908 C8.98613368,9.61451916 9.18834593,9.74936224 9.40896015,9.74936224 M9.39060306,8.05799651 C9.99728469,8.05799651 10.4997633,8.56660909 10.4997633,9.19170765 C10.4997633,9.81059742 9.99728469,10.3253589 9.39060306,10.3253589 C8.78392143,10.3253589 8.28145781,9.81673141 8.28145781,9.19170765 C8.27530885,8.56660909 8.77778744,8.05799651 9.39060306,8.05799651 M10.5610733,10.5643751 C10.5610733,10.0557476 10.9287237,9.67578427 11.4312023,9.63287625 C11.4740954,9.430664 11.4312023,8.92205143 11.3883093,8.76882134 C10.8858307,8.74433026 10.5181652,8.34599487 10.5181652,7.83738229 C10.5181652,7.68421205 10.5365223,7.57387502 10.5855494,7.48193996 L10.0217758,7.16946548 C10.0217758,7.21235854 9.69701835,7.56774103 9.34771,7.56774103 C8.99840166,7.56774103 8.6735844,7.21235854 8.63069134,7.16946548 L8.02406956,7.52484797 C8.06697758,7.56774103 8.13434675,7.72712007 8.13434675,7.88027535 C8.13434675,8.38888792 7.76669628,8.76882134 7.26415785,8.81171439 C7.26415785,8.87915837 7.22126479,9.07522167 7.22126479,9.23460071 C7.22126479,9.39390494 7.26415785,9.61451916 7.26415785,9.65741222 C7.76669628,9.6819033 8.13434675,10.0802387 8.13434675,10.5888513 C8.13434675,10.7420813 8.11594478,10.9014005 8.06697758,10.9442936 L8.63069134,11.2568429 C8.6735844,11.1893989 8.99840166,10.8339566 9.34771,10.8339566 C9.69701835,10.8339566 10.0217758,11.1893989 10.0646688,11.232292 L10.6284574,10.9197427 C10.6100405,10.8094655 10.5610733,10.6807863 10.5610733,10.5643751 M11.5415394,8.1682737 C11.7804957,8.1682737 11.9949759,8.3705458 12.0440179,8.63405307 C12.0440179,8.76882134 12.086911,8.98945052 12.129804,9.19170765 C12.129804,9.39390494 12.129804,9.63287625 12.086911,9.74321328 C12.0440179,10.0557476 11.8479397,10.2518259 11.5844324,10.2518259 C11.3944433,10.2518259 11.2351241,10.4049961 11.2351241,10.5949853 L11.2351241,10.6072682 C11.2351241,10.6317443 11.2780321,10.6746523 11.2780321,10.7175454 C11.3883093,11.0055437 11.2963742,11.3180781 11.081894,11.4713231 L10.4262451,11.8267056 C10.3159081,11.9186257 10.230122,11.9186257 10.1627379,11.9186257 C9.99115069,11.9186257 9.82569751,11.8451225 9.70922649,11.7164134 C9.5989493,11.6306273 9.44577905,11.5142162 9.40282616,11.5142162 C9.31702509,11.5142162 9.16385485,11.6244933 9.09647071,11.7164134 C8.93097264,11.9186257 8.65524227,11.9799357 8.4223451,11.8695987 L7.76669628,11.5142162 C7.503189,11.3119441 7.44187901,11.0239457 7.54608206,10.7604534 C7.58897511,10.7359474 7.58897511,10.6930543 7.58897511,10.6501612 C7.59512406,10.4601721 7.44187901,10.3008529 7.25188986,10.2947189 L7.23968173,10.2947189 C6.97615949,10.2947189 6.76167926,10.0925216 6.71878621,9.82899939 C6.71878621,9.82899939 6.67589315,9.51646507 6.67589315,9.27749376 C6.67589315,9.03232861 6.74327729,8.72592829 6.74327729,8.72592829 C6.78617034,8.46246589 7.0252015,8.26020876 7.24581572,8.26020876 C7.39898596,8.26020876 7.59512406,8.10703852 7.59512406,7.90482627 C7.59512406,7.88027535 7.55221605,7.83738229 7.55221605,7.79448924 C7.44187901,7.50649088 7.52768008,7.1939416 7.7482943,7.04077136 L8.40400298,6.64243597 C8.51428016,6.55051587 8.60006627,6.55051587 8.66751025,6.55051587 C8.86358851,6.55051587 9.01675875,6.64243597 9.12709578,6.75271316 C9.23737297,6.83851423 9.39060306,6.95498525 9.43349611,6.95498525 C9.47640413,6.95498525 9.62957437,6.84464822 9.69701835,6.75271316 C9.86859056,6.56278386 10.1381869,6.50147387 10.3710691,6.59954292 L11.0267928,6.95498525 C11.2903001,7.1081555 11.3515502,7.4451809 11.247407,7.70870313 C11.204499,7.7332391 11.204499,7.77613215 11.204499,7.81904016 C11.198365,8.00896947 11.3515502,8.1682737 11.5415394,8.17440769 C11.5354054,8.1682737 11.5415394,8.1682737 11.5415394,8.1682737" id="Fill-11"></path>
                    </g>
                </g>
            </g>
        </g>
    </g>
</svg>