<?xml version="1.0" encoding="UTF-8"?>
<svg width="14px" height="14px" viewBox="0 0 14 14" version="1.1" xmlns="http://www.w3.org/2000/svg" xmlns:xlink="http://www.w3.org/1999/xlink">
    <!-- Generator: Sketch 64 (93537) - https://sketch.com -->
    <title>流程部署</title>
    <desc>Created with Sketch.</desc>
    <defs>
        <rect id="path-1" x="0" y="0" width="14" height="14"></rect>
    </defs>
    <g id="城商行" stroke="none" stroke-width="1" fill="none" fill-rule="evenodd">
        <g id="1-1-0应用中心-我的待办备份" transform="translate(-406.000000, -604.000000)">
            <g id="流程部署" transform="translate(406.000000, 604.000000)">
                <mask id="mask-2" fill="white">
                    <use xlink:href="#path-1"></use>
                </mask>
                <g id="矩形" opacity="0" fill-rule="nonzero"></g>
                <path d="M8.5841195,12.3061224 C8.53301887,12.3061224 8.47169811,12.3163265 8.42059748,12.3367347 C7.96069182,12.4591837 7.49056604,12.5204082 6.98977987,12.5204082 C5.55896226,12.5204082 4.25078616,11.9795918 3.26965409,11.0816327 L3.94418239,10.4081633 L1.48113208,10 L1.88993711,12.4693878 L2.58490566,11.7755102 C3.73977987,12.8469388 5.29323899,13.5 7,13.5 C7.58254717,13.5 8.15487421,13.4183673 8.69654088,13.2755102 C8.91116352,13.2244898 9.07468553,13.0306122 9.07468553,12.8061224 C9.07468553,12.5204082 8.86006289,12.3061224 8.5841195,12.3061224 L8.5841195,12.3061224 Z M1.66509434,8.5 C1.66509434,8.44897959 1.65487421,8.39795918 1.64465409,8.34693878 C1.5322327,7.90816327 1.47091195,7.45918367 1.47091195,6.98979592 C1.47091195,5.59183673 1.99213836,4.30612245 2.86084906,3.33673469 L3.51493711,3.98979592 L3.92374214,1.53061224 L1.4504717,1.93877551 L2.1658805,2.65306122 C1.1336478,3.79591837 0.5,5.31632653 0.5,6.98979592 C0.5,7.55102041 0.571540881,8.09183673 0.704402516,8.6122449 C0.755503145,8.82653061 0.949685535,8.97959184 1.1745283,8.97959184 C1.44025157,8.97959184 1.66509434,8.76530612 1.66509434,8.5 Z M13.5,6.98979592 C13.5,6.40816327 13.418239,5.83673469 13.2751572,5.29591837 C13.2138365,5.09183673 13.0298742,4.93877551 12.8050314,4.93877551 C12.5393082,4.93877551 12.3144654,5.15306122 12.3144654,5.42857143 C12.3144654,5.48979592 12.3246855,5.54081633 12.3451258,5.59183673 C12.4677673,6.05102041 12.5290881,6.52040816 12.5290881,6.98979592 C12.5290881,8.40816327 11.9874214,9.70408163 11.1084906,10.6836735 L10.4441824,10.0306122 L10.0353774,12.4897959 L12.5086478,12.0816327 L11.793239,11.377551 C12.8561321,10.2142857 13.5,8.67346939 13.5,6.98979592 Z M12.4575472,3.93877551 L12.0487421,1.46938776 L11.3537736,2.16326531 C10.1988994,1.13265306 8.67610063,0.5 7,0.5 C6.43789308,0.5 5.88600629,0.571428571 5.36477987,0.704081633 C5.34433962,0.704081633 5.32389937,0.714285714 5.31367925,0.714285714 C5.11949686,0.775510204 4.97641509,0.959183673 4.97641509,1.17346939 C4.97641509,1.43877551 5.19103774,1.66326531 5.46698113,1.66326531 C5.50786164,1.66326531 5.54874214,1.65306122 5.58962264,1.64285714 C6.03930818,1.52040816 6.51965409,1.45918367 7,1.45918367 C8.41037736,1.45918367 9.68789308,1.97959184 10.6690252,2.84693878 L9.99449686,3.52040816 L12.4575472,3.93877551 Z M9.42216981,7.28571429 C8.99292453,6.85714286 8.3490566,6.75510204 7.82783019,6.97959184 L7.2759434,6.42857143 L6.94889937,6.10204082 C7.16352201,5.58163265 7.07154088,4.94897959 6.6422956,4.51020408 C6.21305031,4.07142857 5.56918239,3.97959184 5.04795597,4.20408163 L5.74292453,4.89795918 C5.88600629,5.04081633 5.88600629,5.26530612 5.74292453,5.40816327 L5.47720126,5.64285714 C5.3341195,5.78571429 5.10927673,5.78571429 4.96619497,5.64285714 L4.27122642,4.94897959 C4.05660377,5.46938776 4.14858491,6.10204082 4.57783019,6.54081633 C5.00707547,6.96938776 5.6509434,7.07142857 6.17216981,6.84693878 L6.67295597,7.34693878 L7.05110063,7.7244898 C6.83647799,8.24489796 6.92845912,8.87755102 7.3577044,9.31632653 C7.78694969,9.74489796 8.43081761,9.84693878 8.95204403,9.62244898 L8.25707547,8.92857143 C8.11399371,8.78571429 8.11399371,8.56122449 8.25707547,8.41836735 L8.51257862,8.16326531 C8.65566038,8.02040816 8.88050314,8.02040816 9.02358491,8.16326531 L9.71855346,8.85714286 C9.95361635,8.35714286 9.86163522,7.7244898 9.42216981,7.28571429 L9.42216981,7.28571429 Z" id="形状" fill="#306BFF" fill-rule="nonzero" mask="url(#mask-2)"></path>
            </g>
        </g>
    </g>
</svg>