<?xml version="1.0" encoding="UTF-8"?>
<svg width="14px" height="14px" viewBox="0 0 14 14" version="1.1" xmlns="http://www.w3.org/2000/svg" xmlns:xlink="http://www.w3.org/1999/xlink">
    <!-- Generator: Sketch 64 (93537) - https://sketch.com -->
    <title>下架</title>
    <desc>Created with Sketch.</desc>
    <defs>
        <rect id="path-1" x="0" y="0" width="14" height="14"></rect>
    </defs>
    <g id="城商行" stroke="none" stroke-width="1" fill="none" fill-rule="evenodd">
        <g id="8-0-0应用中心-模板管理" transform="translate(-423.000000, -338.000000)">
            <g id="oracle11g" transform="translate(264.000000, 194.000000)">
                <g id="编组-2" transform="translate(0.000000, 131.000000)">
                    <g id="下架" transform="translate(159.000000, 10.000000)">
                        <g transform="translate(0.000000, 3.000000)">
                            <mask id="mask-2" fill="white">
                                <use xlink:href="#path-1"></use>
                            </mask>
                            <g id="矩形" opacity="0" fill-rule="nonzero"></g>
                            <path d="M12.5333439,2 L1.46665613,2 C1.20898923,2 1,2.20680153 1,2.4614625 L1,5.15286986 C1,5.40806429 1.20911062,5.6143476 1.46665613,5.6143476 C1.72420163,5.6143476 1.93331226,5.40806429 1.93331226,5.15286986 L1.93331226,2.92292501 L12.0666877,2.92292501 L12.0666877,5.15286986 C12.0666877,5.40806429 12.2757984,5.6143476 12.5333439,5.6143476 C12.7908894,5.6143476 13,5.40806429 13,5.15286986 L13,2.4614625 C13,2.20628331 12.7908894,2 12.5333439,2 Z M9.0129534,9.44485525 L7.48840782,11.2723845 L7.48840782,4.6924438 C7.48840782,4.43726461 7.2792972,4.22994485 7.02175169,4.22994485 C6.7640848,4.22994485 6.55509556,4.43712743 6.55509556,4.6924438 L6.55509556,11.2899432 L5.01592241,9.44485525 C4.83297148,9.26263883 4.53618644,9.26263883 4.3532355,9.44485525 C4.1702694,9.62629433 4.1702694,9.92114808 4.3532355,10.1029834 L6.65958259,12.8677499 C6.75708966,12.9646424 6.88643143,13.0062679 7.01424064,12.9992414 C7.14217125,13.0061307 7.27178615,12.9646424 7.36941461,12.8677499 L9.67577687,10.1029834 C9.8587278,9.92114808 9.8587278,9.62615715 9.67577687,9.44484 C9.49268937,9.26250165 9.19590433,9.26250165 9.0129534,9.44484 L9.0129534,9.44485525 Z" id="形状" fill="#000000" fill-rule="nonzero" mask="url(#mask-2)"></path>
                        </g>
                    </g>
                </g>
            </g>
        </g>
    </g>
</svg>