<?xml version="1.0" encoding="UTF-8"?>
<svg width="160px" height="122px" viewBox="0 0 160 122" version="1.1" xmlns="http://www.w3.org/2000/svg" xmlns:xlink="http://www.w3.org/1999/xlink">
    <!-- Generator: Sketch 64 (93537) - https://sketch.com -->
    <title>ico_kzt</title>
    <desc>Created with Sketch.</desc>
    <defs>
        <polygon id="path-1" points="0.00948616601 0.0369960474 153.478893 0.0369960474 153.478893 25.2116996 0.00948616601 25.2116996"></polygon>
    </defs>
    <g id="蓝紫新风格" stroke="none" stroke-width="1" fill="none" fill-rule="evenodd">
        <g id="4-0-0应用中心-应用系统" transform="translate(-643.000000, -466.000000)">
            <g id="2" transform="translate(112.000000, 292.000000)">
                <g id="ico_kzt" transform="translate(531.000000, 174.000000)">
                    <g id="编组" transform="translate(0.000000, 45.691700)">
                        <mask id="mask-2" fill="white">
                            <use xlink:href="#path-1"></use>
                        </mask>
                        <g id="Clip-2"></g>
                        <path d="M148.297866,22.621502 C148.297866,24.078419 149.431146,25.2116996 150.888063,25.2116996 C152.345613,25.2116996 153.478893,24.078419 153.478893,22.621502 C153.478893,21.1639526 152.345613,20.0306719 150.888063,20.0306719 C150.402688,20.0306719 149.99747,20.1116206 149.593043,20.3549407 C148.783399,20.7595257 148.297866,21.6501186 148.297866,22.621502" id="Fill-1" fill="#7D67FE" mask="url(#mask-2)"></path>
                        <path d="M1.9429249,1.97928854 L0,1.97928854 C0,3.03162055 0.890592885,3.92221344 1.9429249,3.92221344 C2.99525692,3.92221344 3.88521739,3.03162055 3.88521739,1.97928854 C3.88521739,0.926798419 2.99525692,0.0369960474 1.9429249,0.0369960474 C1.61865613,0.0369960474 1.29501976,0.117786561 0.971541502,0.279683794 C0.323636364,0.603320158 0,1.25106719 0,1.97928854" id="Fill-3" fill="#7D67FE" mask="url(#mask-2)"></path>
                    </g>
                    <path d="M137.774862,45.9713834 C137.774862,43.7048221 135.993676,41.9236364 133.727115,41.9236364 C131.460553,41.9236364 129.679526,43.7048221 129.679526,45.9713834 C129.679526,48.2379447 131.460553,50.0183399 133.727115,50.0183399 C135.912727,49.9375494 137.693281,48.156996 137.774862,45.9713834 Z M127.332016,45.9713834 C127.332016,42.4905929 130.246482,39.5761265 133.727115,39.5761265 C137.207905,39.5761265 140.122213,42.4905929 140.122213,45.9713834 C140.122213,49.4520158 137.207905,52.3664822 133.727115,52.3664822 C130.246482,52.3664822 127.332016,49.3712253 127.332016,45.9713834 Z" id="Fill-4" fill="#7D67FE" opacity="0.649999976"></path>
                    <path d="M138.098498,4.12110672 C138.098498,1.85454545 136.317312,0.0733596838 134.050751,0.0733596838 C131.78419,0.0733596838 130.003636,1.85454545 130.003636,4.12110672 C130.003636,6.38750988 131.78419,8.16806324 134.050751,8.16806324 C136.236364,8.16806324 138.017549,6.38750988 138.098498,4.12110672 Z M132.270198,4.12110672 C132.270198,3.14956522 133.079368,2.42086957 133.969802,2.42086957 C134.860395,2.42086957 135.67004,3.23051383 135.67004,4.12110672 C135.67004,5.01090909 134.860395,5.82071146 133.969802,5.82071146 C133.079368,5.82071146 132.270198,5.09185771 132.270198,4.12110672 Z M154.126166,33.5052964 L152.183241,33.5052964 C151.45502,33.5052964 150.888063,34.0716206 150.888063,34.8003162 C150.888063,35.52917 151.45502,36.0954941 152.183241,36.0954941 L154.126166,36.0954941 L154.126166,38.038419 C154.126166,38.7664822 154.693123,39.3334387 155.421186,39.3334387 C156.149881,39.3334387 156.716206,38.7664822 156.716206,38.038419 L156.716206,36.0954941 L158.659289,36.0954941 C159.387984,36.0954941 159.954308,35.52917 159.954308,34.8003162 C159.954308,34.0716206 159.387984,33.5052964 158.659289,33.5052964 L156.716206,33.5052964 L156.716206,31.5623715 C156.716206,30.8336759 156.149881,30.2673518 155.421186,30.2673518 C154.693123,30.2673518 154.126166,30.8336759 154.126166,31.5623715 L154.126166,33.5052964 Z" id="Fill-5" fill="#7D67FE"></path>
                    <path d="M13.518419,88.4694071 L10.2803162,88.4694071 C9.71399209,88.4694071 9.22798419,88.9549407 9.22798419,89.5218972 C9.22798419,90.1690119 9.63320158,90.5735968 10.2803162,90.5735968 L13.518419,90.5735968 L13.518419,93.8116996 C13.518419,94.378498 14.0037945,94.8640316 14.570751,94.8640316 C15.2186561,94.8640316 15.623083,94.4594466 15.623083,93.8116996 L15.623083,90.5735968 L18.8611858,90.5735968 C19.4275099,90.5735968 19.9135178,90.0882213 19.9135178,89.5218972 C19.9135178,88.8739921 19.5084585,88.4694071 18.8611858,88.4694071 L15.623083,88.4694071 L15.623083,85.2314625 C15.623083,84.6645059 15.1370751,84.1791304 14.570751,84.1791304 C13.9228458,84.1791304 13.518419,84.5835573 13.518419,85.2314625 L13.518419,88.4694071 Z" id="Fill-6" fill="#7D67FE" opacity="0.649999976"></path>
                    <path d="M51.8071146,116.801423 C51.8071146,119.55336 62.9780237,121.738972 76.6581818,121.738972 C90.338498,121.738972 101.509407,119.55336 101.509407,116.801423 C101.509407,114.048854 90.338498,111.863083 76.6581818,111.863083 C62.9780237,111.863083 51.8071146,114.129644 51.8071146,116.801423 Z" id="Fill-7" fill="#7D67FE" opacity="0.449999988"></path>
                    <path d="M35.3742292,26.3005534 L26.1462451,26.3005534 C25.4181818,26.3005534 24.8512253,25.7342292 24.8512253,25.0053755 C24.8512253,24.2773123 25.4181818,23.7103557 26.1462451,23.7103557 L35.3742292,23.7103557 C36.103083,23.7103557 36.6700395,24.2773123 36.6700395,25.0053755 C36.6700395,25.7342292 36.103083,26.3005534 35.3742292,26.3005534 Z M47.3549407,11.1634783 C46.626087,11.1634783 46.0597628,10.5965217 46.0597628,9.8683004 L46.0597628,1.36837945 C46.0597628,0.640316206 46.626087,0.0733596838 47.3549407,0.0733596838 C48.0836364,0.0733596838 48.6499605,0.640316206 48.6499605,1.36837945 L48.6499605,9.8683004 C48.5690119,10.6773123 48.0026877,11.1634783 47.3549407,11.1634783 Z M40.3933597,17.2343083 C40.0697233,17.2343083 39.7456126,17.0725692 39.5027668,16.8297233 L32.2177075,9.46324111 C31.7316996,8.97770751 31.7316996,8.16806324 32.2177075,7.68268775 C32.7032411,7.19667984 33.5128854,7.19667984 33.9982609,7.68268775 L41.3649012,15.0486957 C41.8502767,15.5347036 41.8502767,16.3437154 41.3649012,16.8297233 C41.0412648,17.0725692 40.716996,17.2343083 40.3933597,17.2343083 Z" id="Fill-8" fill="#7D67FE"></path>
                    <path d="M108.876047,96.4023715 C108.876047,100.044901 105.880632,103.040316 102.238103,103.040316 L49.8641897,103.040316 C46.2216601,103.040316 43.2262451,100.044901 43.2262451,96.4023715 L43.2262451,34.8003162 C43.2262451,31.1577866 46.2216601,28.1625296 49.8641897,28.1625296 L102.238103,28.1625296 C105.880632,28.1625296 108.876047,31.1577866 108.876047,34.8003162 L108.876047,96.4023715 Z" id="Fill-9" fill="#7D67FE" opacity="0.25"></path>
                    <path d="M102.157312,104.335336 L49.7832411,104.335336 C45.4118577,104.335336 41.8502767,100.773755 41.8502767,96.4023715 L41.8502767,34.8003162 C41.8502767,30.4290909 45.4118577,26.8675099 49.7832411,26.8675099 L102.157312,26.8675099 C106.528538,26.8675099 110.090119,30.4290909 110.090119,34.8003162 L110.090119,96.4023715 C110.090119,100.692174 106.528538,104.335336 102.157312,104.335336 Z M49.7832411,29.3767589 C46.7886166,29.3767589 44.4411067,31.8050593 44.4411067,34.7195257 L44.4411067,96.321581 C44.4411067,99.3162055 46.8694071,101.663715 49.7832411,101.663715 L102.157312,101.663715 C105.152569,101.663715 107.500079,99.2352569 107.500079,96.321581 L107.500079,34.8003162 C107.500079,31.8050593 105.070988,29.4575494 102.157312,29.4575494 C102.157312,29.3767589 49.7832411,29.3767589 49.7832411,29.3767589 Z" id="Fill-10" fill="#7D67FE"></path>
                    <path d="M118.18498,87.6597628 C118.18498,91.3022925 115.189565,94.2977075 111.547036,94.2977075 L59.0928063,94.2977075 C55.4496443,94.2977075 52.4548617,91.3022925 52.4548617,87.6597628 L52.4548617,26.1386561 C52.4548617,22.4961265 55.4496443,19.5008696 59.0928063,19.5008696 L111.466087,19.5008696 C115.108617,19.5008696 118.104032,22.4961265 118.104032,26.1386561 L118.104032,87.6597628 L118.18498,87.6597628 Z" id="Fill-11" fill="#FFFFFF"></path>
                    <path d="M111.466087,19.4199209 L59.0928063,19.4199209 C55.4496443,19.4199209 52.4548617,22.4151779 52.4548617,26.0578656 L52.4548617,32.1293281 C52.4548617,28.486166 55.4496443,25.4915415 59.0928063,25.4915415 L111.466087,25.4915415 C115.108617,25.4915415 118.104032,28.486166 118.104032,32.1293281 L118.104032,26.0578656 C118.18498,22.4151779 115.189565,19.4199209 111.466087,19.4199209 Z" id="Fill-12" fill="#7D67FE" opacity="0.05"></path>
                    <path d="M111.466087,95.6736759 L59.0928063,95.6736759 C54.7214229,95.6736759 51.1598419,92.1120949 51.1598419,87.7407115 L51.1598419,26.1386561 C51.1598419,21.7674308 54.7214229,18.2056917 59.0928063,18.2056917 L111.466087,18.2056917 C115.83747,18.2056917 119.399051,21.7674308 119.399051,26.1386561 L119.399051,87.7407115 C119.399051,92.0311462 115.83747,95.6736759 111.466087,95.6736759 Z M59.0928063,20.7150988 C56.0973913,20.7150988 53.7500395,23.1440316 53.7500395,26.0578656 L53.7500395,87.6597628 C53.7500395,90.6551779 56.1783399,93.0025296 59.0928063,93.0025296 L111.466087,93.0025296 C114.461502,93.0025296 116.808854,90.5735968 116.808854,87.6597628 L116.808854,26.1386561 C116.808854,23.1440316 114.380553,20.7958893 111.466087,20.7958893 L59.0928063,20.7150988 Z" id="Fill-13" fill="#7D67FE"></path>
                    <path d="M106.28585,35.2049012 L62.3301186,35.2049012 C61.6020553,35.2049012 61.0350988,34.6385771 61.0350988,33.9906719 C61.0350988,33.3435573 61.6020553,32.6956522 62.3301186,32.6956522 L106.28585,32.6956522 C107.013913,32.6956522 107.58087,33.2626087 107.58087,33.9906719 C107.58087,34.7195257 106.933123,35.2049012 106.28585,35.2049012 Z M90.9054545,82.9649012 L62.4926482,82.9649012 C61.7637945,82.9649012 61.1968379,82.3979447 61.1968379,81.6698814 C61.1968379,80.9410277 61.7637945,80.3740711 62.4926482,80.3740711 L90.9862451,80.3740711 C91.7150988,80.3740711 92.2814229,80.9410277 92.2814229,81.6698814 C92.1195257,82.3979447 91.6341502,82.9649012 90.9054545,82.9649012 Z" id="Fill-14" fill="#7D67FE" opacity="0.1"></path>
                    <path d="M63.4633992,55.118419 C63.4633992,56.4135968 64.5157312,57.4659289 65.8115415,57.4659289 C67.1065613,57.4659289 68.1588933,56.4135968 68.1588933,55.118419 C68.1588933,53.8233992 67.1065613,52.7709091 65.8115415,52.7709091 C64.5157312,52.7709091 63.4633992,53.8233992 63.4633992,55.118419 Z M102.480791,54.8757312 C102.480791,56.170751 103.533281,57.2232411 104.8283,57.2232411 C106.12332,57.2232411 107.17581,56.170751 107.17581,54.8757312 C107.17581,53.5807115 106.12332,52.5282213 104.8283,52.5282213 C103.614071,52.5282213 102.480791,53.5807115 102.480791,54.8757312 Z M94.6287747,68.0698814 L75.6867984,68.0698814 C74.9585771,68.0698814 74.3916206,67.5035573 74.3916206,66.7748617 C74.3916206,66.0466403 74.9585771,65.4796838 75.6867984,65.4796838 L94.6287747,65.4796838 C95.3576285,65.4796838 95.9239526,66.0466403 95.9239526,66.7748617 C95.9239526,67.5035573 95.3576285,68.0698814 94.6287747,68.0698814 Z" id="Fill-15" fill="#7D67FE"></path>
                </g>
            </g>
        </g>
    </g>
</svg>