<?xml version="1.0" encoding="UTF-8"?>
<svg width="14px" height="14px" viewBox="0 0 14 14" version="1.1" xmlns="http://www.w3.org/2000/svg" xmlns:xlink="http://www.w3.org/1999/xlink">
    <!-- Generator: Sketch 64 (93537) - https://sketch.com -->
    <title>导出</title>
    <desc>Created with Sketch.</desc>
    <defs>
        <rect id="path-1" x="0" y="0" width="14" height="14"></rect>
    </defs>
    <g id="城商行" stroke="none" stroke-width="1" fill="none" fill-rule="evenodd">
        <g id="8-0-0应用中心-模板管理" transform="translate(-303.000000, -338.000000)">
            <g id="oracle11g" transform="translate(264.000000, 194.000000)">
                <g id="编组-2" transform="translate(0.000000, 131.000000)">
                    <g id="导出" transform="translate(39.000000, 10.000000)">
                        <g transform="translate(0.000000, 3.000000)">
                            <mask id="mask-2" fill="white">
                                <use xlink:href="#path-1"></use>
                            </mask>
                            <g id="矩形" opacity="0" fill-rule="nonzero"></g>
                            <path d="M11.8148148,7.53198532 C12.0602747,7.53198532 12.2592593,7.73599477 12.2592593,7.9876532 L12.2592593,11.3899735 C12.2592593,12.2776145 11.554963,13 10.6888889,13 L2.57037036,13 C1.7034849,12.9989955 1.00097972,12.2787502 1,11.3899735 L1,3.06674375 C1.00097972,2.17796704 1.7034849,1.45772167 2.57037036,1.45671721 L7.07407408,1.45671721 C7.31953397,1.45671721 7.51851852,1.66072667 7.51851852,1.9123851 C7.51851852,2.16404353 7.31953397,2.36805299 7.07407408,2.36805299 L2.57037036,2.36805299 C2.19420156,2.36855506 1.88937858,2.68107565 1.88888888,3.06674375 L1.88888888,11.3902772 C1.88888888,11.7754685 2.19466666,12.088968 2.57037036,12.088968 L10.6888889,12.088968 C11.0645926,12.088968 11.3703704,11.7754685 11.3703704,11.3902772 L11.3703704,7.98795698 C11.3703704,7.73629855 11.5693549,7.53228909 11.8148148,7.53228909 L11.8148148,7.53198532 Z M12.8447407,3.69526167 C12.938963,3.77880078 13,3.90091977 13,4.03853148 C13,4.17644696 12.9392593,4.29826218 12.8447407,4.38240884 L10.3511111,6.93840193 C10.267813,7.02398574 10.1546676,7.07198309 10.0367407,7.07176074 C9.85710125,7.07159875 9.69522029,6.96058079 9.62649661,6.7904153 C9.55777292,6.62024981 9.5957213,6.42440055 9.72266667,6.29408754 L11.4382222,4.53429815 C7.57777778,4.79676285 6.03703703,6.51402324 6.03703703,10.417882 C6.03703704,10.5806764 5.95232641,10.7311047 5.81481481,10.8125019 C5.67730322,10.8938992 5.50788195,10.8938992 5.37037036,10.8125019 C5.23285876,10.7311047 5.14814814,10.5806764 5.14814814,10.417882 C5.14814814,5.9626651 7.06518517,3.88390818 11.509037,3.61415278 L9.72296296,1.78358297 C9.60737526,1.66923199 9.56096225,1.4998361 9.60156266,1.34050229 C9.64216308,1.18116848 9.76345861,1.05669258 9.91882956,1.01491667 C10.0742005,0.973140753 10.2394677,1.02056607 10.3511111,1.1389648 L12.8447407,3.69526167 L12.8447407,3.69526167 Z" id="形状" fill="#394158" fill-rule="nonzero" mask="url(#mask-2)"></path>
                        </g>
                    </g>
                </g>
            </g>
        </g>
    </g>
</svg>