<?xml version="1.0" encoding="UTF-8"?>
<svg width="280px" height="171px" viewBox="0 0 280 171" version="1.1" xmlns="http://www.w3.org/2000/svg" xmlns:xlink="http://www.w3.org/1999/xlink">
    <!-- Generator: Sketch 64 (93537) - https://sketch.com -->
    <title>编组</title>
    <desc>Created with Sketch.</desc>
    <defs>
        <polygon id="path-1" points="0 170.304776 279.808284 170.304776 279.808284 0 0 0"></polygon>
    </defs>
    <g id="蓝紫新风格" stroke="none" stroke-width="1" fill="none" fill-rule="evenodd">
        <g id="3-1-2应用中心-服务申请-蓝图定义-模板导入" transform="translate(-894.000000, -242.000000)">
            <g id="编组" transform="translate(894.000000, 242.000000)">
                <path d="M279.808272,165.446201 C279.064847,172.204858 240.047683,171.637545 240.106646,165.445679 C240.850071,158.687545 279.867235,159.254858 279.808272,165.446201" id="Fill-1" fill="#E6E6E6"></path>
                <polygon id="Fill-3" fill="#FFB8B8" points="253.005336 148.102317 251.423806 151.529183 248.52403 151.265377 246.678955 145.20228 249.57847 143.621011"></polygon>
                <polygon id="Fill-5" fill="#FFB8B8" points="262.960172 155.994765 263.022597 158.382862 258.541291 158.646668 258.541291 155.746892"></polygon>
                <polygon id="Fill-7" fill="#2F2E41" points="261.440832 112.515127 260.386392 133.60341 263.022623 156.537813 255.11419 157.592254 250.105795 128.595015 248.524004 108.824455"></polygon>
                <path d="M273.830466,104.870369 C273.830466,104.870369 276.993787,125.695369 270.403601,132.549362 C263.813414,139.403093 254.850541,151.529026 254.850541,151.529026 L248.52416,143.620593 L264.60431,126.486265 L261.440989,114.887683 L248.52416,108.824586 L250.63278,94.3259664 L269.612705,94.0624216 L273.830466,104.870369 Z" id="Fill-9" fill="#2F2E41"></path>
                <path d="M258.277537,45.0311828 C261.48056,45.0311828 264.07709,47.6277127 264.07709,50.8304739 C264.07709,54.0334963 261.48056,56.6300261 258.277537,56.6300261 C255.074776,56.6300261 252.478246,54.0334963 252.478246,50.8304739 C252.478246,47.6277127 255.074776,45.0311828 258.277537,45.0311828" id="Fill-11" fill="#FFB8B8"></path>
                <path d="M263.286142,52.1487201 C263.286142,52.1487201 263.549687,60.3204366 264.867933,61.3748769 C266.185918,62.4293172 260.122821,66.9108843 260.122821,66.9108843 L256.168604,60.5842425 L256.168604,54.7846903 L263.286142,52.1487201 Z" id="Fill-13" fill="#FFB8B8"></path>
                <polygon id="Fill-15" fill="#D0CDE1" points="260.650224 63.2201343 263.850634 58.3875224 265.658619 60.847709 268.294851 68.228791 266.18597 96.9622239 253.796231 97.2257687 252.214701 64.2745746 256.168657 59.5297239"></polygon>
                <path d="M247.206019,65.0655746 L245.097138,64.8017687 C245.097138,64.8017687 244.570049,65.0655746 244.306243,66.9106493 C244.042698,68.7559851 240.879377,85.0996791 240.879377,85.0996791 L245.097138,105.133784 L249.841989,98.807403 L246.942474,87.7359104 L249.84225,76.6641567 L247.206019,65.0655746 Z" id="Fill-17" fill="#2F2E41"></path>
                <polygon id="Fill-19" fill="#2F2E41" points="274.09409 64.8020821 275.675619 64.8020821 279.629836 86.1539104 275.939425 102.76141 272.248754 96.6983134 273.303194 90.1083881 272.776104 84.309097 270.930769 80.8819701"></polygon>
                <path d="M250.63291,150.474743 C250.63291,150.474743 252.214701,149.947392 252.214701,151.002093 C252.214701,152.056272 251.160261,155.219593 251.160261,155.219593 C251.160261,155.219593 252.741791,164.973101 250.369366,164.44575 C247.99694,163.91866 246.151604,159.437093 245.88806,158.119369 C245.624515,156.801384 244.306269,149.947392 244.306269,149.947392 C244.306269,149.947392 242.197388,144.938996 243.515373,144.67519 C244.833619,144.411646 248.52403,143.357205 248.52403,143.357205 C248.52403,143.357205 246.415149,149.947392 250.63291,150.474743" id="Fill-21" fill="#2F2E41"></path>
                <path d="M258.277537,158.646485 C258.277537,158.646485 262.495299,156.010254 263.286194,158.119134 C263.810672,159.657306 264.164328,161.248761 264.340634,162.863985 C264.340634,162.863985 265.395075,166.291373 261.177313,165.764022 C256.959552,165.236672 257.486903,165.236672 257.223097,163.655142 C256.959552,162.073351 258.277537,158.646485 258.277537,158.646485" id="Fill-23" fill="#2F2E41"></path>
                <path d="M261.704586,50.8305 L260.650146,50.5669552 C260.650146,50.5669552 259.85925,46.0856493 258.013914,46.613 C256.16884,47.1400896 251.423728,47.6674403 251.423728,45.5582985 C251.423728,43.4494179 255.905034,41.6043433 258.541265,41.8681493 C261.177235,42.1314328 265.658541,42.9223284 265.394996,46.8762836 C265.131451,50.8305 263.430295,54.6771045 263.430295,54.6771045 L263.293168,52.3326269 L261.704586,50.8305 Z" id="Fill-25" fill="#2F2E41"></path>
                <polygon id="Fill-27" fill="#D0CDE1" points="256.168604 66.3835336 260.650172 63.2202127 256.168604 59.5298022 254.612933 61.3968172"></polygon>
                <polygon id="Fill-29" fill="#D0CDE1" points="264.604101 66.120041 260.650146 63.2200037 263.813205 58.475153 265.658541 60.8475784"></polygon>
                <path d="M245.360813,64.8018209 L253.796336,61.3749552 L255.773313,59.9250672 L261.704507,86.1541716 L265.658724,74.2917836 L264.472381,59.1344328 L275.412231,64.8018209 L271.72156,82.727306 L271.19447,89.5810373 L272.776,95.1167836 C272.776,95.1167836 278.311746,99.071 276.466672,103.288761 C274.621336,107.506522 272.512455,107.770067 272.512455,107.770067 C272.512455,107.770067 263.549843,99.3345448 263.022493,97.2256642 C262.495403,95.1167836 261.704507,91.4263731 261.704507,91.4263731 C261.704507,91.4263731 257.223201,108.297157 251.951,108.033612 C246.678799,107.770067 246.678799,102.23406 246.678799,102.23406 L247.996784,96.4347687 L250.105925,90.3716716 L249.051224,80.3548806 L245.360813,64.8018209 Z" id="Fill-31" fill="#2F2E41"></path>
                <mask id="mask-2" fill="white">
                    <use xlink:href="#path-1"></use>
                </mask>
                <g id="Clip-34"></g>
                <polygon id="Fill-33" fill="#E6E6E6" mask="url(#mask-2)" points="47.9789925 117.798507 231.748582 117.798507 231.748582 0.104216418 47.9789925 0.104216418"></polygon>
                <polygon id="Fill-35" fill="#FFFFFF" mask="url(#mask-2)" points="53.233694 59.7319403 226.493881 59.7319403 226.493881 14.8661194 53.233694 14.8661194"></polygon>
                <polygon id="Fill-36" fill="#E6E6E6" mask="url(#mask-2)" points="96.3304478 23.45 132.971007 23.45 132.971007 21.3466045 96.3304478 21.3466045"></polygon>
                <polygon id="Fill-37" fill="#6353E5" mask="url(#mask-2)" points="96.3304478 31.1223134 152.911604 31.1223134 152.911604 29.0189179 96.3304478 29.0189179"></polygon>
                <polygon id="Fill-38" fill="#E6E6E6" mask="url(#mask-2)" points="96.3304478 38.350597 142.442687 38.350597 142.442687 36.2472015 96.3304478 36.2472015"></polygon>
                <polygon id="Fill-39" fill="#E6E6E6" mask="url(#mask-2)" points="96.3304478 45.5519776 123.249888 45.5519776 123.249888 43.4485821 96.3304478 43.4485821"></polygon>
                <polygon id="Fill-40" fill="#E6E6E6" mask="url(#mask-2)" points="96.3304478 52.753097 136.959179 52.753097 136.959179 50.6497015 96.3304478 50.6497015"></polygon>
                <polygon id="Fill-41" fill="#E6E6E6" mask="url(#mask-2)" points="79.6302239 25.085597 84.1170149 25.085597 84.1170149 20.598806 79.6302239 20.598806"></polygon>
                <polygon id="Fill-42" fill="#6353E5" mask="url(#mask-2)" points="79.6302239 32.3138806 84.1170149 32.3138806 84.1170149 27.8273507 79.6302239 27.8273507"></polygon>
                <polygon id="Fill-43" fill="#E6E6E6" mask="url(#mask-2)" points="79.6302239 39.5424254 84.1170149 39.5424254 84.1170149 35.0558955 79.6302239 35.0558955"></polygon>
                <polygon id="Fill-44" fill="#E6E6E6" mask="url(#mask-2)" points="79.6302239 46.770709 84.1170149 46.770709 84.1170149 42.2839179 79.6302239 42.2839179"></polygon>
                <polygon id="Fill-45" fill="#E6E6E6" mask="url(#mask-2)" points="79.6302239 53.9992537 84.1170149 53.9992537 84.1170149 49.5124627 79.6302239 49.5124627"></polygon>
                <polygon id="Fill-46" fill="#E6E6E6" mask="url(#mask-2)" points="187.30903 45.7737313 202.264216 45.7737313 202.264216 30.8182836 187.30903 30.8182836"></polygon>
                <polygon id="Fill-47" fill="#FFFFFF" mask="url(#mask-2)" points="53.233694 110.82959 226.493881 110.82959 226.493881 65.9635075 53.233694 65.9635075"></polygon>
                <polygon id="Fill-48" fill="#E6E6E6" mask="url(#mask-2)" points="87.3573881 74.4374254 91.8439179 74.4374254 91.8439179 69.9508955 87.3573881 69.9508955"></polygon>
                <polygon id="Fill-49" fill="#6353E5" mask="url(#mask-2)" points="79.6302239 74.4374254 84.1170149 74.4374254 84.1170149 69.9508955 79.6302239 69.9508955"></polygon>
                <path d="M155.701366,79.7623358 C150.929351,71.6830821 140.511627,69.0024478 132.432634,73.7742015 C130.871478,74.6964776 129.467821,75.862709 128.275209,77.2287537 L127.181851,76.273306 C133.878082,68.6012537 145.525769,67.8098358 153.198082,74.5060672 C154.682187,75.8015896 155.949239,77.3264403 156.950918,79.0226343 L155.701366,79.7623358 Z" id="Fill-50" fill="#E6E6E6" mask="url(#mask-2)"></path>
                <path d="M156.385616,98.677459 L155.180728,97.8672351 C158.822817,92.4351828 159.025243,85.3946978 155.701287,79.7623097 L156.95084,79.0226082 C160.560019,85.1371604 160.340354,92.7804813 156.385616,98.677459" id="Fill-51" fill="#6353E5" mask="url(#mask-2)"></path>
                <path d="M127.333134,100.700459 C121.122463,93.7639291 121.057425,83.2858694 127.181642,76.2733321 L128.275261,77.2287799 C122.63347,83.6888918 122.693284,93.3415784 128.414739,99.7316903 L127.333134,100.700459 Z" id="Fill-52" fill="#6353E5" mask="url(#mask-2)"></path>
                <path d="M141.071966,106.842073 C135.827974,106.837892 130.83316,104.605205 127.33316,100.700354 L128.414765,99.7315858 C134.672451,106.722705 145.41275,107.317444 152.403869,101.059757 C153.458832,100.115541 154.391817,99.0430784 155.180623,97.867444 L156.385511,98.6774067 C152.962041,103.782444 147.218646,106.844944 141.071966,106.842073" id="Fill-53" fill="#6353E5" mask="url(#mask-2)"></path>
                <polygon id="Fill-54" fill="#E6E6E6" mask="url(#mask-2)" points="187.30903 94.6279851 202.264216 94.6279851 202.264216 79.6725373 187.30903 79.6725373"></polygon>
                <polygon id="Fill-55" fill="#E6E6E6" mask="url(#mask-2)" points="79.0070149 104.348843 93.9624627 104.348843 93.9624627 89.3936567 79.0070149 89.3936567"></polygon>
                <polygon id="Fill-56" fill="#6353E5" mask="url(#mask-2)" points="47.9003731 7.80735075 231.670224 7.80735075 231.670224 0 47.9003731 0"></polygon>
                <path d="M53.702041,2.54455224 C54.5012948,2.54455224 55.149056,3.19205224 55.149056,3.99156716 C55.149056,4.7908209 54.5012948,5.4383209 53.702041,5.4383209 C52.9027873,5.4383209 52.2550261,4.7908209 52.2550261,3.99156716 C52.2550261,3.19205224 52.9027873,2.54455224 53.702041,2.54455224" id="Fill-57" fill="#FFFFFF" mask="url(#mask-2)"></path>
                <path d="M59.1945075,2.54455224 C59.9937612,2.54455224 60.6415224,3.19205224 60.6415224,3.99156716 C60.6415224,4.7908209 59.9937612,5.4383209 59.1945075,5.4383209 C58.3952537,5.4383209 57.7474925,4.7908209 57.7474925,3.99156716 C57.7474925,3.19205224 58.3952537,2.54455224 59.1945075,2.54455224" id="Fill-58" fill="#FFFFFF" mask="url(#mask-2)"></path>
                <path d="M64.687,2.54455224 C65.4862537,2.54455224 66.1340149,3.19205224 66.1340149,3.99156716 C66.1340149,4.7908209 65.4862537,5.4383209 64.687,5.4383209 C63.8877463,5.4383209 63.2399851,4.7908209 63.2399851,3.99156716 C63.2399851,3.19205224 63.8877463,2.54455224 64.687,2.54455224" id="Fill-59" fill="#FFFFFF" mask="url(#mask-2)"></path>
                <path d="M22.9997537,99.6617948 C22.9997537,105.825713 18.0028507,110.822354 11.8389328,110.822354 C5.67501493,110.822354 0.678373134,105.825713 0.678373134,99.6617948 C0.678373134,93.4976157 5.67501493,88.5009739 11.8389328,88.5009739 C18.0028507,88.5009739 22.9997537,93.4976157 22.9997537,99.6617948" id="Fill-60" fill="#6353E5" mask="url(#mask-2)"></path>
                <path d="M41.9701194,125.928381 C41.9701194,132.09256 36.9732164,137.08894 30.8095597,137.08894 C24.6453806,137.08894 19.6487388,132.09256 19.6487388,125.928381 C19.6487388,119.764463 24.6453806,114.767821 30.8095597,114.767821 C36.9732164,114.767821 41.9701194,119.764463 41.9701194,125.928381" id="Fill-61" fill="#6353E5" mask="url(#mask-2)"></path>
                <path d="M65.3184104,146.905265 C65.3184104,153.069444 60.3215075,158.066086 54.1575896,158.066086 C47.9936716,158.066086 42.9967687,153.069444 42.9967687,146.905265 C42.9967687,140.741347 47.9936716,135.744705 54.1575896,135.744705 C60.3215075,135.744705 65.3184104,140.741347 65.3184104,146.905265" id="Fill-62" fill="#6353E5" mask="url(#mask-2)"></path>
                <line x1="54.1675672" y1="146.844041" x2="54.1675672" y2="167.08919" id="Stroke-63" stroke="#3F3D56" stroke-width="0.583333333" mask="url(#mask-2)"></line>
                <path d="M57.0304888,146.844041 C57.0304888,148.425049 55.7488097,149.706989 54.167541,149.706989 C52.5862724,149.706989 51.3045933,148.425049 51.3045933,146.844041 C51.3045933,145.262772 52.5862724,143.980832 54.167541,143.980832 C55.7488097,143.980832 57.0304888,145.262772 57.0304888,146.844041" id="Fill-64" fill="#3F3D56" mask="url(#mask-2)"></path>
                <path d="M62.9609254,151.54731 C54.576597,150.524996 54.1675672,159.321489 54.1675672,159.321489" id="Fill-65" fill="#3F3D56" mask="url(#mask-2)"></path>
                <line x1="11.8319328" y1="99.7025933" x2="11.8319328" y2="167.231175" id="Stroke-66" stroke="#3F3D56" stroke-width="0.583333333" mask="url(#mask-2)"></line>
                <path d="M14.6948545,99.6707276 C14.6948545,101.251996 13.4131754,102.533675 11.8319067,102.533675 C10.2508993,102.533675 8.96895896,101.251996 8.96895896,99.6707276 C8.96895896,98.089459 10.2508993,96.8077799 11.8319067,96.8077799 C13.4131754,96.8077799 14.6948545,98.089459 14.6948545,99.6707276" id="Fill-67" fill="#3F3D56" mask="url(#mask-2)"></path>
                <path d="M23.4883433,148.527776 C23.4883433,150.109045 22.206403,151.390985 20.6253955,151.390985 C19.0441269,151.390985 17.7624478,150.109045 17.7624478,148.527776 C17.7624478,146.946769 19.0441269,145.664828 20.6253955,145.664828 C22.206403,145.664828 23.4883433,146.946769 23.4883433,148.527776" id="Fill-68" fill="#3F3D56" mask="url(#mask-2)"></path>
                <path d="M20.625291,106.520672 C12.2409627,105.498097 11.8319328,114.294851 11.8319328,114.294851" id="Fill-69" fill="#3F3D56" mask="url(#mask-2)"></path>
                <path d="M20.625291,131.458093 C12.2409627,130.435519 11.8319328,139.232272 11.8319328,139.232272" id="Fill-70" fill="#3F3D56" mask="url(#mask-2)"></path>
                <path d="M20.625291,148.527776 C9.9915597,149.345836 11.8319328,166.444381 11.8319328,166.444381" id="Stroke-71" stroke="#3F3D56" stroke-width="0.583333333" mask="url(#mask-2)"></path>
                <path d="M5.90034701,148.527776 C5.90034701,150.109045 4.61840672,151.390985 3.03739925,151.390985 C1.4561306,151.390985 0.174451493,150.109045 0.174451493,148.527776 C0.174451493,146.946769 1.4561306,145.664828 3.03739925,145.664828 C4.61840672,145.664828 5.90034701,146.946769 5.90034701,148.527776" id="Fill-72" fill="#3F3D56" mask="url(#mask-2)"></path>
                <path d="M3.03729478,148.527776 C13.6710261,149.345836 11.830653,166.444381 11.830653,166.444381" id="Stroke-73" stroke="#3F3D56" stroke-width="0.583333333" mask="url(#mask-2)"></path>
                <path d="M5.72589552,121.672224 C5.72589552,123.253493 4.44421642,124.535172 2.86294776,124.535172 C1.2816791,124.535172 0,123.253493 0,121.672224 C0,120.090955 1.2816791,118.809276 2.86294776,118.809276 C4.44421642,118.809276 5.72589552,120.090955 5.72589552,121.672224" id="Fill-74" fill="#3F3D56" mask="url(#mask-2)"></path>
                <path d="M2.86294776,121.672224 C13.4966791,122.490284 11.656306,138.676739 11.656306,138.676739" id="Stroke-75" stroke="#3F3D56" stroke-width="0.583333333" mask="url(#mask-2)"></path>
                <line x1="30.7992425" y1="125.915869" x2="30.7992425" y2="167.135683" id="Stroke-76" stroke="#3F3D56" stroke-width="0.583333333" mask="url(#mask-2)"></line>
                <path d="M33.6621642,125.915869 C33.6621642,127.497138 32.3804851,128.778817 30.7992164,128.778817 C29.2179478,128.778817 27.9362687,127.497138 27.9362687,125.915869 C27.9362687,124.334601 29.2179478,123.052922 30.7992164,123.052922 C32.3804851,123.052922 33.6621642,124.334601 33.6621642,125.915869" id="Fill-77" fill="#3F3D56" mask="url(#mask-2)"></path>
                <path d="M39.5926007,129.801392 C31.2082724,128.778817 30.7992425,137.575571 30.7992425,137.575571" id="Fill-78" fill="#3F3D56" mask="url(#mask-2)"></path>
                <path d="M39.5926007,148.615015 C28.9588694,149.433075 30.7992425,166.349045 30.7992425,166.349045" id="Stroke-79" stroke="#3F3D56" stroke-width="0.583333333" mask="url(#mask-2)"></path>
                <path d="M42.4555224,148.615015 C42.4555224,150.196284 41.1738433,151.477963 39.5925746,151.477963 C38.011306,151.477963 36.7296269,150.196284 36.7296269,148.615015 C36.7296269,147.033746 38.011306,145.752067 39.5925746,145.752067 C41.1738433,145.752067 42.4555224,147.033746 42.4555224,148.615015" id="Fill-80" fill="#3F3D56" mask="url(#mask-2)"></path>
                <path d="M221.754646,145.296519 C222.581063,145.296519 223.251026,145.966481 223.251026,146.792899 C223.251026,147.619578 222.581063,148.28928 221.754646,148.28928 C220.928228,148.28928 220.258265,147.619578 220.258265,146.792899 C220.258265,145.966481 220.928228,145.296519 221.754646,145.296519" id="Fill-81" fill="#FF6584" mask="url(#mask-2)"></path>
                <line x1="233.551213" y1="163.082213" x2="233.551213" y2="146.044265" id="Stroke-82" stroke="#3F3D56" stroke-width="0.583333333" mask="url(#mask-2)"></line>
                <path d="M233.551213,143.634724 C234.881996,143.634724 235.960728,144.713455 235.960728,146.044239 C235.960728,147.374761 234.881996,148.453493 233.551213,148.453493 C232.220429,148.453493 231.141698,147.374761 231.141698,146.044239 C231.141698,144.713455 232.220429,143.634724 233.551213,143.634724" id="Fill-83" fill="#3F3D56" mask="url(#mask-2)"></path>
                <path d="M228.805996,155.583828 C225.325847,160.921067 226.279466,167.709239 226.279466,167.709239 C226.279466,167.709239 232.87566,165.844052 236.35581,160.507075 C239.835959,155.169836 238.882601,148.381664 238.882601,148.381664 C238.882601,148.381664 232.286407,150.24659 228.805996,155.583828" id="Fill-84" fill="#6353E5" mask="url(#mask-2)"></path>
                <path d="M226.260869,167.64697 C226.260869,167.64697 226.175981,167.633388 226.02031,167.602045 C225.89572,167.576709 225.724638,167.540664 225.515422,167.491037 C223.646056,167.050403 218.676317,165.560552 215.427063,161.643425 C211.360272,156.738463 211.531616,149.885776 211.531616,149.885776 C211.531616,149.885776 217.749862,150.896075 221.847213,155.300851 C222.024563,155.490216 222.197474,155.686373 222.36516,155.889321 C225.903817,160.15697 226.233705,165.899582 226.259825,167.31891 C226.263481,167.531784 226.260869,167.64697 226.260869,167.64697" id="Fill-85" fill="#6353E5" mask="url(#mask-2)"></path>
                <path d="M223.752623,155.583828 C227.233034,160.921067 226.279414,167.709239 226.279414,167.709239 C226.279414,167.709239 219.682959,165.844052 216.20281,160.507075 C212.72266,155.169836 213.67628,148.381664 213.67628,148.381664 C213.67628,148.381664 220.272474,150.24659 223.752623,155.583828 Z" id="Stroke-86" stroke="#3F3D56" stroke-width="0.583333333" mask="url(#mask-2)"></path>
                <path d="M226.259851,167.318963 C226.16791,167.42997 226.08694,167.524522 226.020336,167.602097 C225.8725,167.770567 225.788396,167.858851 225.788396,167.858851 C225.788396,167.858851 225.686791,167.730866 225.515448,167.49109 C224.57541,166.180679 221.551567,161.520978 221.784813,156.13803 C221.797612,155.85594 221.818246,155.576985 221.846978,155.300903 C222.02459,155.490269 222.1975,155.686425 222.365187,155.889373 C225.903843,160.157284 226.233731,165.899373 226.259851,167.318963" id="Fill-87" fill="#000000" mask="url(#mask-2)"></path>
                <path d="M231.420235,156.527366 C231.145198,162.893187 226.419675,167.859007 226.419675,167.859007 C226.419675,167.859007 222.140534,162.504007 222.415571,156.138448 C222.690608,149.772627 227.415869,144.806806 227.415869,144.806806 C227.415869,144.806806 231.695272,150.161806 231.420235,156.527366" id="Fill-88" fill="#6353E5" mask="url(#mask-2)"></path>
                <line x1="226.41978" y1="167.678601" x2="227.45881" y2="145.066511" id="Stroke-89" stroke="#3F3D56" stroke-width="0.583333333" mask="url(#mask-2)"></line>
            </g>
        </g>
    </g>
</svg>