<?xml version="1.0" encoding="UTF-8"?>
<svg width="240px" height="172px" viewBox="0 0 240 172" version="1.1" xmlns="http://www.w3.org/2000/svg" xmlns:xlink="http://www.w3.org/1999/xlink">
    <!-- Generator: Sketch 64 (93537) - https://sketch.com -->
    <title>编组</title>
    <desc>Created with Sketch.</desc>
    <defs>
        <polygon id="path-1" points="0 171.574 239.958222 171.574 239.958222 0 0 0"></polygon>
    </defs>
    <g id="蓝紫新风格" stroke="none" stroke-width="1" fill="none" fill-rule="evenodd">
        <g id="3-1-2应用中心-服务申请-蓝图定义-模板导入" transform="translate(-304.000000, -242.000000)">
            <g id="编组" transform="translate(304.000000, 242.000000)">
                <path d="M238.154378,110.433422 C242.534822,135.588978 239.8646,160.329644 219.725933,168.7652 C199.587489,177.200756 175.187044,164.761422 165.225933,140.9812 C155.265044,117.200756 174.928822,104.579867 183.654378,82.6494222 C201.373044,38.1145333 224.550822,32.3125333 238.154378,110.433422" id="Fill-1" fill="#F2F2F2"></path>
                <path d="M221.456467,150.510667 C222.114244,150.510667 222.647578,151.043778 222.647578,151.701778 C222.647578,152.359556 222.114244,152.893111 221.456467,152.893111 C220.798689,152.893111 220.265356,152.359556 220.265356,151.701778 C220.265356,151.043778 220.798689,150.510667 221.456467,150.510667" id="Fill-3" fill="#FF6584"></path>
                <mask id="mask-2" fill="white">
                    <use xlink:href="#path-1"></use>
                </mask>
                <g id="Clip-6"></g>
                <polygon id="Fill-5" fill="#3F3D56" mask="url(#mask-2)" points="227.110222 171.472444 227.474667 171.472444 227.474667 157.91 227.110222 157.91"></polygon>
                <path d="M227.292311,155.992022 C228.351644,155.992022 229.210311,156.850689 229.210311,157.910022 C229.210311,158.969133 228.351644,159.828022 227.292311,159.828022 C226.232978,159.828022 225.374533,158.969133 225.374533,157.910022 C225.374533,156.850689 226.232978,155.992022 227.292311,155.992022" id="Fill-7" fill="#3F3D56" mask="url(#mask-2)"></path>
                <path d="M227.292311,166.268711 C227.292311,166.268711 227.018311,160.375822 221.401644,161.060711" id="Fill-8" fill="#3F3D56" mask="url(#mask-2)"></path>
                <path d="M196.631933,67.6890667 C196.631933,67.6890667 200.077267,72.1035111 199.6466,75.2259556 C199.215933,78.3484 206.752822,70.9190667 206.752822,70.9190667 C206.752822,70.9190667 204.168822,65.5357333 205.5686,62.9517333 C206.968156,60.3675111 196.631933,67.6890667 196.631933,67.6890667" id="Fill-9" fill="#FFB9B9" mask="url(#mask-2)"></path>
                <path d="M208.690956,157.055156 C208.690956,157.055156 213.213178,162.008044 212.4594,163.084711 C211.705622,164.1616 198.462289,168.252933 196.954956,168.0376 C195.447622,167.822044 194.693844,166.745378 195.232289,166.422489 C195.770511,166.099378 199.216067,164.269156 199.216067,164.269156 L202.123178,160.931156 C202.123178,160.931156 204.276511,159.746933 204.276511,159.100933 C204.276511,158.454933 208.690956,157.055156 208.690956,157.055156" id="Fill-10" fill="#2F2E41" mask="url(#mask-2)"></path>
                <path d="M201.046422,162.546267 C201.046422,162.546267 199.323756,165.345822 199.000644,165.453378 C198.677533,165.560933 200.615756,169.437378 200.615756,169.437378 L205.137978,168.0376 L207.6142,165.991822 L207.075978,163.192267 L201.046422,162.546267 Z" id="Fill-11" fill="#FFB9B9" mask="url(#mask-2)"></path>
                <path d="M196.416556,109.141978 L194.263222,118.724644 C194.263222,118.724644 186.833889,135.413533 192.002111,138.320644 L203.307444,159.9622 L209.337,157.270422 L199.216111,135.090644 L203.845889,109.572644 L196.416556,109.141978 Z" id="Fill-12" fill="#D0CDE1" mask="url(#mask-2)"></path>
                <path d="M196.416556,109.141978 L194.263222,118.724644 C194.263222,118.724644 186.833889,135.413533 192.002111,138.320644 L203.307444,159.9622 L209.337,157.270422 L199.216111,135.090644 L203.845889,109.572644 L196.416556,109.141978 Z" id="Fill-13" fill="#000000" mask="url(#mask-2)"></path>
                <path d="M197.170244,110.649356 L196.0778,110.649356 C195.992689,113.960689 196.178022,117.2738 196.632022,120.554911 C197.385578,126.046244 199.323578,138.643578 199.323578,138.643578 C199.323578,138.643578 199.108467,141.012467 199.754244,141.766022 C200.400467,142.5198 200.508022,141.550689 200.615578,143.273578 C200.723356,144.996244 201.746244,156.973578 201.746244,156.973578 C201.746244,156.973578 202.446022,159.4238 201.692467,159.962244 C200.938689,160.500689 199.431356,163.4078 200.508022,163.838467 C201.584689,164.269133 209.014022,164.807356 209.336911,164.484467 C209.660022,164.161578 209.336911,143.919578 209.336911,143.919578 C209.336911,143.919578 209.121578,139.828022 208.906467,139.612689 C208.690911,139.397356 207.7218,136.490244 208.044911,135.844244 C208.368022,135.198244 208.152689,133.260022 208.152689,132.937133 C208.152689,132.614022 207.183578,132.937133 208.044911,131.537356 C208.906467,130.137578 209.014022,118.940022 209.014022,118.940022 C209.014022,118.940022 213.6438,111.8338 212.244244,110.003356 L197.170244,110.649356 Z" id="Fill-14" fill="#D0CDE1" mask="url(#mask-2)"></path>
                <path d="M199.646689,55.0916222 C203.571356,55.0916222 206.752911,58.2731778 206.752911,62.1980667 C206.752911,66.1225111 203.571356,69.3040667 199.646689,69.3040667 C195.722022,69.3040667 192.540467,66.1225111 192.540467,62.1980667 C192.540467,58.2731778 195.722022,55.0916222 199.646689,55.0916222" id="Fill-15" fill="#FFB9B9" mask="url(#mask-2)"></path>
                <path d="M206.752911,69.7348444 C206.752911,69.7348444 202.446022,70.8115111 200.723356,73.3955111 L199.216022,73.7186222 L199.216022,75.2259556 C199.216022,75.2259556 196.416467,84.1626222 197.062689,88.0386222 C197.708689,91.9148444 197.062689,99.4517333 195.9858,101.497511 C194.909133,103.543289 194.586244,103.973733 195.124467,104.835067 C195.662911,105.696622 196.416467,108.603511 195.878244,109.895733 C195.3398,111.187733 195.878244,112.479956 200.831133,112.802844 C205.7838,113.125733 212.782467,113.125733 212.782467,111.403067 C212.782467,109.6804 212.3518,104.835067 212.782467,103.543289 C213.213133,102.251067 213.428467,101.389733 213.213133,100.205289 C212.9978,99.0210667 213.643896,85.7775111 213.643896,85.7775111 C213.643896,85.7775111 213.751578,72.5341778 206.752911,69.7348444" id="Fill-16" fill="#2F2E41" mask="url(#mask-2)"></path>
                <path d="M196.631933,103.004822 L190.710156,111.833711 C190.710156,111.833711 184.465267,117.540156 186.726156,120.124378 C188.987267,122.708378 194.909267,112.587489 194.909267,112.587489 L201.369267,105.265933 L196.631933,103.004822 Z" id="Fill-17" fill="#FFB9B9" mask="url(#mask-2)"></path>
                <path d="M200.400378,165.9918 C200.400378,165.9918 200.185044,164.592022 199.431267,164.592022 C198.677711,164.592022 193.617267,168.037578 193.617267,168.037578 C193.617267,168.037578 186.670156,171.026022 189.603267,171.209356 C192.519489,171.3918 207.937267,171.806022 208.044822,171.267578 C208.1526,170.729133 208.367933,165.420467 207.614156,165.436911 C206.8606,165.453356 200.831044,166.6378 200.831044,166.6378 L200.400378,165.9918 Z" id="Fill-18" fill="#2F2E41" mask="url(#mask-2)"></path>
                <path d="M200.152222,58.5265111 C199.899778,58.6511778 199.621333,58.7140667 199.34,58.7100667 C199.049556,58.7265111 198.702889,58.7085111 198.548444,58.4620667 C198.475333,58.2998444 198.441556,58.1229556 198.449556,57.9451778 C198.324889,57.0125111 197.468,56.3574 196.535556,56.4820667 C196.509778,56.4854 196.484222,56.4896222 196.458889,56.4940667 C196.489778,56.8500667 196.598,57.1949556 196.776,57.5045111 C196.138222,57.7209556 195.435556,57.6274 194.876444,57.2518444 L194.767111,58.7020667 C194.380889,58.8865111 193.886,58.9251778 193.549111,58.6607333 C193.212444,58.3967333 193.185333,57.7767333 193.566444,57.5814 C193.095778,57.4834 192.520222,57.2722889 192.485556,56.7929556 C192.454,56.3554 192.918444,56.0351778 193.004,55.6049556 C193.073778,55.2540667 192.881333,54.8729556 193.017556,54.5418444 C193.196444,54.1071778 193.845778,53.9956222 193.976,53.5440667 C194.042222,53.3142889 193.946889,53.0680667 193.969556,52.8298444 C194.029333,52.2060667 194.813556,51.9471778 195.439333,51.9825111 C196.064889,52.0180667 196.748,52.1840667 197.279556,51.8520667 C197.537111,51.6911778 197.717111,51.4336222 197.943778,51.2309556 C198.585556,50.6802889 199.507111,50.6002889 200.234444,51.0316222 C200.486,51.1882889 200.705556,51.4051778 200.986222,51.5002889 C201.560444,51.6949556 202.159778,51.3267333 202.760222,51.2416222 C203.205111,51.1654 203.660444,51.2974 203.995778,51.5996222 C204.326,51.9171778 204.401556,52.4171778 204.179778,52.8180667 C204.532,52.7587333 204.905333,52.7011778 205.237333,52.8331778 C205.569333,52.9651778 205.823111,53.3627333 205.669556,53.6851778 C205.612222,53.7698444 205.567333,53.8618444 205.535556,53.9587333 C205.504222,54.1462889 205.684889,54.3069556 205.867556,54.3607333 C206.05,54.4145111 206.248,54.4042889 206.426667,54.4698444 C207.164667,54.7398444 206.987556,55.9198444 207.568444,56.4489556 C207.767778,56.5940667 207.978222,56.7227333 208.198222,56.8342889 C208.792444,57.2462889 209.017778,58.0180667 208.738444,58.6851778 C208.622,58.9429556 208.426889,59.1889556 208.450444,59.4709556 C208.483333,59.8662889 208.906889,60.0829556 209.204444,60.3458444 C209.760667,60.8587333 209.925333,61.6705111 209.612667,62.3598444 C209.339333,62.9298444 208.747556,63.3622889 208.687333,63.9916222 C208.661333,64.2651778 208.743556,64.5385111 208.738889,64.8131778 C208.703556,65.3276222 208.435778,65.7982889 208.011111,66.0911778 C207.589556,66.3767333 207.114444,66.5745111 206.614667,66.6722889 C206.379778,66.7285111 206.099778,66.8165111 206.042889,67.0509556 C205.975556,67.3289556 206.286,67.5820667 206.253778,67.8665111 C206.233556,67.9900667 206.165333,68.1005111 206.064,68.1738444 C205.643778,68.5025111 204.979111,68.2207333 204.722222,67.7534 C204.465556,67.2860667 204.498222,66.7198444 204.538222,66.1882889 L204.682889,64.2545111 C204.728,63.6529556 204.723778,62.9385111 204.233333,62.5871778 C203.691111,62.1987333 202.901556,62.5131778 202.288222,62.2509556 C201.649333,61.9771778 201.420222,61.1769556 201.446,60.4825111 C201.471778,59.7880667 201.670667,59.0925111 201.556222,58.4067333 C201.414444,57.5574 200.658889,56.9860667 199.895778,57.5367333 C200.566444,57.4454 200.682222,58.2151778 200.152222,58.5265111" id="Fill-19" fill="#2F2E41" mask="url(#mask-2)"></path>
                <path d="M206.106867,74.9028222 C206.106867,74.9028222 201.8002,76.6257111 201.8002,80.2866 C201.8002,83.9472667 202.015311,88.7923778 201.261756,90.4074889 C200.507978,92.0223778 199.861978,92.5608222 200.292644,93.8528222 C200.723311,95.1450444 201.477089,94.9294889 200.292644,95.8986 C199.1082,96.8677111 199.215978,95.2526 199.1082,96.8677111 C199.000644,98.4826 200.185089,98.6979333 199.1082,99.4517111 C198.031533,100.205267 195.2322,103.220156 196.416644,104.189267 C197.600867,105.158156 200.723311,108.2806 201.8002,107.096156 C202.876644,105.911933 203.415089,102.897267 204.922422,103.112378 C206.429978,103.327711 206.645311,103.435489 206.429978,102.358822 C206.214422,101.282156 205.245533,101.282156 206.537533,100.959044 C207.829533,100.636156 208.367978,101.389711 207.937311,100.313044 C207.506644,99.2363778 207.183533,98.8057111 208.044867,97.6212667 C208.906422,96.4368222 209.337089,96.1139333 209.229311,94.9294889 C209.121533,93.7452667 211.597978,83.0857111 211.597978,83.0857111 C211.597978,83.0857111 212.351756,74.0414889 206.106867,74.9028222" id="Fill-20" fill="#000000" mask="url(#mask-2)"></path>
                <path d="M204.922511,74.6875556 C204.922511,74.6875556 200.615622,76.4102222 200.615622,80.0711111 C200.615622,83.7317778 200.830956,88.5771111 200.0774,90.1922222 C199.323622,91.8071111 198.677622,92.3455556 199.108289,93.6373333 C199.538956,94.9295556 200.292733,94.7142222 199.108289,95.6831111 C197.923844,96.6524444 198.031622,95.0371111 197.923844,96.6522222 C197.816289,98.2673333 199.000733,98.4826667 197.923844,99.2364444 C196.847178,99.99 194.047844,103.004889 195.232289,103.973778 C196.416511,104.942889 199.538956,108.065333 200.615622,106.880889 C201.692289,105.696667 202.230733,102.682 203.738067,102.897111 C205.245622,103.112444 205.460733,103.22 205.245622,102.143556 C205.030067,101.066667 204.061178,101.066667 205.353178,100.743778 C206.645178,100.420889 207.183622,101.174444 206.752956,100.097778 C206.322289,99.0211111 205.999178,98.5904444 206.860511,97.4057778 C207.721844,96.2215556 208.152733,95.8984444 208.044956,94.7142222 C207.937178,93.5297778 210.413622,82.8704444 210.413622,82.8704444 C210.413622,82.8704444 211.1674,73.8262222 204.922511,74.6875556" id="Fill-21" fill="#000000" mask="url(#mask-2)"></path>
                <path d="M205.460822,74.3646222 C205.460822,74.3646222 201.154156,76.0872889 201.154156,79.7481778 C201.154156,83.4088444 201.369267,88.2539556 200.615711,89.8690667 C199.862156,91.4841778 199.215933,92.0224 199.6466,93.3144 C200.077267,94.6066222 200.831044,94.3910667 199.6466,95.3601778 C198.462378,96.3292889 198.569933,94.7141778 198.462378,96.3292889 C198.3546,97.9441778 199.539044,98.1595111 198.462378,98.9132889 C197.385711,99.6670667 194.586156,102.681956 195.7706,103.650844 C196.955044,104.619733 200.077267,107.742178 201.154156,106.557956 C202.230822,105.373511 202.769044,102.358844 204.276378,102.573956 C205.783933,102.789511 205.999267,102.897067 205.783933,101.8204 C205.5686,100.743733 204.599489,100.743733 205.891489,100.420844 C207.183489,100.097733 207.721933,100.851289 207.291267,99.7748444 C206.8606,98.6979556 206.537489,98.2675111 207.399044,97.0828444 C208.260378,95.8984 208.691044,95.5755111 208.583267,94.3910667 C208.475711,93.2068444 210.951933,82.5475111 210.951933,82.5475111 C210.951933,82.5475111 211.705711,73.5032889 205.460822,74.3646222" id="Fill-22" fill="#2F2E41" mask="url(#mask-2)"></path>
                <line x1="229.1546" y1="171.391756" x2="130.731933" y2="171.391756" id="Stroke-23" stroke="#3F3D56" stroke-width="0.6" mask="url(#mask-2)"></line>
                <polygon id="Fill-24" fill="#E6E6E6" mask="url(#mask-2)" points="30.458 94.8262222 178.39 94.8262222 178.39 0.0837777778 30.458 0.0837777778"></polygon>
                <polygon id="Fill-25" fill="#FFFFFF" mask="url(#mask-2)" points="35.1717778 89.2213333 174.643778 89.2213333 174.643778 11.9668889 35.1717778 11.9668889"></polygon>
                <polygon id="Fill-26" fill="#6353E5" mask="url(#mask-2)" points="30.3946667 6.28444444 178.326889 6.28444444 178.326889 -0.000222222222 30.3946667 -0.000222222222"></polygon>
                <path d="M35.0652,2.048 C35.7085333,2.048 36.2300889,2.56977778 36.2300889,3.21288889 C36.2300889,3.85644444 35.7085333,4.37777778 35.0652,4.37777778 C34.4218667,4.37777778 33.9003111,3.85644444 33.9003111,3.21288889 C33.9003111,2.56977778 34.4218667,2.048 35.0652,2.048" id="Fill-27" fill="#FFFFFF" mask="url(#mask-2)"></path>
                <path d="M39.4865333,2.048 C40.1298667,2.048 40.6514222,2.56977778 40.6514222,3.21288889 C40.6514222,3.85644444 40.1298667,4.37777778 39.4865333,4.37777778 C38.8429778,4.37777778 38.3216444,3.85644444 38.3216444,3.21288889 C38.3216444,2.56977778 38.8429778,2.048 39.4865333,2.048" id="Fill-28" fill="#FFFFFF" mask="url(#mask-2)"></path>
                <path d="M43.9077556,2.048 C44.5513111,2.048 45.0726444,2.56977778 45.0726444,3.21288889 C45.0726444,3.85644444 44.5513111,4.37777778 43.9077556,4.37777778 C43.2644222,4.37777778 42.7428667,3.85644444 42.7428667,3.21288889 C42.7428667,2.56977778 43.2644222,2.048 43.9077556,2.048" id="Fill-29" fill="#FFFFFF" mask="url(#mask-2)"></path>
                <polygon id="Fill-30" fill="#6353E5" mask="url(#mask-2)" points="59.5728889 22.7949556 50.3473333 31.9054 59.5728889 41.0156222 61.6486667 38.9398444 54.6726667 31.9627333 61.7071111 24.9285111"></polygon>
                <polygon id="Fill-31" fill="#6353E5" mask="url(#mask-2)" points="67.1320222 22.7949556 76.3573556 31.9054 67.1320222 41.0156222 65.0562444 38.9398444 72.0329111 31.9629556 64.9980222 24.9285111"></polygon>
                <path d="M96.9729556,25.0812 C96.2182889,25.0812 95.6067333,25.5152 95.6067333,26.0503111 C95.6067333,26.5856444 96.2182889,27.0196444 96.9729556,27.0196444 L161.378733,27.0196444 C162.1334,27.0196444 162.744956,26.5856444 162.744956,26.0503111 C162.744956,25.5152 162.1334,25.0812 161.378733,25.0812 L96.9729556,25.0812 Z" id="Fill-32" fill="#E6E6E6" mask="url(#mask-2)"></path>
                <path d="M52.3919111,56.7732667 C51.7272444,56.7732667 51.1881333,57.1570444 51.1881333,57.6297111 L51.1881333,76.7521556 C51.1881333,77.2248222 51.7272444,77.6081556 52.3919111,77.6086 L160.738356,77.6086 C161.4028,77.6086 161.942133,77.2248222 161.942133,76.7521556 L161.942133,57.6299333 C161.942133,57.1574889 161.4028,56.7741556 160.738356,56.7737111 L52.3919111,56.7732667 Z M160.738356,78.1803778 L52.3919111,78.1803778 C51.2843556,78.1803778 50.3868,77.5408222 50.3854667,76.7528222 L50.3854667,57.6299333 C50.3868,56.8421556 51.2843556,56.2028222 52.3919111,56.2028222 L160.738356,56.2028222 C161.845911,56.2028222 162.744578,56.8421556 162.744578,57.6299333 L162.744578,76.7526 C162.744578,77.5406 161.845911,78.1792667 160.738356,78.1803778 L160.738356,78.1803778 Z" id="Fill-33" fill="#E6E6E6" mask="url(#mask-2)"></path>
                <path d="M63.5490222,62.3359778 C66.2261333,62.3359778 68.3963556,64.5062 68.3963556,67.1830889 C68.3963556,69.8604222 66.2261333,72.0306444 63.5490222,72.0306444 C60.8719111,72.0306444 58.7016889,69.8604222 58.7016889,67.1830889 C58.7016889,64.5062 60.8719111,62.3359778 63.5490222,62.3359778" id="Fill-34" fill="#E6E6E6" mask="url(#mask-2)"></path>
                <path d="M77.2206889,63.3064659 C76.6853556,63.3058 76.2509111,63.7391333 76.2502437,64.2744667 C76.2495778,64.8098 76.6829111,65.2442444 77.2182444,65.2449111 L122.912244,65.2449111 C123.447578,65.2442444 123.880911,64.8098 123.880024,64.2744667 C123.879356,63.7402444 123.446467,63.3073556 122.912244,63.3064659 L77.2206889,63.3064659 Z" id="Fill-35" fill="#6353E5" mask="url(#mask-2)"></path>
                <path d="M77.2206889,69.1218 C76.6853556,69.1218 76.2513556,69.5555778 76.2511332,70.0906889 C76.2509111,70.6253556 76.6835778,71.0591333 77.2182444,71.0602444 L96.8815778,71.0602444 C97.4166889,71.0602444 97.8504667,70.6260222 97.8502445,70.0906889 C97.8502445,69.5566889 97.4180222,69.1235778 96.8840222,69.1218 L77.2206889,69.1218 Z" id="Fill-36" fill="#6353E5" mask="url(#mask-2)"></path>
                <path d="M96.5026889,30.8876222 C95.9673556,30.9307333 95.5684667,31.3998444 95.6115778,31.9349556 C95.6500222,32.4102889 96.0273556,32.7876222 96.5026889,32.8260667 L138.712467,32.8260667 C139.2478,32.7827333 139.646689,32.3138444 139.603578,31.7787333 C139.565356,31.3034 139.188022,30.9260667 138.712467,30.8876222 L96.5026889,30.8876222 Z" id="Fill-37" fill="#E6E6E6" mask="url(#mask-2)"></path>
                <path d="M96.7803556,36.6940444 C96.1321333,36.6940444 95.6068,37.1280444 95.6068,37.6631556 C95.6068,38.1984889 96.1321333,38.6324889 96.7803556,38.6324889 L152.110356,38.6324889 C152.758356,38.6324889 153.283911,38.1984889 153.283911,37.6631556 C153.283911,37.1280444 152.758356,36.6940444 152.110356,36.6940444 L96.7803556,36.6940444 Z" id="Fill-38" fill="#E6E6E6" mask="url(#mask-2)"></path>
                <path d="M19.3275556,94.8262222 C30.002,94.8262222 38.6553333,103.479333 38.6553333,114.154 C38.6553333,124.828222 30.002,133.481333 19.3275556,133.481333 C8.65333333,133.481333 0,124.828222 0,114.154 C0,103.479333 8.65333333,94.8262222 19.3275556,94.8262222" id="Fill-39" fill="#D0CDE1" mask="url(#mask-2)"></path>
                <path d="M19.9510444,169.4868 L18.8599333,169.4868 L18.8599333,116.403022 C18.8599333,114.909244 19.0432667,113.421022 19.4054889,111.971689 C19.7679333,113.421022 19.9510444,114.909244 19.9510444,116.403022 L19.9510444,169.4868 Z" id="Fill-40" fill="#3F3D56" mask="url(#mask-2)"></path>
                <path d="M19.4667778,130.590978 L18.8921111,129.663422 L26.965,124.660756 C27.525,124.313867 28.173,124.134978 28.8318889,124.145867 C28.5483333,124.740756 28.0998889,125.241422 27.5396667,125.588311 L19.4667778,130.590978 Z" id="Fill-41" fill="#3F3D56" mask="url(#mask-2)"></path>
                <path d="M19.0864667,125.549311 L19.6611333,124.621756 L14.1055778,121.179311 C13.6651333,120.9062 13.1380222,120.808644 12.6289111,120.905756 C12.7684667,121.405311 13.0904667,121.833533 13.5309111,122.106644 L19.0864667,125.549311 Z" id="Fill-42" fill="#3F3D56" mask="url(#mask-2)"></path>
                <path d="M19.0864667,146.747222 L19.6611333,145.819889 L14.1055778,142.377222 C13.6651333,142.104111 13.1380222,142.006778 12.6289111,142.103889 C12.7684667,142.603222 13.0904667,143.031667 13.5309111,143.304778 L19.0864667,146.747222 Z" id="Fill-43" fill="#3F3D56" mask="url(#mask-2)"></path>
                <path d="M45.7152667,133.481378 C50.8630444,133.481378 55.0361556,137.654489 55.0361556,142.802267 C55.0361556,147.949822 50.8630444,152.123156 45.7152667,152.123156 C40.5674889,152.123156 36.3946,147.949822 36.3946,142.802267 C36.3946,137.654489 40.5674889,133.481378 45.7152667,133.481378" id="Fill-44" fill="#D0CDE1" mask="url(#mask-2)"></path>
                <path d="M46.0159333,169.4868 L45.4897111,169.4868 L45.4897111,143.887022 C45.4897111,143.166578 45.5781556,142.4488 45.7528222,141.749911 C45.9277111,142.4488 46.0159333,143.166578 46.0159333,143.887022 L46.0159333,169.4868 Z" id="Fill-45" fill="#3F3D56" mask="url(#mask-2)"></path>
                <path d="M45.7824222,150.7292 L45.5053111,150.281867 L49.3984222,147.869422 C49.6686444,147.702089 49.9810889,147.615644 50.2988667,147.620978 C50.1619778,147.907867 49.9457556,148.149422 49.6757556,148.316756 L45.7824222,150.7292 Z" id="Fill-46" fill="#3F3D56" mask="url(#mask-2)"></path>
                <path d="M45.5990444,148.297778 L45.8761556,147.850444 L43.1970444,146.190444 C42.9846,146.058667 42.7303778,146.011556 42.4848222,146.058444 C42.5521556,146.299333 42.7072667,146.506 42.9197111,146.637556 L45.5990444,148.297778 Z" id="Fill-47" fill="#3F3D56" mask="url(#mask-2)"></path>
                <path d="M45.5990444,158.520667 L45.8761556,158.073333 L43.1970444,156.413333 C42.9846,156.281556 42.7303778,156.234444 42.4848222,156.281333 C42.5521556,156.522 42.7072667,156.728889 42.9197111,156.860444 L45.5990444,158.520667 Z" id="Fill-48" fill="#3F3D56" mask="url(#mask-2)"></path>
                <polygon id="Fill-49" fill="#3F3D56" mask="url(#mask-2)" points="27.9231111 170.264889 28.2875556 170.264889 28.2875556 156.702444 27.9231111 156.702444"></polygon>
                <path d="M30.0232,156.702289 C30.0232,157.761622 29.1645333,158.620289 28.1054222,158.620289 C27.0460889,158.620289 26.1874222,157.761622 26.1874222,156.702289 C26.1874222,155.642956 27.0460889,154.784289 28.1054222,154.784289 C29.1645333,154.784289 30.0232,155.642956 30.0232,156.702289" id="Fill-50" fill="#3F3D56" mask="url(#mask-2)"></path>
                <path d="M33.9960667,159.853133 C28.3794,159.168244 28.1054,165.061356 28.1054,165.061356" id="Fill-51" fill="#3F3D56" mask="url(#mask-2)"></path>
                <polygon id="Fill-52" fill="#3F3D56" mask="url(#mask-2)" points="58.6453333 170.264889 59.0097778 170.264889 59.0097778 156.702444 58.6453333 156.702444"></polygon>
                <path d="M60.7454222,156.702289 C60.7454222,157.761622 59.8867556,158.620289 58.8276444,158.620289 C57.7683111,158.620289 56.9096444,157.761622 56.9096444,156.702289 C56.9096444,155.642956 57.7683111,154.784289 58.8276444,154.784289 C59.8867556,154.784289 60.7454222,155.642956 60.7454222,156.702289" id="Fill-53" fill="#3F3D56" mask="url(#mask-2)"></path>
                <path d="M64.7182889,159.853133 C59.1016222,159.168244 58.8276222,165.061356 58.8276222,165.061356" id="Fill-54" fill="#3F3D56" mask="url(#mask-2)"></path>
            </g>
        </g>
    </g>
</svg>