<?xml version="1.0" encoding="UTF-8"?>
<svg width="16px" height="16px" viewBox="0 0 16 16" version="1.1" xmlns="http://www.w3.org/2000/svg" xmlns:xlink="http://www.w3.org/1999/xlink">
    <!-- Generator: Sketch 64 (93537) - https://sketch.com -->
    <title>断电</title>
    <desc>Created with Sketch.</desc>
    <defs>
        <rect id="path-1" x="0" y="0" width="16" height="16" rx="4"></rect>
    </defs>
    <g id="蓝紫新风格" stroke="none" stroke-width="1" fill="none" fill-rule="evenodd">
        <g id="1-0-0应用中心-概览" transform="translate(-1208.000000, -281.000000)">
            <g id="编组-11" transform="translate(1208.000000, 243.000000)">
                <g id="编组-5" transform="translate(0.000000, 36.000000)">
                    <g id="断电" transform="translate(0.000000, 2.000000)">
                        <mask id="mask-2" fill="white">
                            <use xlink:href="#path-1"></use>
                        </mask>
                        <use id="矩形" fill="#FF4E50" fill-rule="nonzero" xlink:href="#path-1"></use>
                        <g id="电" mask="url(#mask-2)" fill-rule="nonzero">
                            <g transform="translate(3.000000, 3.000000)">
                                <rect id="矩形" fill="#000000" opacity="0" x="0" y="0" width="10" height="10"></rect>
                                <path d="M7.7,4.005 L6.605,4.005 C6.37,4.005 5.705,4.12 5.48,3.98 C5.435,3.82 5.58,3.53 5.62,3.39 C5.735,2.985 5.845,2.585 5.96,2.175 L6.45,0.41 C6.515,0.18 6.215,0.08 6.09,0.255 L2.13,5.69 C2.04,5.815 2.165,5.99 2.305,5.99 L3.91,5.99 C4.02,5.99 4.445,5.92 4.515,6.025 C4.58,6.11 4.455,6.375 4.43,6.47 C4.13,7.51 3.84,8.55 3.55,9.59 C3.485,9.82 3.785,9.92 3.91,9.745 L7.865,4.31 C7.96,4.18 7.84,4.005 7.7,4.005 Z" id="路径" fill="#FFFFFF"></path>
                            </g>
                        </g>
                    </g>
                </g>
            </g>
        </g>
    </g>
</svg>