<?xml version="1.0" encoding="UTF-8"?>
<svg width="57px" height="57px" viewBox="0 0 57 57" version="1.1" xmlns="http://www.w3.org/2000/svg" xmlns:xlink="http://www.w3.org/1999/xlink">
    <!-- Generator: Sketch 64 (93537) - https://sketch.com -->
    <title>部署任务</title>
    <desc>Created with Sketch.</desc>
    <defs>
        <path d="M28,5 C39.045695,5 48,13.7186654 48,24.4736842 L48,25.5263158 C48,36.2813346 39.045695,45 28,45 C16.954305,45 8,36.2813346 8,25.5263158 L8,24.4736842 C8,13.7186654 16.954305,5 28,5 Z" id="path-1"></path>
        <filter x="-35.0%" y="-25.0%" width="170.0%" height="170.0%" filterUnits="objectBoundingBox" id="filter-2">
            <feOffset dx="0" dy="4" in="SourceAlpha" result="shadowOffsetOuter1"></feOffset>
            <feGaussianBlur stdDeviation="4" in="shadowOffsetOuter1" result="shadowBlurOuter1"></feGaussianBlur>
            <feComposite in="shadowBlurOuter1" in2="SourceAlpha" operator="out" result="shadowBlurOuter1"></feComposite>
            <feColorMatrix values="0 0 0 0 0.2   0 0 0 0 0.164705882   0 0 0 0 0.490196078  0 0 0 0.1 0" type="matrix" in="shadowBlurOuter1"></feColorMatrix>
        </filter>
    </defs>
    <g id="蓝紫新风格" stroke="none" stroke-width="1" fill="none" fill-rule="evenodd">
        <g id="1-0-0应用中心-概览" transform="translate(-424.000000, -202.000000)">
            <g id="编组-45备份-2" transform="translate(404.000000, 198.000000)">
                <g id="部署任务" transform="translate(20.000000, 3.216216)">
                    <g id="路径">
                        <use fill="black" fill-opacity="1" filter="url(#filter-2)" xlink:href="#path-1"></use>
                        <path stroke="#FFFFFF" stroke-width="2.5" d="M28,6.25 C22.8184387,6.25 18.1260038,8.29255205 14.7298852,11.599299 C11.3459929,14.8941415 9.25,19.4450833 9.25,24.4736842 L9.25,25.5263158 C9.25,30.5549167 11.3459929,35.1058585 14.7298852,38.400701 C18.1260038,41.707448 22.8184387,43.75 28,43.75 C33.1815613,43.75 37.8739962,41.707448 41.2701148,38.400701 C44.6540071,35.1058585 46.75,30.5549167 46.75,25.5263158 L46.75,24.4736842 C46.75,19.4450833 44.6540071,14.8941415 41.2701148,11.599299 C37.8739962,8.29255205 33.1815613,6.25 28,6.25 Z" stroke-linejoin="square" fill="#FFFFFF" fill-rule="evenodd"></path>
                    </g>
                    <path d="M28,7 C18.1718418,7 10.1833993,14.6407512 10.0031129,24.1326426 L10,24.4606742 L10,25.5393258 C10,35.1825899 18.0588745,43 28,43 C37.8281582,43 45.8166007,35.3592488 45.9968871,25.8673574 L46,25.5393258 L46,24.4606742 C46,14.8174101 37.9411255,7 28,7 Z" id="路径" fill="#26C7B7" fill-rule="nonzero"></path>
                    <path d="M34.8022216,27.4986008 L34.8022216,22.5015182 C36.7291495,22.180326 38.1032332,20.4860103 37.99391,18.5661569 C37.8846612,16.6462303 36.3269164,15.1134873 34.3757468,15.0059919 C32.4245027,14.8984233 30.7025497,16.2505506 30.3762175,18.1464537 L25.6238813,18.1464537 C25.2974251,16.2505506 23.5754969,14.8984233 21.6243273,15.0059919 C19.6730833,15.1134873 18.1153136,16.6462303 18.0060896,18.5661569 C17.8967664,20.4860103 19.2709493,22.180326 21.197778,22.5015182 L21.197778,27.4986008 C19.2709493,27.8196954 17.8967664,29.5139867 18.0060896,31.4339377 C18.1153136,33.3537911 19.6730833,34.8865341 21.6243273,34.9940051 C23.5754969,35.1015981 25.2974251,33.7495684 25.6238813,31.8536409 L30.3762175,31.8536409 C30.7025497,33.7495684 32.4245027,35.1015981 34.3757468,34.9940051 C36.3269164,34.8865341 37.8846612,33.3537911 37.99391,31.4339377 C38.1032332,29.5139867 36.7291495,27.8196954 34.8022216,27.4986008 Z M34.149731,16.2952773 C35.1746055,16.2952773 36.0985682,16.9026763 36.4907276,17.8343192 C36.8829614,18.7659621 36.6661509,19.8383769 35.9414563,20.5514401 C35.2167617,21.2644058 34.1269532,21.4777364 33.1801135,21.0918956 C32.2332739,20.7059327 31.6158679,19.7968973 31.6158679,18.7884719 C31.6158679,17.4114666 32.7503634,16.2952773 34.149731,16.2952773 Z M19.3164056,18.7884719 C19.3164056,17.7800466 19.9337123,16.8709135 20.880552,16.4850483 C21.8273916,16.0991098 22.9172994,16.3124404 23.641994,17.0255037 C24.3665894,17.738567 24.5833998,18.8108841 24.1912404,19.742527 C23.7990066,20.6741699 22.8751184,21.2816666 21.8502686,21.2816666 C20.4507771,21.2816666 19.3164056,20.1653796 19.3164056,18.7884719 Z M21.8502686,33.7047441 C20.4507771,33.7047441 19.3164056,32.5885548 19.3164056,31.2115495 C19.3164056,29.8346174 20.4507771,28.7184281 21.8502686,28.7184281 C23.2496362,28.7184281 24.3841317,29.8346174 24.3841317,31.2115495 C24.3841317,31.8728304 24.1171011,32.5070116 23.641994,32.9745177 C23.1667629,33.442097 22.522237,33.7047441 21.8502686,33.7047441 Z M30.3762175,30.5695313 L25.6238813,30.5695313 C25.3394076,29.0039757 24.0939512,27.7784111 22.5027593,27.4986008 L22.5027593,22.5015182 C24.0939512,22.2216103 25.3394076,20.9961434 25.6238813,19.4304901 L30.3762175,19.4304901 C30.6545874,20.9990975 31.9030461,22.2275185 33.4972403,22.5015182 L33.4972403,27.4986008 C31.9030461,27.7725761 30.6545874,29.0009239 30.3762175,30.5695313 Z M34.149731,33.7047441 C32.7503634,33.7047441 31.6158679,32.5885548 31.6158679,31.2115495 C31.6158679,29.8346174 32.7503634,28.7184281 34.149731,28.7184281 C35.5491977,28.7184281 36.683594,29.8346174 36.683594,31.2115495 C36.683594,31.8728304 36.4166627,32.5070116 35.9414563,32.9745177 C35.46625,33.442097 34.8217986,33.7047441 34.149731,33.7047441 Z" id="Fill-1" fill="#FFFFFF"></path>
                </g>
            </g>
        </g>
    </g>
</svg>