<?xml version="1.0" encoding="UTF-8"?>
<svg width="16px" height="16px" viewBox="0 0 16 16" version="1.1" xmlns="http://www.w3.org/2000/svg" xmlns:xlink="http://www.w3.org/1999/xlink">
    <!-- Generator: Sketch 64 (93537) - https://sketch.com -->
    <title>运行中</title>
    <desc>Created with Sketch.</desc>
    <defs>
        <rect id="path-1" x="0" y="0" width="16" height="16" rx="4"></rect>
    </defs>
    <g id="蓝紫新风格" stroke="none" stroke-width="1" fill="none" fill-rule="evenodd">
        <g id="1-0-0应用中心-概览" transform="translate(-876.000000, -192.000000)">
            <g id="编组-4" transform="translate(876.000000, 190.000000)">
                <g id="编组-2">
                    <g id="运行中" transform="translate(0.000000, 2.000000)">
                        <mask id="mask-2" fill="white">
                            <use xlink:href="#path-1"></use>
                        </mask>
                        <use id="矩形备份-2" fill="#26C7B7" fill-rule="nonzero" xlink:href="#path-1"></use>
                        <path d="M7.99514634,3.0097805 C10.7538537,3.0097805 12.9902317,5.24618293 12.9902317,8.00489024 C12.9902317,10.7636098 10.7538537,12.9999878 7.99514634,12.9999878 C5.23642683,12.9999878 3.0000244,10.7636098 3.0000244,8.00489024 C2.99590244,6.67886585 3.52086585,5.40595122 4.45856098,4.46830488 C5.39619512,3.53062195 6.66910976,3.00565854 7.99514634,3.0097805 Z M7.99514634,3.77821579 C5.66082927,3.77821579 3.7684878,5.67057317 3.7684878,8.00489024 C3.7684878,10.3392195 5.66082927,12.2315122 7.99514634,12.2315122 C10.3294634,12.2315122 12.2217842,10.3392195 12.2217842,8.00489024 C12.2258537,6.88265854 11.7818659,5.80519512 10.9883293,5.01165854 C10.1947927,4.21812195 9.11737805,3.77414634 7.99514634,3.77821579 Z M10.5695488,7.27485366 L7.98747561,9.86460976 C7.90468293,9.95254878 7.78930488,10.0023659 7.66853659,10.0023659 C7.54778049,10.0023659 7.43240244,9.95254878 7.34960976,9.86460976 L5.81264634,8.32763415 C5.69869512,8.21369512 5.65420732,8.04762195 5.69592683,7.892 C5.73760976,7.73636585 5.85918293,7.61479268 6.01486585,7.57306098 C6.1704878,7.53137805 6.33656098,7.57587805 6.4505,7.68982927 L7.67235366,8.91939024 L9.91635366,6.64465854 C10.0964146,6.47702439 10.3755244,6.47712195 10.5555,6.64495122 C10.7354268,6.81278049 10.755,7.09117073 10.6002805,7.28252439 L10.5695488,7.27485366 Z" id="Fill-1" fill="#FFFFFF" mask="url(#mask-2)"></path>
                    </g>
                </g>
            </g>
        </g>
    </g>
</svg>