<?xml version="1.0" encoding="UTF-8"?>
<svg width="56px" height="56px" viewBox="0 0 56 56" version="1.1" xmlns="http://www.w3.org/2000/svg" xmlns:xlink="http://www.w3.org/1999/xlink">
    <!-- Generator: Sketch 64 (93537) - https://sketch.com -->
    <title>我的审批</title>
    <desc>Created with Sketch.</desc>
    <defs>
        <path d="M28,4 C39.045695,4 48,12.954305 48,24 C48,35.045695 39.045695,44 28,44 C16.954305,44 8,35.045695 8,24 C8,12.954305 16.954305,4 28,4 Z" id="path-1"></path>
        <filter x="-35.0%" y="-25.0%" width="170.0%" height="170.0%" filterUnits="objectBoundingBox" id="filter-2">
            <feOffset dx="0" dy="4" in="SourceAlpha" result="shadowOffsetOuter1"></feOffset>
            <feGaussianBlur stdDeviation="4" in="shadowOffsetOuter1" result="shadowBlurOuter1"></feGaussianBlur>
            <feComposite in="shadowBlurOuter1" in2="SourceAlpha" operator="out" result="shadowBlurOuter1"></feComposite>
            <feColorMatrix values="0 0 0 0 0.2   0 0 0 0 0.164705882   0 0 0 0 0.490196078  0 0 0 0.1 0" type="matrix" in="shadowBlurOuter1"></feColorMatrix>
        </filter>
    </defs>
    <g id="蓝紫新风格" stroke="none" stroke-width="1" fill="none" fill-rule="evenodd">
        <g id="1-0-0应用中心-概览" transform="translate(-532.000000, -202.000000)">
            <g id="编组-45备份" transform="translate(512.000000, 198.000000)">
                <g id="我的审批" transform="translate(20.000000, 4.000000)">
                    <g id="路径">
                        <use fill="black" fill-opacity="1" filter="url(#filter-2)" xlink:href="#path-1"></use>
                        <path stroke="#FFFFFF" stroke-width="2.5" d="M28,5.25 C22.8223305,5.25 18.1348305,7.34866524 14.7417479,10.7417479 C11.3486652,14.1348305 9.25,18.8223305 9.25,24 C9.25,29.1776695 11.3486652,33.8651695 14.7417479,37.2582521 C18.1348305,40.6513348 22.8223305,42.75 28,42.75 C33.1776695,42.75 37.8651695,40.6513348 41.2582521,37.2582521 C44.6513348,33.8651695 46.75,29.1776695 46.75,24 C46.75,18.8223305 44.6513348,14.1348305 41.2582521,10.7417479 C37.8651695,7.34866524 33.1776695,5.25 28,5.25 Z" stroke-linejoin="square" fill="#306BFF" fill-rule="evenodd"></path>
                    </g>
                    <path d="M28,6 C18.0588745,6 10,14.0588745 10,24 C10,33.9411255 18.0588745,42 28,42 C37.9411255,42 46,33.9411255 46,24 C46,14.0588745 37.9411255,6 28,6 Z" id="路径" fill="#306BFF" fill-rule="nonzero"></path>
                    <path d="M33.3214744,14 C34.9194968,14 36.2146313,15.3282768 36.2146313,16.9671551 L36.2146313,16.9671551 L36.2146313,23.2967361 C36.2146313,23.7708264 35.8409001,24.1540308 35.3786215,24.1540308 C34.9178711,24.1540308 34.5427456,23.770143 34.5427456,23.2967361 L34.5427456,23.2967361 L34.5427456,16.9671551 C34.5427456,16.2764948 33.9949761,15.7147268 33.3214744,15.7147268 L33.3214744,15.7147268 L22.3930229,15.7147268 C21.7196367,15.7147268 21.1718857,16.2765137 21.1718857,16.9671551 L21.1718857,16.9671551 L21.1718857,31.0327076 C21.1718857,31.7234673 21.7196183,32.2852732 22.3930229,32.2852732 L22.3930229,32.2852732 L27.1716223,32.2852732 C27.6338843,32.2852732 28.0074982,32.6684606 28.0074982,33.1425679 C28.0074982,33.6166921 27.6338678,34 27.1716223,34 L27.1716223,34 L22.3930229,34 C20.7950908,34 19.5,32.6716784 19.5,31.0327076 L19.5,31.0327076 L19.5,16.9671551 C19.5,15.3282992 20.7951126,14 22.3930229,14 L22.3930229,14 Z M33.3858398,24.7472737 C34.521488,24.7472737 35.4429869,25.692248 35.4429869,26.8569967 C35.4429869,27.4819735 35.1777366,28.0436495 34.7564746,28.4300508 L35.496,30.549 L36.8143736,30.5492866 C37.160035,30.5492866 37.4481005,30.8132975 37.4937109,31.1569287 L37.5,31.2524818 L37.5,32.4173678 C37.5,33.193116 36.8850871,33.8238956 36.1286133,33.8238956 L36.1286133,33.8238956 L30.6429324,33.8238956 C29.8865657,33.8238956 29.2715457,33.193116 29.2715457,32.4173678 L29.2715457,32.4173678 L29.2715457,31.2524818 C29.2715457,30.8634814 29.5780244,30.5492866 29.957306,30.5492866 L29.957306,30.5492866 L31.271,30.549 L32.0128489,28.4279355 C31.6270293,28.0729663 31.3726251,27.5707378 31.3338598,27.0076316 L31.3286927,26.8569967 C31.3286927,25.692248 32.2500576,24.7472737 33.3858398,24.7472737 Z M36.4714934,31.6041481 L30.3001862,31.6041481 L30.3001862,32.4173678 C30.3001862,32.6107417 30.4543898,32.7690341 30.6429324,32.7690341 L30.6429324,32.7690341 L36.1286133,32.7690341 C36.3171558,32.7690341 36.4714934,32.6107417 36.4714934,32.4173678 L36.4714934,32.4173678 L36.4714934,31.6041481 Z M32.9346332,28.915906 L32.364,30.549 L34.403,30.549 L33.8338481,28.9166286 C33.7359037,28.9389596 33.6353358,28.9541241 33.5326952,28.9615576 L33.3858398,28.966857 C33.2308457,28.966857 33.0798446,28.9492591 32.9346332,28.915906 Z M27.1716223,27.5163194 C27.5509038,27.5163194 27.8572487,27.8306516 27.8572487,28.219652 C27.8572487,28.6086524 27.5509038,28.9229846 27.1716223,28.9229846 L23.7430885,28.9229846 C23.3638069,28.9229846 23.0573281,28.6086524 23.0573281,28.219652 C23.0573281,27.8306516 23.3638069,27.5163194 23.7430885,27.5163194 L27.1716223,27.5163194 Z M33.3858398,25.8021352 C32.8180157,25.8021352 32.3571993,26.2746224 32.3571993,26.8569967 C32.3571993,27.4395083 32.8180157,27.9119955 33.3858398,27.9119955 C33.9515747,27.9119955 34.4143464,27.4395083 34.4143464,26.8569967 C34.4143464,26.2746224 33.9536639,25.8021352 33.3858398,25.8021352 Z M29.9143957,23.2967361 C30.2936773,23.2967361 30.6001561,23.6109309 30.6001561,23.9999313 C30.6001561,24.3889592 30.2936773,24.7032639 29.9143957,24.7032639 L23.7858648,24.7032639 C23.4065832,24.7032639 23.1002384,24.3889592 23.1002384,23.9999313 C23.1002384,23.6109309 23.4065832,23.2967361 23.7858648,23.2967361 L29.9143957,23.2967361 Z M31.9286326,19.0770154 C32.3079409,19.0770154 32.6143929,19.3913476 32.6143929,19.780348 C32.6143929,20.1693484 32.3079409,20.4835432 31.9286326,20.4835432 L23.7430885,20.4835432 C23.3638069,20.4835432 23.0573281,20.1693484 23.0573281,19.780348 C23.0573281,19.3913476 23.3638069,19.0770154 23.7430885,19.0770154 L31.9286326,19.0770154 Z" id="形状结合" fill="#FFFFFF" fill-rule="nonzero"></path>
                </g>
            </g>
        </g>
    </g>
</svg>