<?xml version="1.0" encoding="UTF-8"?>
<svg width="56px" height="56px" viewBox="0 0 56 56" version="1.1" xmlns="http://www.w3.org/2000/svg" xmlns:xlink="http://www.w3.org/1999/xlink">
    <!-- Generator: Sketch 64 (93537) - https://sketch.com -->
    <title>任务</title>
    <desc>Created with Sketch.</desc>
    <defs>
        <path d="M28,4 C39.045695,4 48,12.954305 48,24 C48,35.045695 39.045695,44 28,44 C16.954305,44 8,35.045695 8,24 C8,12.954305 16.954305,4 28,4 Z" id="path-1"></path>
        <filter x="-35.0%" y="-25.0%" width="170.0%" height="170.0%" filterUnits="objectBoundingBox" id="filter-2">
            <feOffset dx="0" dy="4" in="SourceAlpha" result="shadowOffsetOuter1"></feOffset>
            <feGaussianBlur stdDeviation="4" in="shadowOffsetOuter1" result="shadowBlurOuter1"></feGaussianBlur>
            <feColorMatrix values="0 0 0 0 0.2   0 0 0 0 0.164705882   0 0 0 0 0.490196078  0 0 0 0.1 0" type="matrix" in="shadowBlurOuter1"></feColorMatrix>
        </filter>
    </defs>
    <g id="蓝紫新风格" stroke="none" stroke-width="1" fill="none" fill-rule="evenodd">
        <g id="1-0-0应用中心-概览" transform="translate(-317.000000, -202.000000)">
            <g id="编组-45" transform="translate(297.000000, 198.000000)">
                <g id="任务" transform="translate(20.000000, 4.000000)">
                    <g id="路径">
                        <use fill="black" fill-opacity="1" filter="url(#filter-2)" xlink:href="#path-1"></use>
                        <use fill="#FFFFFF" fill-rule="evenodd" xlink:href="#path-1"></use>
                    </g>
                    <path d="M28,6 C18.0588745,6 10,14.0588745 10,24 C10,33.9411255 18.0588745,42 28,42 C37.9411255,42 46,33.9411255 46,24 C46,14.0588745 37.9411255,6 28,6 Z" id="路径" fill="#FFA067" fill-rule="nonzero"></path>
                    <path d="M34.850321,14 C36.0273243,14 37,14.9270101 37,16.0961531 L37,16.0961531 L37,31.9009539 C37,33.7279596 34.7950089,34.6581905 33.4222115,33.4678983 L33.4222115,33.4678983 L28.960046,29.5993145 C28.703227,29.3766819 28.2958907,29.3766819 28.0393863,29.5992895 L28.0393863,29.5992895 L23.5772183,33.4678755 C22.2043817,34.6582016 20,33.7279354 20,31.9009539 L20,31.9009539 L20,16.0961531 C20,14.9270078 20.9721025,14 22.1490825,14 L22.1490825,14 Z M34.850321,15.5154375 L22.1490825,15.5154375 C21.7751912,15.5154375 21.4911757,15.7862778 21.4911757,16.0961531 L21.4911757,16.0961531 L21.4911757,31.9009539 C21.4911757,32.3983081 22.1786843,32.6884421 22.6093979,32.3149893 L22.6093979,32.3149893 L27.071309,28.4466261 C27.8851556,27.740328 29.1133408,27.740328 29.9278113,28.4463805 L29.9278113,28.4463805 L34.3900319,32.3150121 C34.8207785,32.6884935 35.5088243,32.3982241 35.5088243,31.9009539 L35.5088243,31.9009539 L35.5088243,16.0961531 C35.5088243,15.7864924 35.2244168,15.5154375 34.850321,15.5154375 L34.850321,15.5154375 Z M32.6746956,23.3654037 C32.9382328,23.3654037 33.1518719,23.5825188 33.1518719,23.8503437 C33.1518719,24.0846906 32.9883044,24.2802126 32.7708633,24.3254315 L32.6746956,24.3352837 L24.3241114,24.3352837 C24.0605743,24.3352837 23.8469352,24.1181687 23.8469352,23.8503437 C23.8469352,23.6159969 24.0105026,23.4204748 24.2279438,23.375256 L24.3241114,23.3654037 L32.6746956,23.3654037 Z M32.6746956,19.1221787 C32.9382328,19.1221787 33.1518719,19.3392938 33.1518719,19.6071187 C33.1518719,19.8414656 32.9883044,20.0369876 32.7708633,20.0822065 L32.6746956,20.0920587 L24.3241114,20.0920587 C24.0605743,20.0920587 23.8469352,19.8749437 23.8469352,19.6071187 C23.8469352,19.3727719 24.0105026,19.1772498 24.2279438,19.132031 L24.3241114,19.1221787 L32.6746956,19.1221787 Z" id="形状结合" fill="#FFFFFF" fill-rule="nonzero"></path>
                </g>
            </g>
        </g>
    </g>
</svg>