<?xml version="1.0" encoding="UTF-8"?>
<svg width="16px" height="16px" viewBox="0 0 16 16" version="1.1" xmlns="http://www.w3.org/2000/svg" xmlns:xlink="http://www.w3.org/1999/xlink">
    <!-- Generator: Sketch 64 (93537) - https://sketch.com -->
    <title>已关机</title>
    <desc>Created with Sketch.</desc>
    <defs>
        <rect id="path-1" x="0" y="0" width="16" height="16" rx="4"></rect>
    </defs>
    <g id="蓝紫新风格" stroke="none" stroke-width="1" fill="none" fill-rule="evenodd">
        <g id="1-0-0应用中心-概览" transform="translate(-876.000000, -248.000000)">
            <g id="编组-4" transform="translate(876.000000, 190.000000)">
                <g id="编组-26" transform="translate(0.000000, 56.000000)">
                    <g id="已关机" transform="translate(0.000000, 2.000000)">
                        <mask id="mask-2" fill="white">
                            <use xlink:href="#path-1"></use>
                        </mask>
                        <use id="矩形" fill="#FF4E50" fill-rule="nonzero" xlink:href="#path-1"></use>
                        <path d="M6.07902814,3.63292634 C6.23218739,3.72493218 6.32462784,3.89165859 6.32152809,4.07030134 C6.31842833,4.24894409 6.22025928,4.41236309 6.06400028,4.499 C4.78996239,5.20324084 3.99935996,6.54427751 4.00000046,8 C4.00000046,10.20925 5.79075034,12 8.00000046,12 C10.2092494,12 12.0000005,10.20925 12.0000005,8 C12.0000005,6.57575 11.2499992,5.282 10.0494994,4.56425 C9.8125003,4.42251993 9.73526944,4.11549919 9.87699948,3.8785 C10.0187295,3.64150081 10.3257502,3.56426993 10.5627493,3.706 C12.0749542,4.60796683 13.0008502,6.23923088 13.0000005,8 C13.0000005,10.7615 10.7614993,13 8.00000046,13 C5.23850045,13 3.00000046,10.7615 3.00000046,8 C2.99922117,6.1807482 3.987025,4.50475614 5.57900038,3.62425 C5.73525939,3.53761309 5.92586889,3.5409205 6.07902814,3.63292634 Z M7.99999998,3 C8.33333314,3 8.49999998,3.16666667 8.49999998,3.5 L8.49999998,8.5 C8.49999998,8.7962963 8.3683126,8.96090535 8.10493821,8.99382716 L7.99999998,9 C7.66666661,9 7.49999998,8.83333333 7.49999998,8.5 L7.49999998,3.5 C7.49999998,3.2037037 7.63168719,3.03909465 7.8950617,3.00617284 L7.99999998,3 Z" id="形状结合" fill="#FFFFFF" fill-rule="nonzero" mask="url(#mask-2)"></path>
                    </g>
                </g>
            </g>
        </g>
    </g>
</svg>