<?xml version="1.0" encoding="UTF-8"?>
<svg width="48px" height="48px" viewBox="0 0 48 48" version="1.1" xmlns="http://www.w3.org/2000/svg" xmlns:xlink="http://www.w3.org/1999/xlink">
    <!-- Generator: Sketch 64 (93537) - https://sketch.com -->
    <title>服务目录</title>
    <desc>Created with Sketch.</desc>
    <g id="蓝紫新风格" stroke="none" stroke-width="1" fill="none" fill-rule="evenodd">
        <g id="1-0-0应用中心-概览-快速入门" transform="translate(-787.000000, -150.000000)" fill="#6353E5">
            <g id="编组-6" transform="translate(281.000000, 142.000000)">
                <g id="服务目录" transform="translate(506.000000, 8.000000)">
                    <path d="M48,24 C48,37.25475 37.25475,48 24,48 C10.74525,48 0,37.25475 0,24 C0,10.74525 10.74525,0 24,0 C37.25475,0 48,10.74525 48,24" id="Fill-1" opacity="0.0700000003"></path>
                    <g id="编组-12" transform="translate(6.000000, 6.000000)">
                        <path d="M5.625,0 C4.58989322,0 3.75,0.839893219 3.75,1.875 C3.75,2.91010678 4.58989322,3.75 5.625,3.75 C6.66010678,3.75 7.5,2.91010678 7.5,1.875 C7.5,0.839893219 6.66010678,0 5.625,0 Z M5.625,0.75 C6.24589322,0.75 6.75,1.25410678 6.75,1.875 C6.75,2.49589322 6.24589322,3 5.625,3 C5.00410678,3 4.5,2.49589322 4.5,1.875 C4.5,1.25410678 5.00410678,0.75 5.625,0.75 Z" id="Stroke-3" fill-rule="nonzero"></path>
                        <path d="M32.37525,2.75025 C32.5823568,2.75025 32.75025,2.91814322 32.75025,3.12525 C32.75025,3.30934492 32.6175936,3.46245628 32.4426567,3.49420825 L32.37525,3.50025 L29.37525,3.50025 C29.1681432,3.50025 29.00025,3.33235678 29.00025,3.12525 C29.00025,2.94115508 29.1329064,2.78804372 29.3078433,2.75629175 L29.37525,2.75025 L32.37525,2.75025 Z" id="Stroke-5" fill-rule="nonzero"></path>
                        <path d="M30.87525,1.25025 C31.0593449,1.25025 31.2124563,1.38290637 31.2442082,1.55784328 L31.25025,1.62525 L31.25025,4.62525 C31.25025,4.83235678 31.0823568,5.00025 30.87525,5.00025 C30.6911551,5.00025 30.5380437,4.86759363 30.5062918,4.69265672 L30.50025,4.62525 L30.50025,1.62525 C30.50025,1.41814322 30.6681432,1.25025 30.87525,1.25025 Z" id="Stroke-7" fill-rule="nonzero"></path>
                        <path d="M38.25,24 C38.25,24.828 37.578,25.5 36.75,25.5 C35.922,25.5 35.25,24.828 35.25,24 C35.25,23.172 35.922,22.5 36.75,22.5 C37.578,22.5 38.25,23.172 38.25,24" id="Fill-9"></path>
                        <path d="M31.5,31.5 C31.5,31.91475 31.16475,32.25 30.75,32.25 C30.33525,32.25 30,31.91475 30,31.5 C30,31.08525 30.33525,30.75 30.75,30.75 C31.16475,30.75 31.5,31.08525 31.5,31.5" id="Fill-11"></path>
                        <path d="M3,31.125 C3.18409492,31.125 3.33720628,31.2576564 3.36895825,31.4325933 L3.375,31.5 L3.375,33.375 C3.375,33.5821068 3.20710678,33.75 3,33.75 C2.81590508,33.75 2.66279372,33.6173436 2.63104175,33.4424067 L2.625,33.375 L2.625,31.5 C2.625,31.2928932 2.79289322,31.125 3,31.125 Z" id="Stroke-13" fill-rule="nonzero"></path>
                        <path d="M3.26710996,31.01711 C3.39728472,30.8869352 3.59935302,30.8724713 3.74550413,30.9737184 L3.79744004,31.01711 L5.11744004,32.33711 C5.26388665,32.4835566 5.26388665,32.7209934 5.11744004,32.86744 C4.98726528,32.9976148 4.78519698,33.0120787 4.63904587,32.9108316 L4.58710996,32.86744 L3.26710996,31.54744 C3.12066335,31.4009934 3.12066335,31.1635566 3.26710996,31.01711 Z" id="Stroke-15" fill-rule="nonzero"></path>
                        <path d="M5.625,30.375 C5.83210678,30.375 6,30.5428932 6,30.75 C6,30.9340949 5.86734363,31.0872063 5.69240672,31.1189582 L5.625,31.125 L3.75,31.125 C3.54289322,31.125 3.375,30.9571068 3.375,30.75 C3.375,30.5659051 3.50765637,30.4127937 3.68259328,30.3810418 L3.75,30.375 L5.625,30.375 Z" id="Stroke-17" fill-rule="nonzero"></path>
                        <path d="M4.58710996,28.63256 C4.73355657,28.4861133 4.97099343,28.4861133 5.11744004,28.63256 C5.24761481,28.7627347 5.26207867,28.964803 5.16083163,29.1109541 L5.11744004,29.16289 L3.79744004,30.48289 C3.65099343,30.6293367 3.41355657,30.6293367 3.26710996,30.48289 C3.13693519,30.3527153 3.12247133,30.150647 3.22371837,30.0044959 L3.26710996,29.95256 L4.58710996,28.63256 Z" id="Stroke-19" fill-rule="nonzero"></path>
                        <path d="M3,27.75 C3.18409492,27.75 3.33720628,27.8826564 3.36895825,28.0575933 L3.375,28.125 L3.375,30 C3.375,30.2071068 3.20710678,30.375 3,30.375 C2.81590508,30.375 2.66279372,30.2423436 2.63104175,30.0674067 L2.625,30 L2.625,28.125 C2.625,27.9178932 2.79289322,27.75 3,27.75 Z" id="Stroke-21" fill-rule="nonzero"></path>
                        <path d="M0.882334957,28.632335 C1.01250972,28.5021602 1.21457802,28.4876963 1.36072913,28.5889434 L1.41266504,28.632335 L2.73266504,29.952335 C2.87911165,30.0987816 2.87911165,30.3362184 2.73266504,30.482665 C2.60249028,30.6128398 2.40042198,30.6273037 2.25427087,30.5260566 L2.20233496,30.482665 L0.882334957,29.162665 C0.735888348,29.0162184 0.735888348,28.7787816 0.882334957,28.632335 Z" id="Stroke-23" fill-rule="nonzero"></path>
                        <path d="M2.25,30.375 C2.45710678,30.375 2.625,30.5428932 2.625,30.75 C2.625,30.9340949 2.49234363,31.0872063 2.31740672,31.1189582 L2.25,31.125 L0.375,31.125 C0.167893219,31.125 0,30.9571068 0,30.75 C0,30.5659051 0.13265637,30.4127937 0.307593276,30.3810418 L0.375,30.375 L2.25,30.375 Z" id="Stroke-25" fill-rule="nonzero"></path>
                        <path d="M2.20233496,31.017335 C2.34878157,30.8708883 2.58621843,30.8708883 2.73266504,31.017335 C2.86283981,31.1475097 2.87730367,31.349578 2.77605663,31.4957291 L2.73266504,31.547665 L1.41266504,32.867665 C1.26621843,33.0141117 1.02878157,33.0141117 0.882334957,32.867665 C0.752160193,32.7374903 0.73769633,32.535422 0.838943369,32.3892709 L0.882334957,32.337335 L2.20233496,31.017335 Z" id="Stroke-27" fill-rule="nonzero"></path>
                    </g>
                    <g id="ico_yyzx_fwml_xz备份" transform="translate(14.000000, 13.000000)">
                        <path d="M6.70880156,7.04417448 L5.19926306,7.04417448 C5.03164212,7.04417448 5.03164212,6.87655354 5.03164212,6.87655354 L5.03164212,5.19926306 C5.03164212,5.19926306 5.03164212,5.03164212 5.19926306,5.03164212 L6.70880156,5.03164212 C6.70880156,5.03164212 6.87655354,5.03164212 6.87655354,5.19926306 L6.87655354,6.87655354 L6.70880156,7.04417448 Z M14.9270106,6.70880156 L9.22462262,6.70880156 C9.22462262,6.70880156 9.05683788,6.70880156 9.05683788,6.54104958 L9.05683788,5.53476702 C9.05683788,5.36701504 9.05683788,5.36701504 9.22462262,5.36701504 L14.7592586,5.36701504 C14.7592586,5.36701504 14.9270106,5.36701504 14.9270106,5.53476702 L14.9270106,6.70880156 Z M6.70880156,18.1137085 L5.19926306,18.1137085 C5.03164212,18.1137085 5.03164212,18.1137085 5.03164212,17.9459565 L5.03164212,16.2687971 C5.03164212,16.1010451 5.03164212,16.1010451 5.19926306,16.1010451 L6.70880156,16.1010451 C6.87655354,16.1010451 6.87655354,16.1010451 6.87655354,16.2687971 L6.87655354,17.9459565 C6.87655354,18.1137085 6.70880156,18.1137085 6.70880156,18.1137085 Z M14.9270106,17.9459565 L9.22462262,17.9459565 C9.22462262,17.9459565 9.05683788,17.9459565 9.05683788,17.7782046 L9.05683788,16.60417 C9.05683788,16.4365491 9.05683788,16.4365491 9.22462262,16.4365491 L14.7592586,16.4365491 C14.7592586,16.4365491 14.9270106,16.4365491 14.9270106,16.60417 L14.9270106,17.9459565 Z M6.70880156,12.5789415 L5.19926306,12.5789415 C5.03164212,12.5789415 5.03164212,12.5789415 5.03164212,12.4111895 L5.03164212,10.7340301 C5.03164212,10.5662781 5.03164212,10.5662781 5.19926306,10.5662781 L6.70880156,10.5662781 C6.87655354,10.5662781 6.87655354,10.5662781 6.87655354,10.7340301 L6.87655354,12.4111895 C6.87655354,12.5789415 6.70880156,12.5789415 6.70880156,12.5789415 Z M14.9270106,12.4111895 L9.22462262,12.4111895 C9.22462262,12.4111895 9.05683788,12.4111895 9.05683788,12.2435686 L9.05683788,11.069534 C9.05683788,10.9017821 9.05683788,10.9017821 9.22462262,10.9017821 L14.7592586,10.9017821 C14.7592586,10.9017821 14.9270106,10.9017821 14.9270106,11.069534 L14.9270106,12.4111895 C14.9270106,12.2435686 14.9270106,12.4111895 14.9270106,12.4111895 Z M18.2813295,1.67715944 L18.4490814,1.84491142 L18.4490814,21.4680274 C18.4490814,21.6357794 18.2813295,21.6357794 18.2813295,21.6357794 L1.84491142,21.6357794 C1.84491142,21.8035641 1.67715944,21.6357794 1.67715944,21.6357794 L1.67715944,1.84491142 L1.84491142,1.67715944 L18.2813295,1.67715944 L18.2813295,1.67715944 Z M18.2813295,0 L1.84491142,0 C0.838661616,0 0,0.838661616 0,1.84491142 L0,21.4680274 C0,22.6420619 0.838661616,23.4807236 1.84491142,23.4807236 L18.1137085,23.4807236 C19.1199911,23.4807236 19.9586199,22.6420619 19.9586199,21.6357794 L19.9586199,1.84491142 C20.1262409,0.838661616 19.2877431,0 18.2813295,0 Z" id="Fill-1"></path>
                    </g>
                </g>
            </g>
        </g>
    </g>
</svg>