<?xml version="1.0" encoding="utf-8"?>
<!-- Generator: Adobe Illustrator 23.0.0, SVG Export Plug-In . SVG Version: 6.00 Build 0)  -->
<svg version="1.1" id="图层_1" xmlns="http://www.w3.org/2000/svg" xmlns:xlink="http://www.w3.org/1999/xlink" x="0px" y="0px"
	 viewBox="0 0 200 200" style="enable-background:new 0 0 200 200;" xml:space="preserve">
<style type="text/css">
	.st0{opacity:0.85;fill:#332A7C;}
</style>
<path class="st0" d="M177.5,26.3c1.3,3,0.7,5.6-1.6,7.8l-54.6,54.6v82.2c0,3.1-1.4,5.3-4.3,6.5c-1,0.4-1.9,0.6-2.8,0.6
	c-2,0-3.7-0.7-5-2.1l-28.4-28.4c-1.4-1.4-2.1-3.1-2.1-5V88.7L24.1,34.1c-2.3-2.1-2.8-4.7-1.6-7.8c1.3-2.9,3.4-4.3,6.5-4.3h141.8
	C174,22,176.2,23.4,177.5,26.3z"/>
</svg>
