<?xml version="1.0" encoding="UTF-8"?>
<svg width="64px" height="64px" viewBox="0 0 64 64" version="1.1" xmlns="http://www.w3.org/2000/svg" xmlns:xlink="http://www.w3.org/1999/xlink">
    <!-- Generator: Sketch 64 (93537) - https://sketch.com -->
    <title>应用中心-订单详情</title>
    <desc>Created with Sketch.</desc>
    <g id="蓝紫新风格" stroke="none" stroke-width="1" fill="none" fill-rule="evenodd">
        <g id="切图" transform="translate(-1381.000000, -150.000000)" fill="#6353E5">
            <g id="应用中心-订单详情" transform="translate(1381.000000, 150.000000)">
                <path d="M64,32 C64,49.673 49.673,64 32,64 C14.327,64 0,49.673 0,32 C0,14.327 14.327,0 32,0 C49.673,0 64,14.327 64,32" id="Fill-1" opacity="0.0700000003"></path>
                <g id="编组-4" transform="translate(7.999700, 8.000000)">
                    <path d="M35.0003,39.25 L13.0003,39.25 C10.1053,39.25 7.7503,36.895 7.7503,34 L7.7503,12 C7.7503,9.105 10.1053,6.75 13.0003,6.75 L16.7863,6.75 C17.4773,6.75 18.0363,7.31 18.0363,8 C18.0363,8.69 17.4773,9.25 16.7863,9.25 L13.0003,9.25 C11.4833,9.25 10.2503,10.483 10.2503,12 L10.2503,34 C10.2503,35.517 11.4833,36.75 13.0003,36.75 L35.0003,36.75 C36.5173,36.75 37.7503,35.517 37.7503,34 L37.7503,12 C37.7503,10.483 36.5173,9.25 35.0003,9.25 L31.5003,9.25 C30.8103,9.25 30.2503,8.69 30.2503,8 C30.2503,7.31 30.8103,6.75 31.5003,6.75 L35.0003,6.75 C37.8953,6.75 40.2503,9.105 40.2503,12 L40.2503,34 C40.2503,36.895 37.8953,39.25 35.0003,39.25" id="Fill-3"></path>
                    <path d="M29.5003,19.2226 L17.5003,19.2226 C17.0593,19.2226 16.7003,18.8646 16.7003,18.4226 C16.7003,17.9806 17.0593,17.6226 17.5003,17.6226 L29.5003,17.6226 C29.9413,17.6226 30.3003,17.9806 30.3003,18.4226 C30.3003,18.8646 29.9413,19.2226 29.5003,19.2226" id="Fill-5"></path>
                    <path d="M29.5003,24.2998 L17.5003,24.2998 C17.0593,24.2998 16.7003,23.9418 16.7003,23.4998 C16.7003,23.0578 17.0593,22.6998 17.5003,22.6998 L29.5003,22.6998 C29.9413,22.6998 30.3003,23.0578 30.3003,23.4998 C30.3003,23.9418 29.9413,24.2998 29.5003,24.2998" id="Fill-7"></path>
                    <path d="M24.8851,29.3769 L17.5001,29.3769 C17.0591,29.3769 16.7001,29.0189 16.7001,28.5769 C16.7001,28.1359 17.0591,27.7769 17.5001,27.7769 L24.8851,27.7769 C25.3261,27.7769 25.6851,28.1359 25.6851,28.5769 C25.6851,29.0189 25.3261,29.3769 24.8851,29.3769" id="Fill-9"></path>
                    <path d="M7.5003,1 C6.6733,1 6.0003,1.673 6.0003,2.5 C6.0003,3.327 6.6733,4 7.5003,4 C8.3273,4 9.0003,3.327 9.0003,2.5 C9.0003,1.673 8.3273,1 7.5003,1 M7.5003,5 C6.1213,5 5.0003,3.878 5.0003,2.5 C5.0003,1.122 6.1213,0 7.5003,0 C8.8793,0 10.0003,1.122 10.0003,2.5 C10.0003,3.878 8.8793,5 7.5003,5" id="Fill-11"></path>
                    <path d="M43.1673,3.6665 L41.6673,3.6665 L41.6673,2.1665 C41.6673,1.8905 41.4433,1.6665 41.1673,1.6665 C40.8913,1.6665 40.6673,1.8905 40.6673,2.1665 L40.6673,3.6665 L39.1673,3.6665 C38.8913,3.6665 38.6673,3.8905 38.6673,4.1665 C38.6673,4.4425 38.8913,4.6665 39.1673,4.6665 L40.6673,4.6665 L40.6673,6.1665 C40.6673,6.4425 40.8913,6.6665 41.1673,6.6665 C41.4433,6.6665 41.6673,6.4425 41.6673,6.1665 L41.6673,4.6665 L43.1673,4.6665 C43.4433,4.6665 43.6673,4.4425 43.6673,4.1665 C43.6673,3.8905 43.4433,3.6665 43.1673,3.6665" id="Fill-13"></path>
                    <path d="M49.0003,21 C49.0003,22.104 48.1043,23 47.0003,23 C45.8963,23 45.0003,22.104 45.0003,21 C45.0003,19.896 45.8963,19 47.0003,19 C48.1043,19 49.0003,19.896 49.0003,21" id="Fill-15"></path>
                    <path d="M42.0003,42 C42.0003,42.553 41.5533,43 41.0003,43 C40.4473,43 40.0003,42.553 40.0003,42 C40.0003,41.447 40.4473,41 41.0003,41 C41.5533,41 42.0003,41.447 42.0003,42" id="Fill-17"></path>
                    <path d="M3.763,41.5684 C3.74,41.4914 3.704,41.4174 3.644,41.3564 C3.583,41.2964 3.509,41.2604 3.432,41.2374 C3.472,41.1664 3.5,41.0884 3.5,41.0004 C3.5,40.9124 3.472,40.8344 3.432,40.7624 C3.509,40.7394 3.583,40.7044 3.644,40.6434 C3.704,40.5834 3.74,40.5084 3.763,40.4314 C3.834,40.4714 3.912,40.5004 4,40.5004 C4.088,40.5004 4.166,40.4714 4.238,40.4314 C4.261,40.5084 4.296,40.5834 4.357,40.6434 C4.417,40.7044 4.492,40.7394 4.569,40.7624 C4.529,40.8344 4.5,40.9124 4.5,41.0004 C4.5,41.0884 4.529,41.1664 4.569,41.2374 C4.492,41.2604 4.417,41.2964 4.357,41.3564 C4.296,41.4174 4.261,41.4914 4.238,41.5684 C4.166,41.5284 4.088,41.5004 4,41.5004 C3.912,41.5004 3.834,41.5284 3.763,41.5684 M7.5,40.5004 L5.207,40.5004 L6.824,38.8834 C7.019,38.6884 7.019,38.3724 6.824,38.1764 C6.628,37.9814 6.312,37.9814 6.117,38.1764 L4.5,39.7934 L4.5,37.5004 C4.5,37.2234 4.277,37.0004 4,37.0004 C3.724,37.0004 3.5,37.2234 3.5,37.5004 L3.5,39.7934 L1.884,38.1764 C1.689,37.9814 1.372,37.9814 1.177,38.1764 C0.982,38.3724 0.982,38.6884 1.177,38.8834 L2.793,40.5004 L0.5,40.5004 C0.224,40.5004 0,40.7234 0,41.0004 C0,41.2764 0.224,41.5004 0.5,41.5004 L2.793,41.5004 L1.177,43.1164 C0.982,43.3114 0.982,43.6284 1.177,43.8234 C1.275,43.9214 1.403,43.9694 1.531,43.9694 C1.659,43.9694 1.786,43.9214 1.884,43.8234 L3.5,42.2074 L3.5,44.5004 C3.5,44.7764 3.724,45.0004 4,45.0004 C4.277,45.0004 4.5,44.7764 4.5,44.5004 L4.5,42.2074 L6.117,43.8234 C6.214,43.9214 6.342,43.9694 6.47,43.9694 C6.598,43.9694 6.726,43.9214 6.824,43.8234 C7.019,43.6284 7.019,43.3114 6.824,43.1164 L5.207,41.5004 L7.5,41.5004 C7.777,41.5004 8,41.2764 8,41.0004 C8,40.7234 7.777,40.5004 7.5,40.5004" id="Fill-19"></path>
                    <path d="M28.0003,5.2002 C27.5593,5.2002 27.2003,5.5582 27.2003,6.0002 L27.2003,7.0002 L20.8003,7.0002 L20.8003,6.0002 C20.8003,5.5582 20.4413,5.2002 20.0003,5.2002 C19.5593,5.2002 19.2003,5.5582 19.2003,6.0002 L19.2003,10.0002 C19.2003,10.4422 19.5593,10.8002 20.0003,10.8002 C20.4413,10.8002 20.8003,10.4422 20.8003,10.0002 L20.8003,9.0002 L27.2003,9.0002 L27.2003,10.0002 C27.2003,10.4422 27.5593,10.8002 28.0003,10.8002 C28.4413,10.8002 28.8003,10.4422 28.8003,10.0002 L28.8003,6.0002 C28.8003,5.5582 28.4413,5.2002 28.0003,5.2002" id="Fill-21"></path>
                </g>
            </g>
        </g>
    </g>
</svg>