<?xml version="1.0" encoding="utf-8"?>
<!-- Generator: Adobe Illustrator 23.0.0, SVG Export Plug-In . SVG Version: 6.00 Build 0)  -->
<svg version="1.1" id="图层_1" xmlns="http://www.w3.org/2000/svg" xmlns:xlink="http://www.w3.org/1999/xlink" x="0px" y="0px"
	 viewBox="0 0 200 200" style="enable-background:new 0 0 200 200;" xml:space="preserve">
<style type="text/css">
	.st0{fill:#332A7C;}
</style>
<path class="st0" d="M100,21.7c20.9,0,40.6,8.1,55.3,22.9c14.8,14.8,22.9,34.4,22.9,55.3c0,20.9-8.1,40.6-22.9,55.3
	c-14.8,14.8-34.4,22.9-55.3,22.9c-20.9,0-40.6-8.1-55.3-22.9c-14.8-14.8-22.9-34.4-22.9-55.3c0-20.9,8.1-40.6,22.9-55.3
	C59.5,29.9,79.1,21.7,100,21.7 M100,12.6c-23.4,0-45.3,9.1-61.8,25.6C21.7,54.7,12.6,76.6,12.6,100c0,23.4,9.1,45.3,25.6,61.8
	c16.5,16.5,38.5,25.6,61.8,25.6c23.4,0,45.3-9.1,61.8-25.6c16.5-16.5,25.6-38.5,25.6-61.8c0-23.4-9.1-45.3-25.6-61.8
	C145.3,21.6,123.4,12.6,100,12.6L100,12.6z"/>
<path d="M100,136"/>
<path class="st0" d="M124.1,57.1c-5.8-5.2-13.3-7.7-22.7-7.7c-10.6,0-18.9,3.1-25.1,9.3c-6.1,6.2-9.2,14.7-9.2,25.4h0
	c0.2,3.4,2.9,6,6.3,6c3.4,0,6.2-2.7,6.3-6h0c0-0.1,0-0.2,0-0.2c0,0,0,0,0-0.1c0,0,0,0,0,0c0.1-15.9,7.1-23.8,21-23.8
	c5.4,0,9.8,1.6,13.3,4.7c3.5,3.1,5.2,7.1,5.2,11.9c0,5.7-3.2,11.4-9.7,17.2l-4.8,4.3c-4.7,4.2-7.7,7.9-9.1,11c-1.3,3.1-2,8.1-2,15
	l0,0c0,0.2,0,0.4,0,0.5c0,3.3,2.6,5.9,5.9,5.9c3.1,0,5.7-2.4,5.9-5.5l0,0l0.1-2.2c0-7.1,3.4-13.4,10.1-18.9
	c11.3-9.3,17-18.1,17-26.6C132.8,69,129.9,62.3,124.1,57.1z"/>
<path class="st0" d="M92,145.1c0,4.4,3.6,8,8,8s8-3.6,8-8s-3.6-8-8-8S92,140.7,92,145.1z"/>
</svg>
