<?xml version="1.0" encoding="UTF-8"?>
<svg width="48px" height="48px" viewBox="0 0 48 48" version="1.1" xmlns="http://www.w3.org/2000/svg" xmlns:xlink="http://www.w3.org/1999/xlink">
    <!-- Generator: Sketch 64 (93537) - https://sketch.com -->
    <title>运营中心-审批流程详情</title>
    <desc>Created with Sketch.</desc>
    <g id="蓝紫新风格" stroke="none" stroke-width="1" fill="none" fill-rule="evenodd">
        <g id="4-1-0运营中心-流程管理-交付流程-使用指引" transform="translate(-550.000000, -154.000000)">
            <g id="编组-6" transform="translate(280.000000, 138.000000)">
                <g id="运营中心-审批流程详情备份" transform="translate(270.000000, 16.000000)">
                    <path d="M48,24 C48,37.25475 37.25475,48 24,48 C10.74525,48 0,37.25475 0,24 C0,10.74525 10.74525,0 24,0 C37.25475,0 48,10.74525 48,24" id="Fill-1" fill="#6353E5" opacity="0.0700000003"></path>
                    <g id="编组-9" transform="translate(6.000000, 6.000000)">
                        <path d="M5.625,0.75 C5.00475,0.75 4.5,1.25475 4.5,1.875 C4.5,2.49525 5.00475,3 5.625,3 C6.24525,3 6.75,2.49525 6.75,1.875 C6.75,1.25475 6.24525,0.75 5.625,0.75 M5.625,3.75 C4.59075,3.75 3.75,2.90925 3.75,1.875 C3.75,0.84075 4.59075,0 5.625,0 C6.65925,0 7.5,0.84075 7.5,1.875 C7.5,2.90925 6.65925,3.75 5.625,3.75" id="Fill-3" fill="#6353E5"></path>
                        <path d="M32.37525,3.50025 L29.37525,3.50025 C29.16825,3.50025 29.00025,3.33225 29.00025,3.12525 C29.00025,2.91825 29.16825,2.75025 29.37525,2.75025 L32.37525,2.75025 C32.58225,2.75025 32.75025,2.91825 32.75025,3.12525 C32.75025,3.33225 32.58225,3.50025 32.37525,3.50025" id="Fill-5" fill="#6353E5"></path>
                        <path d="M30.87525,5.00025 C30.66825,5.00025 30.50025,4.83225 30.50025,4.62525 L30.50025,1.62525 C30.50025,1.41825 30.66825,1.25025 30.87525,1.25025 C31.08225,1.25025 31.25025,1.41825 31.25025,1.62525 L31.25025,4.62525 C31.25025,4.83225 31.08225,5.00025 30.87525,5.00025" id="Fill-7" fill="#6353E5"></path>
                        <path d="M36.75,15.75 C36.75,16.578 36.078,17.25 35.25,17.25 C34.422,17.25 33.75,16.578 33.75,15.75 C33.75,14.922 34.422,14.25 35.25,14.25 C36.078,14.25 36.75,14.922 36.75,15.75" id="Fill-9" fill="#6353E5"></path>
                        <path d="M31.5,31.5 C31.5,31.91475 31.16475,32.25 30.75,32.25 C30.33525,32.25 30,31.91475 30,31.5 C30,31.08525 30.33525,30.75 30.75,30.75 C31.16475,30.75 31.5,31.08525 31.5,31.5" id="Fill-11" fill="#6353E5"></path>
                        <path d="M3,33.75 C2.793,33.75 2.625,33.582 2.625,33.375 L2.625,31.5 C2.625,31.293 2.793,31.125 3,31.125 C3.207,31.125 3.375,31.293 3.375,31.5 L3.375,33.375 C3.375,33.582 3.207,33.75 3,33.75" id="Fill-13" fill="#6353E5"></path>
                        <path d="M4.852275,32.977275 C4.756275,32.977275 4.660275,32.940525 4.586775,32.867775 L3.267525,31.547775 C3.120525,31.400775 3.120525,31.163775 3.267525,31.017525 C3.413775,30.870525 3.650775,30.870525 3.797775,31.017525 L5.117775,32.336775 C5.264025,32.483775 5.264025,32.720775 5.117775,32.867775 C5.044275,32.940525 4.948275,32.977275 4.852275,32.977275" id="Fill-15" fill="#6353E5"></path>
                        <path d="M5.625,31.125 L3.75,31.125 C3.543,31.125 3.375,30.957 3.375,30.75 C3.375,30.543 3.543,30.375 3.75,30.375 L5.625,30.375 C5.832,30.375 6,30.543 6,30.75 C6,30.957 5.832,31.125 5.625,31.125" id="Fill-17" fill="#6353E5"></path>
                        <path d="M3.5325,30.5925 C3.4365,30.5925 3.3405,30.55575 3.267,30.483 C3.12075,30.336 3.12075,30.099 3.267,29.952 L4.587,28.63275 C4.734,28.48575 4.971,28.48575 5.11725,28.63275 C5.26425,28.779 5.26425,29.016 5.11725,29.163 L3.798,30.483 C3.7245,30.55575 3.6285,30.5925 3.5325,30.5925" id="Fill-19" fill="#6353E5"></path>
                        <path d="M3,30.375 C2.793,30.375 2.625,30.207 2.625,30 L2.625,28.125 C2.625,27.918 2.793,27.75 3,27.75 C3.207,27.75 3.375,27.918 3.375,28.125 L3.375,30 C3.375,30.207 3.207,30.375 3,30.375" id="Fill-21" fill="#6353E5"></path>
                        <path d="M2.4675,30.5925 C2.3715,30.5925 2.2755,30.55575 2.202,30.483 L0.88275,29.163 C0.73575,29.016 0.73575,28.779 0.88275,28.63275 C1.029,28.48575 1.266,28.48575 1.413,28.63275 L2.733,29.952 C2.87925,30.099 2.87925,30.336 2.733,30.483 C2.6595,30.55575 2.5635,30.5925 2.4675,30.5925" id="Fill-23" fill="#6353E5"></path>
                        <path d="M2.25,31.125 L0.375,31.125 C0.168,31.125 0,30.957 0,30.75 C0,30.543 0.168,30.375 0.375,30.375 L2.25,30.375 C2.457,30.375 2.625,30.543 2.625,30.75 C2.625,30.957 2.457,31.125 2.25,31.125" id="Fill-25" fill="#6353E5"></path>
                        <path d="M1.147725,32.977275 C1.051725,32.977275 0.955725,32.940525 0.882225,32.867775 C0.735975,32.720775 0.735975,32.483775 0.882225,32.336775 L2.202225,31.017525 C2.349225,30.870525 2.586225,30.870525 2.732475,31.017525 C2.879475,31.163775 2.879475,31.400775 2.732475,31.547775 L1.413225,32.867775 C1.339725,32.940525 1.243725,32.977275 1.147725,32.977275" id="Fill-27" fill="#6353E5"></path>
                        <path d="M12,12 C11.586,12 11.25,12.336 11.25,12.75 L11.25,24.75 C11.25,25.164 11.586,25.5 12,25.5 L24,25.5 C24.414,25.5 24.75,25.164 24.75,24.75 L24.75,12.75 C24.75,12.336 24.414,12 24,12 L12,12 Z M24,27 L12,27 C10.7595,27 9.75,25.9905 9.75,24.75 L9.75,12.75 C9.75,11.5095 10.7595,10.5 12,10.5 L24,10.5 C25.2405,10.5 26.25,11.5095 26.25,12.75 L26.25,24.75 C26.25,25.9905 25.2405,27 24,27 L24,27 Z" id="Fill-29" fill="#6353E5"></path>
                        <path d="M15.75,18 L8.25,18 C7.422,18 6.75,17.328 6.75,16.5 L6.75,9 C6.75,8.172 7.422,7.5 8.25,7.5 L15.75,7.5 C16.578,7.5 17.25,8.172 17.25,9 L17.25,16.5 C17.25,17.328 16.578,18 15.75,18" id="Fill-31" fill="#F4F3FD"></path>
                        <path d="M8.25,8.25 C7.836,8.25 7.5,8.586 7.5,9 L7.5,16.5 C7.5,16.914 7.836,17.25 8.25,17.25 L15.75,17.25 C16.164,17.25 16.5,16.914 16.5,16.5 L16.5,9 C16.5,8.586 16.164,8.25 15.75,8.25 L8.25,8.25 Z M15.75,18.75 L8.25,18.75 C7.0095,18.75 6,17.7405 6,16.5 L6,9 C6,7.7595 7.0095,6.75 8.25,6.75 L15.75,6.75 C16.9905,6.75 18,7.7595 18,9 L18,16.5 C18,17.7405 16.9905,18.75 15.75,18.75 L15.75,18.75 Z" id="Fill-33" fill="#6353E5"></path>
                        <path d="M28,30.5 L20.5,30.5 C19.672,30.5 19,29.828 19,29 L19,21.5 C19,20.672 19.672,20 20.5,20 L28,20 C28.828,20 29.5,20.672 29.5,21.5 L29.5,29 C29.5,29.828 28.828,30.5 28,30.5" id="Fill-35" fill="#6353E5"></path>
                        <g id="shenpi" transform="translate(20.800000, 21.300000)" fill="#F4F3FD">
                            <path d="M6.37936561,4.87989176 C6.6980611,4.87989176 6.95882637,5.13880073 6.95882637,5.45935252 L6.95882637,5.45935252 L6.95882637,6.4192648 C6.95882637,7.05851209 6.4391295,7.57829951 5.79979166,7.57829951 L5.79979166,7.57829951 L1.16353964,7.57829951 C0.524292346,7.57829951 0.00450492992,7.05851209 0.00450492992,6.4192648 L0.00450492992,6.4192648 L0.00450492992,5.45935252 C0.00450492992,5.13880073 0.263527081,4.87989176 0.584078879,4.87989176 L0.584078879,4.87989176 Z M6.08957864,5.7491395 L0.873865853,5.7491395 L0.873865853,6.4192648 C0.873865853,6.57861255 1.00419189,6.70905178 1.16353964,6.70905178 L1.16353964,6.70905178 L5.79979166,6.70905178 C5.95913941,6.70905178 6.08957864,6.57861255 6.08957864,6.4192648 L6.08957864,6.4192648 L6.08957864,5.7491395 Z" id="形状结合"></path>
                            <path d="M1.61480232,5.10405164 L2.5357096,2.53307229 L3.3540222,2.82620967 L2.43311491,5.39718902 L1.61480232,5.10405164 Z M4.5272961,5.39746067 L3.60641146,2.82648132 L4.42481461,2.53334394 L5.34572189,5.1043233 L4.5272961,5.39746067 Z" id="Fill-3"></path>
                            <path d="M3.48172224,0.0988028474 C2.52180997,0.0988028474 1.74311359,0.877499226 1.74311359,1.83729832 C1.74311359,2.79721059 2.52180997,3.57590697 3.48172224,3.57590697 C4.44152133,3.57590697 5.2203309,2.79721059 5.2203309,1.83729832 C5.2203309,0.877499226 4.44152133,0.0988028474 3.48172224,0.0988028474 Z M3.48172224,2.70665924 C3.0018227,2.70665924 2.61236132,2.31731105 2.61236132,1.83729832 C2.61236132,1.35739877 3.0018227,0.968050581 3.48172224,0.968050581 C3.96162179,0.968050581 4.35096998,1.35739877 4.35096998,1.83729832 C4.35096998,2.31731105 3.95985604,2.70665924 3.48172224,2.70665924 Z" id="Fill-4"></path>
                        </g>
                    </g>
                </g>
            </g>
        </g>
    </g>
</svg>