<?xml version="1.0" encoding="UTF-8"?>
<svg width="48px" height="48px" viewBox="0 0 48 48" version="1.1" xmlns="http://www.w3.org/2000/svg" xmlns:xlink="http://www.w3.org/1999/xlink">
    <!-- Generator: Sketch 64 (93537) - https://sketch.com -->
    <title>审批备份 2</title>
    <desc>Created with Sketch.</desc>
    <g id="蓝紫新风格" stroke="none" stroke-width="1" fill="none" fill-rule="evenodd">
        <g id="3-0-0运营中心-产品管理-组件服务-使用指引" transform="translate(-1199.000000, -158.000000)" fill="#6353E5">
            <g id="编组-6" transform="translate(280.000000, 142.000000)">
                <g id="审批备份-2" transform="translate(919.000000, 16.000000)">
                    <path d="M48,24 C48,37.25475 37.25475,48 24,48 C10.74525,48 0,37.25475 0,24 C0,10.74525 10.74525,0 24,0 C37.25475,0 48,10.74525 48,24" id="Fill-1" opacity="0.0700000003"></path>
                    <g id="编组-3" transform="translate(11.648468, 13.967701)">
                        <path d="M12.4052515,4.56718293 C13.3931804,4.55219861 14.1834284,3.74195292 14.1734855,2.75388393 C14.1635146,1.76584296 13.3571901,0.971533858 12.3691491,0.97644046 C11.3811921,0.981280669 10.5827658,1.7836841 10.5826538,2.77172508 C10.5858187,3.25158748 10.7796906,3.71052785 11.1215853,4.04740902 C11.4634799,4.38415014 11.9252771,4.57113207 12.4052515,4.56718293 M8.61245355,12.1588005 C8.6240489,11.4176788 8.18577849,10.7434123 7.5038378,10.4531646 C6.82189711,10.1630009 6.03220935,10.3145526 5.50618963,10.8366232 C4.9801419,11.3587218 4.82262447,12.1473172 5.1077187,12.8313305 C5.39284094,13.5154558 6.06383047,13.9587677 6.80495223,13.952746 C7.79792262,13.952746 8.6050034,13.1517709 8.61245355,12.1588005" id="Fill-1"></path>
                        <path d="M19.9094559,7.46372237 C18.39111,7.44053168 17.1769038,6.19495642 17.1923362,4.67649846 C17.2076566,3.15815253 18.4470141,1.93750447 19.965472,1.94500395 C21.483902,1.95271285 22.7109079,3.18571248 22.711132,4.70428248 C22.6986684,6.23957329 21.4447467,7.47456149 19.9094559,7.46372237 M15.0712564,18.0949727 C15.0884534,19.2318206 14.4167917,20.2662709 13.3713061,20.7133079 C12.3259326,21.1602328 11.1140231,20.9310147 10.3040014,20.1332326 C9.4939518,19.3353384 9.24636039,18.1270419 9.67740471,17.0750025 C10.108477,16.022823 11.1326204,15.3356448 12.2696924,15.3355328 C13.8050112,15.3245816 15.0589049,16.5596819 15.0712564,18.0949727 M4.76089467,7.60376276 C3.24190455,7.5830928 2.02540168,6.33858185 2.03920967,4.81959173 C2.05298964,3.30048959 3.29189897,2.07830108 4.8109171,2.08505098 C6.33001924,2.09196902 7.55789339,3.32522072 7.55800542,4.84432287 C7.54562585,6.37961368 6.2917322,7.61471392 4.75641338,7.60376276 M19.9094559,0.00766385357 C18.6551981,-0.00194291726 17.4484421,0.487218169 16.5549284,1.36748406 C15.6614147,2.24777796 15.1543004,3.44697184 15.1451137,4.7012296 C15.1486147,5.4019637 15.3129381,6.09253088 15.6256203,6.71965976 L12.3434377,8.82835996 L9.10948491,6.75282133 C9.38572859,6.15227211 9.52960608,5.49934779 9.53125856,4.83830113 C9.56058302,2.90420329 8.41804948,1.14428768 6.63953651,0.383812344 C4.86102355,-0.376550964 2.79923688,0.0134615258 1.42126744,1.37087304 C0.0434100269,2.72839658 -0.37738334,4.78404948 0.356316277,6.57370967 C1.08998789,8.36348188 2.83262251,9.53217496 4.7669164,9.53183886 C6.0885616,9.53402349 7.351978,8.98876223 8.25700303,8.02553641 L11.4999184,10.0996746 L11.4999184,13.4752923 C9.05041587,13.87648 7.31892847,16.0908827 7.52025053,18.5648922 C7.72154459,21.0390138 9.78814865,22.9442073 12.2703646,22.9442073 C14.7526645,22.9442073 16.8192686,21.0390138 17.0205627,18.5648922 C17.2218847,16.0908827 15.4903973,13.87648 13.0408948,13.4752923 L13.0408948,10.1915691 L16.4962794,7.97136879 C17.3963751,8.88591656 18.6262098,9.40045297 19.9094559,9.39924862 C21.6071095,9.42966539 23.1890058,8.54138919 24.0467532,7.07600654 C24.9045006,5.61059588 24.9045006,3.7963166 24.0467532,2.33093394 C23.1890058,0.865523282 21.6071095,-0.0227529194 19.9094559,0.00766385357" id="Fill-3"></path>
                        <path d="M17.5927677,10.6389422 C16.6048107,10.6538145 15.8145908,11.4641722 15.8245337,12.4522412 C15.8344766,13.4401701 16.6408291,14.2345632 17.6288701,14.2296844 C18.6169111,14.2247324 19.4152534,13.422441 19.4153654,12.4344 C19.4122005,11.9545376 19.2183286,11.4955693 18.8764339,11.1587161 C18.5345393,10.821975 18.0727421,10.634881 17.5927677,10.6389422" id="Fill-4"></path>
                    </g>
                    <path d="M11.625,6 C10.5898932,6 9.75,6.83989322 9.75,7.875 C9.75,8.91010678 10.5898932,9.75 11.625,9.75 C12.6601068,9.75 13.5,8.91010678 13.5,7.875 C13.5,6.83989322 12.6601068,6 11.625,6 Z M11.625,6.75 C12.2458932,6.75 12.75,7.25410678 12.75,7.875 C12.75,8.49589322 12.2458932,9 11.625,9 C11.0041068,9 10.5,8.49589322 10.5,7.875 C10.5,7.25410678 11.0041068,6.75 11.625,6.75 Z" id="Stroke-3"></path>
                    <path d="M38.37525,8.75025 C38.5823568,8.75025 38.75025,8.91814322 38.75025,9.12525 C38.75025,9.30934492 38.6175936,9.46245628 38.4426567,9.49420825 L38.37525,9.50025 L35.37525,9.50025 C35.1681432,9.50025 35.00025,9.33235678 35.00025,9.12525 C35.00025,8.94115508 35.1329064,8.78804372 35.3078433,8.75629175 L35.37525,8.75025 L38.37525,8.75025 Z" id="Stroke-5"></path>
                    <path d="M36.87525,7.25025 C37.0593449,7.25025 37.2124563,7.38290637 37.2442082,7.55784328 L37.25025,7.62525 L37.25025,10.62525 C37.25025,10.8323568 37.0823568,11.00025 36.87525,11.00025 C36.6911551,11.00025 36.5380437,10.8675936 36.5062918,10.6926567 L36.50025,10.62525 L36.50025,7.62525 C36.50025,7.41814322 36.6681432,7.25025 36.87525,7.25025 Z" id="Stroke-7"></path>
                    <path d="M44.25,30 C44.25,30.828 43.578,31.5 42.75,31.5 C41.922,31.5 41.25,30.828 41.25,30 C41.25,29.172 41.922,28.5 42.75,28.5 C43.578,28.5 44.25,29.172 44.25,30" id="Fill-9"></path>
                    <path d="M37.5,37.5 C37.5,37.91475 37.16475,38.25 36.75,38.25 C36.33525,38.25 36,37.91475 36,37.5 C36,37.08525 36.33525,36.75 36.75,36.75 C37.16475,36.75 37.5,37.08525 37.5,37.5" id="Fill-11"></path>
                    <path d="M9,37.125 C9.18409492,37.125 9.33720628,37.2576564 9.36895825,37.4325933 L9.375,37.5 L9.375,39.375 C9.375,39.5821068 9.20710678,39.75 9,39.75 C8.81590508,39.75 8.66279372,39.6173436 8.63104175,39.4424067 L8.625,39.375 L8.625,37.5 C8.625,37.2928932 8.79289322,37.125 9,37.125 Z" id="Stroke-13"></path>
                    <path d="M9.26710996,37.01711 C9.39728472,36.8869352 9.59935302,36.8724713 9.74550413,36.9737184 L9.79744004,37.01711 L11.11744,38.33711 C11.2638867,38.4835566 11.2638867,38.7209934 11.11744,38.86744 C10.9872653,38.9976148 10.785197,39.0120787 10.6390459,38.9108316 L10.58711,38.86744 L9.26710996,37.54744 C9.12066335,37.4009934 9.12066335,37.1635566 9.26710996,37.01711 Z" id="Stroke-15"></path>
                    <path d="M11.625,36.375 C11.8321068,36.375 12,36.5428932 12,36.75 C12,36.9340949 11.8673436,37.0872063 11.6924067,37.1189582 L11.625,37.125 L9.75,37.125 C9.54289322,37.125 9.375,36.9571068 9.375,36.75 C9.375,36.5659051 9.50765637,36.4127937 9.68259328,36.3810418 L9.75,36.375 L11.625,36.375 Z" id="Stroke-17"></path>
                    <path d="M10.58711,34.63256 C10.7335566,34.4861133 10.9709934,34.4861133 11.11744,34.63256 C11.2476148,34.7627347 11.2620787,34.964803 11.1608316,35.1109541 L11.11744,35.16289 L9.79744004,36.48289 C9.65099343,36.6293367 9.41355657,36.6293367 9.26710996,36.48289 C9.13693519,36.3527153 9.12247133,36.150647 9.22371837,36.0044959 L9.26710996,35.95256 L10.58711,34.63256 Z" id="Stroke-19"></path>
                    <path d="M9,33.75 C9.18409492,33.75 9.33720628,33.8826564 9.36895825,34.0575933 L9.375,34.125 L9.375,36 C9.375,36.2071068 9.20710678,36.375 9,36.375 C8.81590508,36.375 8.66279372,36.2423436 8.63104175,36.0674067 L8.625,36 L8.625,34.125 C8.625,33.9178932 8.79289322,33.75 9,33.75 Z" id="Stroke-21"></path>
                    <path d="M6.88233496,34.632335 C7.01250972,34.5021602 7.21457802,34.4876963 7.36072913,34.5889434 L7.41266504,34.632335 L8.73266504,35.952335 C8.87911165,36.0987816 8.87911165,36.3362184 8.73266504,36.482665 C8.60249028,36.6128398 8.40042198,36.6273037 8.25427087,36.5260566 L8.20233496,36.482665 L6.88233496,35.162665 C6.73588835,35.0162184 6.73588835,34.7787816 6.88233496,34.632335 Z" id="Stroke-23"></path>
                    <path d="M8.25,36.375 C8.45710678,36.375 8.625,36.5428932 8.625,36.75 C8.625,36.9340949 8.49234363,37.0872063 8.31740672,37.1189582 L8.25,37.125 L6.375,37.125 C6.16789322,37.125 6,36.9571068 6,36.75 C6,36.5659051 6.13265637,36.4127937 6.30759328,36.3810418 L6.375,36.375 L8.25,36.375 Z" id="Stroke-25"></path>
                    <path d="M8.20233496,37.017335 C8.34878157,36.8708883 8.58621843,36.8708883 8.73266504,37.017335 C8.86283981,37.1475097 8.87730367,37.349578 8.77605663,37.4957291 L8.73266504,37.547665 L7.41266504,38.867665 C7.26621843,39.0141117 7.02878157,39.0141117 6.88233496,38.867665 C6.75216019,38.7374903 6.73769633,38.535422 6.83894337,38.3892709 L6.88233496,38.337335 L8.20233496,37.017335 Z" id="Stroke-27"></path>
                </g>
            </g>
        </g>
    </g>
</svg>