<?xml version="1.0" encoding="UTF-8"?>
<svg width="48px" height="48px" viewBox="0 0 48 48" version="1.1" xmlns="http://www.w3.org/2000/svg" xmlns:xlink="http://www.w3.org/1999/xlink">
    <!-- Generator: Sketch 64 (93537) - https://sketch.com -->
    <title>审批备份</title>
    <desc>Created with Sketch.</desc>
    <g id="蓝紫新风格" stroke="none" stroke-width="1" fill="none" fill-rule="evenodd">
        <g id="3-0-0运营中心-产品管理-组件服务-使用指引" transform="translate(-927.000000, -158.000000)" fill="#6353E5">
            <g id="编组-6" transform="translate(280.000000, 142.000000)">
                <g id="审批备份" transform="translate(647.000000, 16.000000)">
                    <path d="M48,24 C48,37.25475 37.25475,48 24,48 C10.74525,48 0,37.25475 0,24 C0,10.74525 10.74525,0 24,0 C37.25475,0 48,10.74525 48,24" id="Fill-1" opacity="0.0700000003"></path>
                    <path d="M34.7353383,27.6969219 C33.4969828,27.0214613 32.0335618,27.1340601 31.0202719,28.0346192 L29.5568509,27.1340601 L29.4442521,22.0680395 L25.0537252,19.4788618 L25.0537252,17.5650457 C26.2920806,17.1146507 27.1927717,15.988894 27.1927717,14.5254729 C27.1927717,12.7242556 25.7292187,11.3733014 24.0405672,11.3733014 C22.3519487,11.3733014 20.7757969,12.8368544 20.7757969,14.5254729 C20.7757969,15.988894 21.676488,17.1146507 22.9148435,17.5650457 L22.9148435,19.4788618 L18.4116848,22.0680395 L18.4116848,27.1340601 L16.9482637,28.0346192 C15.9351388,27.1340601 14.4715858,27.0214613 13.2332304,27.6969219 C11.6570786,28.5974811 11.2067826,30.5112972 12.1074737,32.0874489 C13.0080329,33.6635017 14.9218489,34.1137648 16.4980006,33.2132056 C17.7362242,32.537745 18.299218,31.074192 18.0740204,29.8358366 L19.4249747,29.0478761 L24.0405672,31.8622514 L28.6561928,29.0478761 L30.007147,29.8358366 C29.7820484,31.1867908 30.3449432,32.537745 31.5831668,33.2132056 C33.1593185,34.1137648 35.0731346,33.5509029 35.9736937,32.0874489 C36.7617861,30.5112972 36.1988913,28.5974811 34.7353383,27.6969219 Z M15.4847108,31.6370539 C14.8092502,31.9748501 14.0212897,31.7496526 13.5708947,31.1867908 C13.2332304,30.5112972 13.4584279,29.7233697 14.0212897,29.2729747 C14.6966514,28.9352774 15.4847108,29.160343 15.9351388,29.7233697 C16.2728031,30.3988303 16.0476056,31.2993895 15.4847108,31.6370539 Z M22.5770142,14.5254729 C22.5770142,13.7373806 23.1399091,13.1745187 23.9279685,13.1745187 C24.7160608,13.1745187 25.2789227,13.7373806 25.2789227,14.5254729 C25.2789227,15.3135653 24.7160608,15.988894 23.9279685,15.988894 C23.1399091,15.988894 22.5770142,15.3134333 22.5770142,14.5254729 Z M23.9279685,29.3855735 L20.4381326,27.3592576 L20.4381326,23.3063949 L23.9279685,21.280112 L27.4179692,23.3063949 L27.4179692,27.3592576 L23.9279685,29.3855735 Z M34.2850752,31.1867908 C33.9473779,31.8622514 33.0467197,32.0874489 32.3712261,31.6370539 C31.6957655,31.2993895 31.4706999,30.3988303 31.920963,29.7233697 C32.2586274,29.0478761 33.1593185,28.8226786 33.8347791,29.2729747 C34.3976739,29.610771 34.6227395,30.5112972 34.2850752,31.1867908 Z" id="Fill-1"></path>
                    <path d="M11.625,6 C10.5898932,6 9.75,6.83989322 9.75,7.875 C9.75,8.91010678 10.5898932,9.75 11.625,9.75 C12.6601068,9.75 13.5,8.91010678 13.5,7.875 C13.5,6.83989322 12.6601068,6 11.625,6 Z M11.625,6.75 C12.2458932,6.75 12.75,7.25410678 12.75,7.875 C12.75,8.49589322 12.2458932,9 11.625,9 C11.0041068,9 10.5,8.49589322 10.5,7.875 C10.5,7.25410678 11.0041068,6.75 11.625,6.75 Z" id="Stroke-3"></path>
                    <path d="M38.37525,8.75025 C38.5823568,8.75025 38.75025,8.91814322 38.75025,9.12525 C38.75025,9.30934492 38.6175936,9.46245628 38.4426567,9.49420825 L38.37525,9.50025 L35.37525,9.50025 C35.1681432,9.50025 35.00025,9.33235678 35.00025,9.12525 C35.00025,8.94115508 35.1329064,8.78804372 35.3078433,8.75629175 L35.37525,8.75025 L38.37525,8.75025 Z" id="Stroke-5"></path>
                    <path d="M36.87525,7.25025 C37.0593449,7.25025 37.2124563,7.38290637 37.2442082,7.55784328 L37.25025,7.62525 L37.25025,10.62525 C37.25025,10.8323568 37.0823568,11.00025 36.87525,11.00025 C36.6911551,11.00025 36.5380437,10.8675936 36.5062918,10.6926567 L36.50025,10.62525 L36.50025,7.62525 C36.50025,7.41814322 36.6681432,7.25025 36.87525,7.25025 Z" id="Stroke-7"></path>
                    <path d="M44.25,30 C44.25,30.828 43.578,31.5 42.75,31.5 C41.922,31.5 41.25,30.828 41.25,30 C41.25,29.172 41.922,28.5 42.75,28.5 C43.578,28.5 44.25,29.172 44.25,30" id="Fill-9"></path>
                    <path d="M37.5,37.5 C37.5,37.91475 37.16475,38.25 36.75,38.25 C36.33525,38.25 36,37.91475 36,37.5 C36,37.08525 36.33525,36.75 36.75,36.75 C37.16475,36.75 37.5,37.08525 37.5,37.5" id="Fill-11"></path>
                    <path d="M9,37.125 C9.18409492,37.125 9.33720628,37.2576564 9.36895825,37.4325933 L9.375,37.5 L9.375,39.375 C9.375,39.5821068 9.20710678,39.75 9,39.75 C8.81590508,39.75 8.66279372,39.6173436 8.63104175,39.4424067 L8.625,39.375 L8.625,37.5 C8.625,37.2928932 8.79289322,37.125 9,37.125 Z" id="Stroke-13"></path>
                    <path d="M9.26710996,37.01711 C9.39728472,36.8869352 9.59935302,36.8724713 9.74550413,36.9737184 L9.79744004,37.01711 L11.11744,38.33711 C11.2638867,38.4835566 11.2638867,38.7209934 11.11744,38.86744 C10.9872653,38.9976148 10.785197,39.0120787 10.6390459,38.9108316 L10.58711,38.86744 L9.26710996,37.54744 C9.12066335,37.4009934 9.12066335,37.1635566 9.26710996,37.01711 Z" id="Stroke-15"></path>
                    <path d="M11.625,36.375 C11.8321068,36.375 12,36.5428932 12,36.75 C12,36.9340949 11.8673436,37.0872063 11.6924067,37.1189582 L11.625,37.125 L9.75,37.125 C9.54289322,37.125 9.375,36.9571068 9.375,36.75 C9.375,36.5659051 9.50765637,36.4127937 9.68259328,36.3810418 L9.75,36.375 L11.625,36.375 Z" id="Stroke-17"></path>
                    <path d="M10.58711,34.63256 C10.7335566,34.4861133 10.9709934,34.4861133 11.11744,34.63256 C11.2476148,34.7627347 11.2620787,34.964803 11.1608316,35.1109541 L11.11744,35.16289 L9.79744004,36.48289 C9.65099343,36.6293367 9.41355657,36.6293367 9.26710996,36.48289 C9.13693519,36.3527153 9.12247133,36.150647 9.22371837,36.0044959 L9.26710996,35.95256 L10.58711,34.63256 Z" id="Stroke-19"></path>
                    <path d="M9,33.75 C9.18409492,33.75 9.33720628,33.8826564 9.36895825,34.0575933 L9.375,34.125 L9.375,36 C9.375,36.2071068 9.20710678,36.375 9,36.375 C8.81590508,36.375 8.66279372,36.2423436 8.63104175,36.0674067 L8.625,36 L8.625,34.125 C8.625,33.9178932 8.79289322,33.75 9,33.75 Z" id="Stroke-21"></path>
                    <path d="M6.88233496,34.632335 C7.01250972,34.5021602 7.21457802,34.4876963 7.36072913,34.5889434 L7.41266504,34.632335 L8.73266504,35.952335 C8.87911165,36.0987816 8.87911165,36.3362184 8.73266504,36.482665 C8.60249028,36.6128398 8.40042198,36.6273037 8.25427087,36.5260566 L8.20233496,36.482665 L6.88233496,35.162665 C6.73588835,35.0162184 6.73588835,34.7787816 6.88233496,34.632335 Z" id="Stroke-23"></path>
                    <path d="M8.25,36.375 C8.45710678,36.375 8.625,36.5428932 8.625,36.75 C8.625,36.9340949 8.49234363,37.0872063 8.31740672,37.1189582 L8.25,37.125 L6.375,37.125 C6.16789322,37.125 6,36.9571068 6,36.75 C6,36.5659051 6.13265637,36.4127937 6.30759328,36.3810418 L6.375,36.375 L8.25,36.375 Z" id="Stroke-25"></path>
                    <path d="M8.20233496,37.017335 C8.34878157,36.8708883 8.58621843,36.8708883 8.73266504,37.017335 C8.86283981,37.1475097 8.87730367,37.349578 8.77605663,37.4957291 L8.73266504,37.547665 L7.41266504,38.867665 C7.26621843,39.0141117 7.02878157,39.0141117 6.88233496,38.867665 C6.75216019,38.7374903 6.73769633,38.535422 6.83894337,38.3892709 L6.88233496,38.337335 L8.20233496,37.017335 Z" id="Stroke-27"></path>
                </g>
            </g>
        </g>
    </g>
</svg>