<?xml version="1.0" encoding="UTF-8"?>
<svg width="48px" height="48px" viewBox="0 0 48 48" version="1.1" xmlns="http://www.w3.org/2000/svg" xmlns:xlink="http://www.w3.org/1999/xlink">
    <!-- Generator: Sketch 64 (93537) - https://sketch.com -->
    <title>表单</title>
    <desc>Created with Sketch.</desc>
    <g id="蓝紫新风格" stroke="none" stroke-width="1" fill="none" fill-rule="evenodd">
        <g id="3-0-0运营中心-产品管理-组件服务-使用指引" transform="translate(-382.000000, -158.000000)" fill="#6353E5">
            <g id="编组-6" transform="translate(280.000000, 142.000000)">
                <g id="表单" transform="translate(102.000000, 16.000000)">
                    <path d="M48,24 C48,37.25475 37.25475,48 24,48 C10.74525,48 0,37.25475 0,24 C0,10.74525 10.74525,0 24,0 C37.25475,0 48,10.74525 48,24" id="Fill-1" opacity="0.0700000003"></path>
                    <g id="编组-12" transform="translate(6.000000, 6.000000)">
                        <path d="M5.625,0 C4.58989322,0 3.75,0.839893219 3.75,1.875 C3.75,2.91010678 4.58989322,3.75 5.625,3.75 C6.66010678,3.75 7.5,2.91010678 7.5,1.875 C7.5,0.839893219 6.66010678,0 5.625,0 Z M5.625,0.75 C6.24589322,0.75 6.75,1.25410678 6.75,1.875 C6.75,2.49589322 6.24589322,3 5.625,3 C5.00410678,3 4.5,2.49589322 4.5,1.875 C4.5,1.25410678 5.00410678,0.75 5.625,0.75 Z" id="Stroke-3" fill-rule="nonzero"></path>
                        <path d="M32.37525,2.75025 C32.5823568,2.75025 32.75025,2.91814322 32.75025,3.12525 C32.75025,3.30934492 32.6175936,3.46245628 32.4426567,3.49420825 L32.37525,3.50025 L29.37525,3.50025 C29.1681432,3.50025 29.00025,3.33235678 29.00025,3.12525 C29.00025,2.94115508 29.1329064,2.78804372 29.3078433,2.75629175 L29.37525,2.75025 L32.37525,2.75025 Z" id="Stroke-5" fill-rule="nonzero"></path>
                        <path d="M30.87525,1.25025 C31.0593449,1.25025 31.2124563,1.38290637 31.2442082,1.55784328 L31.25025,1.62525 L31.25025,4.62525 C31.25025,4.83235678 31.0823568,5.00025 30.87525,5.00025 C30.6911551,5.00025 30.5380437,4.86759363 30.5062918,4.69265672 L30.50025,4.62525 L30.50025,1.62525 C30.50025,1.41814322 30.6681432,1.25025 30.87525,1.25025 Z" id="Stroke-7" fill-rule="nonzero"></path>
                        <path d="M38.25,24 C38.25,24.828 37.578,25.5 36.75,25.5 C35.922,25.5 35.25,24.828 35.25,24 C35.25,23.172 35.922,22.5 36.75,22.5 C37.578,22.5 38.25,23.172 38.25,24" id="Fill-9"></path>
                        <path d="M31.5,31.5 C31.5,31.91475 31.16475,32.25 30.75,32.25 C30.33525,32.25 30,31.91475 30,31.5 C30,31.08525 30.33525,30.75 30.75,30.75 C31.16475,30.75 31.5,31.08525 31.5,31.5" id="Fill-11"></path>
                        <path d="M3,31.125 C3.18409492,31.125 3.33720628,31.2576564 3.36895825,31.4325933 L3.375,31.5 L3.375,33.375 C3.375,33.5821068 3.20710678,33.75 3,33.75 C2.81590508,33.75 2.66279372,33.6173436 2.63104175,33.4424067 L2.625,33.375 L2.625,31.5 C2.625,31.2928932 2.79289322,31.125 3,31.125 Z" id="Stroke-13" fill-rule="nonzero"></path>
                        <path d="M3.26710996,31.01711 C3.39728472,30.8869352 3.59935302,30.8724713 3.74550413,30.9737184 L3.79744004,31.01711 L5.11744004,32.33711 C5.26388665,32.4835566 5.26388665,32.7209934 5.11744004,32.86744 C4.98726528,32.9976148 4.78519698,33.0120787 4.63904587,32.9108316 L4.58710996,32.86744 L3.26710996,31.54744 C3.12066335,31.4009934 3.12066335,31.1635566 3.26710996,31.01711 Z" id="Stroke-15" fill-rule="nonzero"></path>
                        <path d="M5.625,30.375 C5.83210678,30.375 6,30.5428932 6,30.75 C6,30.9340949 5.86734363,31.0872063 5.69240672,31.1189582 L5.625,31.125 L3.75,31.125 C3.54289322,31.125 3.375,30.9571068 3.375,30.75 C3.375,30.5659051 3.50765637,30.4127937 3.68259328,30.3810418 L3.75,30.375 L5.625,30.375 Z" id="Stroke-17" fill-rule="nonzero"></path>
                        <path d="M4.58710996,28.63256 C4.73355657,28.4861133 4.97099343,28.4861133 5.11744004,28.63256 C5.24761481,28.7627347 5.26207867,28.964803 5.16083163,29.1109541 L5.11744004,29.16289 L3.79744004,30.48289 C3.65099343,30.6293367 3.41355657,30.6293367 3.26710996,30.48289 C3.13693519,30.3527153 3.12247133,30.150647 3.22371837,30.0044959 L3.26710996,29.95256 L4.58710996,28.63256 Z" id="Stroke-19" fill-rule="nonzero"></path>
                        <path d="M3,27.75 C3.18409492,27.75 3.33720628,27.8826564 3.36895825,28.0575933 L3.375,28.125 L3.375,30 C3.375,30.2071068 3.20710678,30.375 3,30.375 C2.81590508,30.375 2.66279372,30.2423436 2.63104175,30.0674067 L2.625,30 L2.625,28.125 C2.625,27.9178932 2.79289322,27.75 3,27.75 Z" id="Stroke-21" fill-rule="nonzero"></path>
                        <path d="M0.882334957,28.632335 C1.01250972,28.5021602 1.21457802,28.4876963 1.36072913,28.5889434 L1.41266504,28.632335 L2.73266504,29.952335 C2.87911165,30.0987816 2.87911165,30.3362184 2.73266504,30.482665 C2.60249028,30.6128398 2.40042198,30.6273037 2.25427087,30.5260566 L2.20233496,30.482665 L0.882334957,29.162665 C0.735888348,29.0162184 0.735888348,28.7787816 0.882334957,28.632335 Z" id="Stroke-23" fill-rule="nonzero"></path>
                        <path d="M2.25,30.375 C2.45710678,30.375 2.625,30.5428932 2.625,30.75 C2.625,30.9340949 2.49234363,31.0872063 2.31740672,31.1189582 L2.25,31.125 L0.375,31.125 C0.167893219,31.125 0,30.9571068 0,30.75 C0,30.5659051 0.13265637,30.4127937 0.307593276,30.3810418 L0.375,30.375 L2.25,30.375 Z" id="Stroke-25" fill-rule="nonzero"></path>
                        <path d="M2.20233496,31.017335 C2.34878157,30.8708883 2.58621843,30.8708883 2.73266504,31.017335 C2.86283981,31.1475097 2.87730367,31.349578 2.77605663,31.4957291 L2.73266504,31.547665 L1.41266504,32.867665 C1.26621843,33.0141117 1.02878157,33.0141117 0.882334957,32.867665 C0.752160193,32.7374903 0.73769633,32.535422 0.838943369,32.3892709 L0.882334957,32.337335 L2.20233496,31.017335 Z" id="Stroke-27" fill-rule="nonzero"></path>
                        <path d="M12.75,6.5625 C13.267767,6.5625 13.6875,6.98223305 13.6875,7.5 C13.6875,7.98540652 13.318594,8.38465042 12.8458539,8.43265979 L12.75,8.4375 L10.647,8.4375 C9.06335236,8.4375 7.77060064,9.68076274 7.69135018,11.2446828 L7.6875,11.397 L7.6875,26.103 C7.6875,27.6866476 8.93076274,28.9793994 10.4946828,29.0586498 L10.647,29.0625 L25.353,29.0625 C26.9366476,29.0625 28.2293994,27.8192373 28.3086498,26.2553172 L28.3125,26.103 L28.3125,11.397 C28.3125,9.81335236 27.0692373,8.52060064 25.5053172,8.44135018 L25.353,8.4375 L23.25,8.4375 C22.732233,8.4375 22.3125,8.01776695 22.3125,7.5 C22.3125,7.01459348 22.681406,6.61534958 23.1541461,6.56734021 L23.25,6.5625 L25.353,6.5625 C27.9652177,6.5625 30.0931638,8.63365875 30.1844487,11.2235866 L30.1875,11.397 L30.1875,26.103 C30.1875,28.7152177 28.1163412,30.8431638 25.5264134,30.9344487 L25.353,30.9375 L10.647,30.9375 C8.03478233,30.9375 5.90683624,28.8663412 5.81555135,26.2764134 L5.8125,26.103 L5.8125,11.397 C5.8125,8.78478233 7.88365875,6.65683624 10.4735866,6.56555135 L10.647,6.5625 L12.75,6.5625 Z" id="Stroke-29" fill-rule="nonzero"></path>
                        <path d="M23.25,5.25 L23.25,9.75 L12.75,9.75 L12.75,5.25 L23.25,5.25 Z M21.75,6.75 L14.25,6.75 L14.25,8.25 L21.75,8.25 L21.75,6.75 Z" id="形状结合"></path>
                        <path d="M24.375,14.025 C24.7063708,14.025 24.975,14.2936292 24.975,14.625 C24.975,14.9308808 24.7461089,15.1833012 24.4502627,15.2203251 L24.375,15.225 L15.375,15.225 C15.0436292,15.225 14.775,14.9563708 14.775,14.625 C14.775,14.3191192 15.0038911,14.0666988 15.2997373,14.0296749 L15.375,14.025 L24.375,14.025 Z" id="Stroke-33" fill-rule="nonzero"></path>
                        <path d="M24.375,17.803575 C24.7063708,17.803575 24.975,18.0722042 24.975,18.403575 C24.975,18.7094558 24.7461089,18.9618762 24.4502627,18.9989001 L24.375,19.003575 L15.375,19.003575 C15.0436292,19.003575 14.775,18.7349458 14.775,18.403575 C14.775,18.0976942 15.0038911,17.8452738 15.2997373,17.8082499 L15.375,17.803575 L24.375,17.803575 Z" id="Stroke-34" fill-rule="nonzero"></path>
                        <path d="M20.91375,21.582825 C21.2451208,21.582825 21.51375,21.8514542 21.51375,22.182825 C21.51375,22.4887058 21.2848589,22.7411262 20.9890127,22.7781501 L20.91375,22.782825 L15.375,22.782825 C15.0436292,22.782825 14.775,22.5141958 14.775,22.182825 C14.775,21.8769442 15.0038911,21.6245238 15.2997373,21.5874999 L15.375,21.582825 L20.91375,21.582825 Z" id="Stroke-35" fill-rule="nonzero"></path>
                        <path d="M12.31725,21.582825 C12.6486208,21.582825 12.91725,21.8514542 12.91725,22.182825 C12.91725,22.4887058 12.6883589,22.7411262 12.3925127,22.7781501 L12.31725,22.782825 L11.625,22.782825 C11.2936292,22.782825 11.025,22.5141958 11.025,22.182825 C11.025,21.8769442 11.2538911,21.6245238 11.5497373,21.5874999 L11.625,21.582825 L12.31725,21.582825 Z" id="Stroke-36" fill-rule="nonzero"></path>
                        <path d="M12.31725,14.025 C12.6486208,14.025 12.91725,14.2936292 12.91725,14.625 C12.91725,14.9308808 12.6883589,15.1833012 12.3925127,15.2203251 L12.31725,15.225 L11.625,15.225 C11.2936292,15.225 11.025,14.9563708 11.025,14.625 C11.025,14.3191192 11.2538911,14.0666988 11.5497373,14.0296749 L11.625,14.025 L12.31725,14.025 Z" id="Stroke-37" fill-rule="nonzero"></path>
                        <path d="M12.31725,17.803575 C12.6486208,17.803575 12.91725,18.0722042 12.91725,18.403575 C12.91725,18.7094558 12.6883589,18.9618762 12.3925127,18.9989001 L12.31725,19.003575 L11.625,19.003575 C11.2936292,19.003575 11.025,18.7349458 11.025,18.403575 C11.025,18.0976942 11.2538911,17.8452738 11.5497373,17.8082499 L11.625,17.803575 L12.31725,17.803575 Z" id="Stroke-38" fill-rule="nonzero"></path>
                    </g>
                </g>
            </g>
        </g>
    </g>
</svg>