<svg id="图层_1" data-name="图层 1" xmlns="http://www.w3.org/2000/svg" viewBox="0 0 64 64"><defs><style>.cls-1{opacity:0.07;}.cls-2{fill:#6353e5;}</style></defs><title>CloudEOS_Icon</title><g class="cls-1"><circle class="cls-2" cx="32" cy="32" r="32"/></g><path class="cls-2" d="M15.5,13A2.5,2.5,0,1,1,18,10.5,2.5,2.5,0,0,1,15.5,13Zm0-4A1.5,1.5,0,1,0,17,10.5,1.5,1.5,0,0,0,15.5,9Z"/><path class="cls-2" d="M51.17,12.67h-4a.5.5,0,0,1-.5-.5.5.5,0,0,1,.5-.5h4a.5.5,0,0,1,.5.5A.51.51,0,0,1,51.17,12.67Z"/><path class="cls-2" d="M49.17,14.67a.5.5,0,0,1-.5-.5v-4a.5.5,0,0,1,.5-.5.5.5,0,0,1,.5.5v4A.51.51,0,0,1,49.17,14.67Z"/><circle class="cls-2" cx="55" cy="29" r="2"/><circle class="cls-2" cx="49" cy="50" r="1"/><path class="cls-2" d="M12,53a.5.5,0,0,1-.5-.5V50a.5.5,0,0,1,1,0v2.5A.5.5,0,0,1,12,53Z"/><path class="cls-2" d="M14.47,52a.47.47,0,0,1-.35-.15l-1.76-1.76a.49.49,0,0,1,.7-.7l1.76,1.76a.48.48,0,0,1,0,.7A.47.47,0,0,1,14.47,52Z"/><path class="cls-2" d="M15.5,49.5H13a.5.5,0,0,1,0-1h2.5a.5.5,0,0,1,0,1Z"/><path class="cls-2" d="M12.71,48.79a.47.47,0,0,1-.35-.15.48.48,0,0,1,0-.7l1.76-1.76a.49.49,0,0,1,.7.7l-1.76,1.76A.47.47,0,0,1,12.71,48.79Z"/><path class="cls-2" d="M12,48.5a.5.5,0,0,1-.5-.5V45.5a.5.5,0,0,1,1,0V48A.5.5,0,0,1,12,48.5Z"/><path class="cls-2" d="M11.29,48.79a.47.47,0,0,1-.35-.15L9.18,46.88a.49.49,0,0,1,.7-.7l1.76,1.76a.48.48,0,0,1,0,.7A.47.47,0,0,1,11.29,48.79Z"/><path class="cls-2" d="M11,49.5H8.5a.5.5,0,0,1,0-1H11a.5.5,0,0,1,0,1Z"/><path class="cls-2" d="M9.53,52a.47.47,0,0,1-.35-.15.48.48,0,0,1,0-.7l1.76-1.76a.49.49,0,0,1,.7.7L9.88,51.82A.47.47,0,0,1,9.53,52Z"/><path class="cls-2" d="M37.16,14.79a5,5,0,0,0-7.71,6.3,5.73,5.73,0,0,0,.63.77,4.81,4.81,0,0,0,.79.64,5,5,0,0,0,6.29-7.71Zm-1.42,5.66a3,3,0,0,1-3.42.59,3,3,0,0,1-.82-.59,2.9,2.9,0,0,1-.58-.83,3,3,0,1,1,4.82.83Z"/><path class="cls-2" d="M35.68,43.17a5.33,5.33,0,0,0-.61-.74,5.16,5.16,0,0,0-.82-.66,5,5,0,1,0,1.43,1.4Zm-2,4.92a3,3,0,1,1-.87-4.85,3,3,0,0,1,.87.6,2.74,2.74,0,0,1,.57.79A3,3,0,0,1,33.65,48.09Z"/><path class="cls-2" d="M46.26,32.59l-12,12a2.74,2.74,0,0,0-.57-.79,3,3,0,0,0-.87-.6l1.47-1.47,10.6-10.59a3.5,3.5,0,1,0-5-4.95l-6.72,6.71h0l-7.43,7.42a5.51,5.51,0,0,1-7.78,0,5.5,5.5,0,0,1,0-7.77l13-13a2.9,2.9,0,0,0,.58.83,3,3,0,0,0,.82.59L30.87,22.5,19.38,34a3.5,3.5,0,1,0,4.95,4.95l7.42-7.42h0l6.71-6.72a5.5,5.5,0,0,1,7.78,7.78Z"/></svg>