<?xml version="1.0" encoding="UTF-8"?>
<svg width="48px" height="48px" viewBox="0 0 48 48" version="1.1" xmlns="http://www.w3.org/2000/svg" xmlns:xlink="http://www.w3.org/1999/xlink">
    <!-- Generator: Sketch 64 (93537) - https://sketch.com -->
    <title>运营中心-产品详情</title>
    <desc>Created with Sketch.</desc>
    <g id="蓝紫新风格" stroke="none" stroke-width="1" fill="none" fill-rule="evenodd">
        <g id="3-0-0运营中心-产品管理-组件服务-使用指引" transform="translate(-654.000000, -158.000000)" fill="#6353E5">
            <g id="编组-6" transform="translate(280.000000, 142.000000)">
                <g id="运营中心-产品详情" transform="translate(374.000000, 16.000000)">
                    <path d="M48,24 C48,37.25475 37.25475,48 24,48 C10.74525,48 0,37.25475 0,24 C0,10.74525 10.74525,0 24,0 C37.25475,0 48,10.74525 48,24" id="Fill-1" opacity="0.0700000003"></path>
                    <path d="M11.625,6.75 C11.00475,6.75 10.5,7.25475 10.5,7.875 C10.5,8.49525 11.00475,9 11.625,9 C12.24525,9 12.75,8.49525 12.75,7.875 C12.75,7.25475 12.24525,6.75 11.625,6.75 M11.625,9.75 C10.59075,9.75 9.75,8.90925 9.75,7.875 C9.75,6.84075 10.59075,6 11.625,6 C12.65925,6 13.5,6.84075 13.5,7.875 C13.5,8.90925 12.65925,9.75 11.625,9.75" id="Fill-3"></path>
                    <path d="M38.37525,9.50025 L35.37525,9.50025 C35.16825,9.50025 35.00025,9.33225 35.00025,9.12525 C35.00025,8.91825 35.16825,8.75025 35.37525,8.75025 L38.37525,8.75025 C38.58225,8.75025 38.75025,8.91825 38.75025,9.12525 C38.75025,9.33225 38.58225,9.50025 38.37525,9.50025" id="Fill-5"></path>
                    <path d="M36.87525,11.00025 C36.66825,11.00025 36.50025,10.83225 36.50025,10.62525 L36.50025,7.62525 C36.50025,7.41825 36.66825,7.25025 36.87525,7.25025 C37.08225,7.25025 37.25025,7.41825 37.25025,7.62525 L37.25025,10.62525 C37.25025,10.83225 37.08225,11.00025 36.87525,11.00025" id="Fill-7"></path>
                    <path d="M42.75,21.75 C42.75,22.578 42.078,23.25 41.25,23.25 C40.422,23.25 39.75,22.578 39.75,21.75 C39.75,20.922 40.422,20.25 41.25,20.25 C42.078,20.25 42.75,20.922 42.75,21.75" id="Fill-9"></path>
                    <path d="M37.5,37.5 C37.5,37.91475 37.16475,38.25 36.75,38.25 C36.33525,38.25 36,37.91475 36,37.5 C36,37.08525 36.33525,36.75 36.75,36.75 C37.16475,36.75 37.5,37.08525 37.5,37.5" id="Fill-11"></path>
                    <path d="M9,39.75 C8.793,39.75 8.625,39.582 8.625,39.375 L8.625,37.5 C8.625,37.293 8.793,37.125 9,37.125 C9.207,37.125 9.375,37.293 9.375,37.5 L9.375,39.375 C9.375,39.582 9.207,39.75 9,39.75" id="Fill-13"></path>
                    <path d="M10.852275,38.977275 C10.756275,38.977275 10.660275,38.940525 10.586775,38.867775 L9.267525,37.547775 C9.120525,37.400775 9.120525,37.163775 9.267525,37.017525 C9.413775,36.870525 9.650775,36.870525 9.797775,37.017525 L11.117775,38.336775 C11.264025,38.483775 11.264025,38.720775 11.117775,38.867775 C11.044275,38.940525 10.948275,38.977275 10.852275,38.977275" id="Fill-15"></path>
                    <path d="M11.625,37.125 L9.75,37.125 C9.543,37.125 9.375,36.957 9.375,36.75 C9.375,36.543 9.543,36.375 9.75,36.375 L11.625,36.375 C11.832,36.375 12,36.543 12,36.75 C12,36.957 11.832,37.125 11.625,37.125" id="Fill-17"></path>
                    <path d="M9.5325,36.5925 C9.4365,36.5925 9.3405,36.55575 9.267,36.483 C9.12075,36.336 9.12075,36.099 9.267,35.952 L10.587,34.63275 C10.734,34.48575 10.971,34.48575 11.11725,34.63275 C11.26425,34.779 11.26425,35.016 11.11725,35.163 L9.798,36.483 C9.7245,36.55575 9.6285,36.5925 9.5325,36.5925" id="Fill-19"></path>
                    <path d="M9,36.375 C8.793,36.375 8.625,36.207 8.625,36 L8.625,34.125 C8.625,33.918 8.793,33.75 9,33.75 C9.207,33.75 9.375,33.918 9.375,34.125 L9.375,36 C9.375,36.207 9.207,36.375 9,36.375" id="Fill-21"></path>
                    <path d="M8.4675,36.5925 C8.3715,36.5925 8.2755,36.55575 8.202,36.483 L6.88275,35.163 C6.73575,35.016 6.73575,34.779 6.88275,34.63275 C7.029,34.48575 7.266,34.48575 7.413,34.63275 L8.733,35.952 C8.87925,36.099 8.87925,36.336 8.733,36.483 C8.6595,36.55575 8.5635,36.5925 8.4675,36.5925" id="Fill-23"></path>
                    <path d="M8.25,37.125 L6.375,37.125 C6.168,37.125 6,36.957 6,36.75 C6,36.543 6.168,36.375 6.375,36.375 L8.25,36.375 C8.457,36.375 8.625,36.543 8.625,36.75 C8.625,36.957 8.457,37.125 8.25,37.125" id="Fill-25"></path>
                    <path d="M7.147725,38.977275 C7.051725,38.977275 6.955725,38.940525 6.882225,38.867775 C6.735975,38.720775 6.735975,38.483775 6.882225,38.336775 L8.202225,37.017525 C8.349225,36.870525 8.586225,36.870525 8.732475,37.017525 C8.879475,37.163775 8.879475,37.400775 8.732475,37.547775 L7.413225,38.867775 C7.339725,38.940525 7.243725,38.977275 7.147725,38.977275" id="Fill-27"></path>
                    <path d="M27.75,20.0625 L27.75,14.4375 L32.25,14.4375 C33.38775,14.4375 34.3125,15.36225 34.3125,16.5 L34.3125,20.0625 L27.75,20.0625 Z M34.3125,33 C34.3125,34.13775 33.38775,35.0625 32.25,35.0625 L15.75,35.0625 C14.61225,35.0625 13.6875,34.13775 13.6875,33 L13.6875,21.9375 L20.25,21.9375 L20.25,28.5 L24,26.25 L27.75,28.5 L27.75,21.9375 L34.3125,21.9375 L34.3125,33 Z M13.6875,16.5 C13.6875,15.36225 14.61225,14.4375 15.75,14.4375 L20.25,14.4375 L20.25,20.0625 L13.6875,20.0625 L13.6875,16.5 Z M32.25,12.5625 L15.75,12.5625 C13.57875,12.5625 11.8125,14.32875 11.8125,16.5 L11.8125,20.0625 L11.8125,21.9375 L11.8125,33 C11.8125,35.17125 13.57875,36.9375 15.75,36.9375 L32.25,36.9375 C34.42125,36.9375 36.1875,35.17125 36.1875,33 L36.1875,21.9375 L36.1875,20.0625 L36.1875,16.5 C36.1875,14.32875 34.42125,12.5625 32.25,12.5625 L32.25,12.5625 Z" id="Fill-29"></path>
                </g>
            </g>
        </g>
    </g>
</svg>