<?xml version="1.0" encoding="UTF-8"?>
<svg width="48px" height="48px" viewBox="0 0 48 48" version="1.1" xmlns="http://www.w3.org/2000/svg" xmlns:xlink="http://www.w3.org/1999/xlink">
    <!-- Generator: Sketch 64 (93537) - https://sketch.com -->
    <title>运营中心-业务组详情</title>
    <desc>Created with Sketch.</desc>
    <g id="蓝紫新风格" stroke="none" stroke-width="1" fill="none" fill-rule="evenodd">
        <g id="2-0-0运营中心-业务组-使用指引" transform="translate(-550.000000, -154.000000)" fill="#6353E5">
            <g id="编组-6" transform="translate(280.000000, 138.000000)">
                <g id="运营中心-业务组详情" transform="translate(270.000000, 16.000000)">
                    <path d="M48,24 C48,37.25475 37.25475,48 24,48 C10.74525,48 0,37.25475 0,24 C0,10.74525 10.74525,0 24,0 C37.25475,0 48,10.74525 48,24" id="Fill-1" opacity="0.0700000003"></path>
                    <g id="编组-7" transform="translate(6.000000, 6.750000)">
                        <path d="M5.625,0.75 C5.00475,0.75 4.5,1.25475 4.5,1.875 C4.5,2.49525 5.00475,3 5.625,3 C6.24525,3 6.75,2.49525 6.75,1.875 C6.75,1.25475 6.24525,0.75 5.625,0.75 M5.625,3.75 C4.59075,3.75 3.75,2.9085 3.75,1.875 C3.75,0.8415 4.59075,0 5.625,0 C6.65925,0 7.5,0.8415 7.5,1.875 C7.5,2.9085 6.65925,3.75 5.625,3.75" id="Fill-3"></path>
                        <path d="M32.37525,3.499875 L29.37525,3.499875 C29.16825,3.499875 29.00025,3.331875 29.00025,3.124875 C29.00025,2.917875 29.16825,2.749875 29.37525,2.749875 L32.37525,2.749875 C32.58225,2.749875 32.75025,2.917875 32.75025,3.124875 C32.75025,3.331875 32.58225,3.499875 32.37525,3.499875" id="Fill-5"></path>
                        <path d="M30.87525,4.999875 C30.66825,4.999875 30.50025,4.831875 30.50025,4.624875 L30.50025,1.624875 C30.50025,1.417875 30.66825,1.249875 30.87525,1.249875 C31.08225,1.249875 31.25025,1.417875 31.25025,1.624875 L31.25025,4.624875 C31.25025,4.831875 31.08225,4.999875 30.87525,4.999875" id="Fill-7"></path>
                        <path d="M36.75,15.75 C36.75,16.578 36.078,17.25 35.25,17.25 C34.422,17.25 33.75,16.578 33.75,15.75 C33.75,14.922 34.422,14.25 35.25,14.25 C36.078,14.25 36.75,14.922 36.75,15.75" id="Fill-9"></path>
                        <path d="M31.5,31.5 C31.5,31.91475 31.16475,32.25 30.75,32.25 C30.33525,32.25 30,31.91475 30,31.5 C30,31.08525 30.33525,30.75 30.75,30.75 C31.16475,30.75 31.5,31.08525 31.5,31.5" id="Fill-11"></path>
                        <path d="M3,33.75 C2.793,33.75 2.625,33.582 2.625,33.375 L2.625,31.5 C2.625,31.293 2.793,31.125 3,31.125 C3.207,31.125 3.375,31.293 3.375,31.5 L3.375,33.375 C3.375,33.582 3.207,33.75 3,33.75" id="Fill-13"></path>
                        <path d="M4.852275,32.977275 C4.756275,32.977275 4.660275,32.940525 4.586775,32.867775 L3.267525,31.547775 C3.120525,31.400775 3.120525,31.163775 3.267525,31.017525 C3.413775,30.870525 3.650775,30.870525 3.797775,31.017525 L5.117775,32.336775 C5.264025,32.483775 5.264025,32.720775 5.117775,32.867775 C5.044275,32.940525 4.948275,32.977275 4.852275,32.977275" id="Fill-15"></path>
                        <path d="M5.625,31.125 L3.75,31.125 C3.543,31.125 3.375,30.957 3.375,30.75 C3.375,30.543 3.543,30.375 3.75,30.375 L5.625,30.375 C5.832,30.375 6,30.543 6,30.75 C6,30.957 5.832,31.125 5.625,31.125" id="Fill-17"></path>
                        <path d="M3.5325,30.5925 C3.4365,30.5925 3.3405,30.55575 3.267,30.483 C3.12075,30.336 3.12075,30.099 3.267,29.952 L4.587,28.63275 C4.734,28.48575 4.971,28.48575 5.11725,28.63275 C5.26425,28.779 5.26425,29.016 5.11725,29.163 L3.798,30.483 C3.7245,30.55575 3.6285,30.5925 3.5325,30.5925" id="Fill-19"></path>
                        <path d="M3,30.375 C2.793,30.375 2.625,30.207 2.625,30 L2.625,28.125 C2.625,27.918 2.793,27.75 3,27.75 C3.207,27.75 3.375,27.918 3.375,28.125 L3.375,30 C3.375,30.207 3.207,30.375 3,30.375" id="Fill-21"></path>
                        <path d="M2.4675,30.5925 C2.3715,30.5925 2.2755,30.55575 2.202,30.483 L0.88275,29.163 C0.73575,29.016 0.73575,28.779 0.88275,28.63275 C1.029,28.48575 1.266,28.48575 1.413,28.63275 L2.733,29.952 C2.87925,30.099 2.87925,30.336 2.733,30.483 C2.6595,30.55575 2.5635,30.5925 2.4675,30.5925" id="Fill-23"></path>
                        <path d="M2.25,31.125 L0.375,31.125 C0.168,31.125 0,30.957 0,30.75 C0,30.543 0.168,30.375 0.375,30.375 L2.25,30.375 C2.457,30.375 2.625,30.543 2.625,30.75 C2.625,30.957 2.457,31.125 2.25,31.125" id="Fill-25"></path>
                        <path d="M1.147725,32.977275 C1.051725,32.977275 0.955725,32.940525 0.882225,32.867775 C0.735975,32.720775 0.735975,32.483775 0.882225,32.336775 L2.202225,31.017525 C2.349225,30.870525 2.586225,30.870525 2.732475,31.017525 C2.879475,31.163775 2.879475,31.400775 2.732475,31.547775 L1.413225,32.867775 C1.339725,32.940525 1.243725,32.977275 1.147725,32.977275" id="Fill-27"></path>
                        <path d="M26.25,27.75 L15.75,27.75 C14.50725,27.75 13.5,26.74275 13.5,25.5 L13.5,15 C13.5,13.75725 14.50725,12.75 15.75,12.75 L26.25,12.75 C27.49275,12.75 28.5,13.75725 28.5,15 L28.5,25.5 C28.5,26.74275 27.49275,27.75 26.25,27.75" id="Fill-29"></path>
                        <path d="M9,7.6875 C8.27625,7.6875 7.6875,8.27625 7.6875,9 L7.6875,19.5 C7.6875,20.22375 8.27625,20.8125 9,20.8125 L19.5,20.8125 C20.22375,20.8125 20.8125,20.22375 20.8125,19.5 L20.8125,9 C20.8125,8.27625 20.22375,7.6875 19.5,7.6875 L9,7.6875 Z M19.5,22.6875 L9,22.6875 C7.242,22.6875 5.8125,21.258 5.8125,19.5 L5.8125,9 C5.8125,7.24275 7.242,5.8125 9,5.8125 L19.5,5.8125 C21.258,5.8125 22.6875,7.24275 22.6875,9 L22.6875,19.5 C22.6875,21.258 21.258,22.6875 19.5,22.6875 L19.5,22.6875 Z" id="Fill-31"></path>
                    </g>
                </g>
            </g>
        </g>
    </g>
</svg>