<?xml version="1.0" standalone="no"?><!DOCTYPE svg PUBLIC "-//W3C//DTD SVG 1.1//EN" "http://www.w3.org/Graphics/SVG/1.1/DTD/svg11.dtd"><svg t="1581574434633" class="icon" viewBox="0 0 1024 1024" version="1.1" xmlns="http://www.w3.org/2000/svg" p-id="1120" xmlns:xlink="http://www.w3.org/1999/xlink" width="200" height="200"><defs><style type="text/css"></style></defs><path d="M1006.805333 17.450667a21.333333 21.333333 0 0 0-30.165333 0L22.613333 971.434667a21.333333 21.333333 0 0 0 30.208 30.165333L1006.805333 47.616a21.333333 21.333333 0 0 0 0-30.165333zM603.562667 347.733333a21.333333 21.333333 0 0 0-11.690667-27.776c-77.354667-31.530667-162.389333-14.293333-221.653333 44.928C310.826667 424.234667 293.546667 509.226667 325.12 586.666667a21.333333 21.333333 0 0 0 27.776 11.733333 21.248 21.248 0 0 0 11.690667-27.776c-24.917333-61.269333-11.264-128.554667 35.754666-175.530667a159.530667 159.530667 0 0 1 175.402667-35.584 21.504 21.504 0 0 0 27.818667-11.776z" p-id="1121"></path><path d="M190.72 736.682667a21.333333 21.333333 0 0 0 25.984-33.792c-65.024-49.962667-120.661333-116.650667-161.450667-193.322667 131.370667-247.125333 396.416-357.973333 634.282667-263.68a21.333333 21.333333 0 0 0 15.744-39.68c-261.888-103.850667-553.386667 19.626667-693.077333 293.632a21.248 21.248 0 0 0 0 19.370667c44.032 86.357333 105.770667 161.578667 178.517333 217.472zM1017.216 499.882667c-43.989333-86.272-105.728-161.493333-178.517333-217.472a21.333333 21.333333 0 0 0-25.984 33.834666c65.066667 50.005333 120.704 116.693333 161.450666 193.322667-131.370667 247.125333-396.501333 357.973333-634.325333 263.68a21.248 21.248 0 1 0-15.701333 39.637333 512.426667 512.426667 0 0 0 189.482666 36.522667c202.496 0 397.141333-121.429333 503.594667-330.197333a21.162667 21.162667 0 0 0 0-19.328z" p-id="1122"></path><path d="M437.589333 699.136a206.933333 206.933333 0 0 0 78.208 15.530667c52.693333 0 103.765333-20.778667 143.36-60.373334 52.010667-51.968 71.722667-123.562667 54.698667-192.554666a210.176 210.176 0 0 0-9.557333-29.354667 21.248 21.248 0 1 0-39.466667 16.085333c4.394667 10.794667 7.168 21.802667 9.173333 32.853334a159.146667 159.146667 0 0 1-45.056 142.805333 159.36 159.36 0 0 1-175.274666 35.498667 21.248 21.248 0 0 0-29.354667 20.010666c0.085333 8.362667 5.077333 16.213333 13.269333 19.498667zM489.429333 408.192c-37.546667 9.386667-66.688 38.528-76.074666 76.074667a21.376 21.376 0 0 0 41.429333 10.325333 61.482667 61.482667 0 0 1 44.970667-44.970667 21.333333 21.333333 0 0 0 15.530666-25.856 21.290667 21.290667 0 0 0-25.856-15.573333z" p-id="1123"></path><path d="M534.826667 611.541333c1.706667 0 3.456-0.213333 5.205333-0.64a104.448 104.448 0 0 0 76.074667-76.032 21.248 21.248 0 0 0-14.677334-25.472c-0.341333-0.085333-0.597333-0.341333-0.938666-0.426666-0.768-0.170667-1.536 0-2.304-0.085334a21.888 21.888 0 0 0-6.229334-0.256 21.205333 21.205333 0 0 0-17.365333 15.872c-5.546667 22.229333-22.741333 39.424-44.928 44.970667a21.333333 21.333333 0 0 0 5.162667 42.069333z" p-id="1124"></path></svg>