<?xml version="1.0" encoding="UTF-8"?>
<svg width="14px" height="14px" viewBox="0 0 14 14" version="1.1" xmlns="http://www.w3.org/2000/svg" xmlns:xlink="http://www.w3.org/1999/xlink">
    <!-- Generator: Sketch 64 (93537) - https://sketch.com -->
    <title>注意</title>
    <desc>Created with Sketch.</desc>
    <defs>
        <rect id="path-1" x="0" y="0" width="14" height="14"></rect>
    </defs>
    <g id="蓝紫新风格" stroke="none" stroke-width="1" fill="none" fill-rule="evenodd">
        <g id="6-0-0运营中心-数据迁移" transform="translate(-395.000000, -456.000000)">
            <g id="编组" transform="translate(395.000000, 453.000000)">
                <g id="注意" transform="translate(0.000000, 3.000000)">
                    <mask id="mask-2" fill="white">
                        <use xlink:href="#path-1"></use>
                    </mask>
                    <g id="矩形" opacity="0" fill-rule="nonzero"></g>
                    <path d="M7.02460937,1.32753906 C3.88964844,1.32753906 1.33984375,3.87734375 1.33984375,7.01230469 C1.33984375,10.1472656 3.88964844,12.6970703 7.02460937,12.6970703 C10.1595703,12.6970703 12.709375,10.1472656 12.709375,7.01230469 C12.709375,3.87734375 10.1582031,1.32753906 7.02460937,1.32753906 Z M7.02460937,12.1679687 C4.18222656,12.1679687 1.86894531,9.8546875 1.86894531,7.01230469 C1.86894531,4.16992188 4.18222656,1.85664062 7.02460937,1.85664062 C9.86699219,1.85664062 12.1802734,4.16992187 12.1802734,7.01230469 C12.1802734,9.8546875 9.86699219,12.1679687 7.02460937,12.1679687 Z M7.98847656,8.81425781 C7.70820312,8.74453125 7.459375,9.74804688 7.02734375,9.603125 C6.98632812,9.58808594 6.99042969,9.59355469 6.95898438,9.56894531 C7.09160156,8.13476563 7.67675781,6.85644531 7.95429687,5.45234375 L7.8859375,5.45234375 C7.31171875,5.6546875 6.453125,5.57402344 5.8953125,5.79550781 L5.8953125,5.96640625 C6.72519531,5.95 6.50917969,6.45585938 6.34101562,7.06425781 C6.13320312,7.81621094 5.75449219,8.75683594 5.68886719,9.43222656 C5.62324219,10.10625 6.04023437,10.3605469 6.44355469,10.3578343 C7.01367188,10.3550781 7.49492187,9.79589844 7.74785156,9.46640625 C7.81210937,9.38164063 8.26875,8.88398438 7.98847656,8.81425781 Z M7.66445312,3.32773438 C7.27617187,3.32773438 6.96308594,3.6421875 6.96308594,4.03046875 C6.96308594,4.41875 7.27753906,4.73183594 7.66445312,4.73183594 C8.05136719,4.73183594 8.36582031,4.41738281 8.36582031,4.03046875 C8.36582031,3.6421875 8.05136719,3.32773438 7.66445312,3.32773438 L7.66445312,3.32773438 Z" id="形状" fill="#6353E5" fill-rule="nonzero" mask="url(#mask-2)"></path>
                </g>
            </g>
        </g>
    </g>
</svg>