<?xml version="1.0" encoding="UTF-8"?>
<svg width="64px" height="64px" viewBox="0 0 64 64" version="1.1" xmlns="http://www.w3.org/2000/svg" xmlns:xlink="http://www.w3.org/1999/xlink">
    <!-- Generator: Sketch 64 (93537) - https://sketch.com -->
    <title>图层</title>
    <desc>Created with Sketch.</desc>
    <g id="城商行" stroke="none" stroke-width="1" fill="none" fill-rule="evenodd">
        <g id="切图" transform="translate(-647.000000, -1498.000000)">
            <g id="图层" transform="translate(647.000000, 1498.000000)">
                <path d="M54,64 L10,64 C4.478,64 0,59.522 0,54 L0,10 C0,4.478 4.478,0 10,0 L54,0 C59.522,0 64,4.478 64,10 L64,54 C64,59.522 59.522,64 54,64" id="Fill-1" fill="#28C5D1"></path>
                <path d="M47.4346,30.2559 L47.9476,30.5779 C48.9976,31.2389 49.3166,32.6249 48.6556,33.6799 C48.4766,33.9639 48.2356,34.2059 47.9476,34.3879 L34.2036,43.0209 C33.4706,43.4789 32.5416,43.4789 31.8136,43.0209 L18.0526,34.3709 C17.0016,33.7099 16.6836,32.3239 17.3446,31.2689 C17.5236,30.9849 17.7646,30.7429 18.0526,30.5609 L18.5656,30.2389 L31.8096,38.5669 C32.5416,39.0249 33.4706,39.0249 34.1996,38.5669 L47.4306,30.2599 L47.4346,30.2559 Z" id="Fill-3" fill="#FFFFFF"></path>
                <path d="M47.4346,36.8711 L47.9476,37.1931 C48.9976,37.8541 49.3166,39.2401 48.6556,40.2961 C48.4766,40.5791 48.2356,40.8211 47.9476,41.0031 L34.2036,49.6361 C33.4706,50.0941 32.5416,50.0941 31.8136,49.6361 L18.0526,40.9861 C17.0016,40.3251 16.6836,38.9391 17.3446,37.8841 C17.5236,37.6001 17.7646,37.3581 18.0526,37.1771 L18.5656,36.8541 L31.8096,45.1781 C32.5416,45.6361 33.4706,45.6361 34.1996,45.1781 L47.4306,36.8711 L47.4346,36.8711 Z" id="Fill-5" fill="#FFFFFF"></path>
                <path d="M34.1865,15.1475 L47.9435,23.7965 C48.9945,24.4585 49.3115,25.8435 48.6505,26.8995 C48.4725,27.1835 48.2315,27.4245 47.9435,27.6075 L34.2035,36.2355 C33.4705,36.6935 32.5415,36.6935 31.8135,36.2355 L18.0525,27.5825 C17.0015,26.9205 16.6835,25.5355 17.3445,24.4795 C17.5235,24.1955 17.7645,23.9545 18.0525,23.7715 L31.8005,15.1385 C32.5345,14.6815 33.4615,14.6815 34.1905,15.1385 L34.1865,15.1475 Z" id="Fill-7" fill="#FFFFFF"></path>
            </g>
        </g>
    </g>
</svg>