<?xml version="1.0" encoding="UTF-8"?>
<svg width="16px" height="16px" viewBox="0 0 16 16" version="1.1" xmlns="http://www.w3.org/2000/svg" xmlns:xlink="http://www.w3.org/1999/xlink">
    <!-- Generator: Sketch 64 (93537) - https://sketch.com -->
    <title>IPAM控制器-选中</title>
    <desc>Created with Sketch.</desc>
    <defs>
        <rect id="path-1" x="0" y="0" width="16" height="16"></rect>
    </defs>
    <g id="城商行" stroke="none" stroke-width="1" fill="none" fill-rule="evenodd">
        <g id="切图" transform="translate(-150.000000, -2932.000000)">
            <g id="IPAM控制器-选中" transform="translate(150.000000, 2932.000000)">
                <mask id="mask-2" fill="white">
                    <use xlink:href="#path-1"></use>
                </mask>
                <g id="矩形" opacity="0" fill-rule="nonzero"></g>
                <g id="zkzq" mask="url(#mask-2)" fill="#306BFF">
                    <g transform="translate(1.500000, 2.000000)">
                        <path d="M3.13907937,3.21330159 L7.05393651,3.21330159 C7.18347619,3.6831746 7.61396825,4.02860317 8.12320635,4.02860317 C8.63492063,4.02860317 9.0654127,3.68063492 9.19363492,3.20828571 C9.20888889,3.2107619 9.22414286,3.21330159 9.23933333,3.21330159 L9.8577619,3.21330159 C10.0203333,3.21330159 10.1536508,3.08130159 10.1536508,2.91749206 C10.1536508,2.75366667 10.0215714,2.62160317 9.8577619,2.62160317 L9.23933333,2.62160317 C9.22414286,2.62160317 9.20888889,2.62414286 9.19363492,2.62668254 C9.0654127,2.15428571 8.63492063,1.80638095 8.12320635,1.80638095 C7.61273016,1.80638095 7.18347619,2.15303175 7.05393651,2.62160317 L3.13907937,2.62160317 C2.97650794,2.62160317 2.84319048,2.75366667 2.84319048,2.91749206 C2.84319048,3.08130159 2.97650794,3.21330159 3.13907937,3.21330159 Z M8.12320635,2.39807937 C8.41015873,2.39807937 8.64379365,2.63177778 8.64379365,2.91873016 C8.64379365,3.20574603 8.41015873,3.43936508 8.12320635,3.43936508 C7.83619048,3.43936508 7.60255556,3.20574603 7.60255556,2.91873016 C7.60255556,2.63177778 7.83619048,2.39807937 8.12320635,2.39807937 Z M3.13907937,5.84320635 L3.75744444,5.84320635 C3.77269841,5.84320635 3.78795238,5.84066667 3.80320635,5.83812698 C3.93142857,6.30922222 4.36192063,6.65842857 4.87493651,6.65842857 C5.3854127,6.65842857 5.81460317,6.3117619 5.94412698,5.84320635 L9.85906349,5.84320635 C10.0215714,5.84320635 10.1549524,5.71114286 10.1549524,5.54731746 C10.1549524,5.38350794 10.022873,5.25144444 9.85906349,5.25144444 L5.94412698,5.25144444 C5.81460317,4.78157143 5.38411111,4.43620635 4.87493651,4.43620635 C4.36315873,4.43620635 3.93273016,4.78411111 3.80320635,5.25652381 C3.78795238,5.25398413 3.77269841,5.25144444 3.75744444,5.25144444 L3.13907937,5.25144444 C2.97650794,5.25144444 2.84319048,5.38350794 2.84319048,5.54731746 C2.84319048,5.71114286 2.97650794,5.84320635 3.13907937,5.84320635 Z M4.87493651,5.02792063 C5.16188889,5.02792063 5.3955873,5.26160317 5.3955873,5.54855556 C5.3955873,5.83557143 5.16188889,6.06920635 4.87493651,6.06920635 C4.58792063,6.06920635 4.35428571,5.83557143 4.35428571,5.54855556 C4.35428571,5.26160317 4.58792063,5.02792063 4.87493651,5.02792063 Z" id="Fill-1"></path>
                        <path d="M12.3085873,0.00317460317 L0.689539683,0.00317460317 C0.308587302,0.00317460317 0,0.311761905 0,0.691412698 L0,9.10920635 C0,9.48892063 0.30984127,9.79874603 0.689539683,9.79874603 L5.17460317,9.79874603 L5.17460317,12.0590476 L3.27238095,12.0590476 C3.10987302,12.0590476 2.97650794,12.1911111 2.97650794,12.3549206 C2.97650794,12.5187302 3.10857143,12.6508095 3.27238095,12.6508095 L9.727,12.6508095 C9.88950794,12.6508095 10.022873,12.5187302 10.022873,12.3549206 C10.022873,12.1911111 9.89080952,12.0590476 9.727,12.0590476 L7.82347619,12.0590476 L7.82347619,9.79874603 L12.3085873,9.79874603 C12.6882381,9.79874603 12.9980794,9.48892063 12.9980794,9.10920635 L12.9980794,0.691412698 C12.9980794,0.311761905 12.6895397,0.00317460317 12.3085873,0.00317460317 Z M0.689539683,0.593634921 L12.3098413,0.593634921 C12.3644603,0.593634921 12.4089206,0.638095238 12.4089206,0.692714286 L12.4089206,7.45207937 L0.590460317,7.45207937 L0.590460317,0.691412698 C0.590460317,0.638095238 0.634920635,0.593634921 0.689539683,0.593634921 Z M5.76506349,12.0603492 L7.23301587,12.0603492 L7.23301587,9.79998413 L5.76506349,9.79998413 L5.76506349,12.0603492 Z M12.3085873,9.20828571 L0.689539683,9.20828571 C0.634920635,9.20828571 0.590460317,9.1638254 0.590460317,9.10920635 L0.590460317,8.0412381 L12.407619,8.0412381 L12.407619,9.10920635 C12.407619,9.16506349 12.3631587,9.20828571 12.3085873,9.20828571 Z" id="Fill-3"></path>
                    </g>
                </g>
            </g>
        </g>
    </g>
</svg>