<?xml version="1.0" encoding="UTF-8"?>
<svg width="16px" height="16px" viewBox="0 0 16 16" version="1.1" xmlns="http://www.w3.org/2000/svg" xmlns:xlink="http://www.w3.org/1999/xlink">
    <!-- Generator: Sketch 64 (93537) - https://sketch.com -->
    <title>网段-选中</title>
    <desc>Created with Sketch.</desc>
    <defs>
        <rect id="path-1" x="0" y="0" width="16" height="16"></rect>
    </defs>
    <g id="城商行" stroke="none" stroke-width="1" fill="none" fill-rule="evenodd">
        <g id="切图" transform="translate(-149.000000, -2894.000000)">
            <g id="网段-选中" transform="translate(149.000000, 2894.000000)">
                <mask id="mask-2" fill="white">
                    <use xlink:href="#path-1"></use>
                </mask>
                <g id="矩形" opacity="0" fill-rule="nonzero"></g>
                <path d="M13.3249356,10.0979437 L11.708589,10.0979437 C11.079046,10.0979437 10.5686564,10.6083931 10.5686564,11.2378763 L10.5686564,11.7993487 L8.47587577,11.7993487 L8.47587577,8.56663546 L11.2151871,8.56663546 C12.6953926,8.56663546 13.8864279,7.37562013 13.8864279,5.89539467 C13.8864279,4.41510939 12.6953926,3.22417381 11.2151871,3.22417381 C11.1471166,3.22417381 11.079046,3.22417381 11.0109755,3.2411416 C10.1092101,1.70983332 8.16963804,1.06332258 6.5192362,1.81193915 C5.83869018,2.11819681 5.27719785,2.61159865 4.9198773,3.2411416 C3.62681595,3.12206798 2.40176534,3.9387551 2.07846012,5.23181645 C1.7041319,6.6610189 2.57194172,8.12423669 4.00112423,8.48157718 C4.22232362,8.53260019 4.44344325,8.56663546 4.66464264,8.56663546 L7.45503681,8.56663546 L7.45503681,11.7993487 L5.41327914,11.7993487 L5.41327914,11.2378763 C5.41327914,10.6083931 4.90288957,10.0979437 4.27334663,10.0979437 L2.63993252,10.0979437 C2.01046933,10.0979437 1.5,10.6083931 1.5,11.2378763 L1.5,12.8712704 C1.5,13.5008333 2.01046933,14.0112029 2.63993252,14.0112029 L4.27334663,14.0112029 C4.90288957,14.0112029 5.41327914,13.5008333 5.41327914,12.8712704 L5.41327914,12.8201876 L10.5686564,12.8201876 L10.5686564,12.8542229 C10.5686564,13.4837658 11.079046,13.9942352 11.708589,13.9942352 L13.3420031,13.9942352 C13.9714663,13.9942352 14.4819356,13.4837658 14.4819356,12.8542229 L14.4819356,11.2208885 C14.4819356,10.6083931 13.9714663,10.0979437 13.3249356,10.0979437 Z M4.66464264,7.54579651 C4.52858129,7.54579651 4.37545245,7.52872902 4.23931135,7.4947735 C3.35453374,7.27357411 2.82709663,6.37182872 3.04827607,5.48705111 C3.1503819,5.06171982 3.42260429,4.70437933 3.81398006,4.48317994 C4.06913497,4.33005111 4.35838497,4.24501277 4.64765491,4.24501277 C4.78371626,4.24501277 4.9198773,4.26198056 5.0560184,4.29601583 L5.48134969,4.3981416 L5.65152607,4.00684559 C5.90668098,3.44535326 6.34905982,2.98590694 6.92759969,2.73077197 C8.18660583,2.16927964 9.68387883,2.73077197 10.2453512,3.9897781 L10.4155276,4.38115387 L10.8238113,4.27904804 C10.9429847,4.24501277 11.079046,4.22802504 11.1981196,4.22802504 C12.1169325,4.22802504 12.8485215,4.97658178 12.8485215,5.87834712 C12.8485215,6.79716 12.099885,7.52872902 11.1981196,7.52872902 L4.66464264,7.52872902 L4.66464264,7.54579651 Z M4.39242025,12.8712704 C4.39242025,12.9393609 4.34141718,12.990364 4.27334663,12.990364 L2.63993252,12.990364 C2.57194172,12.990364 2.52083896,12.9393609 2.52083896,12.8712704 L2.52083896,11.2378763 C2.52083896,11.1698057 2.57194172,11.1187827 2.63993252,11.1187827 L4.27334663,11.1187827 C4.34141718,11.1187827 4.39242025,11.1698057 4.39242025,11.2378763 L4.39242025,12.8712704 Z M13.4610966,12.8712704 C13.4610966,12.9393609 13.4099939,12.990364 13.3420031,12.990364 L11.708589,12.990364 C11.6405184,12.990364 11.5894954,12.9393609 11.5894954,12.8712704 L11.5894954,11.2378763 C11.5894954,11.1698057 11.6405184,11.1187827 11.708589,11.1187827 L13.3420031,11.1187827 C13.4099939,11.1187827 13.4610966,11.1698057 13.4610966,11.2378763 L13.4610966,12.8712704 Z" id="Fill-1" fill="#306BFF" mask="url(#mask-2)"></path>
            </g>
        </g>
    </g>
</svg>