<?xml version="1.0" encoding="UTF-8"?>
<svg width="64px" height="64px" viewBox="0 0 64 64" version="1.1" xmlns="http://www.w3.org/2000/svg" xmlns:xlink="http://www.w3.org/1999/xlink">
    <!-- Generator: Sketch 64 (93537) - https://sketch.com -->
    <title>作业</title>
    <desc>Created with Sketch.</desc>
    <g id="城商行" stroke="none" stroke-width="1" fill="none" fill-rule="evenodd">
        <g id="切图" transform="translate(-1741.000000, -677.000000)">
            <g id="作业" transform="translate(1741.000000, 677.000000)">
                <path d="M64,32 C64,49.673 49.673,64 32,64 C14.327,64 0,49.673 0,32 C0,14.327 14.327,0 32,0 C49.673,0 64,14.327 64,32" id="Fill-1" fill="#F4F7FF"></path>
                <path d="M15.5,9 C14.673,9 14,9.673 14,10.5 C14,11.327 14.673,12 15.5,12 C16.327,12 17,11.327 17,10.5 C17,9.673 16.327,9 15.5,9 M15.5,13 C14.121,13 13,11.879 13,10.5 C13,9.121 14.121,8 15.5,8 C16.879,8 18,9.121 18,10.5 C18,11.879 16.879,13 15.5,13" id="Fill-3" fill="#306BFF"></path>
                <path d="M51.167,12.667 L47.167,12.667 C46.891,12.667 46.667,12.443 46.667,12.167 C46.667,11.891 46.891,11.667 47.167,11.667 L51.167,11.667 C51.443,11.667 51.667,11.891 51.667,12.167 C51.667,12.443 51.443,12.667 51.167,12.667" id="Fill-5" fill="#306BFF"></path>
                <path d="M49.167,14.667 C48.891,14.667 48.667,14.443 48.667,14.167 L48.667,10.167 C48.667,9.891 48.891,9.667 49.167,9.667 C49.443,9.667 49.667,9.891 49.667,10.167 L49.667,14.167 C49.667,14.443 49.443,14.667 49.167,14.667" id="Fill-7" fill="#306BFF"></path>
                <path d="M59,40 C59,41.104 58.104,42 57,42 C55.896,42 55,41.104 55,40 C55,38.896 55.896,38 57,38 C58.104,38 59,38.896 59,40" id="Fill-9" fill="#306BFF"></path>
                <path d="M50,50 C50,50.553 49.553,51 49,51 C48.447,51 48,50.553 48,50 C48,49.447 48.447,49 49,49 C49.553,49 50,49.447 50,50" id="Fill-11" fill="#306BFF"></path>
                <path d="M12,53 C11.724,53 11.5,52.776 11.5,52.5 L11.5,50 C11.5,49.724 11.724,49.5 12,49.5 C12.276,49.5 12.5,49.724 12.5,50 L12.5,52.5 C12.5,52.776 12.276,53 12,53" id="Fill-13" fill="#306BFF"></path>
                <path d="M14.4697,51.9697 C14.3417,51.9697 14.2137,51.9207 14.1157,51.8237 L12.3567,50.0637 C12.1607,49.8677 12.1607,49.5517 12.3567,49.3567 C12.5517,49.1607 12.8677,49.1607 13.0637,49.3567 L14.8237,51.1157 C15.0187,51.3117 15.0187,51.6277 14.8237,51.8237 C14.7257,51.9207 14.5977,51.9697 14.4697,51.9697" id="Fill-15" fill="#306BFF"></path>
                <path d="M15.5,49.5 L13,49.5 C12.724,49.5 12.5,49.276 12.5,49 C12.5,48.724 12.724,48.5 13,48.5 L15.5,48.5 C15.776,48.5 16,48.724 16,49 C16,49.276 15.776,49.5 15.5,49.5" id="Fill-17" fill="#306BFF"></path>
                <path d="M12.71,48.79 C12.582,48.79 12.454,48.741 12.356,48.644 C12.161,48.448 12.161,48.132 12.356,47.936 L14.116,46.177 C14.312,45.981 14.628,45.981 14.823,46.177 C15.019,46.372 15.019,46.688 14.823,46.884 L13.064,48.644 C12.966,48.741 12.838,48.79 12.71,48.79" id="Fill-19" fill="#306BFF"></path>
                <path d="M12,48.5 C11.724,48.5 11.5,48.276 11.5,48 L11.5,45.5 C11.5,45.224 11.724,45 12,45 C12.276,45 12.5,45.224 12.5,45.5 L12.5,48 C12.5,48.276 12.276,48.5 12,48.5" id="Fill-21" fill="#306BFF"></path>
                <path d="M11.29,48.79 C11.162,48.79 11.034,48.741 10.936,48.644 L9.177,46.884 C8.981,46.688 8.981,46.372 9.177,46.177 C9.372,45.981 9.688,45.981 9.884,46.177 L11.644,47.936 C11.839,48.132 11.839,48.448 11.644,48.644 C11.546,48.741 11.418,48.79 11.29,48.79" id="Fill-23" fill="#306BFF"></path>
                <path d="M11,49.5 L8.5,49.5 C8.224,49.5 8,49.276 8,49 C8,48.724 8.224,48.5 8.5,48.5 L11,48.5 C11.276,48.5 11.5,48.724 11.5,49 C11.5,49.276 11.276,49.5 11,49.5" id="Fill-25" fill="#306BFF"></path>
                <path d="M9.5303,51.9697 C9.4023,51.9697 9.2743,51.9207 9.1763,51.8237 C8.9813,51.6277 8.9813,51.3117 9.1763,51.1157 L10.9363,49.3567 C11.1323,49.1607 11.4483,49.1607 11.6433,49.3567 C11.8393,49.5517 11.8393,49.8677 11.6433,50.0637 L9.8843,51.8237 C9.7863,51.9207 9.6583,51.9697 9.5303,51.9697" id="Fill-27" fill="#306BFF"></path>
                <path d="M16,40.25 C15.31,40.25 14.75,39.69 14.75,39 L14.75,21 C14.75,17.002 18.002,13.75 22,13.75 L36,13.75 C36.69,13.75 37.25,14.31 37.25,15 C37.25,15.69 36.69,16.25 36,16.25 L22,16.25 C19.381,16.25 17.25,18.381 17.25,21 L17.25,39 C17.25,39.69 16.69,40.25 16,40.25" id="Fill-29" fill="#306BFF"></path>
                <path d="M33,29.25 L28,29.25 C27.31,29.25 26.75,28.69 26.75,28 C26.75,27.31 27.31,26.75 28,26.75 L33,26.75 C33.69,26.75 34.25,27.31 34.25,28 C34.25,28.69 33.69,29.25 33,29.25" id="Fill-31" fill="#306BFF"></path>
                <path d="M39,36.25 L28,36.25 C27.31,36.25 26.75,35.69 26.75,35 C26.75,34.31 27.31,33.75 28,33.75 L39,33.75 C39.69,33.75 40.25,34.31 40.25,35 C40.25,35.69 39.69,36.25 39,36.25" id="Fill-33" fill="#306BFF"></path>
                <path d="M39.25,46.9824 L39.25,45.0004 C39.25,43.4834 40.483,42.2504 42,42.2504 L43.982,42.2504 L39.25,46.9824 Z M22.25,46.0004 L22.25,24.0004 C22.25,22.4834 23.483,21.2504 25,21.2504 L43,21.2504 C44.517,21.2504 45.75,22.4834 45.75,24.0004 L45.75,39.7504 L42,39.7504 C39.105,39.7504 36.75,42.1054 36.75,45.0004 L36.75,48.7504 L25,48.7504 C23.483,48.7504 22.25,47.5164 22.25,46.0004 L22.25,46.0004 Z M48.234,41.0774 C48.236,41.0504 48.25,41.0264 48.25,41.0004 L48.25,24.0004 C48.25,21.1054 45.895,18.7504 43,18.7504 L25,18.7504 C22.105,18.7504 19.75,21.1054 19.75,24.0004 L19.75,46.0004 C19.75,48.8944 22.105,51.2504 25,51.2504 L38,51.2504 C38.163,51.2504 38.325,51.2174 38.477,51.1554 C38.627,51.0924 38.766,51.0014 38.884,50.8834 L47.884,41.8834 C47.991,41.7764 48.067,41.6504 48.129,41.5174 C48.146,41.4784 48.156,41.4404 48.17,41.4004 C48.206,41.2954 48.228,41.1884 48.234,41.0774 L48.234,41.0774 Z" id="Fill-35" fill="#306BFF"></path>
            </g>
        </g>
    </g>
</svg>