<?xml version="1.0" encoding="UTF-8"?>
<svg width="64px" height="64px" viewBox="0 0 64 64" version="1.1" xmlns="http://www.w3.org/2000/svg" xmlns:xlink="http://www.w3.org/1999/xlink">
    <!-- Generator: Sketch 64 (93537) - https://sketch.com -->
    <title>计算可用域</title>
    <desc>Created with Sketch.</desc>
    <g id="城商行" stroke="none" stroke-width="1" fill="none" fill-rule="evenodd">
        <g id="切图" transform="translate(-1741.000000, -552.000000)">
            <g id="计算可用域" transform="translate(1741.000000, 552.000000)">
                <path d="M64,32 C64,49.673 49.673,64 32,64 C14.327,64 0,49.673 0,32 C0,14.327 14.327,0 32,0 C49.673,0 64,14.327 64,32" id="Fill-1" fill="#F4F7FF"></path>
                <path d="M15.5,9 C14.673,9 14,9.673 14,10.5 C14,11.327 14.673,12 15.5,12 C16.327,12 17,11.327 17,10.5 C17,9.673 16.327,9 15.5,9 M15.5,13 C14.121,13 13,11.879 13,10.5 C13,9.121 14.121,8 15.5,8 C16.879,8 18,9.121 18,10.5 C18,11.879 16.879,13 15.5,13" id="Fill-3" fill="#306BFF"></path>
                <path d="M51.167,12.667 L47.167,12.667 C46.891,12.667 46.667,12.443 46.667,12.167 C46.667,11.891 46.891,11.667 47.167,11.667 L51.167,11.667 C51.443,11.667 51.667,11.891 51.667,12.167 C51.667,12.443 51.443,12.667 51.167,12.667" id="Fill-5" fill="#306BFF"></path>
                <path d="M49.167,14.667 C48.891,14.667 48.667,14.443 48.667,14.167 L48.667,10.167 C48.667,9.891 48.891,9.667 49.167,9.667 C49.443,9.667 49.667,9.891 49.667,10.167 L49.667,14.167 C49.667,14.443 49.443,14.667 49.167,14.667" id="Fill-7" fill="#306BFF"></path>
                <path d="M59,40 C59,41.104 58.104,42 57,42 C55.896,42 55,41.104 55,40 C55,38.896 55.896,38 57,38 C58.104,38 59,38.896 59,40" id="Fill-9" fill="#306BFF"></path>
                <path d="M50,50 C50,50.553 49.553,51 49,51 C48.447,51 48,50.553 48,50 C48,49.447 48.447,49 49,49 C49.553,49 50,49.447 50,50" id="Fill-11" fill="#306BFF"></path>
                <path d="M12,53 C11.724,53 11.5,52.776 11.5,52.5 L11.5,50 C11.5,49.724 11.724,49.5 12,49.5 C12.276,49.5 12.5,49.724 12.5,50 L12.5,52.5 C12.5,52.776 12.276,53 12,53" id="Fill-13" fill="#306BFF"></path>
                <path d="M14.4697,51.9697 C14.3417,51.9697 14.2137,51.9207 14.1157,51.8237 L12.3567,50.0637 C12.1607,49.8677 12.1607,49.5517 12.3567,49.3567 C12.5517,49.1607 12.8677,49.1607 13.0637,49.3567 L14.8237,51.1157 C15.0187,51.3117 15.0187,51.6277 14.8237,51.8237 C14.7257,51.9207 14.5977,51.9697 14.4697,51.9697" id="Fill-15" fill="#306BFF"></path>
                <path d="M15.5,49.5 L13,49.5 C12.724,49.5 12.5,49.276 12.5,49 C12.5,48.724 12.724,48.5 13,48.5 L15.5,48.5 C15.776,48.5 16,48.724 16,49 C16,49.276 15.776,49.5 15.5,49.5" id="Fill-17" fill="#306BFF"></path>
                <path d="M12.71,48.79 C12.582,48.79 12.454,48.741 12.356,48.644 C12.161,48.448 12.161,48.132 12.356,47.936 L14.116,46.177 C14.312,45.981 14.628,45.981 14.823,46.177 C15.019,46.372 15.019,46.688 14.823,46.884 L13.064,48.644 C12.966,48.741 12.838,48.79 12.71,48.79" id="Fill-19" fill="#306BFF"></path>
                <path d="M12,48.5 C11.724,48.5 11.5,48.276 11.5,48 L11.5,45.5 C11.5,45.224 11.724,45 12,45 C12.276,45 12.5,45.224 12.5,45.5 L12.5,48 C12.5,48.276 12.276,48.5 12,48.5" id="Fill-21" fill="#306BFF"></path>
                <path d="M11.29,48.79 C11.162,48.79 11.034,48.741 10.936,48.644 L9.177,46.884 C8.981,46.688 8.981,46.372 9.177,46.177 C9.372,45.981 9.688,45.981 9.884,46.177 L11.644,47.936 C11.839,48.132 11.839,48.448 11.644,48.644 C11.546,48.741 11.418,48.79 11.29,48.79" id="Fill-23" fill="#306BFF"></path>
                <path d="M11,49.5 L8.5,49.5 C8.224,49.5 8,49.276 8,49 C8,48.724 8.224,48.5 8.5,48.5 L11,48.5 C11.276,48.5 11.5,48.724 11.5,49 C11.5,49.276 11.276,49.5 11,49.5" id="Fill-25" fill="#306BFF"></path>
                <path d="M9.5303,51.9697 C9.4023,51.9697 9.2743,51.9207 9.1763,51.8237 C8.9813,51.6277 8.9813,51.3117 9.1763,51.1157 L10.9363,49.3567 C11.1323,49.1607 11.4483,49.1607 11.6433,49.3567 C11.8393,49.5517 11.8393,49.8677 11.6433,50.0637 L9.8843,51.8237 C9.7863,51.9207 9.6583,51.9697 9.5303,51.9697" id="Fill-27" fill="#306BFF"></path>
                <path d="M21,18.25 C19.483,18.25 18.25,19.483 18.25,21 L18.25,43 C18.25,44.517 19.483,45.75 21,45.75 L43,45.75 C44.517,45.75 45.75,44.517 45.75,43 L45.75,21 C45.75,19.483 44.517,18.25 43,18.25 L21,18.25 Z M43,48.25 L21,48.25 C18.105,48.25 15.75,45.895 15.75,43 L15.75,21 C15.75,18.105 18.105,15.75 21,15.75 L43,15.75 C45.895,15.75 48.25,18.105 48.25,21 L48.25,43 C48.25,45.895 45.895,48.25 43,48.25 L43,48.25 Z" id="Fill-29" fill="#306BFF"></path>
                <path d="M32.4238,26.8486 L31.5758,26.8486 C30.4708,26.8486 29.5758,25.9526 29.5758,24.8486 L29.5758,23.9996 C29.5758,22.8956 30.4708,21.9996 31.5758,21.9996 L32.4238,21.9996 C33.5288,21.9996 34.4238,22.8956 34.4238,23.9996 L34.4238,24.8486 C34.4238,25.9526 33.5288,26.8486 32.4238,26.8486" id="Fill-31" fill="#F4F7FF"></path>
                <path d="M31.5762,22.7998 C30.9142,22.7998 30.3762,23.3378 30.3762,23.9998 L30.3762,24.8488 C30.3762,25.5108 30.9142,26.0488 31.5762,26.0488 L32.4242,26.0488 C33.0862,26.0488 33.6242,25.5108 33.6242,24.8488 L33.6242,23.9998 C33.6242,23.3378 33.0862,22.7998 32.4242,22.7998 L31.5762,22.7998 Z M32.4242,27.6488 L31.5762,27.6488 C30.0322,27.6488 28.7762,26.3928 28.7762,24.8488 L28.7762,23.9998 C28.7762,22.4558 30.0322,21.1998 31.5762,21.1998 L32.4242,21.1998 C33.9682,21.1998 35.2232,22.4558 35.2232,23.9998 L35.2232,24.8488 C35.2232,26.3928 33.9682,27.6488 32.4242,27.6488 L32.4242,27.6488 Z" id="Fill-33" fill="#306BFF"></path>
                <path d="M24.8486,26.8486 L23.9996,26.8486 C22.8956,26.8486 21.9996,25.9526 21.9996,24.8486 L21.9996,23.9996 C21.9996,22.8956 22.8956,21.9996 23.9996,21.9996 L24.8486,21.9996 C25.9526,21.9996 26.8486,22.8956 26.8486,23.9996 L26.8486,24.8486 C26.8486,25.9526 25.9526,26.8486 24.8486,26.8486" id="Fill-35" fill="#F4F7FF"></path>
                <path d="M24,22.7998 C23.338,22.7998 22.8,23.3378 22.8,23.9998 L22.8,24.8488 C22.8,25.5108 23.338,26.0488 24,26.0488 L24.849,26.0488 C25.511,26.0488 26.049,25.5108 26.049,24.8488 L26.049,23.9998 C26.049,23.3378 25.511,22.7998 24.849,22.7998 L24,22.7998 Z M24.849,27.6488 L24,27.6488 C22.456,27.6488 21.2,26.3928 21.2,24.8488 L21.2,23.9998 C21.2,22.4558 22.456,21.1998 24,21.1998 L24.849,21.1998 C26.393,21.1998 27.648,22.4558 27.648,23.9998 L27.648,24.8488 C27.648,26.3928 26.393,27.6488 24.849,27.6488 L24.849,27.6488 Z" id="Fill-37" fill="#306BFF"></path>
                <path d="M32.4238,34.4238 L31.5758,34.4238 C30.4708,34.4238 29.5758,33.5288 29.5758,32.4238 L29.5758,31.5758 C29.5758,30.4708 30.4708,29.5758 31.5758,29.5758 L32.4238,29.5758 C33.5288,29.5758 34.4238,30.4708 34.4238,31.5758 L34.4238,32.4238 C34.4238,33.5288 33.5288,34.4238 32.4238,34.4238" id="Fill-39" fill="#F4F7FF"></path>
                <path d="M31.5762,30.376 C30.9142,30.376 30.3762,30.914 30.3762,31.576 L30.3762,32.424 C30.3762,33.086 30.9142,33.624 31.5762,33.624 L32.4242,33.624 C33.0862,33.624 33.6242,33.086 33.6242,32.424 L33.6242,31.576 C33.6242,30.914 33.0862,30.376 32.4242,30.376 L31.5762,30.376 Z M32.4242,35.224 L31.5762,35.224 C30.0322,35.224 28.7762,33.968 28.7762,32.424 L28.7762,31.576 C28.7762,30.032 30.0322,28.776 31.5762,28.776 L32.4242,28.776 C33.9682,28.776 35.2232,30.032 35.2232,31.576 L35.2232,32.424 C35.2232,33.968 33.9682,35.224 32.4242,35.224 L32.4242,35.224 Z" id="Fill-41" fill="#306BFF"></path>
                <path d="M24.8486,34.4238 L23.9996,34.4238 C22.8956,34.4238 21.9996,33.5288 21.9996,32.4238 L21.9996,31.5758 C21.9996,30.4708 22.8956,29.5758 23.9996,29.5758 L24.8486,29.5758 C25.9526,29.5758 26.8486,30.4708 26.8486,31.5758 L26.8486,32.4238 C26.8486,33.5288 25.9526,34.4238 24.8486,34.4238" id="Fill-43" fill="#F4F7FF"></path>
                <path d="M24,30.376 C23.338,30.376 22.8,30.914 22.8,31.576 L22.8,32.424 C22.8,33.086 23.338,33.624 24,33.624 L24.849,33.624 C25.511,33.624 26.049,33.086 26.049,32.424 L26.049,31.576 C26.049,30.914 25.511,30.376 24.849,30.376 L24,30.376 Z M24.849,35.224 L24,35.224 C22.456,35.224 21.2,33.968 21.2,32.424 L21.2,31.576 C21.2,30.032 22.456,28.776 24,28.776 L24.849,28.776 C26.393,28.776 27.648,30.032 27.648,31.576 L27.648,32.424 C27.648,33.968 26.393,35.224 24.849,35.224 L24.849,35.224 Z" id="Fill-45" fill="#306BFF"></path>
                <path d="M40,26.8486 L39.151,26.8486 C38.047,26.8486 37.151,25.9526 37.151,24.8486 L37.151,23.9996 C37.151,22.8956 38.047,21.9996 39.151,21.9996 L40,21.9996 C41.104,21.9996 42,22.8956 42,23.9996 L42,24.8486 C42,25.9526 41.104,26.8486 40,26.8486" id="Fill-47" fill="#F4F7FF"></path>
                <path d="M39.1514,22.7998 C38.4894,22.7998 37.9514,23.3378 37.9514,23.9998 L37.9514,24.8488 C37.9514,25.5108 38.4894,26.0488 39.1514,26.0488 L40.0004,26.0488 C40.6624,26.0488 41.2004,25.5108 41.2004,24.8488 L41.2004,23.9998 C41.2004,23.3378 40.6624,22.7998 40.0004,22.7998 L39.1514,22.7998 Z M40.0004,27.6488 L39.1514,27.6488 C37.6074,27.6488 36.3514,26.3928 36.3514,24.8488 L36.3514,23.9998 C36.3514,22.4558 37.6074,21.1998 39.1514,21.1998 L40.0004,21.1998 C41.5444,21.1998 42.7994,22.4558 42.7994,23.9998 L42.7994,24.8488 C42.7994,26.3928 41.5444,27.6488 40.0004,27.6488 L40.0004,27.6488 Z" id="Fill-49" fill="#306BFF"></path>
                <path d="M32.4238,42 L31.5758,42 C30.4708,42 29.5758,41.104 29.5758,40 L29.5758,39.151 C29.5758,38.047 30.4708,37.151 31.5758,37.151 L32.4238,37.151 C33.5288,37.151 34.4238,38.047 34.4238,39.151 L34.4238,40 C34.4238,41.104 33.5288,42 32.4238,42" id="Fill-51" fill="#F4F7FF"></path>
                <path d="M31.5762,37.9512 C30.9142,37.9512 30.3762,38.4892 30.3762,39.1512 L30.3762,40.0002 C30.3762,40.6622 30.9142,41.2002 31.5762,41.2002 L32.4242,41.2002 C33.0862,41.2002 33.6242,40.6622 33.6242,40.0002 L33.6242,39.1512 C33.6242,38.4892 33.0862,37.9512 32.4242,37.9512 L31.5762,37.9512 Z M32.4242,42.8002 L31.5762,42.8002 C30.0322,42.8002 28.7762,41.5442 28.7762,40.0002 L28.7762,39.1512 C28.7762,37.6072 30.0322,36.3512 31.5762,36.3512 L32.4242,36.3512 C33.9682,36.3512 35.2232,37.6072 35.2232,39.1512 L35.2232,40.0002 C35.2232,41.5442 33.9682,42.8002 32.4242,42.8002 L32.4242,42.8002 Z" id="Fill-53" fill="#306BFF"></path>
                <path d="M24.8486,42 L23.9996,42 C22.8956,42 21.9996,41.104 21.9996,40 L21.9996,39.151 C21.9996,38.047 22.8956,37.151 23.9996,37.151 L24.8486,37.151 C25.9526,37.151 26.8486,38.047 26.8486,39.151 L26.8486,40 C26.8486,41.104 25.9526,42 24.8486,42" id="Fill-55" fill="#F4F7FF"></path>
                <path d="M24,37.9512 C23.338,37.9512 22.8,38.4892 22.8,39.1512 L22.8,40.0002 C22.8,40.6622 23.338,41.2002 24,41.2002 L24.849,41.2002 C25.511,41.2002 26.049,40.6622 26.049,40.0002 L26.049,39.1512 C26.049,38.4892 25.511,37.9512 24.849,37.9512 L24,37.9512 Z M24.849,42.8002 L24,42.8002 C22.456,42.8002 21.2,41.5442 21.2,40.0002 L21.2,39.1512 C21.2,37.6072 22.456,36.3512 24,36.3512 L24.849,36.3512 C26.393,36.3512 27.648,37.6072 27.648,39.1512 L27.648,40.0002 C27.648,41.5442 26.393,42.8002 24.849,42.8002 L24.849,42.8002 Z" id="Fill-57" fill="#306BFF"></path>
                <path d="M40,42 L39.151,42 C38.047,42 37.151,41.104 37.151,40 L37.151,39.151 C37.151,38.047 38.047,37.151 39.151,37.151 L40,37.151 C41.104,37.151 42,38.047 42,39.151 L42,40 C42,41.104 41.104,42 40,42" id="Fill-59" fill="#F4F7FF"></path>
                <path d="M39.1514,37.9512 C38.4894,37.9512 37.9514,38.4892 37.9514,39.1512 L37.9514,40.0002 C37.9514,40.6622 38.4894,41.2002 39.1514,41.2002 L40.0004,41.2002 C40.6624,41.2002 41.2004,40.6622 41.2004,40.0002 L41.2004,39.1512 C41.2004,38.4892 40.6624,37.9512 40.0004,37.9512 L39.1514,37.9512 Z M40.0004,42.8002 L39.1514,42.8002 C37.6074,42.8002 36.3514,41.5442 36.3514,40.0002 L36.3514,39.1512 C36.3514,37.6072 37.6074,36.3512 39.1514,36.3512 L40.0004,36.3512 C41.5444,36.3512 42.7994,37.6072 42.7994,39.1512 L42.7994,40.0002 C42.7994,41.5442 41.5444,42.8002 40.0004,42.8002 L40.0004,42.8002 Z" id="Fill-61" fill="#306BFF"></path>
                <path d="M40,34.4238 L39.151,34.4238 C38.047,34.4238 37.151,33.5288 37.151,32.4238 L37.151,31.5758 C37.151,30.4708 38.047,29.5758 39.151,29.5758 L40,29.5758 C41.104,29.5758 42,30.4708 42,31.5758 L42,32.4238 C42,33.5288 41.104,34.4238 40,34.4238" id="Fill-63" fill="#F4F7FF"></path>
                <path d="M39.1514,30.376 C38.4894,30.376 37.9514,30.914 37.9514,31.576 L37.9514,32.424 C37.9514,33.086 38.4894,33.624 39.1514,33.624 L40.0004,33.624 C40.6624,33.624 41.2004,33.086 41.2004,32.424 L41.2004,31.576 C41.2004,30.914 40.6624,30.376 40.0004,30.376 L39.1514,30.376 Z M40.0004,35.224 L39.1514,35.224 C37.6074,35.224 36.3514,33.968 36.3514,32.424 L36.3514,31.576 C36.3514,30.032 37.6074,28.776 39.1514,28.776 L40.0004,28.776 C41.5444,28.776 42.7994,30.032 42.7994,31.576 L42.7994,32.424 C42.7994,33.968 41.5444,35.224 40.0004,35.224 L40.0004,35.224 Z" id="Fill-65" fill="#306BFF"></path>
            </g>
        </g>
    </g>
</svg>