<?xml version="1.0" standalone="no"?><!DOCTYPE svg PUBLIC "-//W3C//DTD SVG 1.1//EN" "http://www.w3.org/Graphics/SVG/1.1/DTD/svg11.dtd"><svg t="1585656026853" class="icon" viewBox="0 0 1024 1024" version="1.1" xmlns="http://www.w3.org/2000/svg" p-id="6916" xmlns:xlink="http://www.w3.org/1999/xlink" width="200" height="200"><defs><style type="text/css"></style></defs><path d="M864 928H160a32 32 0 0 1-32-32V128a32 32 0 0 1 32-32h704a32 32 0 0 1 32 32v768a32 32 0 0 1-32 32zM192 864h640V160H192v704z" fill="#EF8D48" p-id="6917"></path><path d="M384 800a32 32 0 0 1-32-32v-256a32 32 0 1 1 64 0v256a32 32 0 0 1-32 32zM384 416a32 32 0 0 1-32-32V256a32 32 0 1 1 64 0v128a32 32 0 0 1-32 32z" fill="#EF8D48" p-id="6918"></path><path d="M384 448m-64 0a64 64 0 1 0 128 0 64 64 0 1 0-128 0Z" fill="#FFEDEB" p-id="6919"></path><path d="M384 544c-52.928 0-96-43.072-96-96s43.072-96 96-96 96 43.072 96 96-43.072 96-96 96z m0-128a32.032 32.032 0 0 0 0 64 32.032 32.032 0 0 0 0-64z" fill="#EF8D48" p-id="6920"></path><path d="M640 544a32 32 0 0 1-32-32V256a32 32 0 1 1 64 0v256a32 32 0 0 1-32 32zM640 800a32 32 0 0 1-32-32v-128a32 32 0 1 1 64 0v128a32 32 0 0 1-32 32z" fill="#EF8D48" p-id="6921"></path><path d="M640 576m-64 0a64 64 0 1 0 128 0 64 64 0 1 0-128 0Z" fill="#FFEDEB" p-id="6922"></path><path d="M640 672c-52.928 0-96-43.072-96-96s43.072-96 96-96 96 43.072 96 96-43.072 96-96 96z m0-128a32.032 32.032 0 0 0 0 64 32.032 32.032 0 0 0 0-64z" fill="#EF8D48" p-id="6923"></path></svg>