<?xml version="1.0" encoding="UTF-8"?>
<svg width="14px" height="14px" viewBox="0 0 14 14" version="1.1" xmlns="http://www.w3.org/2000/svg" xmlns:xlink="http://www.w3.org/1999/xlink">
    <!-- Generator: Sketch 64 (93537) - https://sketch.com -->
    <title>上传</title>
    <desc>Created with Sketch.</desc>
    <defs>
        <rect id="path-1" x="0" y="0" width="14" height="14"></rect>
    </defs>
    <g id="城商行" stroke="none" stroke-width="1" fill="none" fill-rule="evenodd">
        <g id="3-0-1应用中心-服务申请-申请VMwarVM+Tomcat+Apache-Network" transform="translate(-708.000000, -150.000000)">
            <g id="上传" transform="translate(708.000000, 150.000000)">
                <mask id="mask-2" fill="white">
                    <use xlink:href="#path-1"></use>
                </mask>
                <g id="矩形" opacity="0" fill-rule="nonzero"></g>
                <g id="编组-2" mask="url(#mask-2)" fill="#606266" fill-rule="nonzero">
                    <g transform="translate(2.000000, 2.000000)">
                        <path d="M5.25,7.44073449 C5.25,7.68235907 5.05412458,7.87823449 4.8125,7.87823449 C4.57087542,7.87823449 4.375,7.68235907 4.375,7.44073449 L4.375,1.31573449 C4.375,1.07410992 4.57087542,0.878234495 4.8125,0.878234495 C5.05412458,0.878234495 5.25,1.07410992 5.25,1.31573449 L5.25,7.44073449 Z" id="路径"></path>
                        <path d="M8.75,8.75323449 L8.75,6.56573449 C8.75,6.32410992 8.94587542,6.12823449 9.1875,6.12823449 C9.42912458,6.12823449 9.625,6.32410992 9.625,6.56573449 L9.625,9.19073449 C9.625,9.43235907 9.42912458,9.62823449 9.1875,9.62823449 L0.4375,9.62823449 C0.195875422,9.62823449 0,9.43235907 0,9.19073449 L0,6.56573449 C0,6.32410992 0.195875422,6.12823449 0.4375,6.12823449 C0.679124578,6.12823449 0.875,6.32410992 0.875,6.56573449 L0.875,8.75323449 L8.75,8.75323449 Z M4.85843451,1.08823449 L2.77593451,3.36323449 C2.61162979,3.54203668 2.33348669,3.55378921 2.15468451,3.38948449 C1.97588232,3.22517978 1.96412979,2.94703668 2.12843451,2.76823449 L4.53468451,0.143234495 C4.61760146,0.0520095158 4.73515751,1.30384592e-12 4.85843451,1.30384592e-12 C4.9817115,1.30384592e-12 5.09926755,0.0520095158 5.18218451,0.143234495 L7.58843451,2.76823449 C7.75273922,2.94703668 7.74098669,3.22517978 7.56218451,3.38948449 C7.38338232,3.55378921 7.10523922,3.54203668 6.94093451,3.36323449 L4.85843451,1.08823449 Z" id="形状"></path>
                    </g>
                </g>
            </g>
        </g>
    </g>
</svg>