<?xml version="1.0" standalone="no"?><!DOCTYPE svg PUBLIC "-//W3C//DTD SVG 1.1//EN" "http://www.w3.org/Graphics/SVG/1.1/DTD/svg11.dtd"><svg t="1583304159261" class="icon" viewBox="0 0 1024 1024" version="1.1" xmlns="http://www.w3.org/2000/svg" p-id="12943" xmlns:xlink="http://www.w3.org/1999/xlink" width="200" height="200"><defs><style type="text/css"></style></defs><path d="M288 256V128a64 64 0 0 1 64-64h320a64 64 0 0 1 64 64v128h160a64 64 0 0 1 64 64v576a64 64 0 0 1-64 64H128a64 64 0 0 1-64-64V320a64 64 0 0 1 64-64h160z m480 256h128V352a32 32 0 0 0-32-32H160a32 32 0 0 0-32 32v160h128v-32a32 32 0 0 1 64 0v32h384v-32a32 32 0 0 1 64 0v32z m0 64v32a32 32 0 0 1-64 0v-32H320v32a32 32 0 0 1-64 0v-32H128v288a32 32 0 0 0 32 32h704a32 32 0 0 0 32-32V576H768zM384 128a32 32 0 0 0-32 32v96h320v-96a32 32 0 0 0-32-32H384z" p-id="12944"></path></svg>