<?xml version="1.0" standalone="no"?><!DOCTYPE svg PUBLIC "-//W3C//DTD SVG 1.1//EN" "http://www.w3.org/Graphics/SVG/1.1/DTD/svg11.dtd"><svg t="1583304143215" class="icon" viewBox="0 0 1024 1024" version="1.1" xmlns="http://www.w3.org/2000/svg" p-id="12754" xmlns:xlink="http://www.w3.org/1999/xlink" width="200" height="200"><defs><style type="text/css"></style></defs><path d="M805.947223 217.604784H387.138029a36.799402 36.799402 0 0 0 0 73.598804h418.809194a36.799402 36.799402 0 0 0 0-73.598804z m-529.015403 0h-58.751045a39.423359 39.423359 0 0 0-36.735403 36.799402 34.751435 34.751435 0 0 0 36.735403 36.799402h58.751045a34.751435 34.751435 0 0 0 36.735403-36.799402 39.423359 39.423359 0 0 0-36.799402-36.799402z m529.015403 257.595814H387.138029a36.799402 36.799402 0 0 0 0 73.598804h418.809194a36.799402 36.799402 0 0 0 0-73.598804z m-529.015403 0h-58.751045A39.35936 39.35936 0 0 0 181.445372 512a34.751435 34.751435 0 0 0 36.735403 36.799402h58.751045a36.799402 36.799402 0 0 0 0-73.598804z m529.015403 257.595814H387.138029a36.799402 36.799402 0 0 0 0 73.598804h418.809194a36.799402 36.799402 0 0 0 0-73.598804z m-529.015403 0h-58.751045a34.751435 34.751435 0 0 0-36.735403 36.799402 39.423359 39.423359 0 0 0 36.735403 36.799402h58.751045a36.799402 36.799402 0 0 0 0-73.598804z" p-id="12755"></path><path d="M841.146652 0.00832H182.853349A181.053058 181.053058 0 0 0 0.00832 182.853349v658.293302A181.053058 181.053058 0 0 0 182.853349 1023.99168h658.293303A181.053058 181.053058 0 0 0 1023.99168 841.146651V182.853349A181.053058 181.053058 0 0 0 841.146652 0.00832z m109.694217 841.138331a112.510172 112.510172 0 0 1-109.694217 109.694218H182.853349a112.510172 112.510172 0 0 1-109.694218-109.694218V182.853349a112.510172 112.510172 0 0 1 109.694218-109.694218h658.293303a112.510172 112.510172 0 0 1 109.694217 109.694218z" p-id="12756"></path></svg>