<?xml version="1.0" standalone="no"?><!DOCTYPE svg PUBLIC "-//W3C//DTD SVG 1.1//EN" "http://www.w3.org/Graphics/SVG/1.1/DTD/svg11.dtd"><svg t="1583304313328" class="icon" viewBox="0 0 1024 1024" version="1.1" xmlns="http://www.w3.org/2000/svg" p-id="20939" xmlns:xlink="http://www.w3.org/1999/xlink" width="200" height="200"><defs><style type="text/css"></style></defs><path d="M928.64 181.76l-128-128A192 192 0 0 0 683.52 0H231.68a71.68 71.68 0 0 0-69.76 72.96v352h71.68V86.4a14.08 14.08 0 0 1 14.08-14.72h434.56v232.96H905.6V937.6a14.72 14.72 0 0 1-14.08 14.72H247.68a14.72 14.72 0 0 1-14.08-14.72V832h-71.68v119.04a71.68 71.68 0 0 0 69.76 72.96h676.48a71.68 71.68 0 0 0 69.76-72.96V329.6a272.64 272.64 0 0 0-49.28-147.84z m-188.8 57.6V93.44l9.6 8.32 128 128a64 64 0 0 1 7.68 10.24z m58.24 202.24H85.76a40.32 40.32 0 0 0-39.68 40.32v274.56a40.32 40.32 0 0 0 39.68 40.32h712.32a40.32 40.32 0 0 0 39.68-40.32V481.92a40.32 40.32 0 0 0-39.68-40.32zM512 571.52a31.36 31.36 0 0 0-25.6 11.52 64 64 0 0 0-9.6 37.12 57.6 57.6 0 0 0 9.6 37.12 30.72 30.72 0 0 0 26.24 11.52 31.36 31.36 0 0 0 26.88-11.52 64 64 0 0 0 9.6-39.68 53.76 53.76 0 0 0-10.24-35.2A34.56 34.56 0 0 0 512 571.52z m-290.56 56.32a133.12 133.12 0 0 1-5.76 44.8 55.68 55.68 0 0 1-20.48 26.24 71.04 71.04 0 0 1-40.32 10.24 94.72 94.72 0 0 1-43.52-5.12 49.92 49.92 0 0 1-22.4-20.48 84.48 84.48 0 0 1-9.6-33.28L128 640a46.72 46.72 0 0 0 0 16 19.2 19.2 0 0 0 6.4 8.96 12.8 12.8 0 0 0 8.96 0 14.72 14.72 0 0 0 12.8-6.4 40.32 40.32 0 0 0 8.96-18.56V534.4h53.12v93.44z m172.8 53.76a64 64 0 0 1-25.6 21.12 110.72 110.72 0 0 1-41.6 7.04 84.48 84.48 0 0 1-60.8-16.64 64 64 0 0 1-19.2-42.88h50.56a51.84 51.84 0 0 0 6.4 18.56 27.52 27.52 0 0 0 24.32 10.88 26.24 26.24 0 0 0 17.28-5.12 16 16 0 0 0 6.4-12.8 13.44 13.44 0 0 0-6.4-11.52A64 64 0 0 0 315.52 640a122.24 122.24 0 0 1-49.92-21.12 44.16 44.16 0 0 1-9.6-60.16 48 48 0 0 1 23.04-18.56 97.92 97.92 0 0 1 42.24-6.4 88.32 88.32 0 0 1 50.56 12.16 56.96 56.96 0 0 1 20.48 39.04H342.4a24.32 24.32 0 0 0-8.32-16.64A24.96 24.96 0 0 0 320 566.4a20.48 20.48 0 0 0-14.08 3.84 10.88 10.88 0 0 0-4.48 9.6 7.04 7.04 0 0 0 3.84 7.04 38.4 38.4 0 0 0 17.92 6.4 234.88 234.88 0 0 1 49.92 15.36 54.4 54.4 0 0 1 21.76 19.2 44.16 44.16 0 0 1 7.04 25.6 58.88 58.88 0 0 1-9.6 28.16z m197.12-12.8a69.12 69.12 0 0 1-28.8 30.08 92.16 92.16 0 0 1-48 10.88 103.04 103.04 0 0 1-48-9.6 74.88 74.88 0 0 1-31.36-28.8 101.76 101.76 0 0 1-11.52-50.56A81.92 81.92 0 0 1 512 531.2a91.52 91.52 0 0 1 64 23.04 87.68 87.68 0 0 1 23.04 64 110.72 110.72 0 0 1-10.88 49.92z m204.16 37.76H742.4l-64-94.72V704h-50.56V534.4h49.92l64 95.36V534.4h49.92z" p-id="20940"></path></svg>