<?xml version="1.0" standalone="no"?><!DOCTYPE svg PUBLIC "-//W3C//DTD SVG 1.1//EN" "http://www.w3.org/Graphics/SVG/1.1/DTD/svg11.dtd"><svg t="1583304284531" class="icon" viewBox="0 0 1024 1024" version="1.1" xmlns="http://www.w3.org/2000/svg" p-id="20118" xmlns:xlink="http://www.w3.org/1999/xlink" width="200" height="200"><defs><style type="text/css"></style></defs><path d="M920.672 825.248H103.328a102.304 102.304 0 0 1-102.176-102.176v-272.352a102.336 102.336 0 0 1 102.176-102.208h817.344a102.304 102.304 0 0 1 102.176 102.208v272.352a102.272 102.272 0 0 1-102.176 102.176zM103.328 412.512c-21.056 0-38.176 17.152-38.176 38.208v272.352c0 21.056 17.12 38.176 38.176 38.176h817.344c21.056 0 38.176-17.12 38.176-38.176v-272.352c0-21.056-17.12-38.208-38.176-38.208H103.328z" fill="" p-id="20119"></path><path d="M676.768 670.08H347.232a28.288 28.288 0 0 1-28.288-28.288v-109.792c0-15.616 12.672-28.288 28.288-28.288h329.536c15.616 0 28.288 12.672 28.288 28.288v109.792a28.288 28.288 0 0 1-28.288 28.288z" fill="" p-id="20120"></path></svg>