<?xml version="1.0" encoding="UTF-8"?>
<svg width="14px" height="14px" viewBox="0 0 14 14" version="1.1" xmlns="http://www.w3.org/2000/svg" xmlns:xlink="http://www.w3.org/1999/xlink">
    <!-- Generator: Sketch 64 (93537) - https://sketch.com -->
    <title>ico_gd</title>
    <desc>Created with Sketch.</desc>
    <defs>
        <rect id="path-1" x="0" y="0" width="14" height="14"></rect>
    </defs>
    <g id="城商行" stroke="none" stroke-width="1" fill="none" fill-rule="evenodd">
        <g id="切图" transform="translate(-381.000000, -870.000000)">
            <g id="ico_gd" transform="translate(381.000000, 870.000000)">
                <mask id="mask-2" fill="white">
                    <use xlink:href="#path-1"></use>
                </mask>
                <g id="矩形" opacity="0" fill-rule="nonzero"></g>
                <path d="M1.68370245,7 C1.68370245,7.5639985 2.14091357,8.02120962 2.70491208,8.02120962 C3.26891058,8.02120962 3.7261217,7.5639985 3.7261217,7 C3.7261217,6.63515694 3.53148025,6.29802804 3.21551689,6.11560651 C2.89955353,5.93318497 2.51027062,5.93318497 2.19430726,6.11560651 C1.8783439,6.29802804 1.68370245,6.63515694 1.68370245,7 Z M5.97879038,7 C5.97879038,7.5639985 6.43600151,8.02120962 7.00000001,8.02120962 C7.56399851,8.02120962 8.02120963,7.5639985 8.02120963,7 C8.02120963,6.63515693 7.82656819,6.29802804 7.51060483,6.1156065 C7.19464147,5.93318496 6.80535855,5.93318496 6.48939519,6.1156065 C6.17343183,6.29802804 5.97879038,6.63515693 5.97879038,7 L5.97879038,7 Z M10.2738783,7 C10.2738783,7.5639985 10.7310894,8.02120962 11.2950879,8.02120962 C11.8590864,8.02120962 12.3162976,7.5639985 12.3162976,7 C12.3162976,6.4360015 11.8590864,5.97879038 11.2950879,5.97879038 C10.7310894,5.97879038 10.2738783,6.4360015 10.2738783,7 Z" id="形状" fill="#19223B" fill-rule="nonzero" opacity="0.849999964" mask="url(#mask-2)"></path>
            </g>
        </g>
    </g>
</svg>