<?xml version="1.0" encoding="UTF-8"?>
<svg width="14px" height="14px" viewBox="0 0 14 14" version="1.1" xmlns="http://www.w3.org/2000/svg" xmlns:xlink="http://www.w3.org/1999/xlink">
    <!-- Generator: Sketch 64 (93537) - https://sketch.com -->
    <title>复制</title>
    <desc>Created with Sketch.</desc>
    <defs>
        <rect id="path-1" x="0" y="0" width="14" height="14"></rect>
    </defs>
    <g id="城商行" stroke="none" stroke-width="1" fill="none" fill-rule="evenodd">
        <g id="切图" transform="translate(-948.000000, -1919.000000)">
            <g id="复制" transform="translate(948.000000, 1919.000000)">
                <mask id="mask-2" fill="white">
                    <use xlink:href="#path-1"></use>
                </mask>
                <g id="矩形" opacity="0" fill-rule="nonzero"></g>
                <path d="M11.8547461,0.876640625 L4.97560547,0.876640625 C4.27414823,0.876640625 3.70538008,1.44502719 3.70507812,2.14648438 L3.70507812,3.69304688 L1.96875,3.69304688 C1.36468855,3.69304688 0.875,4.18273543 0.875,4.78679687 L0.875,12.0328906 C0.875,12.6369521 1.36468855,13.1266406 1.96875,13.1266406 L9.21484375,13.1266406 C9.8189052,13.1266406 10.3085938,12.6369521 10.3085938,12.0328906 L10.3085938,10.3102344 L11.8547461,10.3102344 C12.5563101,10.3101589 13.125,9.74140773 13.125,9.03984375 L13.125,2.14648438 C13.1246981,1.44513397 12.5560966,0.876640625 11.8547461,0.876640625 L11.8547461,0.876640625 Z M9.21484375,12.3063281 L1.96875,12.3063281 C1.81773464,12.3063281 1.6953125,12.183906 1.6953125,12.0328906 L1.6953125,4.78679688 C1.6953125,4.63578151 1.81773464,4.51335938 1.96875,4.51335938 L9.21484375,4.51335938 C9.36585911,4.51335938 9.48828125,4.63578151 9.48828125,4.78679688 L9.48828125,12.0328906 C9.48828125,12.183906 9.36585911,12.3063281 9.21484375,12.3063281 Z M12.3183594,9.03984375 C12.3183594,9.28841503 12.1168525,9.48992188 11.8682813,9.48992188 L10.3222656,9.48992188 L10.3222656,4.78679687 C10.3222656,4.18273543 9.83257707,3.69304687 9.22851562,3.69304687 L4.52539062,3.69304687 L4.52539062,2.14648437 C4.52539062,1.89791309 4.72689747,1.69640625 4.97546875,1.69640625 L11.868418,1.69640625 C12.1169359,1.69640625 12.3183594,1.89796647 12.3183594,2.14648437 L12.3183594,9.03984375 Z" id="形状" fill="#4F81FF" fill-rule="nonzero" mask="url(#mask-2)"></path>
                <path d="M7.41535156,6.76921875 L3.78710938,6.76921875 C3.57095703,6.76921875 3.38556641,6.93328125 3.36998047,7.14875 C3.36146024,7.26254167 3.40072973,7.37473903 3.47835226,7.45838042 C3.55597479,7.54202181 3.66493276,7.58954549 3.77904297,7.58953125 L7.40728516,7.58953125 C7.6234375,7.58953125 7.80882812,7.42546875 7.82441406,7.21 C7.83293429,7.09620833 7.7936648,6.98401097 7.71604227,6.90036958 C7.63841974,6.81672819 7.52946177,6.76920451 7.41535156,6.76921875 L7.41535156,6.76921875 Z M7.41535156,9.23015625 L3.78710938,9.23015625 C3.57095703,9.23015625 3.38556641,9.39421875 3.36998047,9.6096875 C3.36146024,9.72347917 3.40072973,9.83567653 3.47835226,9.91931792 C3.55597479,10.0029593 3.66493276,10.050483 3.77904297,10.0504688 L7.40728516,10.0504688 C7.6234375,10.0504688 7.80882812,9.88640625 7.82441406,9.6709375 C7.83293429,9.55714583 7.7936648,9.44494847 7.71604227,9.36130708 C7.63841974,9.27766569 7.52946177,9.23014201 7.41535156,9.23015625 L7.41535156,9.23015625 Z" id="形状" fill="#4F81FF" fill-rule="nonzero" mask="url(#mask-2)"></path>
            </g>
        </g>
    </g>
</svg>