<?xml version="1.0" encoding="UTF-8"?>
<svg width="20px" height="20px" viewBox="0 0 20 20" version="1.1" xmlns="http://www.w3.org/2000/svg" xmlns:xlink="http://www.w3.org/1999/xlink">
    <!-- Generator: Sketch 64 (93537) - https://sketch.com -->
    <desc>Created with Sketch.</desc>
    <defs>
        <rect id="path-1" x="0" y="0" width="20" height="20" rx="3.33333333"></rect>
    </defs>
    <g id="蓝紫新风格" stroke="none" stroke-width="1" fill="none" fill-rule="evenodd">
        <g id="切图" transform="translate(-101.000000, -709.000000)">
            <g id="发布" transform="translate(101.000000, 709.000000)">
                <mask id="mask-2" fill="white">
                    <use xlink:href="#path-1"></use>
                </mask>
                <use id="矩形备份" fill="#FF8953" fill-rule="nonzero" xlink:href="#path-1"></use>
                <path d="M15.5333439,5 L4.46665613,5 C4.20898923,5 4,5.20680153 4,5.4614625 L4,8.15286986 C4,8.40806429 4.20911062,8.6143476 4.46665613,8.6143476 C4.72420163,8.6143476 4.93331226,8.40806429 4.93331226,8.15286986 L4.93331226,5.92292501 L15.0666877,5.92292501 L15.0666877,8.15286986 C15.0666877,8.40806429 15.2757984,8.6143476 15.5333439,8.6143476 C15.7908894,8.6143476 16,8.40806429 16,8.15286986 L16,5.4614625 C16,5.20628331 15.7908894,5 15.5333439,5 Z M12.0129534,12.4448552 L10.4884078,14.2723845 L10.4884078,7.6924438 C10.4884078,7.43726461 10.2792972,7.22994485 10.0217517,7.22994485 C9.7640848,7.22994485 9.55509556,7.43712743 9.55509556,7.6924438 L9.55509556,14.2899432 L8.01592241,12.4448552 C7.83297148,12.2626388 7.53618644,12.2626388 7.3532355,12.4448552 C7.1702694,12.6262943 7.1702694,12.9211481 7.3532355,13.1029834 L9.65958259,15.8677499 C9.75708966,15.9646424 9.88643143,16.0062679 10.0142406,15.9992414 C10.1421712,16.0061307 10.2717862,15.9646424 10.3694146,15.8677499 L12.6757769,13.1029834 C12.8587278,12.9211481 12.8587278,12.6261572 12.6757769,12.44484 C12.4926894,12.2625017 12.1959043,12.2625017 12.0129534,12.44484 L12.0129534,12.4448552 Z" id="形状" fill="#FFFFFF" fill-rule="nonzero" mask="url(#mask-2)"></path>
            </g>
        </g>
    </g>
</svg>
