<?xml version="1.0" encoding="UTF-8"?>
<svg width="20px" height="20px" viewBox="0 0 20 20" version="1.1" xmlns="http://www.w3.org/2000/svg" xmlns:xlink="http://www.w3.org/1999/xlink">
    <!-- Generator: Sketch 64 (93537) - https://sketch.com -->
    <desc>Created with Sketch.</desc>
    <defs>
        <rect id="path-1" x="0" y="0" width="20" height="20" rx="3.33333333"></rect>
    </defs>
    <g id="蓝紫新风格" stroke="none" stroke-width="1" fill="none" fill-rule="evenodd">
        <g id="切图" transform="translate(-179.000000, -743.000000)">
            <g id="发布" transform="translate(179.000000, 743.000000)">
                <mask id="mask-2" fill="white">
                    <use xlink:href="#path-1"></use>
                </mask>
                <use id="矩形备份" fill="#FF8953" fill-rule="nonzero" xlink:href="#path-1"></use>
                <path d="M15.8333333,4.64480875 C15.8333333,4.38183061 15.6180591,4.16666667 15.3549462,4.16666667 C15.2652486,4.16666667 15.1875107,4.19057378 15.1157526,4.23241121 L4.42379977,9.87448771 C4.26832395,9.9521858 4.16666667,10.1255123 4.16666667,10.3048156 C4.16666667,10.4841189 4.26832393,10.6454918 4.42977961,10.7291667 L7.20442508,12.2472678 C7.27618316,12.2771516 7.35392107,12.295082 7.4196993,12.295082 C7.60507433,12.295082 7.76652999,12.1934768 7.85024774,12.0321038 C7.96386469,11.7990096 7.86818726,11.5061475 7.63497352,11.386612 L5.69750556,10.292862 L13.4593371,6.18084017 L8.57978814,12.1098019 C8.50803007,12.2054303 8.46617119,12.3130123 8.4661712,12.4205943 L8.4661712,15.3551912 C8.4661712,15.6121926 8.68742526,15.8333333 8.94455835,15.8333333 C9.20169143,15.8333333 9.4229455,15.6121926 9.4229455,15.3551912 L9.4229455,12.5998975 L14.6194259,6.27646859 L13.6148129,14.321209 L10.6966513,12.9286202 C10.6368529,12.8927596 10.5650948,12.880806 10.4873569,12.880806 C10.3019819,12.880806 10.1405262,12.9824112 10.0568085,13.1497609 C10.0029899,13.2633197 9.99103025,13.3948087 10.0328891,13.5143443 C10.074748,13.6398566 10.1584657,13.735485 10.2720827,13.789276 L13.7942081,15.4508197 C13.8540065,15.4866803 13.9257646,15.4986339 14.0035025,15.4986339 C14.0752606,15.4986339 14.1529985,15.4807035 14.2247565,15.4448429 C14.3622928,15.3731216 14.4579703,15.2416325 14.4759098,15.0922131 L15.8333333,4.7045765 L15.8333333,4.68664617 L15.8333333,4.64480875 Z" id="路径" fill="#FFFFFF" fill-rule="nonzero" mask="url(#mask-2)"></path>
            </g>
        </g>
    </g>
</svg>
