<?xml version="1.0" encoding="UTF-8"?>
<svg width="20px" height="20px" viewBox="0 0 20 20" version="1.1" xmlns="http://www.w3.org/2000/svg" xmlns:xlink="http://www.w3.org/1999/xlink">
    <!-- Generator: Sketch 64 (93537) - https://sketch.com -->
    <desc>Created with Sketch.</desc>
    <g id="蓝紫新风格" stroke="none" stroke-width="1" fill="none" fill-rule="evenodd">
        <g id="切图" transform="translate(-62.000000, -745.000000)" fill-rule="nonzero">
            <g id="配置" transform="translate(62.000000, 745.000000)">
                <rect id="矩形" fill="#3ACBE9" x="0" y="0" width="20" height="20" rx="3.2"></rect>
                <path d="M10.0000483,8.57144387 C8.95312962,8.57144387 8.10439292,9.39011049 8.10439292,10.3999902 C8.10439292,11.4098895 8.95312962,12.2285366 10.0000483,12.2285366 C11.0469468,12.2285366 11.8956229,11.4098895 11.8956229,10.3999902 C11.8956229,9.39011049 11.0469468,8.57144387 10.0000483,8.57144387 L10.0000483,8.57144387 Z M10.0000483,11.3142634 C9.47655867,11.3142634 9.05218021,10.9049106 9.05218021,10.3999902 C9.05218021,9.89501141 9.47653846,9.48571706 10.0000483,9.48571706 C10.5234773,9.48571706 10.9478356,9.89501141 10.9478356,10.3999902 C10.9478356,10.9049106 10.5234773,11.3142634 10.0000483,11.3142634 L10.0000483,11.3142634 Z M15.0519111,11.1020858 L14.7090918,10.9112039 C14.7488211,10.5733758 14.7497704,10.2301897 14.7101017,9.88825056 L15.0519111,9.6978947 C15.958535,9.19291585 16.2691588,8.07457026 15.7457298,7.19998539 C15.2222603,6.32543948 14.0629604,6.02572154 13.1562557,6.53070039 L12.8144463,6.72105626 C12.5273329,6.51688644 12.2187492,6.34609222 11.8956027,6.21042713 L11.8956027,5.82854637 C11.8956027,4.81866661 11.046866,4 9.9999473,4 C8.95302863,4 8.10437273,4.81866661 8.10437273,5.82854637 L8.10437273,6.21005694 C7.94396087,6.27784077 7.78571019,6.35452867 7.63050938,6.44101687 C7.47530858,6.52750506 7.32727804,6.62129966 7.18625618,6.72146541 L6.84369949,6.53070039 C5.93701497,6.02572154 4.77773527,6.32536154 4.25424565,7.19998539 C3.73085699,8.07457026 4.04146057,9.19291584 4.94810471,9.69783624 L5.29090377,9.88881558 C5.25119467,10.2266242 5.25024536,10.5697518 5.28989387,10.9117689 L4.94808452,11.1021053 C4.04146058,11.6070841 3.7308368,12.7253908 4.25426584,13.6000146 C4.77775546,14.4745605 5.93703516,14.77422 6.84371968,14.2692996 L7.18554925,14.0789632 C7.47266265,14.2831136 7.78124643,14.4538298 8.10439292,14.5895923 L8.10439292,14.9713757 C8.10439292,15.9812749 8.95312962,16.8 10.0000483,16.8 C11.0469468,16.8 11.8956229,15.9812749 11.8956229,14.9713757 L11.8956229,14.5898651 C12.0560347,14.5221592 12.2142854,14.4453934 12.3695468,14.3589831 C12.5247476,14.2724949 12.6727983,14.1787003 12.8138,14.0785346 L13.1562557,14.2692996 C14.0629604,14.7742785 15.2222401,14.4745605 15.7457297,13.6000146 C16.2691588,12.7253713 15.9585552,11.6070647 15.0519111,11.1020858 L15.0519111,11.1020858 Z M14.924947,13.1428098 C14.6631618,13.5801607 14.0835219,13.729932 13.6301998,13.477501 L12.8093969,13.0203352 L12.8093969,13.0203352 L12.8093969,13.0203352 L12.7058623,12.9626829 C12.4708393,13.1933506 12.2000863,13.3975983 11.8956228,13.567204 C11.5910585,13.7367318 11.2723353,13.8607846 10.9478356,13.9418174 L10.9478356,14.057122 L10.9478356,14.057122 L10.9478356,14.880114 L10.9478356,14.9713952 C10.9478356,15.476374 10.5234773,15.8857463 9.99996747,15.8857463 C9.47653843,15.8857463 9.05218018,15.4763935 9.05218018,14.9713952 L9.05218018,14.8788475 L9.05218018,14.057122 L9.05218018,14.057122 L9.05218018,13.9408432 C8.3953237,13.77718 7.78393273,13.4447294 7.29407263,12.9627803 L7.1905987,13.0203742 L7.1905987,13.0203742 L6.36979571,13.47754 C5.91647365,13.729971 5.3367732,13.5801412 5.07504858,13.1428488 C4.81334416,12.7055563 4.96868635,12.1464128 5.42200841,11.8939039 L5.50419374,11.8481756 L5.50419374,11.8481756 L6.34626513,11.3791442 C6.15850529,10.7289727 6.16573614,10.0520306 6.34721443,9.42140134 L6.24279119,9.36326194 L6.24279119,9.36326194 L5.4219882,8.90609613 C4.96860554,8.65364567 4.81332394,8.09442417 5.07502838,7.65713173 C5.3367328,7.21985878 5.91645343,7.07000955 6.36977551,7.32253795 L6.45173866,7.36816881 L6.45173866,7.36816881 L7.29411302,7.83735608 C7.52911579,7.60668841 7.79988908,7.40240168 8.1043525,7.23283495 C8.40883611,7.06330717 8.72755925,6.9392154 9.05213978,6.85822162 L9.05213978,6.74283908 L9.05213981,5.91992498 L9.05213981,5.82854636 C9.05213981,5.32364544 9.47649806,4.91427317 9.9999271,4.91427317 C10.5234167,4.91427317 10.9477144,5.32364546 10.9477144,5.82854636 L10.9477144,5.92111348 L10.9477144,6.74283904 L10.9477144,6.85919576 C11.6046315,7.02280049 12.2160426,7.35532901 12.7058825,7.83725862 L13.3343004,7.48723373 L13.6301594,7.32249894 C14.0834815,7.07004848 14.6631214,7.21981977 14.9248258,7.65709272 C15.186611,8.09444361 15.0312688,8.65358719 14.5779468,8.90605712 L14.1784723,9.12856111 L13.7571438,9.36322295 L13.7571438,9.36322295 L13.7571438,9.36322295 L13.6536698,9.42079732 C13.8414499,10.0710272 13.8341988,10.7480083 13.6526599,11.3786181 L14.4948121,11.8475911 L14.4948121,11.8475911 L14.5779467,11.8938649 C15.0313092,12.1463738 15.1866514,12.7055369 14.924947,13.1428098 L14.924947,13.1428098 Z M5.96028307,8.0515405 C5.92607617,8.09194971 5.89258651,8.1327681 5.86028307,8.17387873 L5.96028307,8.0515405 L5.96028307,8.0515405 Z M14.1664951,12.6259654 L14.0664951,12.7485374 C14.1006918,12.7080503 14.1341446,12.6672124 14.1664951,12.6259654 L14.1664951,12.6259654 Z M9.92485144,5.87421368 L10.0713671,5.87421368 C10.0225488,5.86813578 9.97371021,5.86860328 9.92485144,5.87421368 L9.92485144,5.87421368 Z M10.0752047,15.0133423 L9.92854767,15.0133423 C9.97738623,15.0189526 10.0263056,15.0189526 10.0752047,15.0133423 L10.0752047,15.0133423 Z" id="形状" fill="#FFFFFF"></path>
            </g>
        </g>
    </g>
</svg>
