<?xml version="1.0" encoding="UTF-8"?>
<svg width="20px" height="20px" viewBox="0 0 20 20" version="1.1" xmlns="http://www.w3.org/2000/svg" xmlns:xlink="http://www.w3.org/1999/xlink">
    <!-- Generator: Sketch 64 (93537) - https://sketch.com -->
    <desc>Created with Sketch.</desc>
    <g id="蓝紫新风格" stroke="none" stroke-width="1" fill="none" fill-rule="evenodd">
        <g id="切图" transform="translate(-101.000000, -745.000000)" fill-rule="nonzero">
            <g id="更多" transform="translate(101.000000, 745.000000)">
                <rect id="矩形备份" fill="#FCC300" x="0" y="0" width="20" height="20" rx="3.33333333"></rect>
                <path d="M5,8.75 C5.69035594,8.75 6.25,9.30964406 6.25,10 C6.25,10.6903559 5.69035594,11.25 5,11.25 C4.30964406,11.25 3.75,10.6903559 3.75,10 C3.75,9.30964406 4.30964406,8.75 5,8.75 Z M10,8.75 C10.6903559,8.75 11.25,9.30964406 11.25,10 C11.25,10.6903559 10.6903559,11.25 10,11.25 C9.30964406,11.25 8.75,10.6903559 8.75,10 C8.75,9.30964406 9.30964406,8.75 10,8.75 Z M15,8.75 C15.6903559,8.75 16.25,9.30964406 16.25,10 C16.25,10.6903559 15.6903559,11.25 15,11.25 C14.3096441,11.25 13.75,10.6903559 13.75,10 C13.75,9.30964406 14.3096441,8.75 15,8.75 Z" id="形状结合" fill="#FFFFFF"></path>
            </g>
        </g>
    </g>
</svg>
