<?xml version="1.0" encoding="UTF-8"?>
<svg width="64px" height="64px" viewBox="0 0 64 64" version="1.1" xmlns="http://www.w3.org/2000/svg" xmlns:xlink="http://www.w3.org/1999/xlink">
    <!-- Generator: Sketch 64 (93537) - https://sketch.com -->
    <title>组织</title>
    <desc>Created with Sketch.</desc>
    <defs>
        <polygon id="path-1" points="0 64 64 64 64 0 0 0"></polygon>
    </defs>
    <g id="城商行" stroke="none" stroke-width="1" fill="none" fill-rule="evenodd">
        <g id="切图" transform="translate(-1501.000000, -836.000000)">
            <g id="组织" transform="translate(1501.000000, 836.000000)">
                <path d="M64,32 C64,49.673 49.673,64 32,64 C14.327,64 0,49.673 0,32 C0,14.327 14.327,0 32,0 C49.673,0 64,14.327 64,32" id="Fill-1" fill="#F4F7FF"></path>
                <path d="M15.5,9 C14.673,9 14,9.673 14,10.5 C14,11.327 14.673,12 15.5,12 C16.327,12 17,11.327 17,10.5 C17,9.673 16.327,9 15.5,9 M15.5,13 C14.121,13 13,11.879 13,10.5 C13,9.121 14.121,8 15.5,8 C16.879,8 18,9.121 18,10.5 C18,11.879 16.879,13 15.5,13" id="Fill-3" fill="#306BFF"></path>
                <path d="M51.167,12.667 L47.167,12.667 C46.891,12.667 46.667,12.443 46.667,12.167 C46.667,11.891 46.891,11.667 47.167,11.667 L51.167,11.667 C51.443,11.667 51.667,11.891 51.667,12.167 C51.667,12.443 51.443,12.667 51.167,12.667" id="Fill-5" fill="#306BFF"></path>
                <path d="M49.167,14.667 C48.891,14.667 48.667,14.443 48.667,14.167 L48.667,10.167 C48.667,9.891 48.891,9.667 49.167,9.667 C49.443,9.667 49.667,9.891 49.667,10.167 L49.667,14.167 C49.667,14.443 49.443,14.667 49.167,14.667" id="Fill-7" fill="#306BFF"></path>
                <path d="M59,40 C59,41.104 58.104,42 57,42 C55.896,42 55,41.104 55,40 C55,38.896 55.896,38 57,38 C58.104,38 59,38.896 59,40" id="Fill-9" fill="#306BFF"></path>
                <path d="M50,50 C50,50.553 49.553,51 49,51 C48.447,51 48,50.553 48,50 C48,49.447 48.447,49 49,49 C49.553,49 50,49.447 50,50" id="Fill-11" fill="#306BFF"></path>
                <path d="M12,53 C11.724,53 11.5,52.776 11.5,52.5 L11.5,50 C11.5,49.724 11.724,49.5 12,49.5 C12.276,49.5 12.5,49.724 12.5,50 L12.5,52.5 C12.5,52.776 12.276,53 12,53" id="Fill-13" fill="#306BFF"></path>
                <path d="M14.4697,51.9697 C14.3417,51.9697 14.2137,51.9207 14.1157,51.8237 L12.3567,50.0637 C12.1607,49.8677 12.1607,49.5517 12.3567,49.3567 C12.5517,49.1607 12.8677,49.1607 13.0637,49.3567 L14.8237,51.1157 C15.0187,51.3117 15.0187,51.6277 14.8237,51.8237 C14.7257,51.9207 14.5977,51.9697 14.4697,51.9697" id="Fill-15" fill="#306BFF"></path>
                <path d="M15.5,49.5 L13,49.5 C12.724,49.5 12.5,49.276 12.5,49 C12.5,48.724 12.724,48.5 13,48.5 L15.5,48.5 C15.776,48.5 16,48.724 16,49 C16,49.276 15.776,49.5 15.5,49.5" id="Fill-17" fill="#306BFF"></path>
                <path d="M12.71,48.79 C12.582,48.79 12.454,48.741 12.356,48.644 C12.161,48.448 12.161,48.132 12.356,47.936 L14.116,46.177 C14.312,45.981 14.628,45.981 14.823,46.177 C15.019,46.372 15.019,46.688 14.823,46.884 L13.064,48.644 C12.966,48.741 12.838,48.79 12.71,48.79" id="Fill-19" fill="#306BFF"></path>
                <path d="M12,48.5 C11.724,48.5 11.5,48.276 11.5,48 L11.5,45.5 C11.5,45.224 11.724,45 12,45 C12.276,45 12.5,45.224 12.5,45.5 L12.5,48 C12.5,48.276 12.276,48.5 12,48.5" id="Fill-21" fill="#306BFF"></path>
                <path d="M11.29,48.79 C11.162,48.79 11.034,48.741 10.936,48.644 L9.177,46.884 C8.981,46.688 8.981,46.372 9.177,46.177 C9.372,45.981 9.688,45.981 9.884,46.177 L11.644,47.936 C11.839,48.132 11.839,48.448 11.644,48.644 C11.546,48.741 11.418,48.79 11.29,48.79" id="Fill-23" fill="#306BFF"></path>
                <path d="M11,49.5 L8.5,49.5 C8.224,49.5 8,49.276 8,49 C8,48.724 8.224,48.5 8.5,48.5 L11,48.5 C11.276,48.5 11.5,48.724 11.5,49 C11.5,49.276 11.276,49.5 11,49.5" id="Fill-25" fill="#306BFF"></path>
                <path d="M9.5303,51.9697 C9.4023,51.9697 9.2743,51.9207 9.1763,51.8237 C8.9813,51.6277 8.9813,51.3117 9.1763,51.1157 L10.9363,49.3567 C11.1323,49.1607 11.4483,49.1607 11.6433,49.3567 C11.8393,49.5517 11.8393,49.8677 11.6433,50.0637 L9.8843,51.8237 C9.7863,51.9207 9.6583,51.9697 9.5303,51.9697" id="Fill-27" fill="#306BFF"></path>
                <mask id="mask-2" fill="white">
                    <use xlink:href="#path-1"></use>
                </mask>
                <g id="Clip-30"></g>
                <path d="M38.323,43.5 L45.323,43.5 L45.323,38.5 L38.323,38.5 L38.323,43.5 Z M29.323,26.736 L36.677,26.736 L36.677,19.383 L29.323,19.383 L29.323,26.736 Z M20.677,43.5 L27.677,43.5 L27.677,38.5 L20.677,38.5 L20.677,43.5 Z M45.823,36 L43,36 L43,33 C43,31.897 42.103,31 41,31 L34,31 L34,29.235 L37.177,29.235 C38.281,29.235 39.177,28.34 39.177,27.235 L39.177,18.883 C39.177,17.777 38.281,16.883 37.177,16.883 L28.823,16.883 C27.719,16.883 26.823,17.777 26.823,18.883 L26.823,27.235 C26.823,28.34 27.719,29.235 28.823,29.235 L32,29.235 L32,31 L25,31 C23.897,31 23,31.897 23,33 L23,36 L20.177,36 C19.072,36 18.177,36.896 18.177,38 L18.177,44 C18.177,45.104 19.072,46 20.177,46 L28.177,46 C29.281,46 30.177,45.104 30.177,44 L30.177,38 C30.177,36.896 29.281,36 28.177,36 L25,36 L25,33 L41,33 L41,36 L37.823,36 C36.719,36 35.823,36.896 35.823,38 L35.823,44 C35.823,45.104 36.719,46 37.823,46 L45.823,46 C46.928,46 47.823,45.104 47.823,44 L47.823,38 C47.823,36.896 46.928,36 45.823,36 L45.823,36 Z" id="Fill-29" fill="#306BFF" mask="url(#mask-2)"></path>
            </g>
        </g>
    </g>
</svg>