<?xml version="1.0" standalone="no"?><!DOCTYPE svg PUBLIC "-//W3C//DTD SVG 1.1//EN" "http://www.w3.org/Graphics/SVG/1.1/DTD/svg11.dtd"><svg t="1582789210549" class="icon" viewBox="0 0 1024 1024" version="1.1" xmlns="http://www.w3.org/2000/svg" p-id="3180" xmlns:xlink="http://www.w3.org/1999/xlink" width="200" height="200"><defs><style type="text/css"></style></defs><path d="M164 196v632c0 17.673 14.327 32 32 32h632c17.673 0 32-14.327 32-32V196c0-17.673-14.327-32-32-32H196c-17.673 0-32 14.327-32 32z m0-96h696c35.346 0 64 28.654 64 64v696c0 35.346-28.654 64-64 64H164c-35.346 0-64-28.654-64-64V164c0-35.346 28.654-64 64-64z" p-id="3181"></path><path d="M716 496c0 17.673-14.327 32-32 32H308c-17.673 0-32-14.327-32-32 0-17.673 14.327-32 32-32h376c17.673 0 32 14.327 32 32z" p-id="3182"></path></svg>