<?xml version="1.0" encoding="UTF-8"?>
<svg width="14px" height="14px" viewBox="0 0 14 14" version="1.1" xmlns="http://www.w3.org/2000/svg" xmlns:xlink="http://www.w3.org/1999/xlink">
    <!-- Generator: Sketch 64 (93537) - https://sketch.com -->
    <title>复核结果</title>
    <desc>Created with Sketch.</desc>
    <defs>
        <rect id="path-1" x="0" y="0" width="14" height="14"></rect>
    </defs>
    <g id="城商行" stroke="none" stroke-width="1" fill="none" fill-rule="evenodd">
        <g id="切图" transform="translate(-315.000000, -1401.000000)">
            <g id="复核结果" transform="translate(315.000000, 1401.000000)">
                <mask id="mask-2" fill="white">
                    <use xlink:href="#path-1"></use>
                </mask>
                <g id="矩形" opacity="0" fill-rule="nonzero"></g>
                <path d="M10.837618,13 L3.16239525,13 C2.24432539,13 1.5,12.2481367 1.5,11.3207596 L1.5,3.55003248 C1.5,2.6226688 2.24432539,1.87080552 3.16239525,1.87080552 L4.44898546,1.87080552 L4.44898546,1.41980004 C4.44898546,1.18775488 4.63487109,1 4.86458428,1 C5.09429746,1 5.28018309,1.18776828 5.28018309,1.41980004 L5.28018309,1.87080552 L8.69327888,1.87080552 L8.69327888,1.41980004 C8.69327888,1.18775488 8.87916451,1 9.10887769,1 C9.33859088,1 9.52447651,1.18776828 9.52447651,1.41980004 L9.52447651,1.87080552 L10.8376047,1.87080552 C11.7556613,1.87080552 12.5,2.62268219 12.5,3.55003248 L12.5,11.3207596 C12.5,12.2481367 11.7556746,13 10.837618,13 Z M11.6688289,3.55003248 C11.6688289,3.08634394 11.296633,2.710419 10.8376047,2.710419 L9.52447651,2.710419 L9.52447651,3.14801819 C9.52447651,3.37966156 9.33859088,3.56783162 9.10887769,3.56783162 C8.87916451,3.56783162 8.69327888,3.37966156 8.69327888,3.14801819 L8.69327888,2.710419 L5.28018309,2.710419 L5.28018309,3.14801819 C5.28018309,3.37966156 5.09429746,3.56783162 4.86458428,3.56783162 C4.63487109,3.56783162 4.44898546,3.37966156 4.44898546,3.14801819 L4.44898546,2.710419 L3.16239525,2.710419 C2.70336695,2.710419 2.33118436,3.08635734 2.33118436,3.55003248 L2.33118436,11.3207596 C2.33118436,11.7844348 2.70336695,12.1603731 3.16239525,12.1603731 L10.837618,12.1603731 C11.2966463,12.1603731 11.6688289,11.7844348 11.6688289,11.3207596 L11.6688289,3.55003248 L11.6688289,3.55003248 Z M9.53775879,9.98534149 L4.4224607,9.98534149 C4.19273425,9.98534149 4.00686189,9.79757321 4.00686189,9.56552805 C4.00686189,9.33348289 4.19274752,9.14571461 4.4224607,9.14571461 L9.53775879,9.14571461 C9.76748524,9.14571461 9.95334433,9.33348289 9.95334433,9.56552805 C9.95334433,9.79757321 9.76747198,9.98534149 9.53775879,9.98534149 Z M9.53775879,7.86851533 L4.4224607,7.86851533 C4.19273425,7.86851533 4.00686189,7.68074706 4.00686189,7.44870189 C4.00686189,7.21665673 4.19274752,7.02888846 4.4224607,7.02888846 L9.53775879,7.02888846 C9.76748524,7.02888846 9.95334433,7.21665673 9.95334433,7.44870189 C9.95334433,7.68074706 9.76747198,7.86851533 9.53775879,7.86851533 Z M9.53775879,5.71147034 L4.4224607,5.71147034 C4.19273425,5.71147034 4.00686189,5.52370206 4.00686189,5.2916569 C4.00686189,5.05961174 4.19274752,4.87184346 4.4224607,4.87184346 L9.53775879,4.87184346 C9.76748524,4.87184346 9.95334433,5.05961174 9.95334433,5.2916569 C9.95334433,5.52370206 9.76747198,5.71147034 9.53775879,5.71147034 Z" id="形状" fill="#306BFF" fill-rule="nonzero" mask="url(#mask-2)"></path>
            </g>
        </g>
    </g>
</svg>