<?xml version="1.0" encoding="UTF-8"?>
<svg width="64px" height="64px" viewBox="0 0 64 64" version="1.1" xmlns="http://www.w3.org/2000/svg" xmlns:xlink="http://www.w3.org/1999/xlink">
    <!-- Generator: Sketch 64 (93537) - https://sketch.com -->
    <title>角色</title>
    <desc>Created with Sketch.</desc>
    <g id="城商行" stroke="none" stroke-width="1" fill="none" fill-rule="evenodd">
        <g id="切图" transform="translate(-1741.000000, -836.000000)">
            <g id="角色" transform="translate(1741.000000, 836.000000)">
                <path d="M64,32 C64,49.673 49.673,64 32,64 C14.327,64 0,49.673 0,32 C0,14.327 14.327,0 32,0 C49.673,0 64,14.327 64,32" id="Fill-1" fill="#F4F7FF"></path>
                <path d="M15.5,9 C14.673,9 14,9.673 14,10.5 C14,11.327 14.673,12 15.5,12 C16.327,12 17,11.327 17,10.5 C17,9.673 16.327,9 15.5,9 M15.5,13 C14.121,13 13,11.879 13,10.5 C13,9.121 14.121,8 15.5,8 C16.879,8 18,9.121 18,10.5 C18,11.879 16.879,13 15.5,13" id="Fill-3" fill="#306BFF"></path>
                <path d="M51.167,12.667 L47.167,12.667 C46.891,12.667 46.667,12.443 46.667,12.167 C46.667,11.891 46.891,11.667 47.167,11.667 L51.167,11.667 C51.443,11.667 51.667,11.891 51.667,12.167 C51.667,12.443 51.443,12.667 51.167,12.667" id="Fill-5" fill="#306BFF"></path>
                <path d="M49.167,14.667 C48.891,14.667 48.667,14.443 48.667,14.167 L48.667,10.167 C48.667,9.891 48.891,9.667 49.167,9.667 C49.443,9.667 49.667,9.891 49.667,10.167 L49.667,14.167 C49.667,14.443 49.443,14.667 49.167,14.667" id="Fill-7" fill="#306BFF"></path>
                <path d="M59,40 C59,41.104 58.104,42 57,42 C55.896,42 55,41.104 55,40 C55,38.896 55.896,38 57,38 C58.104,38 59,38.896 59,40" id="Fill-9" fill="#306BFF"></path>
                <path d="M51,51 C51,51.553 50.553,52 50,52 C49.447,52 49,51.553 49,51 C49,50.447 49.447,50 50,50 C50.553,50 51,50.447 51,51" id="Fill-11" fill="#306BFF"></path>
                <path d="M12,53 C11.724,53 11.5,52.776 11.5,52.5 L11.5,50 C11.5,49.724 11.724,49.5 12,49.5 C12.276,49.5 12.5,49.724 12.5,50 L12.5,52.5 C12.5,52.776 12.276,53 12,53" id="Fill-13" fill="#306BFF"></path>
                <path d="M14.4697,51.9697 C14.3417,51.9697 14.2137,51.9207 14.1157,51.8237 L12.3567,50.0637 C12.1607,49.8677 12.1607,49.5517 12.3567,49.3567 C12.5517,49.1607 12.8677,49.1607 13.0637,49.3567 L14.8237,51.1157 C15.0187,51.3117 15.0187,51.6277 14.8237,51.8237 C14.7257,51.9207 14.5977,51.9697 14.4697,51.9697" id="Fill-15" fill="#306BFF"></path>
                <path d="M15.5,49.5 L13,49.5 C12.724,49.5 12.5,49.276 12.5,49 C12.5,48.724 12.724,48.5 13,48.5 L15.5,48.5 C15.776,48.5 16,48.724 16,49 C16,49.276 15.776,49.5 15.5,49.5" id="Fill-17" fill="#306BFF"></path>
                <path d="M12.71,48.79 C12.582,48.79 12.454,48.741 12.356,48.644 C12.161,48.448 12.161,48.132 12.356,47.936 L14.116,46.177 C14.312,45.981 14.628,45.981 14.823,46.177 C15.019,46.372 15.019,46.688 14.823,46.884 L13.064,48.644 C12.966,48.741 12.838,48.79 12.71,48.79" id="Fill-19" fill="#306BFF"></path>
                <path d="M12,48.5 C11.724,48.5 11.5,48.276 11.5,48 L11.5,45.5 C11.5,45.224 11.724,45 12,45 C12.276,45 12.5,45.224 12.5,45.5 L12.5,48 C12.5,48.276 12.276,48.5 12,48.5" id="Fill-21" fill="#306BFF"></path>
                <path d="M11.29,48.79 C11.162,48.79 11.034,48.741 10.936,48.644 L9.177,46.884 C8.981,46.688 8.981,46.372 9.177,46.177 C9.372,45.981 9.688,45.981 9.884,46.177 L11.644,47.936 C11.839,48.132 11.839,48.448 11.644,48.644 C11.546,48.741 11.418,48.79 11.29,48.79" id="Fill-23" fill="#306BFF"></path>
                <path d="M11,49.5 L8.5,49.5 C8.224,49.5 8,49.276 8,49 C8,48.724 8.224,48.5 8.5,48.5 L11,48.5 C11.276,48.5 11.5,48.724 11.5,49 C11.5,49.276 11.276,49.5 11,49.5" id="Fill-25" fill="#306BFF"></path>
                <path d="M9.5303,51.9697 C9.4023,51.9697 9.2743,51.9207 9.1763,51.8237 C8.9813,51.6277 8.9813,51.3117 9.1763,51.1157 L10.9363,49.3567 C11.1323,49.1607 11.4483,49.1607 11.6433,49.3567 C11.8393,49.5517 11.8393,49.8677 11.6433,50.0637 L9.8843,51.8237 C9.7863,51.9207 9.6583,51.9697 9.5303,51.9697" id="Fill-27" fill="#306BFF"></path>
                <path d="M30,48.25 L16.75,48.25 L16.75,20 C16.75,17.656 18.656,15.75 21,15.75 L39,15.75 C41.344,15.75 43.25,17.656 43.25,20 L43.25,28.286 C43.25,28.977 42.69,29.536 42,29.536 C41.31,29.536 40.75,28.977 40.75,28.286 L40.75,20 C40.75,19.035 39.965,18.25 39,18.25 L21,18.25 C20.035,18.25 19.25,19.035 19.25,20 L19.25,45.75 L30,45.75 C30.69,45.75 31.25,46.31 31.25,47 C31.25,47.69 30.69,48.25 30,48.25" id="Fill-29" fill="#306BFF"></path>
                <path d="M36,30.6729 L24,30.6729 C23.31,30.6729 22.75,30.1129 22.75,29.4229 C22.75,28.7329 23.31,28.1729 24,28.1729 L36,28.1729 C36.69,28.1729 37.25,28.7329 37.25,29.4229 C37.25,30.1129 36.69,30.6729 36,30.6729" id="Fill-31" fill="#306BFF"></path>
                <path d="M36,25.25 L24,25.25 C23.31,25.25 22.75,24.69 22.75,24 C22.75,23.31 23.31,22.75 24,22.75 L36,22.75 C36.69,22.75 37.25,23.31 37.25,24 C37.25,24.69 36.69,25.25 36,25.25" id="Fill-33" fill="#306BFF"></path>
                <path d="M33,35.75 L24,35.75 C23.31,35.75 22.75,35.19 22.75,34.5 C22.75,33.81 23.31,33.25 24,33.25 L33,33.25 C33.69,33.25 34.25,33.81 34.25,34.5 C34.25,35.19 33.69,35.75 33,35.75" id="Fill-35" fill="#306BFF"></path>
                <path d="M31.3848,40.8271 L23.9998,40.8271 C23.3098,40.8271 22.7498,40.2671 22.7498,39.5771 C22.7498,38.8871 23.3098,38.3271 23.9998,38.3271 L31.3848,38.3271 C32.0748,38.3271 32.6348,38.8871 32.6348,39.5771 C32.6348,40.2671 32.0748,40.8271 31.3848,40.8271" id="Fill-37" fill="#306BFF"></path>
                <path d="M35.3311,46 L48.4231,46 C47.9991,43.67 45.9541,41.898 43.5041,41.898 L40.2501,41.898 C37.8001,41.898 35.7551,43.67 35.3311,46 L35.3311,46 Z M50.5041,48 L33.2501,48 L33.2501,46.898 C33.2501,43.039 36.3911,39.898 40.2501,39.898 L43.5041,39.898 C47.3631,39.898 50.5041,43.039 50.5041,46.898 L50.5041,48 Z" id="Fill-39" fill="#306BFF"></path>
                <path d="M41.877,33 C40.466,33 39.317,34.148 39.317,35.56 C39.317,36.971 40.466,38.118 41.877,38.118 C43.288,38.118 44.437,36.971 44.437,35.56 C44.437,34.148 43.288,33 41.877,33 M41.877,40.118 C39.363,40.118 37.317,38.073 37.317,35.56 C37.317,33.046 39.363,31 41.877,31 C44.391,31 46.437,33.046 46.437,35.56 C46.437,38.073 44.391,40.118 41.877,40.118" id="Fill-41" fill="#306BFF"></path>
            </g>
        </g>
    </g>
</svg>