<?xml version="1.0" encoding="UTF-8"?>
<svg width="64px" height="64px" viewBox="0 0 64 64" version="1.1" xmlns="http://www.w3.org/2000/svg" xmlns:xlink="http://www.w3.org/1999/xlink">
    <!-- Generator: Sketch 64 (93537) - https://sketch.com -->
    <title>脚本</title>
    <desc>Created with Sketch.</desc>
    <g id="城商行" stroke="none" stroke-width="1" fill="none" fill-rule="evenodd">
        <g id="切图" transform="translate(-1381.000000, -836.000000)">
            <g id="脚本" transform="translate(1381.000000, 836.000000)">
                <path d="M64,32 C64,49.673 49.673,64 32,64 C14.327,64 0,49.673 0,32 C0,14.327 14.327,0 32,0 C49.673,0 64,14.327 64,32" id="Fill-1" fill="#F4F7FF"></path>
                <path d="M15.5,9 C14.673,9 14,9.673 14,10.5 C14,11.327 14.673,12 15.5,12 C16.327,12 17,11.327 17,10.5 C17,9.673 16.327,9 15.5,9 M15.5,13 C14.121,13 13,11.879 13,10.5 C13,9.121 14.121,8 15.5,8 C16.879,8 18,9.121 18,10.5 C18,11.879 16.879,13 15.5,13" id="Fill-3" fill="#306BFF"></path>
                <path d="M51.167,12.667 L47.167,12.667 C46.891,12.667 46.667,12.443 46.667,12.167 C46.667,11.891 46.891,11.667 47.167,11.667 L51.167,11.667 C51.443,11.667 51.667,11.891 51.667,12.167 C51.667,12.443 51.443,12.667 51.167,12.667" id="Fill-5" fill="#306BFF"></path>
                <path d="M49.167,14.667 C48.891,14.667 48.667,14.443 48.667,14.167 L48.667,10.167 C48.667,9.891 48.891,9.667 49.167,9.667 C49.443,9.667 49.667,9.891 49.667,10.167 L49.667,14.167 C49.667,14.443 49.443,14.667 49.167,14.667" id="Fill-7" fill="#306BFF"></path>
                <path d="M59,40 C59,41.104 58.104,42 57,42 C55.896,42 55,41.104 55,40 C55,38.896 55.896,38 57,38 C58.104,38 59,38.896 59,40" id="Fill-9" fill="#306BFF"></path>
                <path d="M50,50 C50,50.553 49.553,51 49,51 C48.447,51 48,50.553 48,50 C48,49.447 48.447,49 49,49 C49.553,49 50,49.447 50,50" id="Fill-11" fill="#306BFF"></path>
                <path d="M12,53 C11.724,53 11.5,52.776 11.5,52.5 L11.5,50 C11.5,49.724 11.724,49.5 12,49.5 C12.276,49.5 12.5,49.724 12.5,50 L12.5,52.5 C12.5,52.776 12.276,53 12,53" id="Fill-13" fill="#306BFF"></path>
                <path d="M14.4697,51.9697 C14.3417,51.9697 14.2137,51.9207 14.1157,51.8237 L12.3567,50.0637 C12.1607,49.8677 12.1607,49.5517 12.3567,49.3567 C12.5517,49.1607 12.8677,49.1607 13.0637,49.3567 L14.8237,51.1157 C15.0187,51.3117 15.0187,51.6277 14.8237,51.8237 C14.7257,51.9207 14.5977,51.9697 14.4697,51.9697" id="Fill-15" fill="#306BFF"></path>
                <path d="M15.5,49.5 L13,49.5 C12.724,49.5 12.5,49.276 12.5,49 C12.5,48.724 12.724,48.5 13,48.5 L15.5,48.5 C15.776,48.5 16,48.724 16,49 C16,49.276 15.776,49.5 15.5,49.5" id="Fill-17" fill="#306BFF"></path>
                <path d="M12.71,48.79 C12.582,48.79 12.454,48.741 12.356,48.644 C12.161,48.448 12.161,48.132 12.356,47.936 L14.116,46.177 C14.312,45.981 14.628,45.981 14.823,46.177 C15.019,46.372 15.019,46.688 14.823,46.884 L13.064,48.644 C12.966,48.741 12.838,48.79 12.71,48.79" id="Fill-19" fill="#306BFF"></path>
                <path d="M12,48.5 C11.724,48.5 11.5,48.276 11.5,48 L11.5,45.5 C11.5,45.224 11.724,45 12,45 C12.276,45 12.5,45.224 12.5,45.5 L12.5,48 C12.5,48.276 12.276,48.5 12,48.5" id="Fill-21" fill="#306BFF"></path>
                <path d="M11.29,48.79 C11.162,48.79 11.034,48.741 10.936,48.644 L9.177,46.884 C8.981,46.688 8.981,46.372 9.177,46.177 C9.372,45.981 9.688,45.981 9.884,46.177 L11.644,47.936 C11.839,48.132 11.839,48.448 11.644,48.644 C11.546,48.741 11.418,48.79 11.29,48.79" id="Fill-23" fill="#306BFF"></path>
                <path d="M11,49.5 L8.5,49.5 C8.224,49.5 8,49.276 8,49 C8,48.724 8.224,48.5 8.5,48.5 L11,48.5 C11.276,48.5 11.5,48.724 11.5,49 C11.5,49.276 11.276,49.5 11,49.5" id="Fill-25" fill="#306BFF"></path>
                <path d="M9.5303,51.9697 C9.4023,51.9697 9.2743,51.9207 9.1763,51.8237 C8.9813,51.6277 8.9813,51.3117 9.1763,51.1157 L10.9363,49.3567 C11.1323,49.1607 11.4483,49.1607 11.6433,49.3567 C11.8393,49.5517 11.8393,49.8677 11.6433,50.0637 L9.8843,51.8237 C9.7863,51.9207 9.6583,51.9697 9.5303,51.9697" id="Fill-27" fill="#306BFF"></path>
                <path d="M49,27 L19,27 C18.447,27 18,26.553 18,26 C18,25.447 18.447,25 19,25 L49,25 C49.553,25 50,25.447 50,26 C50,26.553 49.553,27 49,27" id="Fill-29" fill="#306BFF"></path>
                <path d="M23,18.25 C21.483,18.25 20.25,19.483 20.25,21 L20.25,43 C20.25,44.517 21.483,45.75 23,45.75 L45,45.75 C46.517,45.75 47.75,44.517 47.75,43 L47.75,21 C47.75,19.483 46.517,18.25 45,18.25 L23,18.25 Z M45,48.25 L23,48.25 C20.105,48.25 17.75,45.895 17.75,43 L17.75,21 C17.75,18.105 20.105,15.75 23,15.75 L45,15.75 C47.895,15.75 50.25,18.105 50.25,21 L50.25,43 C50.25,45.895 47.895,48.25 45,48.25 L45,48.25 Z" id="Fill-31" fill="#306BFF"></path>
                <path d="M25.5,22 C25.5,22.828 24.828,23.5 24,23.5 C23.172,23.5 22.5,22.828 22.5,22 C22.5,21.172 23.172,20.5 24,20.5 C24.828,20.5 25.5,21.172 25.5,22" id="Fill-33" fill="#306BFF"></path>
                <path d="M31.5,22 C31.5,22.828 30.828,23.5 30,23.5 C29.172,23.5 28.5,22.828 28.5,22 C28.5,21.172 29.172,20.5 30,20.5 C30.828,20.5 31.5,21.172 31.5,22" id="Fill-35" fill="#306BFF"></path>
                <path d="M37.5,22 C37.5,22.828 36.828,23.5 36,23.5 C35.172,23.5 34.5,22.828 34.5,22 C34.5,21.172 35.172,20.5 36,20.5 C36.828,20.5 37.5,21.172 37.5,22" id="Fill-37" fill="#306BFF"></path>
                <path d="M32.1943,40.9668 C32.1103,40.9668 32.0253,40.9538 31.9413,40.9258 C31.5223,40.7858 31.2963,40.3328 31.4353,39.9138 L34.4353,30.9138 C34.5753,30.4948 35.0273,30.2688 35.4473,30.4078 C35.8663,30.5478 36.0923,31.0008 35.9533,31.4198 L32.9533,40.4198 C32.8413,40.7548 32.5293,40.9668 32.1943,40.9668" id="Fill-39" fill="#306BFF"></path>
                <path d="M27.6113,40.2168 C27.4063,40.2168 27.2023,40.1388 27.0463,39.9828 L23.2003,36.1368 L23.2003,35.1958 L27.0463,31.3518 C27.3583,31.0388 27.8643,31.0388 28.1763,31.3518 C28.4893,31.6638 28.4893,32.1698 28.1763,32.4828 L24.9923,35.6668 L28.1763,38.8518 C28.4893,39.1638 28.4893,39.6698 28.1763,39.9828 C28.0203,40.1388 27.8163,40.2168 27.6113,40.2168" id="Fill-41" fill="#306BFF"></path>
                <path d="M40.3887,40.2168 C40.1837,40.2168 39.9797,40.1388 39.8237,39.9828 C39.5107,39.6698 39.5107,39.1638 39.8237,38.8518 L43.0077,35.6668 L39.8237,32.4828 C39.5107,32.1698 39.5107,31.6638 39.8237,31.3518 C40.1357,31.0388 40.6417,31.0388 40.9537,31.3518 L44.7997,35.1958 L44.7997,36.1368 L40.9537,39.9828 C40.7977,40.1388 40.5937,40.2168 40.3887,40.2168" id="Fill-43" fill="#306BFF"></path>
            </g>
        </g>
    </g>
</svg>