<?xml version="1.0" standalone="no"?><!DOCTYPE svg PUBLIC "-//W3C//DTD SVG 1.1//EN" "http://www.w3.org/Graphics/SVG/1.1/DTD/svg11.dtd"><svg t="1583459143087" class="icon" viewBox="0 0 1024 1024" version="1.1" xmlns="http://www.w3.org/2000/svg" p-id="1182" xmlns:xlink="http://www.w3.org/1999/xlink" width="280" height="200"><defs><style type="text/css"></style></defs><path d="M170.666667 87.1296h213.333333c47.1296 0 85.333333 38.208 85.333333 85.333333v213.333334c0 47.1296-38.203733 85.333333-85.333333 85.333333H170.666667c-47.1296 0-85.333333-38.203733-85.333334-85.333333v-213.333334c0-47.125333 38.203733-85.333333 85.333334-85.333333z m0 64a21.333333 21.333333 0 0 0-21.333334 21.333333v213.333334a21.333333 21.333333 0 0 0 21.333334 21.333333h213.333333a21.333333 21.333333 0 0 0 21.333333-21.333333v-213.333334a21.333333 21.333333 0 0 0-21.333333-21.333333H170.666667z m0 405.333333h213.333333c47.1296 0 85.333333 38.208 85.333333 85.333334v213.333333c0 47.1296-38.203733 85.333333-85.333333 85.333333H170.666667c-47.1296 0-85.333333-38.203733-85.333334-85.333333v-213.333333c0-47.125333 38.203733-85.333333 85.333334-85.333334z m0 64a21.333333 21.333333 0 0 0-21.333334 21.333334v213.333333a21.333333 21.333333 0 0 0 21.333334 21.333333h213.333333a21.333333 21.333333 0 0 0 21.333333-21.333333v-213.333333a21.333333 21.333333 0 0 0-21.333333-21.333334H170.666667z m768-448v213.333334c0 47.1296-38.203733 85.333333-85.333334 85.333333h-213.333333c-47.1296 0-85.333333-38.203733-85.333333-85.333333v-213.333334c0-47.125333 38.203733-85.333333 85.333333-85.333333h213.333333c47.1296 0 85.333333 38.208 85.333334 85.333333z m-64 0a21.333333 21.333333 0 0 0-21.333334-21.333333h-213.333333a21.333333 21.333333 0 0 0-21.333333 21.333333v213.333334a21.333333 21.333333 0 0 0 21.333333 21.333333h213.333333a21.333333 21.333333 0 0 0 21.333334-21.333333v-213.333334z m-234.666667 384h213.333333c47.1296 0 85.333333 38.208 85.333334 85.333334v213.333333c0 47.1296-38.203733 85.333333-85.333334 85.333333h-213.333333c-47.1296 0-85.333333-38.203733-85.333333-85.333333v-213.333333c0-47.125333 38.203733-85.333333 85.333333-85.333334z m0 64a21.333333 21.333333 0 0 0-21.333333 21.333334v213.333333a21.333333 21.333333 0 0 0 21.333333 21.333333h213.333333a21.333333 21.333333 0 0 0 21.333334-21.333333v-213.333333a21.333333 21.333333 0 0 0-21.333334-21.333334h-213.333333z" p-id="1183"></path></svg>