<?xml version="1.0" encoding="UTF-8"?>
<svg width="16px" height="16px" viewBox="0 0 16 16" version="1.1" xmlns="http://www.w3.org/2000/svg" xmlns:xlink="http://www.w3.org/1999/xlink">
    <!-- Generator: Sketch 64 (93537) - https://sketch.com -->
    <title>ico_fwlb</title>
    <desc>Created with Sketch.</desc>
    <defs>
        <rect id="path-1" x="0" y="0" width="16" height="16"></rect>
    </defs>
    <g id="功能界面设计" stroke="none" stroke-width="1" fill="none" fill-rule="evenodd">
        <g id="切图-运营中心" transform="translate(-142.000000, -150.000000)">
            <g id="ico_fwlb" transform="translate(142.000000, 150.000000)">
                <mask id="mask-2" fill="white">
                    <use xlink:href="#path-1"></use>
                </mask>
                <g id="矩形" opacity="0" fill-rule="nonzero"></g>
                <path d="M2.928,1.104 C3.22666667,1.104 3.48,1.20533333 3.688,1.408 C3.896,1.61066667 4,1.86133333 4,2.16 L4,2.976 C4,3.27466667 3.896,3.528 3.688,3.736 C3.48,3.944 3.22666667,4.048 2.928,4.048 L2.08,4.048 C1.792,4.048 1.544,3.944 1.336,3.736 C1.128,3.528 1.024,3.27466667 1.024,2.976 L1.024,2.16 C1.024,1.86133333 1.128,1.61066667 1.336,1.408 C1.544,1.20533333 1.792,1.104 2.08,1.104 L2.928,1.104 Z M13.904,1.104 C14.192,1.104 14.44,1.20533333 14.648,1.408 C14.856,1.61066667 14.96,1.86133333 14.96,2.16 L14.96,2.976 C14.96,3.27466667 14.856,3.528 14.648,3.736 C14.44,3.944 14.192,4.048 13.904,4.048 L7.072,4.048 C6.77333333,4.048 6.52,3.944 6.312,3.736 C6.104,3.528 6,3.27466667 6,2.976 L6,2.16 C6,1.86133333 6.104,1.61066667 6.312,1.408 C6.52,1.20533333 6.77333333,1.104 7.072,1.104 L13.904,1.104 Z M2.928,6.08 C3.22666667,6.08 3.48,6.184 3.688,6.392 C3.896,6.6 4,6.85333333 4,7.152 L4,7.968 C4,8.256 3.896,8.504 3.688,8.712 C3.48,8.92 3.22666667,9.024 2.928,9.024 L2.08,9.024 C1.792,9.024 1.544,8.92 1.336,8.712 C1.128,8.504 1.024,8.256 1.024,7.968 L1.024,7.152 C1.024,6.85333333 1.128,6.6 1.336,6.392 C1.544,6.184 1.792,6.08 2.08,6.08 L2.928,6.08 Z M13.904,6.08 C14.192,6.08 14.44,6.184 14.648,6.392 C14.856,6.6 14.96,6.85333333 14.96,7.152 L14.96,7.968 C14.96,8.256 14.856,8.504 14.648,8.712 C14.44,8.92 14.192,9.024 13.904,9.024 L7.072,9.024 C6.77333333,9.024 6.52,8.92 6.312,8.712 C6.104,8.504 6,8.256 6,7.968 L6,7.152 C6,6.85333333 6.104,6.6 6.312,6.392 C6.52,6.184 6.77333333,6.08 7.072,6.08 L13.904,6.08 Z M2.928,11.072 C3.22666667,11.072 3.48,11.176 3.688,11.384 C3.896,11.592 4,11.84 4,12.128 L4,12.944 C4,13.2426667 3.896,13.496 3.688,13.704 C3.48,13.912 3.22666667,14.016 2.928,14.016 L2.08,14.016 C1.792,14.016 1.544,13.912 1.336,13.704 C1.128,13.496 1.024,13.2426667 1.024,12.944 L1.024,12.128 C1.024,11.84 1.128,11.592 1.336,11.384 C1.544,11.176 1.792,11.072 2.08,11.072 L2.928,11.072 Z M13.904,11.072 C14.192,11.072 14.44,11.176 14.648,11.384 C14.856,11.592 14.96,11.84 14.96,12.128 L14.96,12.944 C14.96,13.2426667 14.856,13.496 14.648,13.704 C14.44,13.912 14.192,14.016 13.904,14.016 L7.072,14.016 C6.77333333,14.016 6.52,13.912 6.312,13.704 C6.104,13.496 6,13.2426667 6,12.944 L6,12.128 C6,11.84 6.104,11.592 6.312,11.384 C6.52,11.176 6.77333333,11.072 7.072,11.072 L13.904,11.072 Z" id="形状" fill="#19223B" fill-rule="nonzero" opacity="0.849999964" mask="url(#mask-2)"></path>
            </g>
        </g>
    </g>
</svg>