<?xml version="1.0" standalone="no"?><!DOCTYPE svg PUBLIC "-//W3C//DTD SVG 1.1//EN" "http://www.w3.org/Graphics/SVG/1.1/DTD/svg11.dtd"><svg t="1582714465289" class="icon" viewBox="0 0 1026 1024" version="1.1" xmlns="http://www.w3.org/2000/svg" p-id="2648" xmlns:xlink="http://www.w3.org/1999/xlink" width="200.390625" height="200"><defs><style type="text/css"></style></defs><path d="M1015.2704 411.96032c-5.9392-31.63136-25.23648-51.73248-48.99328-51.16416h-4.33664c-69.66272 0-126.41792-56.7552-126.41792-126.41792 0-22.272 10.61888-47.16032 10.96192-48.18944 12.22144-27.41248 2.85184-61.09696-21.8112-78.22848l-1.4848-1.02912L696.4224 36.46976l-1.82784-0.79872c-8.11008-3.53792-17.01376-5.36576-26.49088-5.36576-19.40992 0-38.36928 7.76704-50.93376 20.7872-15.07328 15.52896-62.24384 55.72608-99.69664 55.72608-37.80096 0-85.30944-41.00096-100.38272-56.87296-12.55936-13.25056-31.74912-21.12512-51.38944-21.12512-9.25184 0-18.04288 1.7152-26.0352 5.14048l-1.59744 0.68608L206.848 106.7008l-1.7152 1.14176c-24.66816 17.13152-34.14528 50.70336-21.92896 78.22848 0.11776 0.2304 11.07968 25.80992 11.07968 48.3072 0 69.66272-56.7552 126.41792-126.41792 126.41792h-4.33664C39.77728 360.34048 20.48 380.32896 14.5408 411.96032c-0.45568 2.28864-10.61888 56.87296-10.61888 100.15232 0 41.91232 9.59488 94.21312 10.61888 100.15232 5.9392 31.05792 24.7808 51.16416 48.18944 51.16416h5.25312c69.66272 0 126.41792 56.7552 126.41792 126.41792 0 22.84032-10.84416 47.96416-10.96192 48.18944-12.22144 27.41248-2.85184 61.09696 21.69856 78.22848l1.4848 1.02912 124.3648 69.55008 1.7152 0.79872c8.11008 3.53792 17.01376 5.36576 26.38336 5.36576 19.64032 0 38.83008-8.11008 51.2768-21.69856 17.8176-19.3024 66.1248-59.26912 101.98016-59.26912 38.83008 0 88.39168 44.76416 102.66624 60.41088 12.44672 13.81888 31.86176 22.0416 51.61984 22.0416 9.25184 0 17.92512-1.7152 25.92768-5.25312l1.59744-0.68608 128.8192-71.14752 1.7152-1.14176c24.66816-17.13152 34.02752-50.816 21.92896-78.11072-0.11776-0.2304-11.07968-25.57952-11.07968-48.3072 0-69.66272 56.7552-126.41792 126.41792-126.41792h5.14048c23.41376 0 42.25536-19.98336 48.18944-51.16416 0.11776-0.57344 10.73664-56.18688 10.73664-100.15232-0.128-43.04896-10.40896-97.86368-10.752-100.15232z m-59.26912 100.15232c0 29.57824-6.1696 67.94752-8.56576 81.99168-48.64512 3.53792-93.8752 24.89856-127.67744 60.52864-34.94912 36.6592-54.24128 84.736-54.24128 135.33184 0 30.26432 10.1632 59.49952 14.848 71.26528l-114.65728 63.26272c-3.99872-4.33664-20.89984-21.8112-44.65152-39.51616-38.25664-28.43648-74.92096-42.82368-108.83072-42.82368-33.57184 0-70.00576 14.16192-108.03712 42.03008-23.296 17.01376-39.85408 33.92-44.42624 38.83008L249.216 861.2352c4.6848-11.76576 14.848-41.00096 14.848-71.3728 0-50.59072-19.3024-98.54976-54.24128-135.33184-33.92-35.51744-79.0272-56.9856-127.67744-60.52864-2.39616-13.93152-8.56576-52.3008-8.56576-81.99168 0-29.4656 6.1696-67.94752 8.56576-81.99168 48.64512-3.53792 93.8752-24.89856 127.67744-60.52864 34.94912-36.6592 54.24128-84.736 54.24128-135.33184 0-30.26432-10.1632-59.49952-14.848-71.26528l117.28384-64.18432a1.2288 1.2288 0 0 1 0.68608 0.2304c3.77344 3.88096 20.66944 20.66944 44.0832 37.45792 37.57568 26.72128 73.3184 40.31488 106.20416 40.31488 32.54272 0 68.06528-13.35808 105.40544-39.51616 23.18336-16.3328 39.97184-32.89088 43.8528-36.6592 0.2304-0.11776 0.45568-0.11776 0.79872-0.2304l112.94208 62.80704c-4.6848 11.76576-14.848 41.10848-14.848 71.3728 0 50.59072 19.3024 98.54976 54.24128 135.33184 33.92 35.51744 79.13984 56.9856 127.67744 60.52864 2.41152 13.81888 8.45824 52.30592 8.45824 81.7664z" fill="#666666" p-id="2649"></path><path d="M512.67584 331.10528c-99.47136 0-180.32128 80.85504-180.32128 180.32128s80.85504 180.32128 180.32128 180.32128 180.32128-80.85504 180.32128-180.32128-80.85504-180.32128-180.32128-180.32128z m0 290.75968c-60.86656 0-110.43328-49.56672-110.43328-110.43328s49.56672-110.43328 110.43328-110.43328 110.43328 49.56672 110.43328 110.43328-49.5616 110.43328-110.43328 110.43328z" fill="#666666" p-id="2650"></path></svg>