<?xml version="1.0" standalone="no"?><!DOCTYPE svg PUBLIC "-//W3C//DTD SVG 1.1//EN" "http://www.w3.org/Graphics/SVG/1.1/DTD/svg11.dtd"><svg class="icon" width="200px" height="200.00px" viewBox="0 0 1024 1024" version="1.1" xmlns="http://www.w3.org/2000/svg"><path d="M512 192a320 320 0 1 1-0.064 640.064A320 320 0 0 1 512 192z" fill="#B2CA5F" /><path d="M512 895.872c-211.776 0-384-172.16-384-383.936 0-211.776 172.224-384 384-384a384.384 384.384 0 0 1 383.936 384A384.384 384.384 0 0 1 512 895.872zM512 256C370.752 256 256 370.816 256 512a256.256 256.256 0 0 0 256 255.936A256.256 256.256 0 0 0 767.936 512 256.32 256.32 0 0 0 512 256z" fill="#D8E4AF" /></svg>