<?xml version="1.0" standalone="no"?><!DOCTYPE svg PUBLIC "-//W3C//DTD SVG 1.1//EN" "http://www.w3.org/Graphics/SVG/1.1/DTD/svg11.dtd"><svg t="1581574461374" class="icon" viewBox="0 0 1024 1024" version="1.1" xmlns="http://www.w3.org/2000/svg" p-id="2016" xmlns:xlink="http://www.w3.org/1999/xlink" width="200" height="200"><defs><style type="text/css"></style></defs><path d="M978.0337777777779 500.90395784533337c-19.97287636385185-39.9457527277037-64.35704498251852-115.39883986488888-139.81013333333334-181.97509400651853-8.876834209185184-8.876834209185184-22.19208430933333-6.657625050074073-31.06891851851852 2.2192079454814815-8.876834209185184 8.876834209185184-6.657625050074073 22.19208430933333 2.2192079454814815 31.06891851851852 68.7954620871111 59.91862909155555 108.74121481481481 128.71409117866665 126.49488323318518 162.00221764266664-37.72654356859259 75.45308835081481-166.44063474725925 281.83947461214814-414.9919828954074 281.83947582577775-250.77055609362964 0-377.2654393268148-206.38638747496293-414.9919828954074-279.6202666666667 37.72654356859259-73.2338791917037 166.44063474725925-272.9626416165926 414.9919828954074-272.9626416165926 75.45308835081481 0 144.24855043792593 17.75366720474074 206.38638747496293 53.26100282785185 11.096042154666666 6.657625050074073 24.411293468444445 2.2192079454814815 31.06891851851852-8.876832995555555s2.2192079454814815-24.411293468444445-8.876834209185184-31.06891851851852c-68.7954620871111-37.72654356859259-146.4677583834074-57.69941993244444-228.57847178429628-57.69941993244444-284.0586837712592 0-423.86881710459255 233.0168888888889-459.3761527277037 304.03155892148146l-2.2192079454814815 2.219209159111111c-2.2192079454814815 6.657625050074073-2.2192079454814815 13.315251313777777 0 19.97287636385185l2.2192079454814815 2.2192079454814815c35.50733562311111 73.2338791917037 175.31746895644446 312.9083931306667 459.3761527277037 312.9083931306667C800.4971008758519 840.442852389926 940.307234209185 600.7683384509631 978.0337777777779 527.5344592592593l2.2192079454814815-2.2192079454814815c2.2192079454814815-6.657625050074073 2.2192079454814815-13.315251313777777 0-19.97287636385185l-2.2192079454814815-4.438417104592592z" fill="" p-id="2017"></path><path d="M343.3401560936296 518.6576250500742c0 95.42596350103702 77.6722962962963 175.31746895644446 175.31746895644446 175.31746895644446s175.31746895644446-77.6722962962963 175.31746895644446-175.31746895644446c0-95.42596350103702-77.6722962962963-175.31746895644446-175.31746895644446-175.31746895644446s-175.31746895644446 77.6722962962963-175.31746895644446 175.31746895644446z m306.2507692942222 0c0 71.01467124622222-57.69941993244444 130.9332991241481-130.93330033777778 130.93330033777778s-130.9332991241481-57.69941993244444-130.9332991241481-130.93330033777778c0-71.01467124622222 57.69941993244444-130.9332991241481 130.9332991241481-130.9332991241481s130.9332991241481 59.91862909155555 130.93330033777778 130.9332991241481z" fill="" p-id="2018"></path></svg>