<?xml version="1.0" encoding="UTF-8"?>
<svg width="64px" height="64px" viewBox="0 0 64 64" version="1.1" xmlns="http://www.w3.org/2000/svg" xmlns:xlink="http://www.w3.org/1999/xlink">
    <!-- Generator: Sketch 64 (93537) - https://sketch.com -->
    <title>存储池详情 </title>
    <desc>Created with Sketch.</desc>
    <g id="城商行" stroke="none" stroke-width="1" fill="none" fill-rule="evenodd">
        <g id="切图" transform="translate(-1381.000000, -552.000000)">
            <g id="存储池详情-" transform="translate(1381.000000, 552.000000)">
                <path d="M64,32 C64,49.673 49.673,64 32,64 C14.327,64 0,49.673 0,32 C0,14.327 14.327,0 32,0 C49.673,0 64,14.327 64,32" id="Fill-1" fill="#F4F7FF"></path>
                <path d="M20,18.25 C18.483,18.25 17.25,19.483 17.25,21 L17.25,43 C17.25,44.517 18.483,45.75 20,45.75 L42,45.75 C43.517,45.75 44.75,44.517 44.75,43 L44.75,21 C44.75,19.483 43.517,18.25 42,18.25 L20,18.25 Z M42,48.25 L20,48.25 C17.105,48.25 14.75,45.895 14.75,43 L14.75,21 C14.75,18.105 17.105,15.75 20,15.75 L42,15.75 C44.895,15.75 47.25,18.105 47.25,21 L47.25,43 C47.25,45.895 44.895,48.25 42,48.25 L42,48.25 Z" id="Fill-3" fill="#306BFF"></path>
                <path d="M24.2725,28.2725 L21.0005,28.2725 C19.8955,28.2725 19.0005,27.3765 19.0005,26.2725 L19.0005,23.0005 C19.0005,21.8955 19.8955,21.0005 21.0005,21.0005 L24.2725,21.0005 C25.3765,21.0005 26.2725,21.8955 26.2725,23.0005 L26.2725,26.2725 C26.2725,27.3765 25.3765,28.2725 24.2725,28.2725" id="Fill-5" fill="#306BFF"></path>
                <path d="M21,21.7998 C20.338,21.7998 19.8,22.3378 19.8,22.9998 L19.8,26.2728 C19.8,26.9348 20.338,27.4728 21,27.4728 L24.272,27.4728 C24.935,27.4728 25.473,26.9348 25.473,26.2728 L25.473,22.9998 C25.473,22.3378 24.935,21.7998 24.272,21.7998 L21,21.7998 Z M24.272,29.0718 L21,29.0718 C19.456,29.0718 18.2,27.8168 18.2,26.2728 L18.2,22.9998 C18.2,21.4558 19.456,20.1998 21,20.1998 L24.272,20.1998 C25.816,20.1998 27.072,21.4558 27.072,22.9998 L27.072,26.2728 C27.072,27.8168 25.816,29.0718 24.272,29.0718 L24.272,29.0718 Z" id="Fill-7" fill="#F4F7FF"></path>
                <path d="M32.6367,36.6367 L29.3637,36.6367 C28.2587,36.6367 27.3637,35.7407 27.3637,34.6367 L27.3637,31.3637 C27.3637,30.2587 28.2587,29.3637 29.3637,29.3637 L32.6367,29.3637 C33.7407,29.3637 34.6367,30.2587 34.6367,31.3637 L34.6367,34.6367 C34.6367,35.7407 33.7407,36.6367 32.6367,36.6367" id="Fill-9" fill="#306BFF"></path>
                <path d="M29.3633,30.1631 C28.7013,30.1631 28.1633,30.7011 28.1633,31.3631 L28.1633,34.6371 C28.1633,35.2991 28.7013,35.8371 29.3633,35.8371 L32.6363,35.8371 C33.2993,35.8371 33.8373,35.2991 33.8373,34.6371 L33.8373,31.3631 C33.8373,30.7011 33.2993,30.1631 32.6363,30.1631 L29.3633,30.1631 Z M32.6363,37.4361 L29.3633,37.4361 C27.8193,37.4361 26.5633,36.1811 26.5633,34.6371 L26.5633,31.3631 C26.5633,29.8191 27.8193,28.5631 29.3633,28.5631 L32.6363,28.5631 C34.1803,28.5631 35.4363,29.8191 35.4363,31.3631 L35.4363,34.6371 C35.4363,36.1811 34.1803,37.4361 32.6363,37.4361 L32.6363,37.4361 Z" id="Fill-11" fill="#F4F7FF"></path>
                <path d="M24.2725,36.6367 L21.0005,36.6367 C19.8955,36.6367 19.0005,35.7407 19.0005,34.6367 L19.0005,31.3637 C19.0005,30.2587 19.8955,29.3637 21.0005,29.3637 L24.2725,29.3637 C25.3765,29.3637 26.2725,30.2587 26.2725,31.3637 L26.2725,34.6367 C26.2725,35.7407 25.3765,36.6367 24.2725,36.6367" id="Fill-13" fill="#306BFF"></path>
                <path d="M21,30.1631 C20.338,30.1631 19.8,30.7011 19.8,31.3631 L19.8,34.6371 C19.8,35.2991 20.338,35.8371 21,35.8371 L24.272,35.8371 C24.935,35.8371 25.473,35.2991 25.473,34.6371 L25.473,31.3631 C25.473,30.7011 24.935,30.1631 24.272,30.1631 L21,30.1631 Z M24.272,37.4361 L21,37.4361 C19.456,37.4361 18.2,36.1811 18.2,34.6371 L18.2,31.3631 C18.2,29.8191 19.456,28.5631 21,28.5631 L24.272,28.5631 C25.816,28.5631 27.072,29.8191 27.072,31.3631 L27.072,34.6371 C27.072,36.1811 25.816,37.4361 24.272,37.4361 L24.272,37.4361 Z" id="Fill-15" fill="#F4F7FF"></path>
                <path d="M32.6367,45 L29.3637,45 C28.2587,45 27.3637,44.104 27.3637,43 L27.3637,39.728 C27.3637,38.623 28.2587,37.728 29.3637,37.728 L32.6367,37.728 C33.7407,37.728 34.6367,38.623 34.6367,39.728 L34.6367,43 C34.6367,44.104 33.7407,45 32.6367,45" id="Fill-17" fill="#306BFF"></path>
                <path d="M29.3633,38.5273 C28.7013,38.5273 28.1633,39.0653 28.1633,39.7273 L28.1633,43.0003 C28.1633,43.6623 28.7013,44.2003 29.3633,44.2003 L32.6363,44.2003 C33.2993,44.2003 33.8373,43.6623 33.8373,43.0003 L33.8373,39.7273 C33.8373,39.0653 33.2993,38.5273 32.6363,38.5273 L29.3633,38.5273 Z M32.6363,45.7993 L29.3633,45.7993 C27.8193,45.7993 26.5633,44.5443 26.5633,43.0003 L26.5633,39.7273 C26.5633,38.1833 27.8193,36.9273 29.3633,36.9273 L32.6363,36.9273 C34.1803,36.9273 35.4363,38.1833 35.4363,39.7273 L35.4363,43.0003 C35.4363,44.5443 34.1803,45.7993 32.6363,45.7993 L32.6363,45.7993 Z" id="Fill-19" fill="#F4F7FF"></path>
                <path d="M24.2725,45 L21.0005,45 C19.8955,45 19.0005,44.104 19.0005,43 L19.0005,39.728 C19.0005,38.623 19.8955,37.728 21.0005,37.728 L24.2725,37.728 C25.3765,37.728 26.2725,38.623 26.2725,39.728 L26.2725,43 C26.2725,44.104 25.3765,45 24.2725,45" id="Fill-21" fill="#306BFF"></path>
                <path d="M21,38.5273 C20.338,38.5273 19.8,39.0653 19.8,39.7273 L19.8,43.0003 C19.8,43.6623 20.338,44.2003 21,44.2003 L24.272,44.2003 C24.935,44.2003 25.473,43.6623 25.473,43.0003 L25.473,39.7273 C25.473,39.0653 24.935,38.5273 24.272,38.5273 L21,38.5273 Z M24.272,45.7993 L21,45.7993 C19.456,45.7993 18.2,44.5443 18.2,43.0003 L18.2,39.7273 C18.2,38.1833 19.456,36.9273 21,36.9273 L24.272,36.9273 C25.816,36.9273 27.072,38.1833 27.072,39.7273 L27.072,43.0003 C27.072,44.5443 25.816,45.7993 24.272,45.7993 L24.272,45.7993 Z" id="Fill-23" fill="#F4F7FF"></path>
                <path d="M41,45 L37.728,45 C36.623,45 35.728,44.104 35.728,43 L35.728,39.728 C35.728,38.623 36.623,37.728 37.728,37.728 L41,37.728 C42.104,37.728 43,38.623 43,39.728 L43,43 C43,44.104 42.104,45 41,45" id="Fill-25" fill="#306BFF"></path>
                <path d="M37.7275,38.5273 C37.0655,38.5273 36.5275,39.0653 36.5275,39.7273 L36.5275,43.0003 C36.5275,43.6623 37.0655,44.2003 37.7275,44.2003 L40.9995,44.2003 C41.6625,44.2003 42.2005,43.6623 42.2005,43.0003 L42.2005,39.7273 C42.2005,39.0653 41.6625,38.5273 40.9995,38.5273 L37.7275,38.5273 Z M40.9995,45.7993 L37.7275,45.7993 C36.1835,45.7993 34.9275,44.5443 34.9275,43.0003 L34.9275,39.7273 C34.9275,38.1833 36.1835,36.9273 37.7275,36.9273 L40.9995,36.9273 C42.5435,36.9273 43.7995,38.1833 43.7995,39.7273 L43.7995,43.0003 C43.7995,44.5443 42.5435,45.7993 40.9995,45.7993 L40.9995,45.7993 Z" id="Fill-27" fill="#F4F7FF"></path>
                <path d="M15.5,9 C14.673,9 14,9.673 14,10.5 C14,11.327 14.673,12 15.5,12 C16.327,12 17,11.327 17,10.5 C17,9.673 16.327,9 15.5,9 M15.5,13 C14.121,13 13,11.879 13,10.5 C13,9.121 14.121,8 15.5,8 C16.879,8 18,9.121 18,10.5 C18,11.879 16.879,13 15.5,13" id="Fill-29" fill="#306BFF"></path>
                <path d="M51.167,12.667 L47.167,12.667 C46.891,12.667 46.667,12.443 46.667,12.167 C46.667,11.891 46.891,11.667 47.167,11.667 L51.167,11.667 C51.443,11.667 51.667,11.891 51.667,12.167 C51.667,12.443 51.443,12.667 51.167,12.667" id="Fill-31" fill="#306BFF"></path>
                <path d="M49.167,14.667 C48.891,14.667 48.667,14.443 48.667,14.167 L48.667,10.167 C48.667,9.891 48.891,9.667 49.167,9.667 C49.443,9.667 49.667,9.891 49.667,10.167 L49.667,14.167 C49.667,14.443 49.443,14.667 49.167,14.667" id="Fill-33" fill="#306BFF"></path>
                <path d="M59,40 C59,41.104 58.104,42 57,42 C55.896,42 55,41.104 55,40 C55,38.896 55.896,38 57,38 C58.104,38 59,38.896 59,40" id="Fill-35" fill="#306BFF"></path>
                <path d="M50,50 C50,50.553 49.553,51 49,51 C48.447,51 48,50.553 48,50 C48,49.447 48.447,49 49,49 C49.553,49 50,49.447 50,50" id="Fill-37" fill="#306BFF"></path>
                <path d="M12,53 C11.724,53 11.5,52.776 11.5,52.5 L11.5,50 C11.5,49.724 11.724,49.5 12,49.5 C12.276,49.5 12.5,49.724 12.5,50 L12.5,52.5 C12.5,52.776 12.276,53 12,53" id="Fill-39" fill="#306BFF"></path>
                <path d="M14.4697,51.9697 C14.3417,51.9697 14.2137,51.9207 14.1157,51.8237 L12.3567,50.0637 C12.1607,49.8677 12.1607,49.5517 12.3567,49.3567 C12.5517,49.1607 12.8677,49.1607 13.0637,49.3567 L14.8237,51.1157 C15.0187,51.3117 15.0187,51.6277 14.8237,51.8237 C14.7257,51.9207 14.5977,51.9697 14.4697,51.9697" id="Fill-41" fill="#306BFF"></path>
                <path d="M15.5,49.5 L13,49.5 C12.724,49.5 12.5,49.276 12.5,49 C12.5,48.724 12.724,48.5 13,48.5 L15.5,48.5 C15.776,48.5 16,48.724 16,49 C16,49.276 15.776,49.5 15.5,49.5" id="Fill-43" fill="#306BFF"></path>
                <path d="M12.71,48.79 C12.582,48.79 12.454,48.741 12.356,48.644 C12.161,48.448 12.161,48.132 12.356,47.936 L14.116,46.177 C14.312,45.981 14.628,45.981 14.823,46.177 C15.019,46.372 15.019,46.688 14.823,46.884 L13.064,48.644 C12.966,48.741 12.838,48.79 12.71,48.79" id="Fill-45" fill="#306BFF"></path>
                <path d="M12,48.5 C11.724,48.5 11.5,48.276 11.5,48 L11.5,45.5 C11.5,45.224 11.724,45 12,45 C12.276,45 12.5,45.224 12.5,45.5 L12.5,48 C12.5,48.276 12.276,48.5 12,48.5" id="Fill-47" fill="#306BFF"></path>
                <path d="M11.29,48.79 C11.162,48.79 11.034,48.741 10.936,48.644 L9.177,46.884 C8.981,46.688 8.981,46.372 9.177,46.177 C9.372,45.981 9.688,45.981 9.884,46.177 L11.644,47.936 C11.839,48.132 11.839,48.448 11.644,48.644 C11.546,48.741 11.418,48.79 11.29,48.79" id="Fill-49" fill="#306BFF"></path>
                <path d="M11,49.5 L8.5,49.5 C8.224,49.5 8,49.276 8,49 C8,48.724 8.224,48.5 8.5,48.5 L11,48.5 C11.276,48.5 11.5,48.724 11.5,49 C11.5,49.276 11.276,49.5 11,49.5" id="Fill-51" fill="#306BFF"></path>
                <path d="M9.5303,51.9697 C9.4023,51.9697 9.2743,51.9207 9.1763,51.8237 C8.9813,51.6277 8.9813,51.3117 9.1763,51.1157 L10.9363,49.3567 C11.1323,49.1607 11.4483,49.1607 11.6433,49.3567 C11.8393,49.5517 11.8393,49.8677 11.6433,50.0637 L9.8843,51.8237 C9.7863,51.9207 9.6583,51.9697 9.5303,51.9697" id="Fill-53" fill="#306BFF"></path>
            </g>
        </g>
    </g>
</svg>