<?xml version="1.0" standalone="no"?><!DOCTYPE svg PUBLIC "-//W3C//DTD SVG 1.1//EN" "http://www.w3.org/Graphics/SVG/1.1/DTD/svg11.dtd"><svg class="icon" width="200px" height="200.00px" viewBox="0 0 1024 1024" version="1.1" xmlns="http://www.w3.org/2000/svg"><path fill="#1296db" d="M800 1024H224a96 96 0 0 1-96-96V480a96 96 0 0 1 96-96h576a96 96 0 0 1 96 96v448a96 96 0 0 1-96 96zM224 448a32 32 0 0 0-32 32v448a32 32 0 0 0 32 32h576a32 32 0 0 0 32-32V480a32 32 0 0 0-32-32z"  /><path fill="#1296db" d="M288 416h64v576H288zM672 416h64v576h-64zM288 224h64v192H288zM672 224h64v192h-64zM736 224h-64A160 160 0 0 0 352 224H288a224 224 0 0 1 448 0zM512 736a64 64 0 1 1 64-64 64 64 0 0 1-64 64z m0-64z"  /><path fill="#1296db" d="M480 704h64v96h-64z"  /></svg>