<?xml version="1.0" encoding="UTF-8"?>
<svg width="14px" height="14px" viewBox="0 0 14 14" version="1.1" xmlns="http://www.w3.org/2000/svg" xmlns:xlink="http://www.w3.org/1999/xlink">
    <!-- Generator: Sketch 64 (93537) - https://sketch.com -->
    <title>ico_sj</title>
    <desc>Created with Sketch.</desc>
    <g id="功能界面设计" stroke="none" stroke-width="1" fill="none" fill-rule="evenodd" opacity="0.449999988">
        <g id="切图-运营中心" transform="translate(-210.000000, -1167.000000)" fill="#19223B" fill-rule="nonzero">
            <g id="ico_sj" transform="translate(210.000000, 1167.000000)">
                <path d="M7,14 C3.15,14 0,10.85 0,7 C0,3.15 3.15,0 7,0 C10.85,0 14,3.15 14,7 C14,10.85 10.85,14 7,14 Z M7,1 C3.7,1 1,3.7 1,7 C1,10.3 3.7,13 7,13 C10.3,13 13,10.3 13,7 C13,3.7 10.3,1 7,1 Z" id="形状"></path>
                <path d="M11,7.5 L3,7.5 C2.7,7.5 2.5,7.3 2.5,7 C2.5,6.7 2.7,6.5 3,6.5 L11,6.5 C11.3,6.5 11.5,6.7 11.5,7 C11.5,7.3 11.3,7.5 11,7.5 Z" id="路径"></path>
            </g>
        </g>
    </g>
</svg>