<?xml version="1.0" encoding="UTF-8"?>
<svg width="14px" height="14px" viewBox="0 0 14 14" version="1.1" xmlns="http://www.w3.org/2000/svg" xmlns:xlink="http://www.w3.org/1999/xlink">
    <!-- Generator: Sketch 64 (93537) - https://sketch.com -->
    <title>ico_tj</title>
    <desc>Created with Sketch.</desc>
    <g id="功能界面设计" stroke="none" stroke-width="1" fill="none" fill-rule="evenodd" opacity="0.449999988">
        <g id="切图-运营中心" transform="translate(-167.000000, -1167.000000)" fill="#19223B" fill-rule="nonzero">
            <g id="ico_tj" transform="translate(167.000000, 1167.000000)">
                <path d="M7,12.9818274 C10.3036721,12.9818274 12.9818274,10.3036721 12.9818274,7 C12.9818274,3.69632795 10.3036721,1.0181726 7,1.0181726 C3.69632795,1.0181726 1.0181726,3.69632795 1.0181726,7 C1.0181726,10.3036721 3.69632795,12.9818274 7,12.9818274 Z M7,14 C3.13400675,14 0,10.8659932 0,7 C0,3.13400675 3.13400675,0 7,0 C10.8659932,0 14,3.13400675 14,7 C14,8.85651543 13.2625021,10.6369928 11.9497475,11.9497475 C10.6369928,13.2625021 8.85651543,14 7,14 Z M7.5090863,6.4909137 L10.1818155,6.4909137 C10.4629761,6.4909137 10.6909018,6.7188394 10.6909018,7 C10.6909018,7.2811606 10.4629761,7.5090863 10.1818155,7.5090863 L7.5090863,7.5090863 L7.5090863,10.1818155 C7.5090863,10.4629761 7.2811606,10.6909018 7,10.6909018 C6.7188394,10.6909018 6.4909137,10.4629761 6.4909137,10.1818155 L6.4909137,7.5090863 L3.81818453,7.5090863 C3.53702393,7.5090863 3.30909823,7.2811606 3.30909823,7 C3.30909823,6.7188394 3.53702393,6.4909137 3.81818453,6.4909137 L6.4909137,6.4909137 L6.4909137,3.81818453 C6.4909137,3.53702393 6.7188394,3.30909823 7,3.30909823 C7.2811606,3.30909823 7.5090863,3.53702393 7.5090863,3.81818453 L7.5090863,6.4909137 Z" id="形状"></path>
            </g>
        </g>
    </g>
</svg>