<?xml version="1.0" encoding="UTF-8"?>
<svg width="14px" height="14px" viewBox="0 0 14 14" version="1.1" xmlns="http://www.w3.org/2000/svg" xmlns:xlink="http://www.w3.org/1999/xlink">
    <!-- Generator: Sketch 64 (93537) - https://sketch.com -->
    <title>任务部署</title>
    <desc>Created with Sketch.</desc>
    <defs>
        <polygon id="path-1" points="0 0 14 0 14 14 0 14"></polygon>
    </defs>
    <g id="城商行" stroke="none" stroke-width="1" fill="none" fill-rule="evenodd">
        <g id="切图" transform="translate(-353.000000, -1738.000000)">
            <g id="任务部署" transform="translate(353.000000, 1738.000000)">
                <mask id="mask-2" fill="white">
                    <use xlink:href="#path-1"></use>
                </mask>
                <g id="Clip-2" opacity="0"></g>
                <path d="M10.6888316,8.37059222 L8.09408526,8.37059222 C7.78316343,8.37059222 7.65881196,8.55326565 7.65881196,8.79697124 C7.65881196,9.04060914 7.84529597,9.22335025 8.09408526,9.22335025 L10.6888316,9.22335025 C10.9997535,9.22335025 11.1241049,9.04060914 11.1241049,8.79697124 C11.1241049,8.55326565 10.9376209,8.37059222 10.6888316,8.37059222 L10.6888316,8.37059222 Z M5.54449166,9.2842978 C5.23356982,9.2842978 5.04699945,9.10153976 5.04699945,8.79697124 C5.04699945,8.49240271 5.23356982,8.30964467 5.54449166,8.30964467 C5.85541349,8.30964467 6.04198387,8.49240271 6.04198387,8.79697124 C6.04198387,9.10153976 5.79328095,9.2842978 5.54449166,9.2842978 L5.54449166,9.2842978 Z M5.54449166,7.45688663 C4.73607761,7.45688663 4.11423394,8.06602369 4.11423394,8.85783418 C4.11423394,9.64974619 4.73607761,10.2588832 5.54449166,10.2588832 C6.35290571,10.2588832 6.97474938,9.64974619 6.97474938,8.85783418 C6.97474938,8.00507614 6.29068679,7.45688663 5.54449166,7.45688663 L5.54449166,7.45688663 Z M10.6888316,4.71576988 L8.09408526,4.71576988 C7.78316343,4.71576988 7.65881196,4.89844332 7.65881196,5.1421489 C7.65881196,5.44671743 7.84529597,5.56852792 8.09408526,5.56852792 L10.6888316,5.56852792 C10.9997535,5.56852792 11.1241049,5.38576988 11.1241049,5.1421489 C11.1241049,4.89844332 10.9376209,4.71576988 10.6888316,4.71576988 L10.6888316,4.71576988 Z M6.66382754,3.98473773 L5.29578874,5.32490694 L4.67394506,4.71576988 C4.48737469,4.53301184 4.17645285,4.53301184 4.05210139,4.71576988 C3.86553102,4.89844332 3.86553102,5.20301184 4.05210139,5.32490694 L5.04699945,6.29947547 C5.10921836,6.36042301 5.23356982,6.42128596 5.4201402,6.42128596 C5.60671057,6.42128596 5.60671057,6.36042301 5.79328095,6.29947547 L7.47224159,4.65482234 C7.65881196,4.4720643 7.65881196,4.16749577 7.47224159,4.04568528 C7.09910084,3.86292724 6.85039792,3.86292724 6.66382754,3.98473773 L6.66382754,3.98473773 Z M12.0672345,11.1725888 C12.0672345,11.720846 11.6319612,12.147225 11.0723364,12.147225 L3.92774993,12.147225 C3.36803881,12.147225 2.93276551,11.720846 2.93276551,11.1725888 L2.93276551,2.88835871 C2.93276551,2.3400846 3.36803881,1.91370558 3.92774993,1.91370558 L11.0723364,1.91370558 C11.6319612,1.91370558 12.0672345,2.3400846 12.0672345,2.88835871 L12.0672345,11.1725888 Z M11.0723364,1 L3.92774993,1 C2.87054659,1 2,1.85275804 2,2.88835871 L2,11.111709 C2,12.147225 2.87054659,13 3.92774993,13 L11.0723364,13 C12.1294534,13 13,12.147225 13,11.111709 L13,2.88835871 C13,1.85275804 12.1916723,1 11.0723364,1 L11.0723364,1 Z" id="Fill-1" fill="#306BFF" mask="url(#mask-2)"></path>
            </g>
        </g>
    </g>
</svg>