<?xml version="1.0" encoding="UTF-8"?>
<svg width="20px" height="20px" viewBox="0 0 20 20" version="1.1" xmlns="http://www.w3.org/2000/svg" xmlns:xlink="http://www.w3.org/1999/xlink">
    <!-- Generator: Sketch 64 (93537) - https://sketch.com -->
    <title>配置</title>
    <desc>Created with Sketch.</desc>
    <defs>
        <rect id="path-1" x="0" y="0" width="20" height="20" rx="3.2"></rect>
    </defs>
    <g id="蓝紫新风格" stroke="none" stroke-width="1" fill="none" fill-rule="evenodd">
        <g id="切图" transform="translate(-62.000000, -709.000000)">
            <g id="配置" transform="translate(62.000000, 709.000000)">
                <mask id="mask-2" fill="white">
                    <use xlink:href="#path-1"></use>
                </mask>
                <use id="矩形" fill="#3ACBE9" fill-rule="nonzero" xlink:href="#path-1"></use>
                <path d="M15.3148148,10.5319853 C15.5602747,10.5319853 15.7592593,10.7359948 15.7592593,10.9876532 L15.7592593,14.3899735 C15.7592593,15.2776145 15.054963,16 14.1888889,16 L6.07037036,16 C5.2034849,15.9989955 4.50097972,15.2787502 4.5,14.3899735 L4.5,6.06674375 C4.50097972,5.17796704 5.2034849,4.45772167 6.07037036,4.45671721 L10.5740741,4.45671721 C10.819534,4.45671721 11.0185185,4.66072667 11.0185185,4.9123851 C11.0185185,5.16404353 10.819534,5.36805299 10.5740741,5.36805299 L6.07037036,5.36805299 C5.69420156,5.36855506 5.38937858,5.68107565 5.38888888,6.06674375 L5.38888888,14.3902772 C5.38888888,14.7754685 5.69466666,15.088968 6.07037036,15.088968 L14.1888889,15.088968 C14.5645926,15.088968 14.8703704,14.7754685 14.8703704,14.3902772 L14.8703704,10.987957 C14.8703704,10.7362986 15.0693549,10.5322891 15.3148148,10.5322891 L15.3148148,10.5319853 Z M16.3447407,6.69526167 C16.438963,6.77880078 16.5,6.90091977 16.5,7.03853148 C16.5,7.17644696 16.4392593,7.29826218 16.3447407,7.38240884 L13.8511111,9.93840193 C13.767813,10.0239857 13.6546676,10.0719831 13.5367407,10.0717607 C13.3571012,10.0715987 13.1952203,9.96058079 13.1264966,9.7904153 C13.0577729,9.62024981 13.0957213,9.42440055 13.2226667,9.29408754 L14.9382222,7.53429815 C11.0777778,7.79676285 9.53703703,9.51402324 9.53703703,13.417882 C9.53703704,13.5806764 9.45232641,13.7311047 9.31481481,13.8125019 C9.17730322,13.8938992 9.00788195,13.8938992 8.87037036,13.8125019 C8.73285876,13.7311047 8.64814814,13.5806764 8.64814814,13.417882 C8.64814814,8.9626651 10.5651852,6.88390818 15.009037,6.61415278 L13.222963,4.78358297 C13.1073753,4.66923199 13.0609622,4.4998361 13.1015627,4.34050229 C13.1421631,4.18116848 13.2634586,4.05669258 13.4188296,4.01491667 C13.5742005,3.97314075 13.7394677,4.02056607 13.8511111,4.1389648 L16.3447407,6.69526167 L16.3447407,6.69526167 Z" id="形状" fill="#FFFFFF" fill-rule="nonzero" mask="url(#mask-2)"></path>
            </g>
        </g>
    </g>
</svg>