<?xml version="1.0" standalone="no"?><!DOCTYPE svg PUBLIC "-//W3C//DTD SVG 1.1//EN" "http://www.w3.org/Graphics/SVG/1.1/DTD/svg11.dtd"><svg t="1582714683701" class="icon" viewBox="0 0 1024 1024" version="1.1" xmlns="http://www.w3.org/2000/svg" p-id="2044" xmlns:xlink="http://www.w3.org/1999/xlink" width="200" height="200"><defs><style type="text/css"></style></defs><path d="M510.655887 958.077591c-247.084445 0-447.296349-200.294792-447.296349-447.338305 0-247.085468 200.211904-447.297372 447.296349-447.297372 247.044536 0 447.339328 200.211904 447.339328 447.297372C957.996239 757.782799 757.700423 958.077591 510.655887 958.077591zM510.655887 131.418099c-209.132064 0-379.320165 170.189124-379.320165 379.321188 0 209.172997 170.189124 380.187929 379.320165 380.187929 209.17402 0 379.363144-171.014932 379.363144-380.187929C890.019031 301.606199 719.830931 131.418099 510.655887 131.418099zM635.913683 692.696432 494.179634 550.963407c-0.49528-0.496304-0.991584-0.909719-1.403976-1.403976l-3.13848-3.139503c-9.705036-9.704013-10.778484-24.200168-4.212952-35.515888L485.424226 247.382227c0-15.610536 11.935843-28.247344 26.63666-28.247344 14.703887 0 26.638707 12.636808 26.638707 28.247344l0 264.47144 139.049916 139.090848c11.521404 11.522428 11.521404 30.230512 0 41.751916C666.185126 704.260815 647.517975 704.260815 635.913683 692.696432z" p-id="2045"></path></svg>