<?xml version="1.0" encoding="UTF-8"?>
<svg width="14px" height="14px" viewBox="0 0 14 14" version="1.1" xmlns="http://www.w3.org/2000/svg" xmlns:xlink="http://www.w3.org/1999/xlink">
    <!-- Generator: Sketch 64 (93537) - https://sketch.com -->
    <title>ico_bz</title>
    <desc>Created with Sketch.</desc>
    <defs>
        <rect id="path-1" x="0" y="0" width="14" height="14"></rect>
    </defs>
    <g id="功能界面设计" stroke="none" stroke-width="1" fill="none" fill-rule="evenodd">
        <g id="切图-运营中心" transform="translate(-410.000000, -1168.000000)">
            <g id="ico_bz" transform="translate(410.000000, 1168.000000)">
                <mask id="mask-2" fill="white">
                    <use xlink:href="#path-1"></use>
                </mask>
                <g id="矩形" opacity="0" fill-rule="nonzero"></g>
                <path d="M7,13.125 C3.61666666,13.125 0.875,10.3833333 0.875,7 C0.875,3.61666666 3.61666666,0.875 7,0.875 C10.3833333,0.875 13.125,3.61666666 13.125,7 C13.125,10.3833333 10.3833333,13.125 7,13.125 Z M7,1.60416666 C4.025,1.60416666 1.60416666,4.025 1.60416666,7 C1.60416666,9.975 4.025,12.3958333 7,12.3958333 C9.975,12.3958333 12.3958333,9.975 12.3958333,7 C12.3958333,4.025 9.975,1.60416666 7,1.60416666 Z" id="形状" fill="#19223B" fill-rule="nonzero" opacity="0.85" mask="url(#mask-2)"></path>
                <path d="M6.65,9.15833334 L6.65,8.07916666 C6.65,7.20416666 7.14583334,6.94166666 7.46666666,6.88333334 C8.07916666,6.67916668 8.42916666,6.27083334 8.42916666,5.6875 C8.42916666,4.95833334 7.84583332,4.375 7.11666666,4.375 L6.94166666,4.375 C6.2125,4.375 5.62916666,4.95833334 5.62916666,5.6875 L4.9,5.6875 C4.9,4.55 5.83333334,3.64583334 6.94166666,3.64583334 L7.11666666,3.64583334 C8.25416666,3.64583334 9.15833334,4.57916668 9.15833334,5.6875 C9.15833334,6.59166666 8.60416668,7.2625 7.64166666,7.58333334 C7.55416666,7.6125 7.37916666,7.64166668 7.37916666,8.07916666 L7.37916666,9.15833334 L6.65,9.15833334 L6.65,9.15833334 Z M6.62083334,9.74166666 L7.35,9.74166666 L7.35,10.3833333 L6.62083334,10.3833333 L6.62083334,9.74166666 Z" id="形状" fill="#19223B" fill-rule="nonzero" opacity="0.85" mask="url(#mask-2)"></path>
            </g>
        </g>
    </g>
</svg>