<?xml version="1.0" standalone="no"?><!DOCTYPE svg PUBLIC "-//W3C//DTD SVG 1.1//EN" "http://www.w3.org/Graphics/SVG/1.1/DTD/svg11.dtd"><svg t="1582615128638" class="icon" viewBox="0 0 1024 1024" version="1.1" xmlns="http://www.w3.org/2000/svg" p-id="11214" xmlns:xlink="http://www.w3.org/1999/xlink" width="200" height="200"><defs><style type="text/css"></style></defs><path d="M508 64.2c-246.8 0-446.9 200.1-446.9 446.9S261.2 958 508 958s446.9-200.1 446.9-446.9S754.8 64.2 508 64.2z m0 838.7c-216 0-391.8-175.8-391.8-391.8S292 119.3 508 119.3c216.1 0 391.8 175.8 391.8 391.8 0 216.1-175.8 391.8-391.8 391.8z" p-id="11215"></path><path d="M691.2 284.7H324.8c-15.2 0-27.6 12.4-27.6 27.6 0 15.2 12.4 27.6 27.6 27.6h366.3c15.2 0 27.6-12.4 27.6-27.6 0-15.2-12.4-27.6-27.5-27.6zM524.5 379.3c-4.3-4.3-9.7-6.9-15.3-7.7h-0.1c-0.4-0.1-0.8-0.1-1.1-0.1h-0.3c-0.3 0-0.7-0.1-1-0.1H503.1c-0.3 0-0.7 0-1 0.1h-0.3c-0.4 0-0.8 0.1-1.1 0.1h-0.1c-5.6 0.9-11 3.4-15.3 7.7L318.9 545.9c-10.7 10.7-10.7 28.2 0 39 10.7 10.7 28.2 10.7 39 0l119.5-119.5v299.9c0 15.2 12.4 27.6 27.6 27.6 15.2 0 27.6-12.4 27.6-27.6v-300l119.5 119.5c10.7 10.7 28.2 10.7 39 0 10.7-10.7 10.7-28.2 0-39L524.5 379.3z" p-id="11216"></path></svg>