<?xml version="1.0" standalone="no"?><!DOCTYPE svg PUBLIC "-//W3C//DTD SVG 1.1//EN" "http://www.w3.org/Graphics/SVG/1.1/DTD/svg11.dtd"><svg t="1586417885569" class="icon" viewBox="0 0 1024 1024" version="1.1" xmlns="http://www.w3.org/2000/svg" p-id="10303" xmlns:xlink="http://www.w3.org/1999/xlink" width="128" height="128"><defs><style type="text/css"></style></defs><path d="M511.6 64.2c-247.4 0-448 200.6-448 448s200.6 448 448 448 448-200.6 448-448-200.5-448-448-448z m-83.3 244.3c0-18.8 15.2-34.1 34.1-34.1h100.5c18.8 0 34.1 15.2 34.1 34.1V409c0 18.8-15.2 34.1-34.1 34.1H462.4c-18.8 0-34.1-15.2-34.1-34.1V308.5z m307.3 377.7c0 18.8-15.2 34.1-34.1 34.1H601c-18.8 0-34.1-15.2-34.1-34.1V585.7c0-18.8 15.2-34.1 34.1-34.1h19v-9.8c0-11.2-9.2-20.4-20.4-20.4H425.8c-11.2 0-20.4 9.2-20.4 20.4v9.8H424c18.8 0 34.1 15.2 34.1 34.1v100.5c0 18.8-15.2 34.1-34.1 34.1H323.4c-18.8 0-34.1-15.2-34.1-34.1V585.7c0-18.8 15.2-34.1 34.1-34.1h56.4v-9.8c0-25.4 20.6-46 46-46h173.8c25.4 0 46 20.6 46 46v9.8h56c18.8 0 34.1 15.2 34.1 34.1v100.5z" fill="#3297FF" p-id="10304"></path></svg>