<?xml version="1.0" standalone="no"?><!DOCTYPE svg PUBLIC "-//W3C//DTD SVG 1.1//EN" "http://www.w3.org/Graphics/SVG/1.1/DTD/svg11.dtd"><svg t="1586419486872" class="icon" viewBox="0 0 1024 1024" version="1.1" xmlns="http://www.w3.org/2000/svg" p-id="28251" xmlns:xlink="http://www.w3.org/1999/xlink" width="128" height="128"><defs><style type="text/css"></style></defs><path d="M922.38 884.92h-37.32V399.75c0-41.22-33.42-74.64-74.64-74.64H661.54v-186.6c0-41.22-33.42-74.64-74.64-74.64H213.7c-41.22 0-74.64 33.42-74.64 74.64v746.41h-37.72c-20.63 0-37.32 16.69-37.32 37.32s16.69 37.32 37.32 37.32h821.04c20.63 0 37.32-16.69 37.32-37.32s-16.69-37.32-37.32-37.32zM661.54 750.53c2.07-29.03 26.03-52.03 55.58-52.03h37.32c30.9 0 55.98 25.07 55.98 55.98 0 30.91-25.08 55.98-55.98 55.98h-37.32c-29.55 0-53.52-23-55.58-52.03v-7.9z m55.58-275.95h37.32c30.9 0 55.98 25.07 55.98 55.98 0 30.91-25.08 55.98-55.98 55.98h-37.32c-29.55 0-53.52-23-55.58-52.03v-7.9c2.06-29.03 26.03-52.03 55.58-52.03zM306.99 250.65h186.6c30.91 0 55.98 25.07 55.98 55.98s-25.07 55.98-55.98 55.98h-186.6c-30.91 0-55.98-25.07-55.98-55.98s25.08-55.98 55.98-55.98z m0 223.93h186.6c30.91 0 55.98 25.07 55.98 55.98 0 30.91-25.07 55.98-55.98 55.98h-186.6c-30.91 0-55.98-25.07-55.98-55.98 0-30.91 25.08-55.98 55.98-55.98z m0 223.92h186.6c30.91 0 55.98 25.07 55.98 55.98 0 30.91-25.07 55.98-55.98 55.98h-186.6c-30.91 0-55.98-25.07-55.98-55.98 0-30.91 25.08-55.98 55.98-55.98z" fill="#1afa29" p-id="28252"></path></svg>