<?xml version="1.0" standalone="no"?><!DOCTYPE svg PUBLIC "-//W3C//DTD SVG 1.1//EN" "http://www.w3.org/Graphics/SVG/1.1/DTD/svg11.dtd"><svg t="1585904031221" class="icon" viewBox="0 0 1024 1024" version="1.1" xmlns="http://www.w3.org/2000/svg" p-id="12207" xmlns:xlink="http://www.w3.org/1999/xlink" width="128" height="128"><defs><style type="text/css"></style></defs><path d="M511.293454 551.368863c135.768823 0 245.735426-164.847515 245.735427-302.356964a245.735426 245.735426 0 1 0-491.470853 0c0 137.509449 110.068993 302.356964 245.735426 302.356964z m-409.559044 292.322768a198.840916 198.840916 0 0 1 100.341966-162.594941l102.389761-51.19488 77.30427 267.032497s2.150185 23.037696 40.955904 23.037696 38.60094-23.037696 38.60094-23.037696V679.356064a51.194881 51.194881 0 0 1 52.116388-49.249475 48.532747 48.532747 0 0 1 50.273373 49.249475v217.680632a51.194881 51.194881 0 0 0 44.437156 27.440456 33.174283 33.174283 0 0 0 34.914909-27.440456l75.768423-266.930107 102.389761 51.194881a198.533747 198.533747 0 0 1 100.341966 162.492551V911.268873a112.628737 112.628737 0 0 1-112.628737 112.628737h-594.884512a112.628737 112.628737 0 0 1-112.628737-112.628737v-67.679632z" fill="#FF9F04" p-id="12208"></path></svg>