<?xml version="1.0" standalone="no"?><!DOCTYPE svg PUBLIC "-//W3C//DTD SVG 1.1//EN" "http://www.w3.org/Graphics/SVG/1.1/DTD/svg11.dtd"><svg t="1585903597670" class="icon" viewBox="0 0 1024 1024" version="1.1" xmlns="http://www.w3.org/2000/svg" p-id="1154" xmlns:xlink="http://www.w3.org/1999/xlink" width="128" height="128"><defs><style type="text/css"></style></defs><path d="M511.801806 264.258065a123.837935 123.837935 0 0 0 123.804904-123.870968A123.837935 123.837935 0 1 0 511.801806 264.258065z m157.233549 117.660903A61.572129 61.572129 0 0 0 607.463226 326.35871h-33.792a30.753032 30.753032 0 0 0-21.93342 9.050838l-39.969032 39.969033-39.969032-40.332387a30.786065 30.786065 0 0 0-21.933419-9.017807h-33.792a61.572129 61.572129 0 0 0-61.539097 54.833548l-28.110452 219.631484a30.984258 30.984258 0 0 0 30.587871 35.377549h33.428645l25.996387 315.68929a61.572129 61.572129 0 0 0 61.539097 55.923613h67.749161a61.902452 61.902452 0 0 0 61.539097-56.286968l25.831226-315.325935h33.230452a31.116387 31.116387 0 0 0 30.786064-35.377549l-28.110451-218.574451zM821.115871 264.258065a123.837935 123.837935 0 0 0 123.804903-123.870968A123.837935 123.837935 0 1 0 821.115871 264.258065zM78.682839 140.552258a123.870968 123.870968 0 0 0 185.707355 107.288774A123.870968 123.870968 0 0 0 202.487742 16.68129a123.837935 123.837935 0 0 0-123.804903 123.870968zM1007.021419 600.526452l-28.672-218.376258A61.572129 61.572129 0 0 0 916.975484 326.35871h-33.758968a30.786065 30.786065 0 0 0-21.933419 9.050838l-39.969032 39.969033-40.167226-40.332387a30.587871 30.587871 0 0 0-21.735226-8.687484h-33.957161a57.145806 57.145806 0 0 0-10.96671 1.981935c8.456258 14.236903 13.939613 30.059355 16.08671 46.50942l28.837161 218.211096a92.391226 92.391226 0 0 1-22.660129 73.43071 89.517419 89.517419 0 0 1-31.479742 22.461935l20.513032 200.670968c3.105032 31.677935 29.729032 55.824516 61.572129 55.758452h67.716129a61.73729 61.73729 0 0 0 61.572129-56.286968l25.798194-253.22529h33.428645a31.116387 31.116387 0 0 0 31.149419-35.377549z m-741.937548-7.267097l28.110452-219.961807c1.882839-15.921548 7.134968-31.248516 15.393032-44.923871a49.482323 49.482323 0 0 0-10.438194-1.981935H264.192a30.753032 30.753032 0 0 0-21.933419 9.050839l-39.969033 39.969032-39.770838-40.332387a30.753032 30.753032 0 0 0-22.131613-8.687484H106.79329a61.373935 61.373935 0 0 0-61.539096 54.866581L16.582194 600.526452a30.455742 30.455742 0 0 0 7.432258 24.212645c5.84671 6.738581 14.269935 10.603355 23.188645 10.636387h33.957161l25.798194 254.282322c3.105032 31.677935 29.729032 55.824516 61.572129 55.758452h67.914322a61.902452 61.902452 0 0 0 61.539097-56.286968l20.48-200.142451a96.222968 96.222968 0 0 1-31.083355-22.131613 92.754581 92.754581 0 0 1-22.296774-73.595871z" fill="#3991F9" p-id="1155"></path></svg>