<?xml version="1.0" standalone="no"?><!DOCTYPE svg PUBLIC "-//W3C//DTD SVG 1.1//EN" "http://www.w3.org/Graphics/SVG/1.1/DTD/svg11.dtd"><svg t="1585015332409" class="icon" viewBox="0 0 1024 1024" version="1.1" xmlns="http://www.w3.org/2000/svg" p-id="3188" xmlns:xlink="http://www.w3.org/1999/xlink" width="16" height="16"><defs><style type="text/css"></style></defs><path d="M1019.148271 444.790782a38.388157 38.388157 0 1 0-76.264473 9.725A443.255256 443.255256 0 0 1 946.978535 511.842097a434.042098 434.042098 0 0 1-174.538155 347.540783L340.957492 112.093419a434.55394 434.55394 0 0 1 525.149992 147.410524 38.388157 38.388157 0 0 0 62.444735-44.530262 511.842097 511.842097 0 0 0-659.25262-153.552629A511.842097 511.842097 0 1 0 1023.754849 511.842097a524.126307 524.126307 0 0 0-4.606578-67.051315zM76.846971 511.842097a434.55394 434.55394 0 0 1 196.547365-363.407889l433.530256 751.384198A434.042098 434.042098 0 0 1 76.846971 511.842097z" fill="#438CFF" p-id="3189"></path><path d="M723.303539 529.75657a38.388157 38.388157 0 0 0-27.127631-65.515788h-107.486841l73.19342 126.93684zM653.181171 177.609208a38.388157 38.388157 0 0 0-54.255262 0L487.344332 289.190785 527.268016 358.289468l125.913155-125.913156a38.388157 38.388157 0 0 0 0-54.767104zM374.739071 401.284204L300.521967 475.501308a38.388157 38.388157 0 0 0 27.127631 65.515788h127.960524zM511.912753 634.6842l-159.182892 157.135524A38.388157 38.388157 0 1 0 409.544333 846.074986l142.292103-142.292103z" fill="#438CFF" p-id="3190"></path></svg>