<?xml version="1.0" standalone="no"?><!DOCTYPE svg PUBLIC "-//W3C//DTD SVG 1.1//EN" "http://www.w3.org/Graphics/SVG/1.1/DTD/svg11.dtd"><svg t="1585101254910" class="icon" viewBox="0 0 1024 1024" version="1.1" xmlns="http://www.w3.org/2000/svg" p-id="7879" xmlns:xlink="http://www.w3.org/1999/xlink" width="16" height="16"><defs><style type="text/css"></style></defs><path d="M510.167259 63.729463c-246.99644 0-447.226764 200.230324-447.226765 447.226765 0 42.563398 5.949502 83.7351 17.055445 122.735345 53.344952 187.321316 225.737254 324.490396 430.170296 324.490396s376.826368-137.169079 430.170297-324.490396c11.106965-39.000246 17.055444-80.172971 17.055444-122.735345 0.001023-246.997464-200.229301-447.226764-447.224717-447.226765z m25.456788 676.342976c-8.256034 7.568373-17.889439 11.69639-29.585829 11.69639s-21.328771-4.128017-29.585829-11.69639c-8.256034-8.256034-11.69639-17.889439-11.69639-29.585829s3.440355-21.328771 11.69639-28.898167c8.256034-8.256034 17.889439-11.69639 29.585829-11.69639s22.017456 3.440355 30.273491 11.69639c7.568373 7.568373 11.69639 17.200754 11.69639 28.898167 0.001023 12.385075-4.126994 22.017456-12.384052 29.585829zM400.768663 296.287053c27.52182-30.273491 66.052368-45.410236 115.590621-45.410235 44.034912 0 79.125105 11.69639 105.958241 36.466539 25.457812 23.393803 38.530548 55.731302 38.530548 97.013521 0 30.962176-8.944719 57.795311-26.145473 80.500429-6.880711 8.256034-25.457812 26.145473-55.731303 52.979632-15.136745 13.072737-25.457812 25.457812-32.337499 37.841863-8.944719 15.136745-13.072737 31.649837-13.072736 50.226938v15.82543h-55.043641v-15.82543c0-22.705118 4.128017-42.658565 12.385075-59.859319 9.632381-20.641109 32.337499-46.786583 69.491701-79.812767 11.008728-11.008728 19.264762-19.264762 23.393803-24.769127 13.760398-17.200754 20.641109-35.090193 20.641109-54.354955 0-27.52182-8.256034-48.850591-23.393803-63.987337-15.82543-16.513092-38.530548-24.081465-67.427692-24.081465-34.402531 0-59.859319 11.008728-76.372411 33.713846-15.136745 19.264762-22.705118 45.410236-22.705118 79.125106h-54.354956c-0.001023-48.164976 13.071713-86.695524 40.593534-115.592669z" fill="#3089DC" p-id="7880"></path></svg>