<?xml version="1.0" standalone="no"?><!DOCTYPE svg PUBLIC "-//W3C//DTD SVG 1.1//EN" "http://www.w3.org/Graphics/SVG/1.1/DTD/svg11.dtd"><svg t="1585102771234" class="icon" viewBox="0 0 1024 1024" version="1.1" xmlns="http://www.w3.org/2000/svg" p-id="10524" xmlns:xlink="http://www.w3.org/1999/xlink" width="16" height="16"><defs><style type="text/css"></style></defs><path d="M531.8 69.2l166 100c12 7.2 19.4 20.2 19.4 34.3v203.1c0 14-7.3 27-19.4 34.3l-166 100c-12.7 7.7-28.6 7.7-41.3 0l-166-100c-12-7.2-19.4-20.2-19.4-34.3V203.5c0-14 7.3-27 19.4-34.3l166-100c12.7-7.6 28.6-7.6 41.3 0zM384 228.9v154.3l128 77.2 128-77.2V228.9l-128-77.2-128 77.2zM290.6 482.6l166 100c12 7.2 19.4 20.2 19.4 34.3V820c0 14-7.3 27-19.4 34.3l-166 100c-12.7 7.7-28.6 7.7-41.3 0l-166-100C71.3 847 64 834 64 820V616.9c0-14 7.3-27 19.4-34.3l166-100c12.6-7.7 28.5-7.7 41.2 0zM142.8 642.2v154.3l128 77.2 128-77.2V642.2l-128-77.2-128 77.2zM774.7 482.6l166 100c12 7.2 19.4 20.2 19.4 34.3V820c0 14-7.3 27-19.4 34.3l-166 100c-12.7 7.7-28.6 7.7-41.3 0l-166-100c-12-7.2-19.4-20.2-19.4-34.3V616.9c0-14 7.3-27 19.4-34.3l166-100c12.7-7.7 28.6-7.7 41.3 0zM626.8 642.2v154.3l128 77.2 128-77.2V642.2l-128-77.2-128 77.2z" p-id="10525"></path></svg>