<?xml version="1.0" standalone="no"?><!DOCTYPE svg PUBLIC "-//W3C//DTD SVG 1.1//EN" "http://www.w3.org/Graphics/SVG/1.1/DTD/svg11.dtd"><svg t="1585103362450" class="icon" viewBox="0 0 1024 1024" version="1.1" xmlns="http://www.w3.org/2000/svg" p-id="13545" xmlns:xlink="http://www.w3.org/1999/xlink" width="16" height="16"><defs><style type="text/css"></style></defs><path d="M575.50144 1024l0-267.392L706.06144 756.608a160 160 0 1 0 1e-8-51.2L575.50143999 705.408l0-386.816L706.06144001 318.592a160 160 0 1 0-1e-8-51.2L575.50144 267.392 575.50144 0l-576 0L-0.49856 1024zM863.50144 622.208a108.8 108.8 0 1 1-108.8 108.8 108.928 108.928 0 0 1 108.8-108.8z m0-438.016a108.8 108.8 0 1 1-108.8 108.8 108.928 108.928 0 0 1 108.8-108.8zM50.70144 51.2L524.30144 51.2l0 216.192-92.8 0 0-118.4-288 0 0 288 288 0 0-118.4L524.30144 318.592 524.30144 705.408l-92.8 0 0-118.4-288 0 0 288 288 0 0-118.4L524.30144 756.608 524.30144 972.8l-473.6 0z m329.6 148.992l0 185.6-185.6 0 0-185.6z m0 438.016l0 185.6-185.6 0 0-185.6z" p-id="13546"></path></svg>