<?xml version="1.0" standalone="no"?><!DOCTYPE svg PUBLIC "-//W3C//DTD SVG 1.1//EN" "http://www.w3.org/Graphics/SVG/1.1/DTD/svg11.dtd"><svg t="1585103129891" class="icon" viewBox="0 0 1024 1024" version="1.1" xmlns="http://www.w3.org/2000/svg" p-id="12675" xmlns:xlink="http://www.w3.org/1999/xlink" width="16" height="16"><defs><style type="text/css"></style></defs><path d="M 721.936 112.868 l -181.572 -105.245 a 56.7069 56.7069 0 0 0 -56.7946 0 l -181.673 105.245 a 57.1329 57.1329 0 0 0 -28.3159 49.4902 v 210.252 a 56.9575 56.9575 0 0 0 28.3409 49.2646 l 181.485 105.082 a 56.6192 56.6192 0 0 0 56.7946 0 l 181.673 -105.245 a 57.4712 57.4712 0 0 0 28.4788 -49.2646 V 162.132 a 57.0452 57.0452 0 0 0 -28.3911 -49.2646 Z m -41.3462 252.124 l -168.83 97.7274 l -168.793 -97.7149 v -195.455 l 168.918 -97.7274 l 168.743 97.7274 v 195.455 Z M 448.763 602.331 l -181.673 -105.245 a 56.6192 56.6192 0 0 0 -56.7821 0 l -181.485 105.245 A 57.1329 57.1329 0 0 0 0.444815 651.771 v 210.214 a 57.0953 57.0953 0 0 0 28.3911 49.3523 l 181.485 105.019 a 56.6318 56.6318 0 0 0 56.7821 0 l 181.673 -105.245 a 57.4712 57.4712 0 0 0 28.4788 -49.2646 V 651.596 a 57.2206 57.2206 0 0 0 -28.4788 -49.2646 Z m -41.2209 252.124 l -168.83 97.7274 l -168.83 -97.7274 v -195.455 l 168.83 -97.7274 l 168.83 97.7274 v 195.455 Z m 587.617 -252.124 l -181.735 -105.245 a 56.6192 56.6192 0 0 0 -56.8698 0 l -181.485 105.245 a 57.1329 57.1329 0 0 0 -28.3911 49.4275 v 210.227 a 57.0953 57.0953 0 0 0 28.3911 49.3523 l 181.485 104.944 a 56.6318 56.6318 0 0 0 56.7946 0 l 181.673 -105.245 a 57.4712 57.4712 0 0 0 28.4788 -49.2646 V 651.596 a 56.8698 56.8698 0 0 0 -28.3911 -49.2646 h 0.087704 Z M 953.913 854.456 l -168.918 97.7274 l -168.743 -97.7274 v -195.455 l 168.83 -97.7274 l 168.918 97.7274 v 195.455 H 953.913 Z" fill="#0e932e" p-id="12676"></path></svg>