<?xml version="1.0" standalone="no"?><!DOCTYPE svg PUBLIC "-//W3C//DTD SVG 1.1//EN" "http://www.w3.org/Graphics/SVG/1.1/DTD/svg11.dtd"><svg t="1585653978390" class="icon" viewBox="0 0 1024 1024" version="1.1" xmlns="http://www.w3.org/2000/svg" p-id="1515" xmlns:xlink="http://www.w3.org/1999/xlink" width="16" height="16"><defs><style type="text/css"></style></defs><path d="M509.94688 756.71552c-6.1696-6.1696-18.51392-2.06336-18.51392 8.2176v76.09344c-172.76416-12.3392-308.5056-154.25024-308.5056-329.06752 0-125.46048 69.92896-236.52352 180.992-294.11328 10.28096-4.11136 14.39744-16.45056 8.22272-26.73664-4.11136-10.28608-16.45056-14.39744-26.73664-8.22784-125.46048 61.70624-203.61216 189.22496-203.61216 329.08288 0 197.44256 154.25024 357.86752 349.63968 368.1536v78.15168c0 8.23296 10.28096 14.40256 18.51392 8.23296l90.49088-90.50112c8.23296-8.22272 8.23296-20.56704 0-28.79488l-90.49088-90.49088z m146.01728-268.4672H368.03072c-12.3392 0-20.56704 8.22272-20.56704 20.56704 0 12.3392 8.22784 20.5568 20.56704 20.5568h287.93344c12.3392 0 20.57728-8.2176 20.57728-20.5568 0-12.34432-8.23808-20.56704-20.57728-20.56704z m-123.39712-344.43776V63.59552c0-8.22272-10.28096-14.39744-18.5088-8.22272L423.56224 145.8688c-8.22784 8.22784-8.22784 20.56704 0 28.79488l90.49088 90.496c6.1696 6.17472 18.5088 2.05824 18.5088-8.22272v-71.9872c172.76416 10.28608 308.5056 154.25024 308.5056 327.01952 0 125.45536-69.92384 236.5184-180.98688 294.11328-10.2912 4.10624-14.39744 16.44544-8.22272 26.73664 4.10624 6.1696 10.27584 12.3392 18.5088 12.3392 4.10624 0 6.1696 0 8.22272-2.05312 125.45536-63.76448 203.61728-191.27296 203.61728-331.13088 0.00512-197.45792-154.25024-357.87776-349.63968-368.16384z" fill="#f4ea2a" p-id="1516"></path></svg>