<?xml version="1.0" standalone="no"?><!DOCTYPE svg PUBLIC "-//W3C//DTD SVG 1.1//EN" "http://www.w3.org/Graphics/SVG/1.1/DTD/svg11.dtd"><svg t="1586751886656" class="icon" viewBox="0 0 1024 1024" version="1.1" xmlns="http://www.w3.org/2000/svg" p-id="2204" xmlns:xlink="http://www.w3.org/1999/xlink" width="200" height="200"><defs><style type="text/css"></style></defs><path d="M944.64 374.272H206.336l154.112-158.208c20.992-21.504 20.48-55.808-1.024-76.8s-55.808-20.48-76.8 1.024L39.424 390.656c-15.36 15.36-19.456 38.912-11.264 58.88 8.704 19.968 28.16 33.28 49.664 33.28 0.512 0 1.024-0.512 2.048-0.512s2.56 0.512 3.584 0.512h861.184c19.456 0 37.376-10.24 47.104-27.136 9.728-16.896 9.728-37.376 0-54.272s-27.648-27.136-47.104-27.136" fill="#797979" p-id="2205"></path><path d="M79.36 649.728h738.304l-154.112 158.208c-20.992 21.504-20.48 55.808 1.024 76.8s55.808 20.48 76.8-1.024l244.224-250.368c15.36-15.36 19.456-38.912 11.264-58.88-8.704-19.968-28.16-33.28-49.664-33.28-0.512 0-1.024 0.512-2.048 0.512s-2.56-0.512-3.584-0.512H79.36c-19.456 0-37.376 10.24-47.104 27.136-9.728 16.896-9.728 37.376 0 54.272s27.648 27.136 47.104 27.136" fill="#797979" p-id="2206"></path></svg>