<?xml version="1.0" encoding="UTF-8"?>
<svg width="64px" height="64px" viewBox="0 0 64 64" version="1.1" xmlns="http://www.w3.org/2000/svg" xmlns:xlink="http://www.w3.org/1999/xlink">
    <!-- Generator: Sketch 64 (93537) - https://sketch.com -->
    <title>上传图片</title>
    <desc>Created with Sketch.</desc>
    <g id="城商行" stroke="none" stroke-width="1" fill="none" fill-rule="evenodd">
        <g id="切图" transform="translate(-553.000000, -1500.000000)">
            <g id="上传图片" transform="translate(553.000000, 1500.000000)">
                <path d="M54,64 L10,64 C4.478,64 0,59.522 0,54 L0,10 C0,4.478 4.478,0 10,0 L54,0 C59.522,0 64,4.478 64,10 L64,54 C64,59.522 59.522,64 54,64" id="Fill-1" fill="#306BFF"></path>
                <path d="M25,26.2432 C23.05,26.2432 21.459,24.6562 21.459,22.7012 C21.459,20.7512 23.045,19.1602 25,19.1602 C26.955,19.1602 28.541,20.7462 28.541,22.7012 C28.541,24.6522 26.95,26.2432 25,26.2432" id="Fill-3" fill="#FFFFFF"></path>
                <path d="M37,47 L24,47 C19.037,47 15,42.963 15,38 L15,22 C15,17.037 19.037,13 24,13 L40,13 C44.963,13 49,17.037 49,22 L49,37 C49,37.553 48.553,38 48,38 C47.447,38 47,37.553 47,37 L47,22 C47,18.141 43.859,15 40,15 L24,15 C20.141,15 17,18.141 17,22 L17,38 C17,41.859 20.141,45 24,45 L37,45 C37.553,45 38,45.447 38,46 C38,46.553 37.553,47 37,47" id="Fill-5" fill="#FFFFFF"></path>
                <path d="M41.8975,46.5244 C41.6485,46.5244 41.3995,46.4324 41.2065,46.2474 C40.8065,45.8654 40.7935,45.2324 41.1745,44.8334 L44.7855,41.0594 C45.1665,40.6604 45.7995,40.6454 46.1995,41.0284 L49.9715,44.6374 C50.3715,45.0194 50.3845,45.6524 50.0025,46.0514 C49.6205,46.4504 48.9875,46.4644 48.5885,46.0834 L45.5395,43.1654 L42.6205,46.2154 C42.4235,46.4204 42.1615,46.5244 41.8975,46.5244" id="Fill-7" fill="#FFFFFF"></path>
                <path d="M45.6846,50.749 C45.1426,50.749 44.6976,50.315 44.6846,49.771 L44.5216,42.389 C44.5096,41.836 44.9476,41.379 45.4986,41.366 C46.1026,41.366 46.5086,41.794 46.5216,42.344 L46.6846,49.727 C46.6966,50.279 46.2586,50.736 45.7066,50.749 L45.6846,50.749 Z" id="Fill-9" fill="#FFFFFF"></path>
                <path d="M43,31.6641 L43,36.5121 C43,38.8671 41.091,40.7751 38.736,40.7751 L25.264,40.7751 C22.909,40.7751 21,38.8671 21,36.5121 L21,35.0141 C21,33.5821 21.719,32.2461 22.913,31.4561 L32.971,24.8101 C34.638,23.7091 36.846,23.9131 38.282,25.3001 L41.697,28.5961 C42.53,29.3991 43,30.5071 43,31.6641" id="Fill-11" fill="#FFFFFF"></path>
            </g>
        </g>
    </g>
</svg>