<?xml version="1.0" encoding="UTF-8"?>
<svg width="150px" height="150px" viewBox="0 0 150 150" version="1.1" xmlns="http://www.w3.org/2000/svg" xmlns:xlink="http://www.w3.org/1999/xlink">
    <!-- Generator: Sketch 64 (93537) - https://sketch.com -->
    <title>上传</title>
    <desc>Created with Sketch.</desc>
    <defs>
        <rect id="path-1" x="0" y="0" width="150" height="150"></rect>
    </defs>
    <g id="城商行" stroke="none" stroke-width="1" fill="none" fill-rule="evenodd">
        <g id="切图" transform="translate(-823.000000, -1565.000000)">
            <g id="上传" transform="translate(823.000000, 1565.000000)">
                <mask id="mask-2" fill="white">
                    <use xlink:href="#path-1"></use>
                </mask>
                <g id="矩形" opacity="0" fill-rule="nonzero"></g>
                <path d="M101.526316,107 L48.4736842,107 C43.2496241,107 39,102.778151 39,97.5882353 L39,83.237535 C39,82.1977591 39.8481203,81.3551821 40.8947368,81.3551821 C41.9413534,81.3551821 42.7894737,82.1977591 42.7894737,83.237535 L42.7894737,97.5882353 C42.7894737,100.698599 45.3428571,103.235294 48.4736842,103.235294 L101.526316,103.235294 C104.657143,103.235294 107.210526,100.698599 107.210526,97.5882353 L107.210526,83.237535 C107.210526,82.1977591 108.058647,81.3551821 109.105263,81.3551821 C110.15188,81.3551821 111,82.1977591 111,83.237535 L111,97.5882353 C111,102.778151 106.750376,107 101.526316,107 Z M75,86.2941176 C73.9533835,86.2941176 73.1052632,85.4515406 73.1052632,84.4117647 L73.1052632,44.8823529 C73.1052632,43.842577 73.9533835,43 75,43 C76.0466165,43 76.8947368,43.842577 76.8947368,44.8823529 L76.8947368,84.4117647 C76.8947368,85.4515406 76.0466165,86.2941176 75,86.2941176 Z M93.6766917,65.4448179 C93.1894737,65.4448179 92.7112782,65.2565826 92.3413534,64.8890756 L73.5834586,46.2537815 C72.843609,45.5187675 72.843609,44.3266106 73.5834586,43.5915966 C74.3233083,42.8565826 75.5233083,42.8565826 76.2631579,43.5915966 L95.0210526,62.2268908 C95.7609023,62.9619048 95.7609023,64.1540616 95.0210526,64.8890756 C94.6511278,65.2655462 94.1639098,65.4448179 93.6766917,65.4448179 Z M56.1609023,65.4448179 C55.6736842,65.4448179 55.1954887,65.2565826 54.8255639,64.8890756 C54.0857143,64.1540616 54.0857143,62.9619048 54.8255639,62.2268908 L73.5834586,43.5915966 C74.3233083,42.8565826 75.5233083,42.8565826 76.2631579,43.5915966 C77.0030075,44.3266106 77.0030075,45.5187675 76.2631579,46.2537815 L57.5052632,64.8980392 C57.1353383,65.2655462 56.6481203,65.4448179 56.1609023,65.4448179 L56.1609023,65.4448179 Z" id="形状" fill="#789FFF" fill-rule="nonzero" mask="url(#mask-2)"></path>
            </g>
        </g>
    </g>
</svg>