<?xml version="1.0" encoding="UTF-8"?>
<svg width="14px" height="14px" viewBox="0 0 14 14" version="1.1" xmlns="http://www.w3.org/2000/svg" xmlns:xlink="http://www.w3.org/1999/xlink">
    <!-- Generator: Sketch 64 (93537) - https://sketch.com -->
    <title>流程</title>
    <desc>Created with Sketch.</desc>
    <defs>
        <rect id="path-1" x="0" y="0" width="14" height="14"></rect>
    </defs>
    <g id="城商行" stroke="none" stroke-width="1" fill="none" fill-rule="evenodd">
        <g id="切图" transform="translate(-335.000000, -1738.000000)">
            <g id="流程" transform="translate(335.000000, 1738.000000)">
                <mask id="mask-2" fill="white">
                    <use xlink:href="#path-1"></use>
                </mask>
                <g id="矩形" opacity="0" fill-rule="nonzero"></g>
                <g id="编组-14" mask="url(#mask-2)" fill="#306BFF">
                    <g transform="translate(2.000000, 1.000000)">
                        <path d="M3.31746098,7.17349475 L2.90348171,7.17349475 C2.66925373,7.17355278 2.47940502,7.36345952 2.47940502,7.59761496 C2.47940502,7.83184294 2.66925373,8.02174967 2.90348171,8.0218077 L3.31746098,8.0218077 C3.54872938,8.0186305 3.73381953,7.82895589 3.73138223,7.59761496 C3.71942782,7.37241081 3.54233145,7.19088957 3.31746098,7.17349475" id="Fill-1"></path>
                        <path d="M2.90347881,2.96953558 C2.67492337,2.97866097 2.49431611,3.16663817 2.49431611,3.39535319 C2.49431611,3.62414076 2.67492337,3.81205993 2.90347881,3.82118532 L6.63242596,3.82118532 C6.8609814,3.81205993 7.04158865,3.62414076 7.04158865,3.39535319 C7.04158865,3.16663817 6.8609814,2.97866097 6.63242596,2.96953558 L2.90347881,2.96953558 Z" id="Fill-3"></path>
                        <path d="M4.14536005,5.04946698 L2.90348026,5.04946698 C2.66925228,5.04952501 2.47940357,5.23937371 2.47940357,5.47358718 C2.47940357,5.70781516 2.66925228,5.8977219 2.90348026,5.8977219 L4.14536005,5.8977219 C4.37664295,5.8945447 4.56173311,5.70487009 4.5592958,5.47358718 C4.54619528,5.24883278 4.36966471,5.0679934 4.14536005,5.04946698" id="Fill-5"></path>
                        <path d="M8.90137331,9.5172935 C8.51141891,9.9161992 7.97746036,10.1414614 7.41965103,10.1424334 C6.55649663,10.1627153 5.76701269,9.65823651 5.42278679,8.86648936 C5.07851736,8.07466967 5.24806969,7.15326656 5.85162202,6.53588832 C6.45515984,5.91851009 7.37250078,5.72809558 8.17189352,6.05434635 C8.97130078,6.38055361 9.49352254,7.15835879 9.49278264,8.02180335 C9.5044614,8.57943858 9.29132772,9.11844584 8.90137331,9.5172935 M11.0671661,11.1637515 L9.74048834,9.80314014 C10.5253298,8.72191941 10.4656593,7.24335983 9.59626658,6.22884584 C8.72693186,5.21437537 7.27496502,4.92897848 6.08629974,5.53892874 C4.89761995,6.14893703 4.28279508,7.49488107 4.5999785,8.79276086 C4.91723445,10.0905826 6.08357228,11.001221 7.41965103,10.9940831 C8.05062306,10.9972458 8.66414223,10.7867816 9.16023549,10.3968852 L10.4869712,11.7574966 C10.5615992,11.8386531 10.6667806,11.8847733 10.7770687,11.8847733 C10.8872842,11.8847733 10.9924655,11.8386531 11.0671661,11.7574966 C11.1469588,11.6793432 11.1918894,11.5723484 11.1918894,11.4606531 C11.1918894,11.3488997 11.1469588,11.2419049 11.0671661,11.1637515" id="Fill-7"></path>
                        <path d="M0.830334143,0.848899723 L8.66146989,0.848899723 L8.66146989,3.40553185 C8.66146989,3.63508832 8.84756109,3.82117952 9.07711756,3.82117952 C9.30668855,3.82117952 9.49277974,3.63508832 9.49277974,3.40553185 L9.49277974,0.848899723 C9.51811031,0.627815785 9.44557145,0.406804386 9.29426989,0.243708013 C9.14295383,0.0806696708 8.92789062,-0.00813240174 8.70555901,0.000586769243 L0.915175594,0.000586769243 C0.40722948,0.0104520542 0.00101186338,0.425678997 0.00243362504,0.933683142 L0.00243362504,10.1424334 C-0.0152513491,10.3728603 0.064033625,10.6002261 0.221239843,10.7696624 C0.37844606,10.9391132 0.599239843,11.0351692 0.830334143,11.0347786 L3.30726057,11.0347786 C3.54148855,11.0347786 3.73138078,10.8448852 3.73138078,10.6106427 C3.73138078,10.3764147 3.54148855,10.1865225 3.30726057,10.1865225 L0.830334143,10.1865225 L0.830334143,0.848899723 Z" id="Fill-9"></path>
                    </g>
                </g>
            </g>
        </g>
    </g>
</svg>