<?xml version="1.0" encoding="UTF-8"?>
<svg width="64px" height="64px" viewBox="0 0 64 64" version="1.1" xmlns="http://www.w3.org/2000/svg" xmlns:xlink="http://www.w3.org/1999/xlink">
    <!-- Generator: Sketch 64 (93537) - https://sketch.com -->
    <title>虚拟机详情</title>
    <desc>Created with Sketch.</desc>
    <g id="城商行" stroke="none" stroke-width="1" fill="none" fill-rule="evenodd">
        <g id="切图" transform="translate(-1741.000000, -418.000000)">
            <g id="虚拟机详情" transform="translate(1741.000000, 418.000000)">
                <path d="M64,32 C64,49.673 49.673,64 32,64 C14.327,64 0,49.673 0,32 C0,14.327 14.327,0 32,0 C49.673,0 64,14.327 64,32" id="Fill-1" fill="#F4F7FF"></path>
                <path d="M15.5,9 C14.673,9 14,9.673 14,10.5 C14,11.327 14.673,12 15.5,12 C16.327,12 17,11.327 17,10.5 C17,9.673 16.327,9 15.5,9 M15.5,13 C14.121,13 13,11.879 13,10.5 C13,9.121 14.121,8 15.5,8 C16.879,8 18,9.121 18,10.5 C18,11.879 16.879,13 15.5,13" id="Fill-3" fill="#306BFF"></path>
                <path d="M51.167,12.667 L47.167,12.667 C46.891,12.667 46.667,12.443 46.667,12.167 C46.667,11.891 46.891,11.667 47.167,11.667 L51.167,11.667 C51.443,11.667 51.667,11.891 51.667,12.167 C51.667,12.443 51.443,12.667 51.167,12.667" id="Fill-5" fill="#306BFF"></path>
                <path d="M49.167,14.667 C48.891,14.667 48.667,14.443 48.667,14.167 L48.667,10.167 C48.667,9.891 48.891,9.667 49.167,9.667 C49.443,9.667 49.667,9.891 49.667,10.167 L49.667,14.167 C49.667,14.443 49.443,14.667 49.167,14.667" id="Fill-7" fill="#306BFF"></path>
                <path d="M59,40 C59,41.104 58.104,42 57,42 C55.896,42 55,41.104 55,40 C55,38.896 55.896,38 57,38 C58.104,38 59,38.896 59,40" id="Fill-9" fill="#306BFF"></path>
                <path d="M50,50 C50,50.553 49.553,51 49,51 C48.447,51 48,50.553 48,50 C48,49.447 48.447,49 49,49 C49.553,49 50,49.447 50,50" id="Fill-11" fill="#306BFF"></path>
                <path d="M12,53 C11.724,53 11.5,52.776 11.5,52.5 L11.5,50 C11.5,49.724 11.724,49.5 12,49.5 C12.276,49.5 12.5,49.724 12.5,50 L12.5,52.5 C12.5,52.776 12.276,53 12,53" id="Fill-13" fill="#306BFF"></path>
                <path d="M14.4697,51.9697 C14.3417,51.9697 14.2137,51.9207 14.1157,51.8237 L12.3567,50.0637 C12.1607,49.8677 12.1607,49.5517 12.3567,49.3567 C12.5517,49.1607 12.8677,49.1607 13.0637,49.3567 L14.8237,51.1157 C15.0187,51.3117 15.0187,51.6277 14.8237,51.8237 C14.7257,51.9207 14.5977,51.9697 14.4697,51.9697" id="Fill-15" fill="#306BFF"></path>
                <path d="M15.5,49.5 L13,49.5 C12.724,49.5 12.5,49.276 12.5,49 C12.5,48.724 12.724,48.5 13,48.5 L15.5,48.5 C15.776,48.5 16,48.724 16,49 C16,49.276 15.776,49.5 15.5,49.5" id="Fill-17" fill="#306BFF"></path>
                <path d="M12.71,48.79 C12.582,48.79 12.454,48.741 12.356,48.644 C12.161,48.448 12.161,48.132 12.356,47.936 L14.116,46.177 C14.312,45.981 14.628,45.981 14.823,46.177 C15.019,46.372 15.019,46.688 14.823,46.884 L13.064,48.644 C12.966,48.741 12.838,48.79 12.71,48.79" id="Fill-19" fill="#306BFF"></path>
                <path d="M12,48.5 C11.724,48.5 11.5,48.276 11.5,48 L11.5,45.5 C11.5,45.224 11.724,45 12,45 C12.276,45 12.5,45.224 12.5,45.5 L12.5,48 C12.5,48.276 12.276,48.5 12,48.5" id="Fill-21" fill="#306BFF"></path>
                <path d="M11.29,48.79 C11.162,48.79 11.034,48.741 10.936,48.644 L9.177,46.884 C8.981,46.688 8.981,46.372 9.177,46.177 C9.372,45.981 9.688,45.981 9.884,46.177 L11.644,47.936 C11.839,48.132 11.839,48.448 11.644,48.644 C11.546,48.741 11.418,48.79 11.29,48.79" id="Fill-23" fill="#306BFF"></path>
                <path d="M11,49.5 L8.5,49.5 C8.224,49.5 8,49.276 8,49 C8,48.724 8.224,48.5 8.5,48.5 L11,48.5 C11.276,48.5 11.5,48.724 11.5,49 C11.5,49.276 11.276,49.5 11,49.5" id="Fill-25" fill="#306BFF"></path>
                <path d="M9.5303,51.9697 C9.4023,51.9697 9.2743,51.9207 9.1763,51.8237 C8.9813,51.6277 8.9813,51.3117 9.1763,51.1157 L10.9363,49.3567 C11.1323,49.1607 11.4483,49.1607 11.6433,49.3567 C11.8393,49.5517 11.8393,49.8677 11.6433,50.0637 L9.8843,51.8237 C9.7863,51.9207 9.6583,51.9697 9.5303,51.9697" id="Fill-27" fill="#306BFF"></path>
                <path d="M19.6563,40.2187 C14.7453,40.2187 10.7503,36.2237 10.7503,31.3127 C10.7503,26.9657 13.9293,23.2657 18.1303,22.5447 C19.9393,17.8497 24.4113,14.7497 29.5003,14.7497 C34.5893,14.7497 39.0603,17.8497 40.8703,22.5447 C45.0703,23.2657 48.2503,26.9657 48.2503,31.3127 C48.2503,32.0027 47.6903,32.5627 47.0003,32.5627 C46.3093,32.5627 45.7503,32.0027 45.7503,31.3127 C45.7503,27.9847 43.1593,25.1827 39.8523,24.9357 L39.0053,24.8727 L38.7523,24.0617 C37.4813,19.9877 33.7623,17.2497 29.5003,17.2497 C25.2373,17.2497 21.5183,19.9877 20.2483,24.0617 L19.9953,24.8727 L19.1473,24.9357 C15.8413,25.1827 13.2503,27.9847 13.2503,31.3127 C13.2503,34.8447 16.1243,37.7187 19.6563,37.7187 C20.3463,37.7187 20.9063,38.2787 20.9063,38.9687 C20.9063,39.6587 20.3463,40.2187 19.6563,40.2187" id="Fill-29" fill="#306BFF"></path>
                <path d="M51,27.5625 C50.31,27.5625 49.75,27.0025 49.75,26.3125 C49.75,22.9845 47.159,20.1825 43.853,19.9355 L43.005,19.8735 L42.752,19.0615 C41.481,14.9875 37.763,12.2495 33.5,12.2495 C32.81,12.2495 32.25,11.6905 32.25,11.0005 C32.25,10.3095 32.81,9.7505 33.5,9.7505 C38.589,9.7505 43.061,12.8495 44.87,17.5445 C49.07,18.2655 52.25,21.9655 52.25,26.3125 C52.25,27.0025 51.69,27.5625 51,27.5625" id="Fill-31" fill="#306BFF"></path>
                <path d="M28,44 C27.447,44 27,43.553 27,43 L27,39 C27,38.447 27.447,38 28,38 C28.553,38 29,38.447 29,39 L29,43 C29,43.553 28.553,44 28,44" id="Fill-33" fill="#306BFF"></path>
                <path d="M32,44 C31.447,44 31,43.553 31,43 L31,39 C31,38.447 31.447,38 32,38 C32.553,38 33,38.447 33,39 L33,43 C33,43.553 32.553,44 32,44" id="Fill-35" fill="#306BFF"></path>
                <path d="M44,42 L41,42 C40.447,42 40,41.553 40,41 C40,40.447 40.447,40 41,40 L44,40 C44.553,40 45,40.447 45,41 C45,41.553 44.553,42 44,42" id="Fill-37" fill="#306BFF"></path>
                <path d="M26,36 C24.897,36 24,36.897 24,38 L24,44 C24,45.103 24.897,46 26,46 L46,46 C47.103,46 48,45.103 48,44 L48,38 C48,36.897 47.103,36 46,36 L26,36 Z M46,48 L26,48 C23.794,48 22,46.206 22,44 L22,38 C22,35.794 23.794,34 26,34 L46,34 C48.206,34 50,35.794 50,38 L50,44 C50,46.206 48.206,48 46,48 L46,48 Z" id="Fill-39" fill="#306BFF"></path>
            </g>
        </g>
    </g>
</svg>