<?xml version="1.0" encoding="UTF-8"?>
<svg width="64px" height="64px" viewBox="0 0 64 64" version="1.1" xmlns="http://www.w3.org/2000/svg" xmlns:xlink="http://www.w3.org/1999/xlink">
    <!-- Generator: Sketch 64 (93537) - https://sketch.com -->
    <title>网络</title>
    <desc>Created with Sketch.</desc>
    <g id="城商行" stroke="none" stroke-width="1" fill="none" fill-rule="evenodd">
        <g id="切图" transform="translate(-1621.000000, -677.000000)">
            <g id="网络" transform="translate(1621.000000, 677.000000)">
                <path d="M64,32 C64,49.673 49.673,64 32,64 C14.327,64 0,49.673 0,32 C0,14.327 14.327,0 32,0 C49.673,0 64,14.327 64,32" id="Fill-1" fill="#F4F7FF"></path>
                <path d="M15.5,9 C14.673,9 14,9.673 14,10.5 C14,11.327 14.673,12 15.5,12 C16.327,12 17,11.327 17,10.5 C17,9.673 16.327,9 15.5,9 M15.5,13 C14.121,13 13,11.879 13,10.5 C13,9.121 14.121,8 15.5,8 C16.879,8 18,9.121 18,10.5 C18,11.879 16.879,13 15.5,13" id="Fill-3" fill="#306BFF"></path>
                <path d="M51.167,12.667 L47.167,12.667 C46.891,12.667 46.667,12.443 46.667,12.167 C46.667,11.891 46.891,11.667 47.167,11.667 L51.167,11.667 C51.443,11.667 51.667,11.891 51.667,12.167 C51.667,12.443 51.443,12.667 51.167,12.667" id="Fill-5" fill="#306BFF"></path>
                <path d="M49.167,14.667 C48.891,14.667 48.667,14.443 48.667,14.167 L48.667,10.167 C48.667,9.891 48.891,9.667 49.167,9.667 C49.443,9.667 49.667,9.891 49.667,10.167 L49.667,14.167 C49.667,14.443 49.443,14.667 49.167,14.667" id="Fill-7" fill="#306BFF"></path>
                <path d="M59,40 C59,41.104 58.104,42 57,42 C55.896,42 55,41.104 55,40 C55,38.896 55.896,38 57,38 C58.104,38 59,38.896 59,40" id="Fill-9" fill="#306BFF"></path>
                <path d="M50,50 C50,50.553 49.553,51 49,51 C48.447,51 48,50.553 48,50 C48,49.447 48.447,49 49,49 C49.553,49 50,49.447 50,50" id="Fill-11" fill="#306BFF"></path>
                <path d="M12,53 C11.724,53 11.5,52.776 11.5,52.5 L11.5,50 C11.5,49.724 11.724,49.5 12,49.5 C12.276,49.5 12.5,49.724 12.5,50 L12.5,52.5 C12.5,52.776 12.276,53 12,53" id="Fill-13" fill="#306BFF"></path>
                <path d="M14.4697,51.9697 C14.3417,51.9697 14.2137,51.9207 14.1157,51.8237 L12.3567,50.0637 C12.1607,49.8677 12.1607,49.5517 12.3567,49.3567 C12.5517,49.1607 12.8677,49.1607 13.0637,49.3567 L14.8237,51.1157 C15.0187,51.3117 15.0187,51.6277 14.8237,51.8237 C14.7257,51.9207 14.5977,51.9697 14.4697,51.9697" id="Fill-15" fill="#306BFF"></path>
                <path d="M15.5,49.5 L13,49.5 C12.724,49.5 12.5,49.276 12.5,49 C12.5,48.724 12.724,48.5 13,48.5 L15.5,48.5 C15.776,48.5 16,48.724 16,49 C16,49.276 15.776,49.5 15.5,49.5" id="Fill-17" fill="#306BFF"></path>
                <path d="M12.71,48.79 C12.582,48.79 12.454,48.741 12.356,48.644 C12.161,48.448 12.161,48.132 12.356,47.936 L14.116,46.177 C14.312,45.981 14.628,45.981 14.823,46.177 C15.019,46.372 15.019,46.688 14.823,46.884 L13.064,48.644 C12.966,48.741 12.838,48.79 12.71,48.79" id="Fill-19" fill="#306BFF"></path>
                <path d="M12,48.5 C11.724,48.5 11.5,48.276 11.5,48 L11.5,45.5 C11.5,45.224 11.724,45 12,45 C12.276,45 12.5,45.224 12.5,45.5 L12.5,48 C12.5,48.276 12.276,48.5 12,48.5" id="Fill-21" fill="#306BFF"></path>
                <path d="M11.29,48.79 C11.162,48.79 11.034,48.741 10.936,48.644 L9.177,46.884 C8.981,46.688 8.981,46.372 9.177,46.177 C9.372,45.981 9.688,45.981 9.884,46.177 L11.644,47.936 C11.839,48.132 11.839,48.448 11.644,48.644 C11.546,48.741 11.418,48.79 11.29,48.79" id="Fill-23" fill="#306BFF"></path>
                <path d="M11,49.5 L8.5,49.5 C8.224,49.5 8,49.276 8,49 C8,48.724 8.224,48.5 8.5,48.5 L11,48.5 C11.276,48.5 11.5,48.724 11.5,49 C11.5,49.276 11.276,49.5 11,49.5" id="Fill-25" fill="#306BFF"></path>
                <path d="M9.5303,51.9697 C9.4023,51.9697 9.2743,51.9207 9.1763,51.8237 C8.9813,51.6277 8.9813,51.3117 9.1763,51.1157 L10.9363,49.3567 C11.1323,49.1607 11.4483,49.1607 11.6433,49.3567 C11.8393,49.5517 11.8393,49.8677 11.6433,50.0637 L9.8843,51.8237 C9.7863,51.9207 9.6583,51.9697 9.5303,51.9697" id="Fill-27" fill="#306BFF"></path>
                <path d="M37.7939,44.8711 C39.6249,42.1631 40.8299,37.9181 40.9759,33.0001 L46.6989,33.0001 C46.3039,38.4571 42.7169,43.0311 37.7939,44.8711 L37.7939,44.8711 Z M19.3009,33.0001 L25.0239,33.0001 C25.1699,37.9181 26.3749,42.1631 28.2059,44.8711 C23.2829,43.0311 19.6959,38.4571 19.3009,33.0001 L19.3009,33.0001 Z M28.2059,19.1291 C26.3749,21.8371 25.1699,26.0821 25.0239,31.0001 L19.3009,31.0001 C19.6959,25.5431 23.2829,20.9691 28.2059,19.1291 L28.2059,19.1291 Z M27.0229,31.0001 C27.2339,24.3681 29.4909,19.5291 31.8529,18.3091 C32.2319,18.2761 32.6129,18.2501 32.9999,18.2501 C33.3869,18.2501 33.7679,18.2761 34.1479,18.3091 C36.5089,19.5291 38.7659,24.3681 38.9769,31.0001 L27.0229,31.0001 Z M34.1479,45.6911 C33.7679,45.7241 33.3869,45.7501 32.9999,45.7501 C32.6129,45.7501 32.2319,45.7241 31.8529,45.6911 C29.4909,44.4711 27.2339,39.6321 27.0229,33.0001 L38.9769,33.0001 C38.7659,39.6321 36.5089,44.4711 34.1479,45.6911 L34.1479,45.6911 Z M46.6989,31.0001 L40.9759,31.0001 C40.8299,26.0821 39.6249,21.8371 37.7939,19.1291 C42.7169,20.9691 46.3039,25.5431 46.6989,31.0001 L46.6989,31.0001 Z M32.9999,15.7501 C24.0399,15.7501 16.7499,23.0401 16.7499,32.0001 C16.7499,40.9601 24.0399,48.2501 32.9999,48.2501 C41.9599,48.2501 49.2499,40.9601 49.2499,32.0001 C49.2499,23.0401 41.9599,15.7501 32.9999,15.7501 L32.9999,15.7501 Z" id="Fill-29" fill="#306BFF"></path>
            </g>
        </g>
    </g>
</svg>