<?xml version="1.0" standalone="no"?><!DOCTYPE svg PUBLIC "-//W3C//DTD SVG 1.1//EN" "http://www.w3.org/Graphics/SVG/1.1/DTD/svg11.dtd"><svg class="icon" width="200px" height="200.00px" viewBox="0 0 1024 1024" version="1.1" xmlns="http://www.w3.org/2000/svg"><path fill="#1296db" d="M639.89 640l0.11 0.11v127.78l-0.11 0.11H384.11l-0.11-0.11V640.11l0.11-0.11h255.78m0.11-64H384a64.19 64.19 0 0 0-64 64v128a64.19 64.19 0 0 0 64 64h256a64.19 64.19 0 0 0 64-64V640a64.19 64.19 0 0 0-64-64zM64 640h288v128H64zM672 640h288v128H672zM448 608V192h128v416z" /></svg>