<?xml version="1.0" encoding="UTF-8"?>
<svg width="64px" height="64px" viewBox="0 0 64 64" version="1.1" xmlns="http://www.w3.org/2000/svg" xmlns:xlink="http://www.w3.org/1999/xlink">
    <!-- Generator: Sketch 64 (93537) - https://sketch.com -->
    <title>主机聚合详情</title>
    <desc>Created with Sketch.</desc>
    <g id="城商行" stroke="none" stroke-width="1" fill="none" fill-rule="evenodd">
        <g id="切图" transform="translate(-1381.000000, -418.000000)">
            <g id="主机聚合详情" transform="translate(1381.000000, 418.000000)">
                <path d="M64,32 C64,49.673 49.673,64 32,64 C14.327,64 0,49.673 0,32 C0,14.327 14.327,0 32,0 C49.673,0 64,14.327 64,32" id="Fill-1" fill="#F4F7FF"></path>
                <path d="M15.5,9 C14.673,9 14,9.673 14,10.5 C14,11.327 14.673,12 15.5,12 C16.327,12 17,11.327 17,10.5 C17,9.673 16.327,9 15.5,9 M15.5,13 C14.121,13 13,11.879 13,10.5 C13,9.121 14.121,8 15.5,8 C16.879,8 18,9.121 18,10.5 C18,11.879 16.879,13 15.5,13" id="Fill-3" fill="#306BFF"></path>
                <path d="M51.167,12.667 L47.167,12.667 C46.891,12.667 46.667,12.443 46.667,12.167 C46.667,11.891 46.891,11.667 47.167,11.667 L51.167,11.667 C51.443,11.667 51.667,11.891 51.667,12.167 C51.667,12.443 51.443,12.667 51.167,12.667" id="Fill-5" fill="#306BFF"></path>
                <path d="M49.167,14.667 C48.891,14.667 48.667,14.443 48.667,14.167 L48.667,10.167 C48.667,9.891 48.891,9.667 49.167,9.667 C49.443,9.667 49.667,9.891 49.667,10.167 L49.667,14.167 C49.667,14.443 49.443,14.667 49.167,14.667" id="Fill-7" fill="#306BFF"></path>
                <path d="M59,40 C59,41.104 58.104,42 57,42 C55.896,42 55,41.104 55,40 C55,38.896 55.896,38 57,38 C58.104,38 59,38.896 59,40" id="Fill-9" fill="#306BFF"></path>
                <path d="M50,50 C50,50.553 49.553,51 49,51 C48.447,51 48,50.553 48,50 C48,49.447 48.447,49 49,49 C49.553,49 50,49.447 50,50" id="Fill-11" fill="#306BFF"></path>
                <path d="M12,53 C11.724,53 11.5,52.776 11.5,52.5 L11.5,50 C11.5,49.724 11.724,49.5 12,49.5 C12.276,49.5 12.5,49.724 12.5,50 L12.5,52.5 C12.5,52.776 12.276,53 12,53" id="Fill-13" fill="#306BFF"></path>
                <path d="M14.4697,51.9697 C14.3417,51.9697 14.2137,51.9207 14.1157,51.8237 L12.3567,50.0637 C12.1607,49.8677 12.1607,49.5517 12.3567,49.3567 C12.5517,49.1607 12.8677,49.1607 13.0637,49.3567 L14.8237,51.1157 C15.0187,51.3117 15.0187,51.6277 14.8237,51.8237 C14.7257,51.9207 14.5977,51.9697 14.4697,51.9697" id="Fill-15" fill="#306BFF"></path>
                <path d="M15.5,49.5 L13,49.5 C12.724,49.5 12.5,49.276 12.5,49 C12.5,48.724 12.724,48.5 13,48.5 L15.5,48.5 C15.776,48.5 16,48.724 16,49 C16,49.276 15.776,49.5 15.5,49.5" id="Fill-17" fill="#306BFF"></path>
                <path d="M12.71,48.79 C12.582,48.79 12.454,48.741 12.356,48.644 C12.161,48.448 12.161,48.132 12.356,47.936 L14.116,46.177 C14.312,45.981 14.628,45.981 14.823,46.177 C15.019,46.372 15.019,46.688 14.823,46.884 L13.064,48.644 C12.966,48.741 12.838,48.79 12.71,48.79" id="Fill-19" fill="#306BFF"></path>
                <path d="M12,48.5 C11.724,48.5 11.5,48.276 11.5,48 L11.5,45.5 C11.5,45.224 11.724,45 12,45 C12.276,45 12.5,45.224 12.5,45.5 L12.5,48 C12.5,48.276 12.276,48.5 12,48.5" id="Fill-21" fill="#306BFF"></path>
                <path d="M11.29,48.79 C11.162,48.79 11.034,48.741 10.936,48.644 L9.177,46.884 C8.981,46.688 8.981,46.372 9.177,46.177 C9.372,45.981 9.688,45.981 9.884,46.177 L11.644,47.936 C11.839,48.132 11.839,48.448 11.644,48.644 C11.546,48.741 11.418,48.79 11.29,48.79" id="Fill-23" fill="#306BFF"></path>
                <path d="M11,49.5 L8.5,49.5 C8.224,49.5 8,49.276 8,49 C8,48.724 8.224,48.5 8.5,48.5 L11,48.5 C11.276,48.5 11.5,48.724 11.5,49 C11.5,49.276 11.276,49.5 11,49.5" id="Fill-25" fill="#306BFF"></path>
                <path d="M9.5303,51.9697 C9.4023,51.9697 9.2743,51.9207 9.1763,51.8237 C8.9813,51.6277 8.9813,51.3117 9.1763,51.1157 L10.9363,49.3567 C11.1323,49.1607 11.4483,49.1607 11.6433,49.3567 C11.8393,49.5517 11.8393,49.8677 11.6433,50.0637 L9.8843,51.8237 C9.7863,51.9207 9.6583,51.9697 9.5303,51.9697" id="Fill-27" fill="#306BFF"></path>
                <path d="M21,18.25 C19.483,18.25 18.25,19.483 18.25,21 L18.25,43 C18.25,44.517 19.483,45.75 21,45.75 L43,45.75 C44.517,45.75 45.75,44.517 45.75,43 L45.75,21 C45.75,19.483 44.517,18.25 43,18.25 L21,18.25 Z M43,48.25 L21,48.25 C18.105,48.25 15.75,45.895 15.75,43 L15.75,21 C15.75,18.105 18.105,15.75 21,15.75 L43,15.75 C45.895,15.75 48.25,18.105 48.25,21 L48.25,43 C48.25,45.895 45.895,48.25 43,48.25 L43,48.25 Z" id="Fill-29" fill="#306BFF"></path>
                <path d="M40.5,30 L36.5,30 C35.396,30 34.5,29.104 34.5,28 L34.5,24 C34.5,22.896 35.396,22 36.5,22 L40.5,22 C41.604,22 42.5,22.896 42.5,24 L42.5,28 C42.5,29.104 41.604,30 40.5,30" id="Fill-31" fill="#306BFF"></path>
                <path d="M36.5,22.7998 C35.838,22.7998 35.3,23.3378 35.3,23.9998 L35.3,27.9998 C35.3,28.6618 35.838,29.1998 36.5,29.1998 L40.5,29.1998 C41.162,29.1998 41.7,28.6618 41.7,27.9998 L41.7,23.9998 C41.7,23.3378 41.162,22.7998 40.5,22.7998 L36.5,22.7998 Z M40.5,30.7998 L36.5,30.7998 C34.956,30.7998 33.7,29.5438 33.7,27.9998 L33.7,23.9998 C33.7,22.4558 34.956,21.1998 36.5,21.1998 L40.5,21.1998 C42.044,21.1998 43.3,22.4558 43.3,23.9998 L43.3,27.9998 C43.3,29.5438 42.044,30.7998 40.5,30.7998 L40.5,30.7998 Z" id="Fill-33" fill="#F4F7FF"></path>
                <path d="M28,30 L24,30 C22.896,30 22,29.104 22,28 L22,24 C22,22.896 22.896,22 24,22 L28,22 C29.104,22 30,22.896 30,24 L30,28 C30,29.104 29.104,30 28,30" id="Fill-35" fill="#F4F7FF"></path>
                <path d="M24,22.7998 C23.338,22.7998 22.8,23.3378 22.8,23.9998 L22.8,27.9998 C22.8,28.6618 23.338,29.1998 24,29.1998 L28,29.1998 C28.662,29.1998 29.2,28.6618 29.2,27.9998 L29.2,23.9998 C29.2,23.3378 28.662,22.7998 28,22.7998 L24,22.7998 Z M28,30.7998 L24,30.7998 C22.456,30.7998 21.2,29.5438 21.2,27.9998 L21.2,23.9998 C21.2,22.4558 22.456,21.1998 24,21.1998 L28,21.1998 C29.544,21.1998 30.8,22.4558 30.8,23.9998 L30.8,27.9998 C30.8,29.5438 29.544,30.7998 28,30.7998 L28,30.7998 Z" id="Fill-37" fill="#306BFF"></path>
                <path d="M40.5,42.5 L36.5,42.5 C35.396,42.5 34.5,41.604 34.5,40.5 L34.5,36.5 C34.5,35.396 35.396,34.5 36.5,34.5 L40.5,34.5 C41.604,34.5 42.5,35.396 42.5,36.5 L42.5,40.5 C42.5,41.604 41.604,42.5 40.5,42.5" id="Fill-39" fill="#F4F7FF"></path>
                <path d="M36.5,35.2998 C35.838,35.2998 35.3,35.8378 35.3,36.4998 L35.3,40.4998 C35.3,41.1618 35.838,41.6998 36.5,41.6998 L40.5,41.6998 C41.162,41.6998 41.7,41.1618 41.7,40.4998 L41.7,36.4998 C41.7,35.8378 41.162,35.2998 40.5,35.2998 L36.5,35.2998 Z M40.5,43.2998 L36.5,43.2998 C34.956,43.2998 33.7,42.0438 33.7,40.4998 L33.7,36.4998 C33.7,34.9558 34.956,33.6998 36.5,33.6998 L40.5,33.6998 C42.044,33.6998 43.3,34.9558 43.3,36.4998 L43.3,40.4998 C43.3,42.0438 42.044,43.2998 40.5,43.2998 L40.5,43.2998 Z" id="Fill-41" fill="#306BFF"></path>
                <path d="M28.5,42.5 L24.5,42.5 C23.396,42.5 22.5,41.604 22.5,40.5 L22.5,36.5 C22.5,35.396 23.396,34.5 24.5,34.5 L28.5,34.5 C29.604,34.5 30.5,35.396 30.5,36.5 L30.5,40.5 C30.5,41.604 29.604,42.5 28.5,42.5" id="Fill-43" fill="#306BFF"></path>
                <path d="M24.5,35.2998 C23.838,35.2998 23.3,35.8378 23.3,36.4998 L23.3,40.4998 C23.3,41.1618 23.838,41.6998 24.5,41.6998 L28.5,41.6998 C29.162,41.6998 29.7,41.1618 29.7,40.4998 L29.7,36.4998 C29.7,35.8378 29.162,35.2998 28.5,35.2998 L24.5,35.2998 Z M28.5,43.2998 L24.5,43.2998 C22.956,43.2998 21.7,42.0438 21.7,40.4998 L21.7,36.4998 C21.7,34.9558 22.956,33.6998 24.5,33.6998 L28.5,33.6998 C30.044,33.6998 31.3,34.9558 31.3,36.4998 L31.3,40.4998 C31.3,42.0438 30.044,43.2998 28.5,43.2998 L28.5,43.2998 Z" id="Fill-45" fill="#F4F7FF"></path>
            </g>
        </g>
    </g>
</svg>