<?xml version="1.0" encoding="UTF-8"?>
<svg width="64px" height="64px" viewBox="0 0 64 64" version="1.1" xmlns="http://www.w3.org/2000/svg" xmlns:xlink="http://www.w3.org/1999/xlink">
    <!-- Generator: Sketch 64 (93537) - https://sketch.com -->
    <title>应用中心-我的消息详情</title>
    <desc>Created with Sketch.</desc>
    <g id="城商行" stroke="none" stroke-width="1" fill="none" fill-rule="evenodd">
        <g id="切图" transform="translate(-1621.000000, -150.000000)">
            <g id="应用中心-我的消息详情" transform="translate(1621.000000, 150.000000)">
                <path d="M64,32 C64,49.673 49.673,64 32,64 C14.327,64 0,49.673 0,32 C0,14.327 14.327,0 32,0 C49.673,0 64,14.327 64,32" id="Fill-1" fill="#F4F7FF"></path>
                <path d="M15.5,10 C14.673,10 14,10.673 14,11.5 C14,12.327 14.673,13 15.5,13 C16.327,13 17,12.327 17,11.5 C17,10.673 16.327,10 15.5,10 M15.5,14 C14.121,14 13,12.878 13,11.5 C13,10.122 14.121,9 15.5,9 C16.879,9 18,10.122 18,11.5 C18,12.878 16.879,14 15.5,14" id="Fill-3" fill="#306BFF"></path>
                <path d="M51.167,13.6665 L47.167,13.6665 C46.891,13.6665 46.667,13.4425 46.667,13.1665 C46.667,12.8905 46.891,12.6665 47.167,12.6665 L51.167,12.6665 C51.443,12.6665 51.667,12.8905 51.667,13.1665 C51.667,13.4425 51.443,13.6665 51.167,13.6665" id="Fill-5" fill="#306BFF"></path>
                <path d="M49.167,15.6665 C48.891,15.6665 48.667,15.4425 48.667,15.1665 L48.667,11.1665 C48.667,10.8905 48.891,10.6665 49.167,10.6665 C49.443,10.6665 49.667,10.8905 49.667,11.1665 L49.667,15.1665 C49.667,15.4425 49.443,15.6665 49.167,15.6665" id="Fill-7" fill="#306BFF"></path>
                <path d="M57,30 C57,31.104 56.104,32 55,32 C53.896,32 53,31.104 53,30 C53,28.896 53.896,28 55,28 C56.104,28 57,28.896 57,30" id="Fill-9" fill="#306BFF"></path>
                <path d="M50,51 C50,51.553 49.553,52 49,52 C48.447,52 48,51.553 48,51 C48,50.447 48.447,50 49,50 C49.553,50 50,50.447 50,51" id="Fill-11" fill="#306BFF"></path>
                <path d="M12,54 C11.724,54 11.5,53.776 11.5,53.5 L11.5,51 C11.5,50.724 11.724,50.5 12,50.5 C12.276,50.5 12.5,50.724 12.5,51 L12.5,53.5 C12.5,53.776 12.276,54 12,54" id="Fill-13" fill="#306BFF"></path>
                <path d="M14.4697,52.9697 C14.3417,52.9697 14.2137,52.9207 14.1157,52.8237 L12.3567,51.0637 C12.1607,50.8677 12.1607,50.5517 12.3567,50.3567 C12.5517,50.1607 12.8677,50.1607 13.0637,50.3567 L14.8237,52.1157 C15.0187,52.3117 15.0187,52.6277 14.8237,52.8237 C14.7257,52.9207 14.5977,52.9697 14.4697,52.9697" id="Fill-15" fill="#306BFF"></path>
                <path d="M15.5,50.5 L13,50.5 C12.724,50.5 12.5,50.276 12.5,50 C12.5,49.724 12.724,49.5 13,49.5 L15.5,49.5 C15.776,49.5 16,49.724 16,50 C16,50.276 15.776,50.5 15.5,50.5" id="Fill-17" fill="#306BFF"></path>
                <path d="M12.71,49.79 C12.582,49.79 12.454,49.741 12.356,49.644 C12.161,49.448 12.161,49.132 12.356,48.936 L14.116,47.177 C14.312,46.981 14.628,46.981 14.823,47.177 C15.019,47.372 15.019,47.688 14.823,47.884 L13.064,49.644 C12.966,49.741 12.838,49.79 12.71,49.79" id="Fill-19" fill="#306BFF"></path>
                <path d="M12,49.5 C11.724,49.5 11.5,49.276 11.5,49 L11.5,46.5 C11.5,46.224 11.724,46 12,46 C12.276,46 12.5,46.224 12.5,46.5 L12.5,49 C12.5,49.276 12.276,49.5 12,49.5" id="Fill-21" fill="#306BFF"></path>
                <path d="M11.29,49.79 C11.162,49.79 11.034,49.741 10.936,49.644 L9.177,47.884 C8.981,47.688 8.981,47.372 9.177,47.177 C9.372,46.981 9.688,46.981 9.884,47.177 L11.644,48.936 C11.839,49.132 11.839,49.448 11.644,49.644 C11.546,49.741 11.418,49.79 11.29,49.79" id="Fill-23" fill="#306BFF"></path>
                <path d="M11,50.5 L8.5,50.5 C8.224,50.5 8,50.276 8,50 C8,49.724 8.224,49.5 8.5,49.5 L11,49.5 C11.276,49.5 11.5,49.724 11.5,50 C11.5,50.276 11.276,50.5 11,50.5" id="Fill-25" fill="#306BFF"></path>
                <path d="M9.5303,52.9697 C9.4023,52.9697 9.2743,52.9207 9.1763,52.8237 C8.9813,52.6277 8.9813,52.3117 9.1763,52.1157 L10.9363,50.3567 C11.1323,50.1607 11.4483,50.1607 11.6433,50.3567 C11.8393,50.5517 11.8393,50.8677 11.6433,51.0637 L9.8843,52.8237 C9.7863,52.9207 9.6583,52.9697 9.5303,52.9697" id="Fill-27" fill="#306BFF"></path>
                <path d="M19,22.25 C18.035,22.25 17.25,23.035 17.25,24 L17.25,38 C17.25,38.965 18.035,39.75 19,39.75 L24.25,39.75 L24.25,46.217 L31.524,39.75 L41,39.75 C41.965,39.75 42.75,38.965 42.75,38 L42.75,24 C42.75,23.035 41.965,22.25 41,22.25 L19,22.25 Z M21.75,51.783 L21.75,42.25 L19,42.25 C16.656,42.25 14.75,40.344 14.75,38 L14.75,24 C14.75,21.657 16.656,19.75 19,19.75 L41,19.75 C43.344,19.75 45.25,21.657 45.25,24 L45.25,38 C45.25,40.344 43.344,42.25 41,42.25 L32.476,42.25 L21.75,51.783 Z" id="Fill-29" fill="#306BFF"></path>
                <path d="M48,36.4004 C47.447,36.4004 47,35.9534 47,35.4004 L47,20.6004 C47,19.1664 45.834,18.0004 44.4,18.0004 L23.6,18.0004 C23.047,18.0004 22.6,17.5524 22.6,17.0004 C22.6,16.4474 23.047,16.0004 23.6,16.0004 L44.4,16.0004 C46.937,16.0004 49,18.0634 49,20.6004 L49,35.4004 C49,35.9534 48.553,36.4004 48,36.4004" id="Fill-31" fill="#306BFF"></path>
                <path d="M22,29.7998 C21.338,29.7998 20.8,30.3388 20.8,30.9998 C20.8,31.6618 21.338,32.1998 22,32.1998 C22.662,32.1998 23.2,31.6618 23.2,30.9998 C23.2,30.3388 22.662,29.7998 22,29.7998 M22,33.7998 C20.456,33.7998 19.2,32.5438 19.2,30.9998 C19.2,29.4558 20.456,28.1998 22,28.1998 C23.544,28.1998 24.8,29.4558 24.8,30.9998 C24.8,32.5438 23.544,33.7998 22,33.7998" id="Fill-33" fill="#306BFF"></path>
                <path d="M30,29.7998 C29.338,29.7998 28.8,30.3388 28.8,30.9998 C28.8,31.6618 29.338,32.1998 30,32.1998 C30.662,32.1998 31.2,31.6618 31.2,30.9998 C31.2,30.3388 30.662,29.7998 30,29.7998 M30,33.7998 C28.456,33.7998 27.2,32.5438 27.2,30.9998 C27.2,29.4558 28.456,28.1998 30,28.1998 C31.544,28.1998 32.8,29.4558 32.8,30.9998 C32.8,32.5438 31.544,33.7998 30,33.7998" id="Fill-35" fill="#306BFF"></path>
                <path d="M38,29.7998 C37.338,29.7998 36.8,30.3388 36.8,30.9998 C36.8,31.6618 37.338,32.1998 38,32.1998 C38.662,32.1998 39.2,31.6618 39.2,30.9998 C39.2,30.3388 38.662,29.7998 38,29.7998 M38,33.7998 C36.456,33.7998 35.2,32.5438 35.2,30.9998 C35.2,29.4558 36.456,28.1998 38,28.1998 C39.544,28.1998 40.8,29.4558 40.8,30.9998 C40.8,32.5438 39.544,33.7998 38,33.7998" id="Fill-37" fill="#306BFF"></path>
            </g>
        </g>
    </g>
</svg>