<?xml version="1.0" encoding="UTF-8"?>
<svg width="64px" height="64px" viewBox="0 0 64 64" version="1.1" xmlns="http://www.w3.org/2000/svg" xmlns:xlink="http://www.w3.org/1999/xlink">
    <!-- Generator: Sketch 64 (93537) - https://sketch.com -->
    <title>应用中心-订单详情</title>
    <desc>Created with Sketch.</desc>
    <g id="城商行" stroke="none" stroke-width="1" fill="none" fill-rule="evenodd">
        <g id="切图" transform="translate(-1381.000000, -150.000000)">
            <g id="应用中心-订单详情" transform="translate(1381.000000, 150.000000)">
                <path d="M64,32 C64,49.673 49.673,64 32,64 C14.327,64 0,49.673 0,32 C0,14.327 14.327,0 32,0 C49.673,0 64,14.327 64,32" id="Fill-1" fill="#F4F7FF"></path>
                <path d="M43,47.25 L21,47.25 C18.105,47.25 15.75,44.895 15.75,42 L15.75,20 C15.75,17.105 18.105,14.75 21,14.75 L24.786,14.75 C25.477,14.75 26.036,15.31 26.036,16 C26.036,16.69 25.477,17.25 24.786,17.25 L21,17.25 C19.483,17.25 18.25,18.483 18.25,20 L18.25,42 C18.25,43.517 19.483,44.75 21,44.75 L43,44.75 C44.517,44.75 45.75,43.517 45.75,42 L45.75,20 C45.75,18.483 44.517,17.25 43,17.25 L39.5,17.25 C38.81,17.25 38.25,16.69 38.25,16 C38.25,15.31 38.81,14.75 39.5,14.75 L43,14.75 C45.895,14.75 48.25,17.105 48.25,20 L48.25,42 C48.25,44.895 45.895,47.25 43,47.25" id="Fill-3" fill="#306BFF"></path>
                <path d="M37.5,27.2226 L25.5,27.2226 C25.059,27.2226 24.7,26.8646 24.7,26.4226 C24.7,25.9806 25.059,25.6226 25.5,25.6226 L37.5,25.6226 C37.941,25.6226 38.3,25.9806 38.3,26.4226 C38.3,26.8646 37.941,27.2226 37.5,27.2226" id="Fill-5" fill="#306BFF"></path>
                <path d="M37.5,32.2998 L25.5,32.2998 C25.059,32.2998 24.7,31.9418 24.7,31.4998 C24.7,31.0578 25.059,30.6998 25.5,30.6998 L37.5,30.6998 C37.941,30.6998 38.3,31.0578 38.3,31.4998 C38.3,31.9418 37.941,32.2998 37.5,32.2998" id="Fill-7" fill="#306BFF"></path>
                <path d="M32.8848,37.3769 L25.4998,37.3769 C25.0588,37.3769 24.6998,37.0189 24.6998,36.5769 C24.6998,36.1359 25.0588,35.7769 25.4998,35.7769 L32.8848,35.7769 C33.3258,35.7769 33.6848,36.1359 33.6848,36.5769 C33.6848,37.0189 33.3258,37.3769 32.8848,37.3769" id="Fill-9" fill="#306BFF"></path>
                <path d="M15.5,9 C14.673,9 14,9.673 14,10.5 C14,11.327 14.673,12 15.5,12 C16.327,12 17,11.327 17,10.5 C17,9.673 16.327,9 15.5,9 M15.5,13 C14.121,13 13,11.878 13,10.5 C13,9.122 14.121,8 15.5,8 C16.879,8 18,9.122 18,10.5 C18,11.878 16.879,13 15.5,13" id="Fill-11" fill="#306BFF"></path>
                <path d="M51.167,11.6665 L49.667,11.6665 L49.667,10.1665 C49.667,9.8905 49.443,9.6665 49.167,9.6665 C48.891,9.6665 48.667,9.8905 48.667,10.1665 L48.667,11.6665 L47.167,11.6665 C46.891,11.6665 46.667,11.8905 46.667,12.1665 C46.667,12.4425 46.891,12.6665 47.167,12.6665 L48.667,12.6665 L48.667,14.1665 C48.667,14.4425 48.891,14.6665 49.167,14.6665 C49.443,14.6665 49.667,14.4425 49.667,14.1665 L49.667,12.6665 L51.167,12.6665 C51.443,12.6665 51.667,12.4425 51.667,12.1665 C51.667,11.8905 51.443,11.6665 51.167,11.6665" id="Fill-13" fill="#306BFF"></path>
                <path d="M57,29 C57,30.104 56.104,31 55,31 C53.896,31 53,30.104 53,29 C53,27.896 53.896,27 55,27 C56.104,27 57,27.896 57,29" id="Fill-15" fill="#306BFF"></path>
                <path d="M50,50 C50,50.553 49.553,51 49,51 C48.447,51 48,50.553 48,50 C48,49.447 48.447,49 49,49 C49.553,49 50,49.447 50,50" id="Fill-17" fill="#306BFF"></path>
                <path d="M11.7627,49.5684 C11.7397,49.4914 11.7037,49.4174 11.6437,49.3564 C11.5827,49.2964 11.5087,49.2604 11.4317,49.2374 C11.4717,49.1664 11.4997,49.0884 11.4997,49.0004 C11.4997,48.9124 11.4717,48.8344 11.4317,48.7624 C11.5087,48.7394 11.5827,48.7044 11.6437,48.6434 C11.7037,48.5834 11.7397,48.5084 11.7627,48.4314 C11.8337,48.4714 11.9117,48.5004 11.9997,48.5004 C12.0877,48.5004 12.1657,48.4714 12.2377,48.4314 C12.2607,48.5084 12.2957,48.5834 12.3567,48.6434 C12.4167,48.7044 12.4917,48.7394 12.5687,48.7624 C12.5287,48.8344 12.4997,48.9124 12.4997,49.0004 C12.4997,49.0884 12.5287,49.1664 12.5687,49.2374 C12.4917,49.2604 12.4167,49.2964 12.3567,49.3564 C12.2957,49.4174 12.2607,49.4914 12.2377,49.5684 C12.1657,49.5284 12.0877,49.5004 11.9997,49.5004 C11.9117,49.5004 11.8337,49.5284 11.7627,49.5684 M15.4997,48.5004 L13.2067,48.5004 L14.8237,46.8834 C15.0187,46.6884 15.0187,46.3724 14.8237,46.1764 C14.6277,45.9814 14.3117,45.9814 14.1167,46.1764 L12.4997,47.7934 L12.4997,45.5004 C12.4997,45.2234 12.2767,45.0004 11.9997,45.0004 C11.7237,45.0004 11.4997,45.2234 11.4997,45.5004 L11.4997,47.7934 L9.8837,46.1764 C9.6887,45.9814 9.3717,45.9814 9.1767,46.1764 C8.9817,46.3724 8.9817,46.6884 9.1767,46.8834 L10.7927,48.5004 L8.4997,48.5004 C8.2237,48.5004 7.9997,48.7234 7.9997,49.0004 C7.9997,49.2764 8.2237,49.5004 8.4997,49.5004 L10.7927,49.5004 L9.1767,51.1164 C8.9817,51.3114 8.9817,51.6284 9.1767,51.8234 C9.2747,51.9214 9.4027,51.9694 9.5307,51.9694 C9.6587,51.9694 9.7857,51.9214 9.8837,51.8234 L11.4997,50.2074 L11.4997,52.5004 C11.4997,52.7764 11.7237,53.0004 11.9997,53.0004 C12.2767,53.0004 12.4997,52.7764 12.4997,52.5004 L12.4997,50.2074 L14.1167,51.8234 C14.2137,51.9214 14.3417,51.9694 14.4697,51.9694 C14.5977,51.9694 14.7257,51.9214 14.8237,51.8234 C15.0187,51.6284 15.0187,51.3114 14.8237,51.1164 L13.2067,49.5004 L15.4997,49.5004 C15.7767,49.5004 15.9997,49.2764 15.9997,49.0004 C15.9997,48.7234 15.7767,48.5004 15.4997,48.5004" id="Fill-19" fill="#306BFF"></path>
                <path d="M36,13.2002 C35.559,13.2002 35.2,13.5582 35.2,14.0002 L35.2,15.0002 L28.8,15.0002 L28.8,14.0002 C28.8,13.5582 28.441,13.2002 28,13.2002 C27.559,13.2002 27.2,13.5582 27.2,14.0002 L27.2,18.0002 C27.2,18.4422 27.559,18.8002 28,18.8002 C28.441,18.8002 28.8,18.4422 28.8,18.0002 L28.8,17.0002 L35.2,17.0002 L35.2,18.0002 C35.2,18.4422 35.559,18.8002 36,18.8002 C36.441,18.8002 36.8,18.4422 36.8,18.0002 L36.8,14.0002 C36.8,13.5582 36.441,13.2002 36,13.2002" id="Fill-21" fill="#306BFF"></path>
            </g>
        </g>
    </g>
</svg>